<?xml version="1.0" encoding="UTF-8" standalone="no"?>
<svg
   xmlns:dc="http://purl.org/dc/elements/1.1/"
   xmlns:cc="http://creativecommons.org/ns#"
   xmlns:rdf="http://www.w3.org/1999/02/22-rdf-syntax-ns#"
   xmlns:svg="http://www.w3.org/2000/svg"
   xmlns="http://www.w3.org/2000/svg"
   xmlns:sodipodi="http://sodipodi.sourceforge.net/DTD/sodipodi-0.dtd"
   xmlns:inkscape="http://www.inkscape.org/namespaces/inkscape"
   version="1.1"
   id="svg154"
   width="984"
   height="620"
   viewBox="0 0 984 620"
   sodipodi:docname="2023-01-09-132440_1280x1024_scrot.png"
   inkscape:version="1.0.2 (e86c870879, 2021-01-15)">
  <metadata
     id="metadata160">
    <rdf:RDF>
      <cc:Work
         rdf:about="">
        <dc:format>image/svg+xml</dc:format>
        <dc:type
           rdf:resource="http://purl.org/dc/dcmitype/StillImage" />
        <dc:title></dc:title>
      </cc:Work>
    </rdf:RDF>
  </metadata>
  <defs
     id="defs158" />
  <sodipodi:namedview
     pagecolor="#ffffff"
     bordercolor="#666666"
     borderopacity="1"
     objecttolerance="10"
     gridtolerance="10"
     guidetolerance="10"
     inkscape:pageopacity="0"
     inkscape:pageshadow="2"
     inkscape:window-width="1280"
     inkscape:window-height="959"
     id="namedview156"
     showgrid="false"
     inkscape:zoom="1.1473577"
     inkscape:cx="512.35714"
     inkscape:cy="439.32973"
     inkscape:window-x="0"
     inkscape:window-y="36"
     inkscape:window-maximized="1"
     inkscape:current-layer="g162" />
  <g
     inkscape:groupmode="layer"
     inkscape:label="Image"
     id="g162">
    <path
       style="fill:#ff8080;stroke-width:1.33333"
       d="m 304.99839,593.90513 c -2.07387,-2.75 -4.59231,-5.62648 -5.59654,-6.39219 -2.49446,-1.90197 -1.54892,-9.96345 1.38403,-11.79986 3.3994,-2.12848 6.90931,0.54961 7.41781,5.65985 l 0.41782,4.19887 h 15.91552 c 11.0225,0 15.91552,-0.4672 15.91552,-1.51968 0,-0.83582 1.05,-2.33626 2.33333,-3.33431 2.22223,-1.72823 2.22223,-1.88124 0,-3.21325 -1.28333,-0.76923 -2.33333,-2.26879 -2.33333,-3.33235 0,-1.16641 -1.3041,-1.93375 -3.28643,-1.93375 -1.92181,0 -3.87901,-1.10726 -4.71357,-2.66666 -0.78494,-1.46667 -2.60096,-2.66667 -4.03562,-2.66667 -1.43465,0 -3.35786,-1.2 -4.27381,-2.66667 -1.38843,-2.22322 -3.10937,-2.66666 -10.34896,-2.66666 -7.86104,0 -9.03052,-0.36756 -12.34595,-3.88026 -3.2361,-3.42866 -3.66233,-4.90949 -3.66233,-12.72388 0,-8.29432 0.34121,-9.29556 5.49353,-16.11974 l 5.49352,-7.27612 h 17.58404 17.58404 l 3.92243,5.26028 c 2.40339,3.2231 5.21335,5.41765 7.25577,5.66666 3.00152,0.36594 3.33334,1.00364 3.33334,6.40639 0,5.49572 -0.29638,6.03432 -3.52627,6.40835 -2.82261,0.32686 -4.28596,-0.66519 -7.33333,-4.97154 l -3.80707,-5.37988 -13.66667,-0.0285 c -11.39613,-0.0237 -13.66666,0.31076 -13.66666,2.01337 0,1.12303 -0.9,2.38722 -2,2.80932 -1.14004,0.43748 -2,2.42606 -2,4.62483 v 3.85735 h 12.12482 c 11.0035,0 12.18932,0.24662 12.82218,2.66666 0.42413,1.62188 1.81869,2.66667 3.5594,2.66667 1.90897,0 4.83349,2.55307 8.78213,7.66667 3.25603,4.21666 6.69813,8.14648 7.64909,8.73292 2.36012,1.45542 2.35079,16.42028 -0.0107,17.86749 -0.9571,0.58644 -3.42831,3.31625 -5.49159,6.06625 l -3.75184,5.00007 h -19.68349 -19.6835 z m 87.77813,3.45731 c -1.14593,-1.14594 -1.65731,-6.85474 -1.65731,-18.50175 v -16.84445 l -3.96296,-3.88888 c -2.17962,-2.1389 -3.97962,-4.5889 -4,-5.44446 -0.0204,-0.85554 -0.5773,-1.75554 -1.23761,-2 -2.8134,-1.04149 -16.13276,-19.82173 -16.13276,-22.7471 0,-3.6323 2.26255,-6.364 5.271,-6.364 2.31005,0 9.39567,6.94829 9.39567,9.21358 0,0.7992 0.46425,1.45308 1.03166,1.45308 0.56743,0 3.71743,3.58734 7,7.97184 3.28259,4.38452 6.79954,7.98452 7.81544,8 2.02323,0.0308 8.1529,-6.01434 8.1529,-8.04053 0,-0.69555 0.4656,-1.26464 1.03465,-1.26464 0.56905,0 4.00105,-3.92712 7.62665,-8.72692 5.44215,-7.20468 7.18042,-8.65828 9.96535,-8.33333 2.94189,0.34324 3.42587,1.11992 3.78393,6.07245 0.30234,4.18153 -0.1371,5.88904 -1.66666,6.47599 -1.14248,0.43841 -2.07726,1.6031 -2.07726,2.58821 0,0.98511 -0.76497,2.27091 -1.69993,2.85735 -0.93497,0.58644 -4.93997,5.26625 -8.90003,10.39958 -3.96004,5.13334 -7.97697,9.98626 -8.92652,10.78426 -1.21749,1.0232 -1.83656,6.7226 -2.09998,19.33333 l -0.37354,17.88241 -3.34269,0.39064 c -1.83849,0.21484 -4.08849,-0.35516 -5,-1.26666 z m 46.67603,-5.80475 c -3.11667,-4.03551 -5.66667,-8.75976 -5.66667,-10.49833 0,-3.97767 2.93659,-6.48887 6.92661,-5.92324 2.49272,0.35336 3.15158,1.38034 3.48722,5.43568 l 0.41381,5 15.58619,-0.0419 c 15.01389,-0.0404 15.67413,-0.16276 17.98174,-3.33333 2.30523,-3.16728 2.30523,-3.4156 0,-6.58288 -1.34298,-1.84522 -3.76858,-3.30984 -5.5204,-3.33334 -1.98186,-0.0265 -3.37989,-1.01728 -3.82217,-2.70856 -0.4476,-1.7116 -1.81869,-2.66666 -3.82827,-2.66666 -1.7663,0 -3.75293,-1.16227 -4.55806,-2.66667 -1.20963,-2.26021 -2.79179,-2.66667 -10.38024,-2.66671 -8.60751,-4e-5 -9.09463,-0.17742 -12.61976,-4.59542 -3.08908,-3.87148 -3.66667,-5.86536 -3.66667,-12.65757 0,-7.44512 0.43373,-8.62382 5.66667,-15.3995 l 5.66666,-7.33728 17.33767,-0.005 17.33765,-0.005 3.66235,3.88025 c 2.01428,2.13413 3.66233,4.49428 3.66233,5.24477 0,0.75048 1.65,1.55438 3.66667,1.78642 3.39429,0.39054 3.66667,0.8676 3.66667,6.42189 0,5.45699 -0.31126,6.0362 -3.43918,6.39995 -2.72992,0.31746 -4.21089,-0.71367 -7.18133,-5 l -3.74216,-5.40013 h -12.90125 c -12.83247,0 -12.91727,0.0216 -15.90448,4.06208 -5.26439,7.12045 -3.75298,8.55104 9.49745,8.98955 9.96211,0.32969 11.83335,0.76045 13.03191,3 0.76974,1.43826 2.43037,2.61504 3.69028,2.61504 2.03844,0 9.61542,6.67014 9.61542,8.46462 0,0.38727 1.8,2.67487 4,5.08356 3.43868,3.76488 4,5.41868 4,11.78515 0,6.28369 -0.577,8.03744 -3.80845,11.57543 -2.09464,2.29333 -4.17581,5.12705 -4.62481,6.29714 -0.69824,1.81958 -3.76479,2.1267 -21.19156,2.12235 l -20.37518,-0.005 -5.66666,-7.33728 z m 85.63326,5.68077 c -0.339,-0.91666 -0.77016,-13.96666 -0.95814,-29 l -0.34179,-27.33333 -10,-0.66667 -10,-0.66666 v -8.66667 -8.66667 l 28.49752,-0.36033 c 19.89677,-0.25157 29.05159,0.0995 30.33333,1.16327 2.281,1.89305 2.45464,13.37824 0.23582,15.59706 -0.93072,0.93072 -5.39259,1.6 -10.66667,1.6 h -9.06667 v 27.73334 c 0,19.79258 -0.45812,28.19145 -1.6,29.33333 -2.16232,2.16232 -15.62928,2.10768 -16.4334,-0.0667 z m 46.63622,-0.0189 c -0.35575,-0.92708 -0.48692,-18.17708 -0.29148,-38.33333 l 0.35533,-36.64777 28.49752,-0.36033 c 30.62072,-0.38717 32.16915,-0.086 32.16915,6.25692 0,6.34209 -1.57623,6.77008 -24.93334,6.77008 h -21.73333 v 9.29229 9.2923 l 16.33333,0.37437 16.33334,0.37437 v 6 6 l -16.33334,0.37438 -16.33333,0.37437 v 9.29229 9.2923 h 21.73333 c 23.2896,0 24.93334,0.4395 24.93334,6.66666 0,1.90667 -0.72,4.18667 -1.6,5.06667 -2.3511,2.35109 -58.22651,2.27021 -59.13052,-0.0856 z m 68.28608,0.79669 c -1.29095,-1.29093 -1.05307,-72.78793 0.24901,-74.84054 0.77763,-1.22588 3.97452,-1.61411 10.97957,-1.33334 l 9.88252,0.39612 0.66667,7.33331 0.66667,7.33333 h 7.33333 7.33333 l 0.66667,-7.33333 0.66667,-7.33334 h 10.66666 10.66667 v 38 38 l -5.09305,0.41938 c -8.65043,0.71228 -8.90695,-0.0149 -8.90695,-25.2493 v -22.50341 h -3.28505 c -3.24047,0 -3.29023,0.17644 -3.66667,13 l -0.38161,13 h -8.66667 -8.66667 l -0.38161,-13 c -0.37644,-12.82356 -0.4262,-13 -3.66667,-13 h -3.28505 v 22.4 c 0,15.64444 -0.48253,22.88253 -1.6,24 -1.69297,1.69297 -10.67161,2.21727 -12.17777,0.71111 z M 237.45255,467.04873 c -2.01667,-2.14725 -3.66667,-4.4938 -3.66667,-5.21453 0,-0.72074 -0.9,-1.65579 -2,-2.07791 -2.77435,-1.06461 -3.00147,-48.11183 -0.24033,-49.78491 0.96781,-0.58644 4.35226,-4.53264 7.52101,-8.76932 l 5.76135,-7.70308 18.14565,0.36975 18.14565,0.36973 0.66667,4.66667 c 0.50269,3.51883 1.38075,4.76835 3.56984,5.08004 3.99741,0.5692 6.03697,3.41267 5.52651,7.70485 -0.95206,8.00503 -9.3742,7.52024 -10.18083,-0.58602 l -0.41781,-4.19887 h -15.91552 -15.91552 v 25.33333 25.33334 h 15.91552 15.91552 l 0.41781,-4.19887 c 0.80663,-8.10627 9.22877,-8.59105 10.18083,-0.58603 0.51046,4.29219 -1.5291,7.13566 -5.52651,7.70486 -2.18909,0.31169 -3.06715,1.56121 -3.56984,5.08004 l -0.66667,4.66666 -20,0.35719 -20,0.35719 z m 61.22222,2.96751 c -0.48889,-0.48888 -0.88889,-7.61542 -0.88889,-15.83674 0,-11.66038 0.43985,-15.3129 2,-16.6077 1.1,-0.91292 2,-3.31292 2,-5.33334 0,-2.02041 0.9,-4.42041 2,-5.33333 1.1,-0.91292 2,-3.29339 2,-5.28995 0,-1.99654 1.2,-4.71606 2.66667,-6.04338 1.46666,-1.32732 2.66713,-3.97031 2.6677,-5.87332 6.3e-4,-2.06547 1.88151,-5.57287 4.66667,-8.70222 2.56609,-2.88321 4.66563,-5.73321 4.66563,-6.33333 0,-0.60012 3.61882,-1.09113 8.04184,-1.09113 6.13241,0 8.23569,0.50513 8.85822,2.12742 0.449,1.1701 2.53018,4.00382 4.62482,6.29715 2.16064,2.3656 3.80845,5.68243 3.80845,7.66592 0,1.92292 1.2,4.58219 2.66667,5.90951 1.46666,1.32732 2.66666,4.04684 2.66666,6.04338 0,1.99656 0.9,4.37703 2,5.28995 1.1,0.91292 2,3.32219 2,5.35395 0,2.08681 0.88814,4.03489 2.04126,4.47738 1.70854,0.65563 1.98018,3.44962 1.66666,17.14266 -0.36496,15.93869 -0.45361,16.37054 -3.44797,16.79502 -5.36556,0.76063 -6.92661,-1.92854 -6.92661,-11.93226 v -9.17008 h -20 -20 v 9.06666 c 0,5.27408 -0.66928,9.73595 -1.6,10.66667 -1.72468,1.72468 -6.72906,2.15984 -8.17778,0.71111 z m 41.77778,-37.63512 c 0,-2.19878 -0.85996,-4.18735 -2,-4.62483 -1.14354,-0.43881 -2,-2.42841 -2,-4.64605 0,-2.13323 -0.86532,-4.59674 -1.92294,-5.47448 -1.0576,-0.87774 -2.1076,-3.5012 -2.33333,-5.82992 -0.34099,-3.51798 -0.97413,-4.23404 -3.74373,-4.23404 -2.7696,0 -3.40275,0.71606 -3.74374,4.23404 -0.22573,2.32872 -1.27573,4.95218 -2.33333,5.82992 -1.05761,0.87774 -1.92293,3.34125 -1.92293,5.47448 0,2.21764 -0.85647,4.20724 -2,4.64605 -1.14004,0.43748 -2,2.42605 -2,4.62483 v 3.85734 h 12 12 z m 30.895,31.17898 c -6.14848,-7.87248 -6.98942,-13.07461 -2.56167,-15.847 3.3994,-2.1285 6.90931,0.54958 7.41781,5.65983 l 0.41782,4.19887 15.58218,-0.0419 c 15.00966,-0.0404 15.6702,-0.16284 17.97776,-3.33333 2.30523,-3.16728 2.30523,-3.4156 0,-6.58288 -1.31756,-1.81028 -3.72446,-3.31028 -5.34866,-3.33334 -1.6242,-0.0231 -3.59531,-1.24192 -4.38024,-2.70858 -0.78494,-1.46664 -2.60096,-2.66664 -4.03562,-2.66664 -1.43465,0 -3.35786,-1.2 -4.27381,-2.66667 -1.39377,-2.23177 -3.10937,-2.66666 -10.51972,-2.66666 -8.5196,0 -8.98635,-0.17307 -12.34593,-4.57771 -2.8907,-3.78988 -3.49159,-5.98705 -3.49159,-12.76692 0,-7.60337 0.40413,-8.70668 5.64911,-15.42229 l 5.6491,-7.23308 h 17.59775 17.59776 l 3.75315,5.26269 c 2.3494,3.29437 4.99985,5.4138 7.08646,5.66667 3.00188,0.3638 3.33334,1.00058 3.33334,6.40397 0,5.42293 -0.32375,6.03779 -3.3661,6.39289 -2.6107,0.30472 -4.2564,-0.81026 -7.33333,-4.96848 l -3.96724,-5.36137 -12.51377,-0.0315 c -11.72255,-0.0296 -12.71312,0.18359 -15.66667,3.37051 -1.73409,1.87112 -3.15289,4.87112 -3.15289,6.66667 0,3.22118 0.15909,3.26464 11.95309,3.26464 10.58848,0 12.11601,0.30444 13.38024,2.66666 0.78493,1.46667 2.53483,2.66667 3.88865,2.66667 1.35383,0 4.14964,2.25 6.21291,5 2.06328,2.75 4.53449,5.47981 5.49159,6.06625 0.9571,0.58644 1.74018,1.87224 1.74018,2.85735 0,0.98511 0.9,2.13645 2,2.55857 1.47347,0.56542 2,2.89564 2,8.85116 0,5.95552 -0.52653,8.28575 -2,8.85116 -1.1,0.42212 -2,1.35718 -2,2.07791 0,0.72073 -1.64805,3.05655 -3.66233,5.19068 l -3.66235,3.88023 h -19.35521 -19.35523 z m 68.105,-0.003 c -3.11667,-4.03517 -5.66667,-8.75942 -5.66667,-10.498 0,-3.97766 2.93659,-6.48886 6.92661,-5.92324 2.49272,0.35336 3.15158,1.38035 3.48722,5.43568 l 0.41381,5 15.58619,-0.0419 c 15.01389,-0.0404 15.67413,-0.16276 17.98174,-3.33334 2.30523,-3.16728 2.30523,-3.4156 0,-6.58288 -1.34298,-1.84521 -3.76858,-3.30984 -5.5204,-3.33333 -1.98186,-0.0265 -3.37989,-1.01728 -3.82217,-2.70856 -0.4476,-1.7116 -1.81869,-2.66667 -3.82827,-2.66667 -1.7663,0 -3.75293,-1.16226 -4.55806,-2.66666 -1.20963,-2.26022 -2.79179,-2.66667 -10.38024,-2.66671 -8.60751,-4e-5 -9.09463,-0.17743 -12.61976,-4.59543 -3.08908,-3.87146 -3.66667,-5.86534 -3.66667,-12.65756 0,-7.44512 0.43373,-8.62381 5.66667,-15.39949 l 5.66666,-7.33728 17.33767,-0.005 17.33765,-0.005 3.66235,3.88026 c 2.01428,2.13413 3.66233,4.49428 3.66233,5.24477 0,0.75048 1.65,1.55437 3.66667,1.78641 3.39429,0.39055 3.66667,0.8676 3.66667,6.4219 0,5.45698 -0.31126,6.0362 -3.43918,6.39994 -2.72992,0.31747 -4.21089,-0.71366 -7.18133,-5 l -3.74216,-5.39988 h -12.90125 c -12.83247,0 -12.91727,0.0216 -15.90448,4.06208 -5.26439,7.12045 -3.75298,8.55104 9.49745,8.98955 9.96211,0.32969 11.83335,0.76045 13.03191,3 0.76974,1.43826 2.43037,2.61504 3.69028,2.61504 2.03844,0 9.61542,6.67014 9.61542,8.46462 0,0.38727 1.8,2.67487 4,5.08356 3.43868,3.76488 4,5.41868 4,11.78515 0,6.28369 -0.577,8.03744 -3.80845,11.57543 -2.09464,2.29333 -4.17581,5.12705 -4.62481,6.29714 -0.69824,1.81958 -3.76479,2.1267 -21.19156,2.12235 l -20.37518,-0.005 z m 64.26948,5.66185 c -0.35575,-0.92708 -0.48692,-18.17708 -0.29148,-38.33333 l 0.35533,-36.64716 28.49752,-0.36033 c 19.89677,-0.25157 29.05159,0.0995 30.33333,1.16327 2.33615,1.93882 2.38235,8.41696 0.0737,10.33297 -1.07708,0.89389 -10.27766,1.60529 -23.66667,1.82992 l -21.90459,0.36751 v 8.66666 8.66667 l 16.66671,0.66667 16.66667,0.66666 v 6 6 l -16.66667,0.66667 -16.66667,0.66667 v 8.66666 8.66667 l 21.90455,0.36751 c 13.38901,0.22462 22.58959,0.93602 23.66667,1.82992 2.19962,1.82553 2.29878,8.0659 0.16212,10.20257 -2.3511,2.35109 -58.22651,2.27021 -59.13052,-0.0856 z m 89.36378,0.0189 c -0.339,-0.91642 -0.77016,-13.96642 -0.95814,-28.99976 l -0.34179,-27.33296 -10,-0.66667 -10,-0.66666 v -8.66667 -8.66667 l 28.49752,-0.36033 c 19.89677,-0.25157 29.05159,0.0995 30.33333,1.16327 2.281,1.89305 2.45464,13.37824 0.23582,15.59706 -0.93072,0.93072 -5.39259,1.6 -10.66667,1.6 h -9.06667 v 27.73334 c 0,19.79258 -0.45812,28.19145 -1.6,29.33333 -2.16232,2.16232 -15.62928,2.10768 -16.4334,-0.0667 z m 68.31202,0.83418 c -0.51991,-0.51967 -0.94528,-13.7198 -0.94528,-29.3334 v -28.38799 l -10.33334,-0.38943 -10.33333,-0.38941 -0.42105,-5.89306 c -0.23159,-3.24117 -0.0673,-7.30261 0.3651,-9.02542 l 0.78619,-3.13238 29.63488,0.35876 29.63488,0.35876 v 8.66667 8.66667 l -10.30748,0.38896 -10.30749,0.38894 -0.35918,28.94439 -0.35918,28.94437 -8.05472,0.38972 c -4.4301,0.21435 -8.4801,-0.0356 -9,-0.55554 z m 47.34657,-0.74232 c -2.50587,-2.50587 -2.30827,-72.19843 0.21063,-74.28892 1.28174,-1.06376 10.43656,-1.41484 30.33333,-1.16327 l 28.49752,0.36094 v 6 6 l -23,0.36482 -23,0.36482 v 9.30184 9.30186 h 15.73333 c 16.93028,0 18.93334,0.7053 18.93334,6.66666 0,5.96136 -2.00306,6.66667 -18.93334,6.66667 h -15.73333 v 9.30185 9.30184 l 23,0.36483 23,0.36481 v 6 6 l -28.70815,0.35852 c -21.20725,0.26486 -29.13277,-0.0661 -30.33333,-1.26666 z M 21.341436,304.6829 c -0.488889,-0.48888 -0.888889,-67.92469 -0.888889,-149.85734 0,-134.609755 0.203286,-149.0464551 2.10905,-149.7777651 1.159978,-0.44513 31.639978,-0.80932 67.733332,-0.80932 49.263331,0 66.023181,0.3989 67.224281,1.6 1.1,1.1 1.6,7.7538401 1.6,21.2922901 v 19.6923 l 16.33334,0.37437 16.33333,0.37437 0.36719,21 0.3672,21 h 15.69946 c 10.43294,0 16.23622,0.53674 17.29948,1.6 2.30387,2.30386 2.30387,125.162795 0,127.466655 -1.06326,1.06327 -6.86654,1.6 -17.29948,1.6 h -15.69946 l -0.3672,21 -0.36719,21 -16.33333,0.37438 -16.33334,0.37437 v 19.69229 c 0,13.53846 -0.5,20.1923 -1.6,21.2923 -1.20189,1.20189 -18.2321,1.6 -68.444441,1.6 -36.764445,0 -67.244445,-0.4 -67.733333,-0.8889 z M 156.45255,240.50513 c 0,-13.57037 0.49969,-20.23303 1.6,-21.33333 1.06365,-1.06366 6.87408,-1.6 17.33333,-1.6 h 15.73333 V 154.90513 92.238465 h -15.73333 c -10.45925,0 -16.26968,-0.53634 -17.33333,-1.59999 -1.10031,-1.1003 -1.6,-7.76296 -1.6,-21.33334 v -19.73333 h -50 -50.000003 V 154.90513 260.23846 h 50.000003 50 z m 104.27493,63.47493 c -2.51915,-2.51914 -2.31715,-296.1600851 0.20517,-298.2534251 1.31984,-1.09536 29.35567,-1.41199 103,-1.16326 l 101.18656,0.34176 v 22.0000001 22 l -85,0.34321 -85,0.3432 v 41.31125 41.311225 l 67.66667,0.34556 67.66667,0.34555 v 22 22 l -67.66667,0.34555 -67.66667,0.34556 v 41.31124 41.31125 l 85,0.3432 85,0.3432 v 22 22 l -101.39173,0.3416 c -77.75411,0.26195 -101.76668,-0.0333 -103,-1.26667 z m 272.61396,0.70284 c -0.48889,-0.48888 -0.88889,-10.08888 -0.88889,-21.33333 v -20.44444 h -15.73334 c -10.45925,0 -16.26968,-0.53635 -17.33333,-1.6 -2.31689,-2.31689 -2.31689,-210.483105 0,-212.799995 1.06365,-1.06365 6.87408,-1.6 17.33333,-1.6 h 15.73334 v -20.52401 c 0,-17.4852301 0.31226,-20.6438401 2.10905,-21.3333301 1.15997,-0.44513 31.63997,-0.80932 67.73333,-0.80932 49.26334,0 66.02318,0.3989 67.22428,1.6 1.1,1.1 1.6,7.7538401 1.6,21.2922901 v 19.6923 l 16.33334,0.37437 16.33333,0.37437 v 22 22 l -15.81089,0.37689 c -10.51707,0.2507 -16.43226,-0.13878 -17.66667,-1.16325 -1.4334,-1.18962 -1.85577,-6.05783 -1.85577,-21.38923 v -19.84907 l -67,0.34566 -67,0.34567 -0.34142,104.999985 -0.34141,105 h 67.34141 67.34142 v -19.83674 c 0,-15.32087 0.42246,-20.18735 1.85577,-21.3769 1.23441,-1.02446 7.1496,-1.41396 17.66667,-1.16325 l 15.81089,0.37689 v 22 22 l -16.33333,0.37438 -16.33334,0.37437 v 19.69229 c 0,13.53846 -0.5,20.1923 -1.6,21.2923 -1.20189,1.20189 -18.23209,1.6 -68.44444,1.6 -36.76445,0 -67.24445,-0.4 -67.73333,-0.8889 z m 239.37777,-0.7111 c -1.1,-1.1 -1.6,-7.75384 -1.6,-21.2923 v -19.69229 l -16.33333,-0.37437 -16.33333,-0.37438 V 154.90513 47.571805 l 16.33333,-0.37437 16.33333,-0.37437 v -19.6923 c 0,-13.53845 0.5,-20.1922901 1.6,-21.2922901 2.3058,-2.3058 133.16087,-2.3058 135.46667,0 1.1,1.1 1.6,7.7538401 1.6,21.2922901 v 19.6923 l 16.33333,0.37437 16.33334,0.37437 V 154.90513 262.23846 l -16.33334,0.37438 -16.33333,0.37437 v 19.69229 c 0,13.53846 -0.5,20.1923 -1.6,21.2923 -2.3058,2.3058 -133.16087,2.3058 -135.46667,0 z M 907.78588,154.90513 V 50.238475 H 840.45255 773.11921 L 772.77457,153.5718 c -0.18954,56.83333 -0.0563,104.08889 0.29623,105.01234 0.50591,1.32543 14.75864,1.60623 67.67797,1.33334 l 67.03711,-0.34568 z m 42.70576,148.12317 c -0.444,-1.39892 -1.68443,-2.88009 -2.75652,-3.29148 -1.07208,-0.4114 -1.94924,-1.60264 -1.94924,-2.6472 0,-1.04454 -0.9,-2.24454 -2,-2.66666 -1.54895,-0.59439 -2,-3.19194 -2,-11.51783 0,-8.32589 0.45105,-10.92344 2,-11.51783 1.1,-0.42212 2,-1.62212 2,-2.66666 0,-1.04456 0.87716,-2.2358 1.94924,-2.6472 1.07209,-0.41139 2.31252,-1.89256 2.75652,-3.29148 0.68456,-2.15686 2.11741,-2.5435 9.42593,-2.5435 6.6605,0 8.80415,0.48336 9.43504,2.12743 0.449,1.17009 2.53018,4.00381 4.62482,6.29715 3.48497,3.81556 3.80845,5.02525 3.80845,14.24209 0,9.21684 -0.32348,10.42653 -3.80845,14.24209 -2.09464,2.29334 -4.17582,5.12706 -4.62482,6.29715 -0.63089,1.64407 -2.77454,2.12743 -9.43504,2.12743 -7.30852,0 -8.74137,-0.38664 -9.42593,-2.5435 z m 16.62757,-7.49834 c 0,-1.12303 0.9,-2.38722 2,-2.80932 1.5059,-0.57787 2,-3.0028 2,-9.81551 0,-6.81271 -0.4941,-9.23764 -2,-9.81551 -1.1,-0.4221 -2,-1.68629 -2,-2.80932 0,-1.5399 -1.5193,-2.04184 -6.18044,-2.04184 -8.98213,0 -12.48622,4.1035 -12.48622,14.6221 0,10.67441 3.3409,14.65293 12.33333,14.68714 4.80892,0.0183 6.33333,-0.46737 6.33333,-2.01774 z m -12,-1.75415 c 0,-0.62112 -1.2,-2.51293 -2.66666,-4.20401 -1.46667,-1.69108 -2.66667,-4.69108 -2.66667,-6.66667 0,-1.97559 1.2,-4.97559 2.66667,-6.66667 1.46666,-1.69108 2.66666,-3.58289 2.66666,-4.20401 0,-2.04581 9.00279,-1.24723 9.81551,0.87068 1.25677,3.27512 -0.47541,5.81777 -4.26168,6.25565 -2.79225,0.32294 -3.55383,1.12534 -3.55383,3.74435 0,2.61901 0.76158,3.42141 3.55383,3.74435 3.78627,0.43788 5.51845,2.98053 4.26168,6.25565 -0.81272,2.11791 -9.81551,2.91649 -9.81551,0.87068 z"
       id="path172" />
    <path
       style="fill:#ff8080;stroke-width:0.184927"
       d="m 905.57191,614.59977 c -6.25152,-0.4684 -9.73752,-0.99055 -14.35541,-2.15024 -17.94215,-4.50585 -33.6914,-15.87023 -43.85674,-31.64624 -6.67761,-10.36328 -10.45434,-21.23424 -11.84367,-34.09087 -0.3059,-2.83083 -0.30701,-11.59113 -0.002,-14.57035 2.34415,-22.88427 14.01918,-42.66958 32.71022,-55.43298 9.77088,-6.67218 20.8951,-10.74359 33.1367,-12.12791 3.34321,-0.37806 11.24678,-0.42602 14.46298,-0.0877 17.82273,1.87447 33.54061,9.50566 45.69519,22.18549 1.26844,1.32325 2.66897,2.80691 3.11229,3.297 l 0.80603,0.89108 8.02242,-4.59838 c 4.41234,-2.52911 8.05754,-4.56254 8.10047,-4.51874 0.0429,0.0438 -1.8e-4,5.15854 -0.0959,11.36607 -0.0957,6.20754 -0.26805,19.60834 -0.38305,29.77956 -0.11501,10.17122 -0.263,18.67067 -0.32888,18.88766 -0.10968,0.36128 -0.90712,-0.0843 -9.45665,-5.28465 -9.82068,-5.97354 -26.10273,-15.86314 -35.74541,-21.71157 -3.14662,-1.90847 -5.71838,-3.51266 -5.71502,-3.56487 0.003,-0.0522 4.36906,-2.57469 9.70155,-5.60551 5.3325,-3.03082 9.66923,-5.59464 9.63718,-5.69738 -0.1169,-0.37481 -4.66141,-4.47906 -6.62107,-5.97965 -10.55352,-8.08117 -23.31134,-12.02013 -36.56937,-11.29075 -11.4836,0.63174 -22.07279,4.67307 -31.29902,11.94516 -2.70482,2.13192 -7.18836,6.64254 -9.28536,9.34143 -13.88246,17.86707 -16.10658,41.86026 -5.74885,62.01737 2.58861,5.03769 5.78886,9.41898 10.02872,13.72975 11.31456,11.50382 26.12531,17.29861 42.2087,16.51438 11.83328,-0.57699 22.84606,-4.84253 32.22132,-12.48017 2.36164,-1.92393 6.3554,-6.0205 8.29896,-8.51259 2.95651,-3.79095 5.50083,-8.03355 7.37819,-12.30305 0.6251,-1.42158 1.1697,-2.61852 1.21023,-2.65988 0.0405,-0.0414 3.56904,1.31901 7.84113,3.02303 4.27208,1.70403 7.99399,3.18238 8.27089,3.28525 0.2769,0.10286 0.50346,0.26761 0.50346,0.36612 0,0.37006 -1.36159,3.52419 -2.67645,6.20004 -3.72209,7.57478 -8.12877,13.74247 -14.19516,19.86788 -11.89191,12.00762 -27.28159,19.43423 -44.0646,21.26425 -2.46253,0.26852 -9.31787,0.48584 -11.10408,0.35202 z"
       id="path14" />
    <path
       style="fill:#ff8080;stroke-width:0.184927"
       d="m 85.14793,617.62743 c -6.25152,-0.4684 -9.73752,-0.99055 -14.35541,-2.15024 -17.94215,-4.50585 -33.6914,-15.87023 -43.85674,-31.64624 -6.67761,-10.36328 -10.45434,-21.23424 -11.84367,-34.09087 -0.3059,-2.83083 -0.30701,-11.59113 -0.002,-14.57035 2.34415,-22.88427 14.01918,-42.66958 32.71022,-55.43298 9.77088,-6.67218 20.8951,-10.74359 33.1367,-12.12791 3.34321,-0.37806 11.24678,-0.42602 14.46298,-0.0877 17.82273,1.87447 33.54061,9.50566 45.69519,22.18549 1.26844,1.32325 2.66897,2.80691 3.11229,3.297 l 0.80603,0.89108 8.02242,-4.59838 c 4.41234,-2.52911 8.05754,-4.56254 8.10047,-4.51874 0.0429,0.0438 -1.8e-4,5.15854 -0.0959,11.36607 -0.0957,6.20754 -0.26805,19.60834 -0.38305,29.77956 -0.11501,10.17122 -0.263,18.67067 -0.32888,18.88766 -0.10968,0.36128 -0.90712,-0.0843 -9.45665,-5.28465 -9.82068,-5.97354 -26.10273,-15.86314 -35.74541,-21.71157 -3.14662,-1.90847 -5.71838,-3.51266 -5.71502,-3.56487 0.003,-0.0522 4.36906,-2.57469 9.70155,-5.60551 5.3325,-3.03082 9.66923,-5.59464 9.63718,-5.69738 -0.1169,-0.37481 -4.66141,-4.47906 -6.62107,-5.97965 -10.55352,-8.08117 -23.31134,-12.02013 -36.56937,-11.29075 -11.4836,0.63174 -22.07279,4.67307 -31.29902,11.94516 -2.70482,2.13192 -7.18836,6.64254 -9.28536,9.34143 -13.88246,17.86707 -16.10658,41.86026 -5.74885,62.01737 2.58861,5.03769 5.78886,9.41898 10.02872,13.72975 11.31456,11.50382 26.12531,17.29861 42.2087,16.51438 11.83328,-0.57699 22.84606,-4.84253 32.22132,-12.48017 2.36164,-1.92393 6.3554,-6.0205 8.29896,-8.51259 2.95651,-3.79095 5.50083,-8.03355 7.37819,-12.30305 0.6251,-1.42158 1.1697,-2.61852 1.21023,-2.65988 0.0405,-0.0414 3.56904,1.31901 7.84113,3.02303 4.27208,1.70403 7.99399,3.18238 8.27089,3.28525 0.2769,0.10286 0.50346,0.26761 0.50346,0.36612 0,0.37006 -1.36159,3.52419 -2.67645,6.20004 -3.72209,7.57478 -8.12877,13.74247 -14.19516,19.86788 -11.89191,12.00762 -27.28159,19.43423 -44.0646,21.26425 -2.46253,0.26852 -9.31787,0.48584 -11.10408,0.35202 z"
       id="path14-8" />
  </g>
</svg>
