<svg id="svg" version="1.1" xmlns="http://www.w3.org/2000/svg" xmlns:xlink="http://www.w3.org/1999/xlink" width="400" height="222.79976373301832" viewBox="0, 0, 400,222.79976373301832"><g id="svgg"><path id="path0" d="M170.105 91.364 C 169.517 91.601,169.740 90.531,167.466 104.053 C 165.745 114.286,165.384 115.987,165.011 115.614 C 164.882 115.486,164.242 111.166,162.573 99.164 C 161.770 93.389,161.489 91.866,161.186 91.643 C 160.693 91.282,140.377 91.237,139.707 91.596 C 139.172 91.882,139.011 168.336,139.543 168.869 C 139.997 169.323,153.171 169.244,153.552 168.785 C 153.784 168.505,153.864 165.274,153.943 152.966 C 154.026 139.967,154.092 137.457,154.358 137.237 C 155.105 136.617,155.280 137.456,156.988 149.861 C 157.916 156.602,158.874 163.484,159.115 165.154 C 159.357 166.825,159.554 168.247,159.554 168.314 C 159.554 169.177,169.325 169.649,170.014 168.820 C 170.330 168.438,170.333 168.413,173.743 142.284 C 174.372 137.463,174.522 136.825,175.028 136.825 C 175.785 136.825,175.822 137.579,175.822 153.144 C 175.822 164.870,175.886 168.666,176.089 168.869 C 176.542 169.322,191.058 169.244,191.516 168.786 C 192.135 168.167,192.041 92.208,191.421 91.588 C 190.939 91.106,171.256 90.900,170.105 91.364 M200.607 91.379 C 198.238 91.846,195.620 94.014,194.453 96.476 L 193.760 97.939 193.760 110.641 L 193.760 123.343 194.400 124.646 C 195.397 126.676,197.113 128.220,201.783 131.291 C 204.111 132.822,207.205 134.869,208.658 135.839 C 210.111 136.810,211.904 137.961,212.642 138.396 C 213.380 138.832,214.372 139.515,214.847 139.913 L 215.710 140.638 215.710 147.773 L 215.710 154.909 215.059 155.560 C 214.082 156.537,212.307 156.367,211.725 155.240 C 211.561 154.924,211.459 152.005,211.422 146.566 C 211.373 139.566,211.316 138.336,211.031 138.152 C 210.427 137.763,194.121 137.983,193.863 138.384 C 193.729 138.592,193.669 143.577,193.704 151.537 L 193.760 164.355 194.495 165.847 C 196.185 169.279,195.552 169.171,213.482 169.091 C 234.429 168.998,232.189 171.318,232.196 149.705 C 232.202 129.098,232.441 130.015,226.145 126.481 C 224.634 125.633,221.443 123.773,219.053 122.349 C 216.663 120.924,214.206 119.473,213.593 119.125 C 211.326 117.836,211.476 118.329,211.476 112.172 C 211.476 106.306,211.557 105.832,212.629 105.388 C 214.664 104.545,215.042 105.743,215.042 113.040 C 215.042 117.307,215.115 118.981,215.309 119.175 C 215.812 119.678,233.153 119.546,233.614 119.035 C 233.940 118.676,233.983 117.859,233.983 112.060 C 233.983 107.250,234.055 105.422,234.251 105.226 C 234.623 104.853,240.697 104.853,241.070 105.226 C 241.275 105.431,241.337 112.784,241.337 136.965 C 241.337 165.278,241.372 168.471,241.687 168.786 C 241.992 169.091,243.031 169.136,249.697 169.136 L 257.356 169.136 257.703 168.641 C 258.013 168.199,258.050 164.810,258.050 136.802 C 258.050 111.176,258.104 105.414,258.343 105.215 C 258.782 104.851,266.751 104.837,266.975 105.199 C 267.069 105.351,267.180 119.633,267.222 136.937 C 267.285 163.194,267.349 168.461,267.604 168.768 C 267.998 169.243,283.386 169.339,283.855 168.869 C 284.057 168.667,284.123 165.329,284.124 155.220 C 284.125 147.050,284.211 141.528,284.346 141.042 C 284.762 139.546,286.071 138.837,287.397 139.391 C 288.823 139.987,288.802 139.754,288.802 154.852 C 288.802 166.904,288.842 168.476,289.152 168.786 C 289.610 169.244,304.349 169.322,304.802 168.869 C 305.233 168.438,305.176 139.806,304.741 138.172 C 304.280 136.440,303.218 134.388,302.162 133.188 L 301.253 132.156 302.232 131.203 C 305.313 128.207,305.293 128.340,305.292 111.595 L 305.292 97.493 304.650 96.156 C 303.578 93.923,301.649 92.472,298.747 91.716 C 296.771 91.201,234.974 90.930,234.318 91.433 C 233.939 91.723,233.855 92.116,233.760 94.024 C 233.628 96.700,233.572 96.729,232.106 94.902 C 230.728 93.186,228.630 91.719,227.075 91.386 C 225.718 91.095,202.080 91.088,200.607 91.379 M348.635 91.448 C 348.068 91.863,347.914 168.393,348.479 168.958 C 349.216 169.697,378.656 169.284,381.058 168.501 C 383.077 167.844,384.568 166.649,385.400 165.023 L 386.072 163.708 386.072 131.269 L 386.072 98.830 385.432 97.526 C 384.150 94.914,381.254 92.792,377.560 91.757 C 375.280 91.118,349.461 90.842,348.635 91.448 M108.428 91.715 C 108.236 91.908,108.078 92.118,108.078 92.182 C 108.078 92.301,106.654 103.226,105.295 113.538 C 104.875 116.724,104.072 122.841,103.511 127.131 C 102.950 131.421,102.090 137.989,101.600 141.727 C 101.109 145.465,100.361 151.181,99.937 154.429 C 99.512 157.677,98.961 161.863,98.712 163.732 C 98.143 168.004,98.117 168.679,98.515 168.930 C 99.060 169.275,113.104 169.190,113.395 168.840 C 113.530 168.677,113.942 165.443,114.308 161.654 C 115.088 153.608,114.806 154.206,117.814 154.206 C 120.729 154.206,120.642 154.077,120.994 158.907 C 121.537 166.353,121.808 168.722,122.138 168.932 C 122.547 169.190,137.286 169.190,137.694 168.932 C 138.112 168.667,138.029 167.776,136.382 154.875 C 135.638 149.053,134.636 141.181,134.154 137.382 C 133.671 133.582,132.416 123.705,131.363 115.432 C 130.311 107.159,129.214 98.491,128.926 96.170 C 128.504 92.763,128.326 91.894,128.003 91.657 C 127.350 91.180,108.909 91.235,108.428 91.715 M317.549 91.648 C 316.929 91.964,316.899 92.126,315.684 101.504 C 315.367 103.955,314.298 112.128,313.310 119.666 C 312.321 127.203,311.167 136.028,310.746 139.276 C 310.324 142.524,309.823 146.234,309.633 147.521 C 308.394 155.891,306.903 168.368,307.098 168.733 C 307.300 169.110,307.795 169.136,314.664 169.136 L 322.015 169.136 322.231 168.635 C 322.350 168.359,322.741 165.138,323.102 161.476 C 323.837 153.997,323.688 154.422,325.639 154.265 C 329.597 153.947,329.428 153.654,330.014 161.852 C 330.266 165.382,330.577 168.467,330.705 168.707 C 330.930 169.128,331.196 169.140,338.784 169.084 L 346.630 169.025 346.601 167.465 C 346.585 166.607,345.861 160.390,344.991 153.649 C 344.122 146.908,342.903 137.382,342.283 132.479 C 341.664 127.577,340.504 118.401,339.707 112.089 C 337.256 92.688,337.185 92.187,336.816 91.817 C 336.347 91.349,318.443 91.192,317.549 91.648 M286.547 105.861 C 286.995 106.113,287.610 106.682,287.915 107.126 L 288.468 107.934 288.468 114.562 L 288.468 121.190 287.930 121.762 C 287.634 122.078,286.853 122.537,286.194 122.783 C 284.015 123.599,284.123 124.033,284.123 114.398 C 284.123 104.728,284.179 104.530,286.547 105.861 M367.517 106.054 L 368.245 106.704 368.304 130.713 C 368.369 157.347,368.473 155.461,366.903 156.117 C 365.338 156.771,365.460 158.892,365.460 130.933 C 365.460 117.055,365.526 105.634,365.608 105.552 C 365.948 105.213,366.837 105.446,367.517 106.054 M118.202 126.704 C 118.441 127.655,119.432 139.714,119.300 140.059 C 118.950 140.970,116.481 140.634,116.365 139.659 C 116.297 139.088,117.321 128.294,117.580 126.852 C 117.736 125.981,118.005 125.917,118.202 126.704 M326.996 126.964 C 327.064 127.301,327.321 129.933,327.568 132.813 C 327.815 135.694,328.073 138.465,328.141 138.971 C 328.310 140.227,327.870 140.658,326.514 140.568 C 324.937 140.464,324.947 140.540,325.638 133.545 C 326.360 126.234,326.608 125.035,326.996 126.964 " stroke="none" fill="#f3f0d0" fill-rule="evenodd"></path><path id="path1" d="M90.251 111.421 L 90.251 222.841 148.134 222.841 L 206.017 222.841 210.637 213.649 C 217.354 200.283,237.182 161.067,239.002 157.549 C 239.857 155.894,240.657 154.540,240.780 154.540 C 240.922 154.540,241.043 157.128,241.114 161.634 C 241.219 168.328,241.250 168.745,241.658 169.043 C 242.298 169.511,257.090 169.510,257.729 169.043 C 258.152 168.734,258.164 168.152,258.273 143.918 L 258.384 119.109 261.698 112.535 C 265.334 105.321,265.454 105.130,266.284 105.226 L 266.852 105.292 266.965 129.471 L 267.078 153.649 267.129 129.582 C 267.157 116.345,267.095 105.382,266.992 105.219 C 266.751 104.838,258.802 104.835,258.343 105.215 C 258.104 105.414,258.050 111.176,258.050 136.802 C 258.050 164.810,258.013 168.199,257.703 168.641 L 257.356 169.136 249.697 169.136 C 243.031 169.136,241.992 169.091,241.687 168.786 C 241.372 168.471,241.337 165.278,241.337 136.965 C 241.337 112.784,241.275 105.431,241.070 105.226 C 240.697 104.853,234.623 104.853,234.251 105.226 C 234.055 105.422,233.983 107.258,233.983 112.099 C 233.983 118.216,233.953 118.733,233.576 119.074 C 233.050 119.550,215.779 119.645,215.309 119.175 C 215.115 118.981,215.042 117.307,215.042 113.040 C 215.042 105.743,214.664 104.545,212.629 105.388 C 211.557 105.832,211.476 106.306,211.476 112.172 C 211.476 118.329,211.326 117.836,213.593 119.125 C 214.206 119.473,216.663 120.924,219.053 122.349 C 221.443 123.773,224.634 125.633,226.145 126.481 C 232.441 130.015,232.202 129.098,232.196 149.705 C 232.189 171.318,234.429 168.998,213.482 169.091 C 195.552 169.171,196.185 169.279,194.495 165.847 L 193.760 164.355 193.704 151.537 C 193.669 143.577,193.729 138.592,193.863 138.384 C 194.121 137.983,210.427 137.763,211.031 138.152 C 211.316 138.336,211.373 139.566,211.422 146.566 C 211.459 152.005,211.561 154.924,211.725 155.240 C 212.307 156.367,214.082 156.537,215.059 155.560 L 215.710 154.909 215.710 147.773 L 215.710 140.638 214.847 139.913 C 214.372 139.515,213.380 138.832,212.642 138.396 C 211.904 137.961,210.111 136.810,208.658 135.839 C 207.205 134.869,204.111 132.822,201.783 131.291 C 197.113 128.220,195.397 126.676,194.400 124.646 L 193.760 123.343 193.760 110.641 L 193.760 97.939 194.453 96.476 C 195.342 94.600,196.991 92.950,198.930 91.995 L 200.435 91.253 213.113 91.187 C 228.933 91.105,229.082 91.134,232.129 94.930 C 233.625 96.795,233.629 96.793,233.760 94.077 C 233.855 92.115,233.938 91.724,234.318 91.433 C 234.974 90.930,296.771 91.201,298.747 91.716 C 301.649 92.472,303.578 93.923,304.650 96.156 L 305.292 97.493 305.292 111.595 C 305.293 128.340,305.313 128.207,302.232 131.203 L 301.253 132.156 302.162 133.188 C 303.218 134.388,304.280 136.440,304.741 138.172 C 305.176 139.806,305.233 168.438,304.802 168.869 C 304.349 169.322,289.610 169.244,289.152 168.786 C 288.842 168.476,288.802 166.904,288.802 154.852 C 288.802 139.754,288.823 139.987,287.397 139.391 C 286.071 138.837,284.762 139.546,284.346 141.042 C 284.211 141.528,284.125 147.050,284.124 155.220 C 284.123 165.329,284.057 168.667,283.855 168.869 C 283.448 169.276,268.004 169.250,267.665 168.842 C 267.518 168.664,267.394 167.144,267.354 164.998 L 267.286 161.448 267.236 165.173 C 267.190 168.655,267.215 168.913,267.618 169.129 C 268.342 169.516,283.485 169.437,284.024 169.043 C 284.442 168.737,284.461 168.259,284.568 154.614 C 284.630 146.852,284.767 140.366,284.874 140.200 C 285.206 139.685,286.497 139.258,287.065 139.474 C 288.545 140.041,288.462 139.175,288.524 154.619 C 288.591 171.381,287.912 169.359,293.479 169.359 C 296.680 169.359,297.490 169.422,297.709 169.685 C 297.980 170.012,294.691 176.658,276.755 212.033 C 274.083 217.304,271.792 221.891,271.664 222.228 L 271.432 222.841 335.716 222.841 L 400.000 222.841 400.000 111.421 L 400.000 0.000 391.811 0.003 L 383.621 0.006 378.719 9.744 C 376.022 15.100,369.548 27.959,364.332 38.320 C 335.376 95.835,337.715 91.357,336.623 91.379 C 336.010 91.392,335.986 91.415,336.412 91.586 C 337.222 91.913,336.923 90.051,339.707 112.089 C 340.504 118.401,341.664 127.577,342.283 132.479 C 342.903 137.382,344.122 146.908,344.991 153.649 C 345.861 160.390,346.585 166.607,346.601 167.465 L 346.630 169.025 338.784 169.084 C 331.196 169.140,330.930 169.128,330.705 168.707 C 330.577 168.467,330.266 165.382,330.014 161.852 C 329.428 153.654,329.597 153.947,325.639 154.265 C 323.688 154.422,323.837 153.997,323.102 161.476 C 322.741 165.138,322.350 168.359,322.231 168.635 L 322.015 169.136 314.664 169.136 C 307.809 169.136,307.299 169.109,307.099 168.735 C 306.905 168.373,308.646 154.007,309.851 146.018 C 310.040 144.763,310.184 143.509,310.170 143.233 C 310.156 142.956,310.006 143.620,309.836 144.708 C 309.521 146.727,308.604 149.103,306.900 152.312 C 305.450 155.044,305.419 154.925,305.289 146.072 C 305.178 138.559,305.155 138.228,304.659 137.047 C 303.929 135.310,302.962 133.673,302.297 133.048 C 301.540 132.337,301.570 132.165,302.632 131.132 C 305.480 128.360,305.515 128.121,305.515 111.631 C 305.515 96.172,305.560 96.695,304.060 94.727 C 301.536 91.417,300.892 91.289,286.017 91.149 C 274.083 91.036,272.981 90.975,272.981 90.433 C 272.981 90.218,301.025 34.450,305.738 25.292 C 308.400 20.119,317.321 2.409,317.934 1.078 L 318.431 0.000 204.341 0.000 L 90.251 0.000 90.251 111.421 M191.421 91.588 C 192.041 92.208,192.135 168.167,191.516 168.786 C 191.058 169.244,176.542 169.322,176.089 168.869 C 175.886 168.666,175.822 164.870,175.822 153.144 C 175.822 137.579,175.785 136.825,175.028 136.825 C 174.522 136.825,174.372 137.463,173.743 142.284 C 170.333 168.413,170.330 168.438,170.014 168.820 C 169.325 169.649,159.554 169.177,159.554 168.314 C 159.554 168.247,159.357 166.825,159.115 165.154 C 158.874 163.484,157.916 156.602,156.988 149.861 C 155.280 137.456,155.105 136.617,154.358 137.237 C 154.092 137.457,154.026 139.967,153.943 152.966 C 153.864 165.274,153.784 168.505,153.552 168.785 C 153.171 169.244,139.997 169.323,139.543 168.869 C 139.011 168.336,139.172 91.882,139.707 91.596 C 140.377 91.237,160.693 91.282,161.186 91.643 C 161.489 91.866,161.770 93.389,162.573 99.164 C 164.242 111.166,164.882 115.486,165.011 115.614 C 165.384 115.987,165.745 114.286,167.466 104.053 C 169.740 90.531,169.517 91.601,170.105 91.364 C 171.256 90.900,190.939 91.106,191.421 91.588 M322.492 91.309 C 324.905 91.345,328.916 91.345,331.406 91.309 C 333.896 91.273,331.922 91.244,327.019 91.244 C 322.117 91.244,320.080 91.273,322.492 91.309 M377.560 91.757 C 381.254 92.792,384.150 94.914,385.432 97.526 L 386.072 98.830 386.072 131.269 L 386.072 163.708 385.400 165.023 C 384.568 166.649,383.077 167.844,381.058 168.501 C 378.656 169.284,349.216 169.697,348.479 168.958 C 347.914 168.393,348.068 91.863,348.635 91.448 C 349.461 90.842,375.280 91.118,377.560 91.757 M128.003 91.657 C 128.326 91.894,128.504 92.763,128.926 96.170 C 129.214 98.491,130.311 107.159,131.363 115.432 C 132.416 123.705,133.671 133.582,134.154 137.382 C 134.636 141.181,135.638 149.053,136.382 154.875 C 138.029 167.776,138.112 168.667,137.694 168.932 C 137.286 169.190,122.547 169.190,122.138 168.932 C 121.808 168.722,121.537 166.353,120.994 158.907 C 120.642 154.077,120.729 154.206,117.814 154.206 C 114.806 154.206,115.088 153.608,114.308 161.654 C 113.942 165.443,113.530 168.677,113.395 168.840 C 113.104 169.190,99.060 169.275,98.515 168.930 C 98.117 168.679,98.143 168.004,98.712 163.732 C 98.961 161.863,99.512 157.677,99.937 154.429 C 100.361 151.181,101.109 145.465,101.600 141.727 C 102.090 137.989,102.950 131.421,103.511 127.131 C 104.072 122.841,104.875 116.724,105.295 113.538 C 106.654 103.226,108.078 92.301,108.078 92.182 C 108.078 92.118,108.236 91.908,108.428 91.715 C 108.909 91.235,127.350 91.180,128.003 91.657 M317.134 91.564 C 316.805 91.773,316.444 93.301,316.471 94.373 C 316.480 94.741,316.601 94.342,316.740 93.487 C 316.951 92.183,317.081 91.888,317.549 91.652 C 317.855 91.498,317.955 91.372,317.772 91.372 C 317.588 91.372,317.301 91.458,317.134 91.564 M315.884 98.280 C 315.664 100.001,315.530 101.454,315.586 101.510 C 315.642 101.565,315.867 100.203,316.086 98.482 C 316.306 96.761,316.440 95.307,316.385 95.252 C 316.330 95.197,316.104 96.559,315.884 98.280 M315.209 103.398 C 315.121 104.271,315.100 105.035,315.161 105.096 C 315.222 105.157,315.344 104.494,315.432 103.621 C 315.519 102.749,315.541 101.985,315.480 101.923 C 315.418 101.862,315.297 102.526,315.209 103.398 M284.353 105.835 C 284.206 106.109,284.123 109.219,284.123 114.398 C 284.123 124.033,284.015 123.599,286.194 122.783 C 286.853 122.537,287.634 122.078,287.930 121.762 L 288.468 121.190 288.468 114.562 L 288.468 107.934 287.915 107.126 C 286.904 105.652,284.850 104.907,284.353 105.835 M314.771 106.860 C 314.684 107.672,314.659 108.383,314.717 108.440 C 314.774 108.497,314.892 107.880,314.979 107.068 C 315.066 106.256,315.090 105.545,315.033 105.488 C 314.976 105.430,314.858 106.048,314.771 106.860 M365.608 105.552 C 365.526 105.634,365.460 117.055,365.460 130.933 C 365.460 158.892,365.338 156.771,366.903 156.117 C 368.473 155.461,368.369 157.347,368.304 130.713 L 368.245 106.704 367.517 106.054 C 366.837 105.446,365.948 105.213,365.608 105.552 M286.783 106.256 C 288.253 107.342,288.240 107.269,288.303 114.278 C 288.346 119.077,288.290 120.807,288.079 121.226 C 287.748 121.882,286.075 122.786,285.190 122.786 L 284.568 122.786 284.568 114.355 C 284.568 109.718,284.643 105.849,284.734 105.758 C 284.981 105.511,286.164 105.799,286.783 106.256 M314.325 110.202 C 314.238 111.014,314.214 111.725,314.271 111.782 C 314.328 111.840,314.446 111.222,314.533 110.410 C 314.620 109.599,314.644 108.888,314.587 108.830 C 314.530 108.773,314.412 109.391,314.325 110.202 M313.116 119.439 C 312.587 123.471,312.193 126.886,312.241 127.028 C 312.288 127.171,312.765 123.916,313.299 119.795 C 313.834 115.674,314.228 112.259,314.174 112.206 C 314.121 112.153,313.645 115.408,313.116 119.439 M117.580 126.852 C 117.321 128.294,116.297 139.088,116.365 139.659 C 116.481 140.634,118.950 140.970,119.300 140.059 C 119.432 139.714,118.441 127.655,118.202 126.704 C 118.005 125.917,117.736 125.981,117.580 126.852 M326.382 126.852 C 326.007 128.272,325.041 139.760,325.266 140.119 C 326.068 141.399,328.345 140.490,328.141 138.971 C 328.073 138.465,327.815 135.694,327.568 132.813 C 327.008 126.286,326.803 125.256,326.382 126.852 M311.668 130.541 C 311.442 132.294,311.320 133.790,311.395 133.865 C 311.470 133.940,311.532 133.856,311.532 133.677 C 311.532 133.498,311.688 132.166,311.878 130.717 C 312.068 129.267,312.190 127.918,312.150 127.718 C 312.110 127.518,311.893 128.788,311.668 130.541 M310.873 136.500 C 310.719 137.796,310.639 138.903,310.696 138.959 C 310.752 139.015,310.923 138.000,311.077 136.704 C 311.231 135.407,311.311 134.300,311.254 134.244 C 311.198 134.188,311.026 135.203,310.873 136.500 M310.306 140.836 C 310.219 141.708,310.195 142.470,310.253 142.528 C 310.311 142.586,310.429 141.919,310.515 141.045 C 310.601 140.171,310.626 139.409,310.569 139.352 C 310.512 139.296,310.394 139.963,310.306 140.836 " stroke="none" fill="#646464" fill-rule="evenodd"></path><path id="path2" d="M0.000 111.421 L 0.000 222.841 45.125 222.841 L 90.251 222.841 90.251 111.421 L 90.251 0.000 45.125 0.000 L 0.000 0.000 0.000 111.421 M57.270 40.327 C 74.149 41.989,82.171 46.452,78.056 51.890 C 73.353 58.105,40.981 60.627,23.175 56.166 C 7.943 52.350,9.382 44.611,25.887 41.581 C 34.367 40.024,48.477 39.460,57.270 40.327 M29.861 47.695 C 20.396 47.980,15.792 48.783,18.552 49.668 C 24.035 51.427,74.058 51.080,73.715 49.285 C 73.442 47.856,51.248 47.052,29.861 47.695 M55.042 62.624 C 72.478 63.834,81.654 68.218,78.394 73.781 C 72.679 83.532,17.600 83.045,13.118 73.203 C 10.225 66.851,23.264 62.537,45.682 62.429 C 49.053 62.413,53.265 62.501,55.042 62.624 M26.944 70.212 C 18.435 70.585,14.995 71.700,20.168 72.408 C 26.983 73.341,66.440 73.356,72.077 72.428 C 82.207 70.760,50.237 69.191,26.944 70.212 M52.256 84.901 C 70.428 85.835,80.364 89.665,78.883 95.164 C 76.059 105.653,18.188 106.122,13.141 95.697 C 9.783 88.760,28.235 83.667,52.256 84.901 M25.664 92.727 C 18.891 93.063,15.852 93.976,19.150 94.684 C 24.594 95.851,68.494 95.857,72.915 94.691 C 75.927 93.896,72.143 93.047,64.067 92.705 C 58.041 92.450,30.924 92.465,25.664 92.727 M59.371 107.314 C 59.608 107.551,59.721 108.077,59.721 108.941 C 59.721 110.843,59.347 110.752,67.155 110.752 L 74.054 110.752 74.975 109.749 C 76.079 108.547,77.002 108.403,77.893 109.293 C 78.438 109.839,78.440 109.854,78.440 114.429 C 78.440 119.004,78.438 119.019,77.893 119.564 C 76.981 120.477,75.992 120.321,74.998 119.109 L 74.176 118.106 67.084 118.106 C 60.823 118.106,59.976 118.147,59.857 118.458 C 59.782 118.652,59.721 120.350,59.721 122.231 C 59.721 125.486,59.560 126.351,58.950 126.351 C 58.816 126.351,23.101 119.638,15.609 118.205 C 13.289 117.761,13.273 117.736,13.185 114.400 C 13.101 111.257,13.193 110.640,13.792 110.319 C 14.217 110.092,14.508 110.167,35.989 116.090 C 40.033 117.205,43.517 118.090,43.731 118.056 C 44.033 118.008,43.625 117.309,41.892 114.902 C 38.671 110.427,38.252 110.752,47.242 110.752 C 55.185 110.752,54.819 110.837,54.819 108.998 C 54.819 107.222,55.133 106.964,57.289 106.964 C 58.566 106.964,59.113 107.056,59.371 107.314 M45.030 118.433 C 45.949 118.936,54.072 121.080,54.475 120.926 C 54.768 120.814,54.828 120.528,54.774 119.501 L 54.708 118.217 49.582 118.168 C 45.066 118.125,44.525 118.156,45.030 118.433 M77.533 129.574 C 78.427 130.036,78.440 130.118,78.440 135.293 C 78.440 139.956,78.439 139.966,77.893 140.512 C 77.006 141.399,76.049 141.265,75.058 140.115 L 74.239 139.164 67.151 140.589 C 56.960 142.638,57.259 142.483,61.560 143.509 C 73.847 146.440,74.156 146.487,75.017 145.520 C 76.131 144.268,77.614 144.165,78.219 145.296 C 78.745 146.278,78.488 152.173,77.893 152.768 C 76.965 153.696,76.062 153.523,74.875 152.188 L 73.872 151.061 63.510 148.718 C 57.811 147.430,51.594 146.037,49.694 145.622 L 46.241 144.869 43.343 145.427 C 17.043 150.497,17.674 150.349,16.584 151.680 C 15.678 152.786,14.475 152.955,13.618 152.098 C 12.946 151.426,13.094 142.044,13.785 141.484 C 14.642 140.790,15.528 140.936,16.632 141.954 C 17.348 142.614,17.736 142.820,18.106 142.735 C 18.381 142.672,21.158 142.116,24.275 141.501 C 31.750 140.025,31.730 140.154,24.722 138.627 C 16.605 136.858,17.672 136.947,16.646 137.952 C 15.285 139.287,14.128 139.282,13.427 137.939 C 12.950 137.023,13.137 131.211,13.662 130.631 C 14.513 129.693,15.834 129.881,16.609 131.051 C 16.850 131.415,17.258 131.852,17.515 132.023 C 17.875 132.262,34.090 135.938,41.794 137.527 C 42.833 137.742,44.103 137.525,58.395 134.690 L 73.872 131.621 74.964 130.434 C 76.117 129.181,76.515 129.047,77.533 129.574 M78.878 158.425 C 79.535 159.653,78.984 160.570,77.208 161.207 C 75.578 161.791,75.529 161.966,76.773 162.753 C 78.935 164.118,79.575 166.565,78.308 168.615 C 72.703 177.681,28.273 178.827,15.409 170.237 C 12.850 168.528,11.877 165.642,13.235 163.788 C 14.340 162.281,14.369 162.133,13.701 161.465 C 13.211 160.975,13.124 160.732,13.237 160.167 C 13.554 158.583,12.959 158.663,24.362 158.663 C 35.742 158.663,35.432 158.622,35.432 160.111 C 35.432 161.332,35.042 161.482,28.164 162.914 C 19.265 164.767,17.604 165.253,17.604 166.006 C 17.604 167.663,25.791 168.270,48.022 168.261 C 68.091 168.253,73.983 167.845,73.983 166.462 C 73.983 165.370,71.087 165.140,57.194 165.132 L 45.196 165.125 44.123 166.240 C 42.938 167.469,42.573 167.562,41.504 166.911 L 40.780 166.469 40.780 162.499 C 40.780 159.709,40.859 158.450,41.047 158.262 C 41.577 157.732,78.592 157.892,78.878 158.425 " stroke="none" fill="#040404" fill-rule="evenodd"></path><path id="path3" d="M313.086 10.752 C 310.115 16.666,306.808 23.209,305.736 25.292 C 300.932 34.635,272.981 90.220,272.981 90.433 C 272.981 90.975,274.083 91.036,286.017 91.149 C 300.892 91.289,301.536 91.417,304.060 94.727 C 305.560 96.695,305.515 96.172,305.515 111.631 C 305.515 128.121,305.480 128.360,302.632 131.132 C 301.570 132.165,301.540 132.337,302.297 133.048 C 302.962 133.673,303.929 135.310,304.659 137.047 C 305.155 138.228,305.178 138.559,305.289 146.072 C 305.431 155.741,305.498 155.794,308.622 148.732 C 309.619 146.478,309.555 146.840,311.203 134.150 C 312.136 126.957,313.785 114.362,315.884 98.384 C 316.319 95.075,316.727 92.194,316.791 91.983 C 317.024 91.209,318.414 91.108,328.062 91.162 C 335.867 91.205,337.454 91.162,337.697 90.899 C 337.857 90.726,341.675 83.265,346.181 74.318 C 350.687 65.370,356.454 53.939,358.997 48.914 C 367.941 31.240,383.510 0.256,383.510 0.129 C 383.510 0.058,368.880 -0.000,350.998 -0.000 L 318.487 -0.000 313.086 10.752 M265.363 105.560 C 265.169 105.781,263.520 108.919,261.698 112.535 L 258.384 119.109 258.273 143.918 C 258.164 168.152,258.152 168.734,257.729 169.043 C 257.090 169.510,242.298 169.511,241.658 169.043 C 241.250 168.745,241.219 168.328,241.114 161.634 C 241.043 157.110,240.922 154.547,240.780 154.558 C 240.488 154.581,239.055 157.348,228.382 178.496 C 223.465 188.240,216.446 202.137,212.785 209.379 C 209.124 216.621,206.128 222.613,206.128 222.694 C 206.128 222.775,220.794 222.840,238.719 222.838 L 271.309 222.835 275.672 214.203 C 296.490 173.012,297.977 170.008,297.707 169.683 C 297.491 169.422,296.671 169.359,293.479 169.359 C 287.912 169.359,288.591 171.381,288.524 154.619 C 288.462 139.175,288.545 140.041,287.065 139.474 C 286.497 139.258,285.206 139.685,284.874 140.200 C 284.767 140.366,284.630 146.852,284.568 154.614 C 284.461 168.259,284.442 168.737,284.024 169.043 C 283.412 169.491,268.150 169.513,267.540 169.067 C 267.160 168.789,267.133 167.215,266.996 137.033 L 266.852 105.292 266.284 105.226 C 265.948 105.187,265.571 105.324,265.363 105.560 M284.734 105.758 C 284.643 105.849,284.568 109.718,284.568 114.355 L 284.568 122.786 285.190 122.786 C 286.075 122.786,287.748 121.882,288.079 121.226 C 288.614 120.167,288.358 108.039,287.786 107.272 C 286.933 106.131,285.214 105.278,284.734 105.758 " stroke="none" fill="#9b3534" fill-rule="evenodd"></path><path id="path4" d="M37.772 40.120 C 19.282 41.386,10.109 45.629,13.468 51.362 C 16.938 57.283,42.927 60.250,64.067 57.139 C 74.781 55.562,80.013 52.374,78.768 48.183 C 77.600 44.250,70.405 41.621,57.270 40.327 C 54.072 40.012,41.325 39.876,37.772 40.120 M57.827 47.684 C 69.248 47.932,73.539 48.365,73.715 49.285 C 74.058 51.080,24.035 51.427,18.552 49.668 C 16.732 49.085,18.358 48.499,23.175 48.002 C 27.672 47.539,44.160 47.387,57.827 47.684 M36.880 62.645 C 19.808 63.830,10.693 67.880,13.118 73.203 C 17.600 83.045,72.679 83.532,78.394 73.781 C 82.798 66.266,62.633 60.856,36.880 62.645 M62.618 70.198 C 72.397 70.554,76.946 71.626,72.077 72.428 C 66.440 73.356,26.983 73.341,20.168 72.408 C 16.618 71.922,17.056 71.214,21.268 70.628 C 25.597 70.026,50.706 69.765,62.618 70.198 M39.233 84.925 C 20.723 85.885,10.446 90.129,13.141 95.697 C 17.693 105.099,69.881 106.040,77.929 96.865 C 84.364 89.530,65.093 83.583,39.233 84.925 M64.067 92.705 C 72.143 93.047,75.927 93.896,72.915 94.691 C 68.494 95.857,24.594 95.851,19.150 94.684 C 15.852 93.976,18.891 93.063,25.664 92.727 C 30.924 92.465,58.041 92.450,64.067 92.705 M55.188 107.371 C 54.939 107.646,54.819 108.176,54.819 108.998 C 54.819 110.837,55.185 110.752,47.242 110.752 C 38.252 110.752,38.671 110.427,41.892 114.902 C 43.625 117.309,44.033 118.008,43.731 118.056 C 43.517 118.090,40.033 117.205,35.989 116.090 C 14.508 110.167,14.217 110.092,13.792 110.319 C 13.193 110.640,13.101 111.257,13.185 114.400 C 13.273 117.736,13.289 117.761,15.609 118.205 C 23.101 119.638,58.816 126.351,58.950 126.351 C 59.560 126.351,59.721 125.486,59.721 122.231 C 59.721 120.350,59.782 118.652,59.857 118.458 C 59.976 118.147,60.823 118.106,67.084 118.106 L 74.176 118.106 74.998 119.109 C 75.992 120.321,76.981 120.477,77.893 119.564 C 78.438 119.019,78.440 119.004,78.440 114.429 C 78.440 109.854,78.438 109.839,77.893 109.293 C 77.002 108.403,76.079 108.547,74.975 109.749 L 74.054 110.752 67.155 110.752 C 59.347 110.752,59.721 110.843,59.721 108.941 C 59.721 107.174,59.462 106.964,57.289 106.964 C 55.894 106.964,55.485 107.043,55.188 107.371 M54.774 119.501 C 54.866 121.259,54.828 121.262,49.856 119.907 C 43.463 118.164,43.455 118.109,49.582 118.168 L 54.708 118.217 54.774 119.501 M74.964 130.434 L 73.872 131.621 58.395 134.690 C 44.103 137.525,42.833 137.742,41.794 137.527 C 34.090 135.938,17.875 132.262,17.515 132.023 C 17.258 131.852,16.850 131.415,16.609 131.051 C 15.834 129.881,14.513 129.693,13.662 130.631 C 13.137 131.211,12.950 137.023,13.427 137.939 C 14.128 139.282,15.285 139.287,16.646 137.952 C 17.672 136.947,16.605 136.858,24.722 138.627 C 31.730 140.154,31.750 140.025,24.275 141.501 C 21.158 142.116,18.381 142.672,18.106 142.735 C 17.736 142.820,17.348 142.614,16.632 141.954 C 15.528 140.936,14.642 140.790,13.785 141.484 C 13.094 142.044,12.946 151.426,13.618 152.098 C 14.475 152.955,15.678 152.786,16.584 151.680 C 17.674 150.349,17.043 150.497,43.343 145.427 L 46.241 144.869 49.694 145.622 C 51.594 146.037,57.811 147.430,63.510 148.718 L 73.872 151.061 74.875 152.188 C 76.062 153.523,76.965 153.696,77.893 152.768 C 78.488 152.173,78.745 146.278,78.219 145.296 C 77.614 144.165,76.131 144.268,75.017 145.520 C 74.156 146.487,73.847 146.440,61.560 143.509 C 57.259 142.483,56.960 142.638,67.151 140.589 L 74.239 139.164 75.058 140.115 C 76.049 141.265,77.006 141.399,77.893 140.512 C 78.439 139.966,78.440 139.956,78.440 135.293 C 78.440 130.118,78.427 130.036,77.533 129.574 C 76.515 129.047,76.117 129.181,74.964 130.434 M41.047 158.262 C 40.859 158.450,40.780 159.709,40.780 162.499 L 40.780 166.469 41.504 166.911 C 42.573 167.562,42.938 167.469,44.123 166.240 L 45.196 165.125 57.194 165.132 C 71.087 165.140,73.983 165.370,73.983 166.462 C 73.983 167.845,68.091 168.253,48.022 168.261 C 25.791 168.270,17.604 167.663,17.604 166.006 C 17.604 165.253,19.265 164.767,28.164 162.914 C 35.042 161.482,35.432 161.332,35.432 160.111 C 35.432 158.622,35.742 158.663,24.362 158.663 C 12.959 158.663,13.554 158.583,13.237 160.167 C 13.124 160.732,13.211 160.975,13.701 161.465 C 14.369 162.133,14.340 162.281,13.235 163.788 C 11.877 165.642,12.850 168.528,15.409 170.237 C 28.273 178.827,72.703 177.681,78.308 168.615 C 79.575 166.565,78.935 164.118,76.773 162.753 C 75.529 161.966,75.578 161.791,77.208 161.207 C 78.984 160.570,79.535 159.653,78.878 158.425 C 78.592 157.892,41.577 157.732,41.047 158.262 " stroke="none" fill="#736b14" fill-rule="evenodd"></path></g></svg>