<svg id="svg" xmlns="http://www.w3.org/2000/svg" xmlns:xlink="http://www.w3.org/1999/xlink" width="400" height="43.99999999999999" viewBox="0, 0, 400,43.99999999999999" version="1.1"><g id="svgg"><path id="path0" d="M25.500 0.313 C 25.500 0.991,24.714 1.239,23.919 0.813 C 23.156 0.404,20.331 0.424,20.586 0.837 C 20.824 1.223,20.434 1.500,19.655 1.500 C 18.906 1.500,18.322 1.912,18.474 2.333 C 18.490 2.379,17.846 2.454,17.043 2.500 C 15.605 2.582,15.583 2.590,15.531 3.034 C 15.482 3.457,15.423 3.487,14.531 3.534 C 13.644 3.580,13.580 3.612,13.532 4.026 C 13.496 4.334,13.357 4.500,13.074 4.571 C 12.759 4.650,12.667 4.783,12.667 5.157 L 12.667 5.641 11.625 5.612 C 10.631 5.585,10.581 5.602,10.526 6.000 C 10.494 6.229,10.363 6.477,10.234 6.550 C 10.105 6.623,10.000 6.890,10.000 7.142 C 10.000 7.724,9.724 8.000,9.142 8.000 C 8.890 8.000,8.623 8.108,8.549 8.240 C 8.464 8.392,8.078 8.499,7.499 8.532 C 6.636 8.580,6.580 8.610,6.530 9.048 C 6.489 9.404,6.368 9.535,6.016 9.605 C 5.529 9.702,5.492 9.916,5.764 11.053 C 5.852 11.421,5.800 11.575,5.522 11.770 C 5.326 11.907,5.167 12.127,5.167 12.259 C 5.167 12.684,4.528 13.178,4.082 13.097 C 3.844 13.054,3.617 13.116,3.544 13.245 C 3.474 13.368,3.229 13.494,3.000 13.526 C 2.618 13.579,2.579 13.663,2.534 14.531 C 2.487 15.423,2.457 15.482,2.034 15.531 C 1.610 15.580,1.580 15.640,1.534 16.531 C 1.487 17.423,1.457 17.482,1.034 17.531 C 0.585 17.583,0.583 17.587,0.535 19.125 C 0.497 20.345,0.437 20.667,0.244 20.667 C 0.035 20.667,0.000 21.471,0.000 26.322 L 0.000 31.978 0.458 32.031 C 1.016 32.095,1.156 32.654,0.763 33.254 C 0.271 34.005,0.408 35.323,0.989 35.440 C 1.258 35.493,1.519 35.641,1.567 35.769 C 1.616 35.896,1.840 36.000,2.064 36.000 C 2.636 36.000,3.000 36.164,3.000 36.422 C 3.000 36.542,3.187 36.864,3.417 37.136 C 3.646 37.409,3.833 37.827,3.833 38.066 C 3.833 38.381,3.920 38.500,4.149 38.500 C 4.322 38.500,4.508 38.612,4.560 38.750 C 4.614 38.891,4.862 39.000,5.128 39.000 C 5.747 39.000,6.000 39.276,6.000 39.950 C 6.000 40.316,6.080 40.500,6.239 40.500 C 6.376 40.500,6.500 40.696,6.531 40.958 C 6.580 41.392,6.635 41.419,7.531 41.466 C 8.423 41.513,8.482 41.543,8.531 41.966 L 8.583 42.417 10.167 42.417 L 11.750 42.417 11.802 42.958 C 11.865 43.611,13.043 43.746,13.983 43.208 C 14.576 42.870,15.048 43.047,15.137 43.642 L 15.190 44.000 24.994 44.000 L 34.797 44.000 34.899 43.594 C 35.034 43.057,35.548 42.916,36.193 43.238 C 37.272 43.776,38.513 43.496,38.237 42.777 C 38.097 42.413,38.587 42.112,38.978 42.322 C 39.768 42.744,41.500 42.546,41.500 42.033 C 41.500 41.440,41.775 41.167,42.372 41.167 C 42.984 41.167,43.131 41.564,42.768 42.238 C 42.428 42.869,42.552 43.336,43.034 43.243 C 43.471 43.159,44.000 43.440,44.000 43.756 C 44.000 43.947,44.253 44.000,45.167 44.000 C 46.046 44.000,46.333 43.943,46.333 43.771 C 46.333 43.517,47.182 43.379,49.892 43.195 C 51.429 43.090,52.178 43.171,51.644 43.383 C 51.485 43.446,51.505 43.478,51.708 43.487 C 51.869 43.494,52.000 43.387,52.000 43.250 C 52.000 43.112,52.131 42.999,52.292 42.997 C 52.541 42.995,52.547 42.971,52.333 42.833 C 52.167 42.726,52.153 42.671,52.292 42.669 C 52.447 42.667,52.500 42.138,52.500 40.583 L 52.500 38.500 53.014 38.500 L 53.528 38.500 53.472 36.500 L 53.417 34.500 53.958 34.500 L 54.500 34.500 54.500 33.000 L 54.500 31.500 55.000 31.500 L 55.500 31.500 55.500 30.492 C 55.500 29.924,55.391 29.273,55.251 29.002 C 55.029 28.573,55.030 28.493,55.263 28.261 C 55.595 27.929,56.314 27.923,56.440 28.251 C 56.626 28.736,57.500 28.500,57.500 27.965 L 57.500 27.500 60.000 27.500 L 62.500 27.500 62.500 27.012 C 62.500 26.688,62.598 26.499,62.792 26.448 C 63.069 26.376,63.069 26.371,62.792 26.353 C 62.593 26.340,62.500 26.194,62.500 25.898 C 62.500 25.509,62.553 25.470,63.000 25.536 L 63.500 25.609 63.500 24.127 C 63.500 23.292,63.413 22.486,63.301 22.281 C 63.191 22.080,63.060 21.617,63.009 21.250 L 62.917 20.583 47.250 20.583 L 31.583 20.583 31.530 21.167 C 31.500 21.488,31.402 21.825,31.312 21.917 C 31.203 22.027,31.187 21.970,31.265 21.750 C 31.358 21.486,31.338 21.457,31.171 21.612 C 31.055 21.719,30.837 21.762,30.688 21.706 C 30.452 21.618,30.447 21.641,30.645 21.885 C 30.839 22.124,30.839 22.167,30.645 22.169 C 30.454 22.171,30.453 22.195,30.643 22.315 C 30.800 22.415,30.813 22.493,30.684 22.572 C 30.383 22.759,30.450 25.268,30.770 25.756 C 30.918 25.983,31.060 26.411,31.085 26.709 C 31.110 27.006,31.138 27.306,31.148 27.375 C 31.187 27.639,34.492 27.513,34.922 27.231 C 35.431 26.898,36.392 27.040,36.711 27.495 C 36.832 27.668,37.136 27.861,37.387 27.924 C 38.487 28.200,38.147 30.596,37.032 30.424 C 36.595 30.357,36.505 30.643,36.503 32.114 C 36.500 33.476,36.499 33.478,36.043 33.531 C 35.439 33.600,35.369 34.043,35.833 34.868 C 36.220 35.557,36.011 36.167,35.387 36.167 C 35.262 36.167,35.074 36.354,34.970 36.583 C 34.756 37.053,34.443 37.098,33.833 36.750 C 33.357 36.477,31.738 36.417,31.584 36.666 C 31.527 36.757,31.450 36.996,31.411 37.195 C 31.310 37.722,31.046 37.828,29.833 37.829 C 28.292 37.829,28.000 37.723,28.000 37.167 C 28.000 36.829,27.899 36.679,27.625 36.605 C 27.004 36.439,25.527 36.487,25.409 36.678 C 24.971 37.389,24.041 37.085,23.968 36.208 L 23.917 35.583 23.192 35.638 C 22.608 35.682,22.419 35.625,22.224 35.346 C 22.090 35.156,21.845 35.000,21.678 35.000 C 21.511 35.000,21.297 34.906,21.202 34.792 C 21.002 34.550,21.129 33.667,21.363 33.667 C 21.789 33.667,21.410 32.583,20.966 32.531 C 20.543 32.482,20.513 32.423,20.466 31.531 C 20.419 30.635,20.392 30.580,19.958 30.531 L 19.500 30.478 19.500 26.989 C 19.500 23.999,19.536 23.500,19.750 23.500 C 19.887 23.500,20.000 23.387,20.000 23.250 C 20.000 23.113,20.131 22.999,20.292 22.997 C 20.541 22.995,20.547 22.971,20.333 22.833 C 20.138 22.707,20.133 22.671,20.311 22.669 C 20.493 22.667,20.527 22.321,20.478 20.958 L 20.417 19.250 20.958 19.198 C 21.561 19.140,21.661 18.811,21.245 18.260 C 20.732 17.582,21.114 17.000,22.072 17.000 C 22.567 17.000,22.647 16.592,22.255 16.074 C 21.738 15.390,22.014 15.000,23.014 15.000 C 23.335 15.000,23.500 14.915,23.500 14.750 C 23.500 14.583,23.667 14.500,24.000 14.500 C 24.570 14.500,24.734 13.735,24.250 13.333 C 23.861 13.010,23.954 12.544,24.486 12.151 C 24.753 11.953,25.010 11.645,25.057 11.467 C 25.104 11.288,25.294 11.102,25.480 11.054 C 25.666 11.005,25.936 10.786,26.079 10.566 C 26.347 10.158,27.055 10.017,27.250 10.333 C 27.524 10.776,28.500 10.516,28.500 10.000 C 28.500 9.684,28.585 9.500,28.732 9.500 C 28.997 9.500,29.217 9.050,29.070 8.811 C 29.016 8.724,29.062 8.543,29.173 8.409 C 29.402 8.133,30.096 8.084,30.250 8.333 C 30.307 8.425,30.574 8.500,30.843 8.500 C 31.321 8.500,31.427 8.333,31.346 7.708 C 31.325 7.552,31.800 7.500,33.243 7.500 C 34.658 7.500,35.173 7.445,35.191 7.292 C 35.205 7.177,35.224 6.936,35.233 6.756 C 35.296 5.541,39.517 5.739,39.636 6.962 L 39.688 7.500 40.751 7.500 C 41.335 7.500,41.860 7.425,41.917 7.333 C 42.268 6.765,43.000 7.281,43.000 8.097 C 43.000 8.336,43.097 8.500,43.239 8.500 C 43.376 8.500,43.500 8.696,43.531 8.958 C 43.570 9.302,43.687 9.431,44.000 9.474 C 44.229 9.506,44.477 9.637,44.550 9.766 C 44.623 9.895,44.861 10.000,45.078 10.000 C 45.990 10.000,46.289 10.555,45.755 11.260 C 45.220 11.967,45.505 13.597,46.161 13.589 C 46.961 13.578,47.394 16.363,46.739 17.299 C 46.595 17.504,46.501 17.839,46.530 18.044 L 46.583 18.417 51.542 18.461 L 56.500 18.505 56.500 18.020 C 56.500 17.743,56.393 17.495,56.250 17.440 C 55.521 17.160,56.145 15.667,56.990 15.667 L 57.527 15.667 57.472 13.583 L 57.417 11.500 57.958 11.500 L 58.500 11.500 58.500 10.053 C 58.500 9.258,58.410 8.358,58.300 8.054 C 58.060 7.390,58.270 7.083,58.968 7.083 C 59.529 7.083,59.744 4.980,59.258 4.238 C 58.747 3.459,59.149 2.667,60.055 2.667 C 60.471 2.667,60.500 2.618,60.500 1.917 C 60.500 1.193,60.482 1.167,59.995 1.167 C 59.717 1.167,59.220 1.054,58.891 0.917 C 58.562 0.779,58.107 0.667,57.881 0.667 C 57.609 0.667,57.439 0.553,57.382 0.333 C 57.253 -0.158,51.167 -0.191,51.167 0.300 C 51.167 0.750,50.830 1.000,50.225 1.000 C 49.927 1.000,49.623 1.105,49.550 1.234 C 49.477 1.363,49.229 1.494,49.000 1.526 C 48.665 1.572,48.573 1.691,48.530 2.134 C 48.422 3.260,47.165 3.273,47.000 2.149 C 46.917 1.587,46.911 1.584,46.125 1.639 C 45.346 1.693,45.333 1.687,45.333 1.198 C 45.333 0.463,44.272 0.243,43.095 0.734 C 42.481 0.991,42.167 0.844,42.167 0.300 C 42.167 0.015,41.747 0.000,33.833 0.000 C 25.792 0.000,25.500 0.011,25.500 0.313 M90.667 0.239 C 90.667 0.388,90.461 0.499,90.125 0.531 C 89.478 0.594,89.327 1.080,89.753 1.731 C 90.195 2.406,90.025 2.907,89.333 2.968 C 89.013 2.996,88.672 3.120,88.577 3.243 C 88.482 3.367,88.219 3.494,87.993 3.525 C 87.471 3.599,87.375 4.151,87.749 4.939 C 88.082 5.640,87.880 6.000,87.155 6.000 C 86.895 6.000,86.623 6.105,86.550 6.234 C 86.477 6.363,86.229 6.494,86.000 6.526 C 85.564 6.586,85.514 6.862,85.687 8.250 C 85.745 8.711,85.706 8.754,85.190 8.804 C 84.810 8.840,84.603 8.958,84.548 9.169 C 84.499 9.355,84.288 9.502,84.025 9.532 C 83.596 9.582,83.584 9.614,83.612 10.625 L 83.641 11.667 83.157 11.667 C 82.783 11.667,82.650 11.759,82.571 12.074 C 82.500 12.357,82.334 12.496,82.026 12.532 C 81.681 12.572,81.572 12.686,81.530 13.048 C 81.489 13.402,81.368 13.535,81.022 13.604 C 80.669 13.675,80.565 13.793,80.554 14.139 C 80.513 15.484,80.516 15.476,80.042 15.531 C 79.685 15.572,79.572 15.682,79.532 16.032 C 79.492 16.378,79.378 16.492,79.032 16.532 C 78.488 16.594,78.350 17.146,78.739 17.701 C 79.280 18.474,78.878 19.252,78.024 19.088 C 77.830 19.051,77.615 19.121,77.544 19.244 C 77.474 19.367,77.229 19.494,77.000 19.526 C 76.463 19.600,76.366 20.182,76.767 20.926 C 77.127 21.594,76.895 22.000,76.155 22.000 C 75.895 22.000,75.623 22.105,75.550 22.234 C 75.477 22.363,75.230 22.494,75.002 22.526 C 74.489 22.597,74.393 23.004,74.682 23.881 C 74.927 24.623,74.638 25.040,73.968 24.910 C 73.744 24.867,73.605 24.952,73.549 25.163 C 73.499 25.355,73.291 25.501,73.025 25.532 C 72.596 25.582,72.584 25.614,72.612 26.625 L 72.641 27.667 72.157 27.667 C 71.783 27.667,71.650 27.759,71.571 28.074 C 71.500 28.357,71.334 28.496,71.026 28.532 C 70.685 28.572,70.571 28.687,70.532 29.032 C 70.492 29.378,70.378 29.492,70.032 29.532 C 69.478 29.596,69.357 30.127,69.758 30.739 C 70.201 31.415,69.968 32.000,69.255 32.000 C 68.939 32.000,68.624 32.104,68.550 32.234 C 68.477 32.363,68.229 32.494,68.000 32.526 C 67.690 32.569,67.570 32.698,67.532 33.032 C 67.492 33.378,67.378 33.492,67.032 33.532 C 66.685 33.572,66.572 33.685,66.532 34.032 C 66.492 34.378,66.378 34.492,66.032 34.532 C 65.685 34.572,65.572 34.685,65.532 35.032 C 65.492 35.378,65.378 35.492,65.032 35.532 C 64.683 35.572,64.572 35.685,64.531 36.038 L 64.479 36.492 61.531 36.538 L 58.583 36.583 58.618 37.167 C 58.637 37.487,58.674 37.975,58.701 38.250 C 58.746 38.707,58.699 38.757,58.167 38.833 L 57.583 38.917 57.533 40.075 C 57.497 40.905,57.563 41.401,57.766 41.825 C 57.922 42.150,58.099 42.524,58.160 42.654 C 58.405 43.179,60.283 43.499,63.125 43.499 C 65.421 43.500,65.833 43.538,65.833 43.750 C 65.833 43.969,66.981 44.000,75.167 44.000 L 84.500 44.000 84.520 43.208 C 84.531 42.773,84.526 42.348,84.510 42.263 C 84.494 42.179,84.598 42.207,84.741 42.326 C 84.957 42.505,85.000 42.496,85.000 42.270 C 85.000 42.122,85.131 41.999,85.292 41.997 C 85.541 41.995,85.547 41.971,85.333 41.833 C 85.160 41.721,85.148 41.671,85.296 41.669 C 85.461 41.667,85.498 41.098,85.463 39.125 L 85.417 36.583 82.458 36.538 L 79.500 36.492 79.500 35.496 C 79.500 34.500,79.500 34.500,80.000 34.500 C 80.587 34.500,80.695 33.860,80.251 33.002 C 79.941 32.402,80.246 32.000,81.012 32.000 C 81.335 32.000,81.500 31.915,81.500 31.750 C 81.500 31.583,81.667 31.500,82.000 31.500 C 82.444 31.500,82.500 31.444,82.500 31.000 L 82.500 30.500 90.500 30.500 L 98.500 30.500 98.503 31.625 C 98.505 32.895,98.578 33.061,99.167 33.137 C 100.379 33.294,100.520 35.861,99.322 35.968 C 99.008 35.996,98.668 36.125,98.568 36.256 C 98.422 36.444,97.689 36.502,94.984 36.538 L 91.583 36.583 91.533 37.459 C 91.499 38.050,91.567 38.455,91.741 38.705 C 92.293 39.492,91.917 40.167,90.928 40.167 C 90.456 40.167,90.241 42.653,90.689 42.930 C 90.870 43.042,95.499 43.268,101.042 43.436 C 103.189 43.501,103.667 43.560,103.667 43.758 C 103.667 43.967,104.993 44.000,113.333 44.000 C 122.707 44.000,123.000 43.990,123.000 43.684 C 123.000 43.511,123.131 43.319,123.292 43.257 C 123.743 43.084,129.775 43.153,130.259 43.337 C 130.495 43.427,131.583 43.500,132.678 43.500 C 134.335 43.500,134.667 43.542,134.667 43.750 C 134.667 43.969,135.630 44.000,142.333 44.000 C 147.960 44.000,150.000 43.949,150.000 43.810 C 150.000 43.509,150.541 43.178,151.042 43.172 C 151.567 43.166,151.657 42.772,151.255 42.240 C 150.723 41.537,151.013 40.908,151.917 40.806 L 152.417 40.750 152.417 38.667 L 152.417 36.583 149.458 36.538 L 146.500 36.492 146.500 34.496 C 146.500 32.883,146.545 32.500,146.737 32.500 C 146.867 32.500,147.023 32.274,147.084 31.999 C 147.144 31.723,147.263 31.540,147.347 31.592 C 147.553 31.719,147.545 28.641,147.338 28.096 C 147.096 27.459,147.284 27.167,147.934 27.167 L 148.500 27.167 148.500 25.865 C 148.500 24.979,148.422 24.461,148.255 24.240 C 147.708 23.517,148.046 22.833,148.950 22.833 L 149.500 22.833 149.500 21.167 C 149.500 19.796,149.544 19.500,149.750 19.500 C 149.887 19.500,150.000 19.387,150.000 19.250 C 150.000 19.112,150.131 18.999,150.292 18.997 C 150.541 18.995,150.547 18.971,150.333 18.833 C 150.167 18.726,150.153 18.671,150.292 18.669 C 150.447 18.667,150.500 18.138,150.500 16.583 L 150.500 14.500 150.990 14.500 C 151.377 14.500,151.474 14.570,151.454 14.833 C 151.440 15.017,151.355 15.167,151.265 15.167 C 151.174 15.167,151.190 15.257,151.300 15.367 C 151.410 15.477,151.501 15.983,151.503 16.492 C 151.505 17.512,151.607 17.754,152.042 17.776 C 152.596 17.805,152.656 17.835,152.831 18.163 C 152.962 18.408,152.942 18.649,152.754 19.100 C 152.495 19.719,152.374 24.312,152.601 24.903 C 152.661 25.058,152.898 25.167,153.179 25.167 C 153.980 25.167,154.393 26.623,153.783 27.297 C 153.547 27.557,153.500 27.973,153.500 29.791 C 153.500 32.338,153.541 32.500,154.179 32.500 C 154.940 32.500,155.287 33.557,154.755 34.260 C 154.492 34.608,154.380 39.413,154.628 39.750 C 154.695 39.842,154.938 39.941,155.167 39.970 C 155.848 40.058,156.024 40.433,155.730 41.169 C 155.591 41.515,155.502 42.086,155.531 42.437 L 155.583 43.076 158.250 43.130 C 159.717 43.159,161.134 43.254,161.400 43.341 C 161.666 43.429,162.734 43.500,163.775 43.500 C 165.345 43.500,165.667 43.542,165.667 43.750 C 165.667 43.961,166.046 44.000,168.083 44.000 C 170.120 44.000,170.500 43.961,170.500 43.750 C 170.500 43.583,170.667 43.500,171.000 43.500 L 171.500 43.500 171.500 42.500 L 171.500 41.500 172.022 41.500 L 172.543 41.500 172.430 40.708 C 172.214 39.202,172.200 39.255,172.810 39.196 C 173.196 39.159,173.397 39.043,173.455 38.821 C 173.513 38.598,173.685 38.500,174.019 38.500 C 174.496 38.500,174.500 38.491,174.500 37.500 L 174.500 36.500 175.022 36.500 L 175.543 36.500 175.430 35.708 C 175.211 34.187,175.191 34.255,175.875 34.198 C 176.365 34.158,176.500 34.077,176.500 33.823 C 176.500 33.575,176.616 33.500,177.000 33.500 L 177.500 33.500 177.500 32.500 L 177.500 31.500 178.000 31.500 C 178.531 31.500,178.687 30.783,178.345 29.917 C 178.139 29.397,178.320 29.167,178.934 29.167 C 179.389 29.167,179.500 29.101,179.500 28.833 C 179.500 28.574,179.611 28.500,180.000 28.500 L 180.500 28.500 180.500 27.500 L 180.500 26.500 181.015 26.500 L 181.530 26.500 181.473 25.375 L 181.417 24.250 181.958 24.198 C 182.365 24.159,182.500 24.065,182.500 23.823 C 182.500 23.575,182.617 23.500,183.000 23.500 C 183.576 23.500,183.710 22.841,183.255 22.240 C 182.699 21.505,183.008 21.000,184.014 21.000 C 184.479 21.000,184.500 20.968,184.500 20.250 C 184.500 19.528,184.519 19.500,185.000 19.500 C 185.444 19.500,185.500 19.444,185.500 19.000 C 185.500 18.556,185.556 18.500,186.000 18.500 C 186.593 18.500,186.694 17.858,186.240 16.980 C 185.909 16.342,186.145 16.000,186.916 16.000 C 187.383 16.000,187.472 15.932,187.557 15.508 C 187.700 14.790,188.455 14.318,188.770 14.749 C 189.322 15.505,188.869 16.417,188.022 16.254 C 187.507 16.155,187.281 18.864,187.683 20.328 C 187.730 20.499,187.574 20.599,187.167 20.661 L 186.583 20.750 186.534 22.080 C 186.505 22.858,186.564 23.558,186.675 23.766 C 186.994 24.362,186.813 24.740,186.165 24.833 L 185.583 24.917 185.534 26.149 C 185.498 27.039,185.562 27.544,185.763 27.969 C 186.091 28.659,185.829 29.000,184.968 29.000 C 184.390 29.000,184.267 30.814,184.775 31.833 C 185.121 32.526,184.928 32.885,184.149 33.000 C 183.470 33.100,183.267 33.989,183.753 34.732 C 184.166 35.361,184.018 35.887,183.375 36.076 C 183.077 36.164,182.833 36.326,182.833 36.437 C 182.833 36.729,182.492 36.801,181.889 36.636 C 181.599 36.557,180.061 36.513,178.472 36.538 L 175.583 36.583 175.531 37.917 C 175.503 38.660,175.569 39.524,175.681 39.870 C 175.927 40.623,175.684 41.040,175.064 40.927 C 174.578 40.839,174.457 41.199,174.532 42.509 C 174.592 43.567,174.955 43.756,175.923 43.235 C 176.442 42.956,176.558 42.955,178.193 43.221 C 179.403 43.418,180.922 43.501,183.292 43.501 C 186.181 43.500,186.667 43.536,186.667 43.750 C 186.667 43.970,187.963 44.000,197.333 44.000 C 207.944 44.000,208.000 43.998,208.000 43.661 C 208.000 43.217,208.429 43.067,209.042 43.298 C 209.440 43.448,209.614 43.433,209.939 43.220 C 210.297 42.986,210.515 42.981,211.879 43.176 C 213.916 43.467,235.653 43.326,236.458 43.016 C 236.481 43.007,236.500 42.438,236.500 41.750 C 236.500 40.457,236.563 40.364,237.364 40.476 C 237.426 40.485,237.464 39.838,237.447 39.038 C 237.417 37.584,237.417 37.583,236.958 37.531 C 236.605 37.490,236.500 37.389,236.500 37.090 C 236.500 36.538,236.288 36.500,233.236 36.500 L 230.500 36.500 230.500 36.000 C 230.500 35.556,230.556 35.500,231.000 35.500 C 231.576 35.500,231.710 34.841,231.255 34.240 C 230.699 33.505,231.008 33.000,232.014 33.000 C 232.335 33.000,232.500 32.915,232.500 32.750 C 232.500 32.583,232.667 32.500,233.000 32.500 L 233.500 32.500 233.500 31.500 L 233.500 30.500 241.657 30.500 C 246.915 30.500,249.850 30.441,249.917 30.333 C 250.346 29.639,251.084 30.310,250.755 31.096 C 250.566 31.549,250.500 32.328,250.500 34.100 L 250.500 36.493 247.378 36.538 L 244.255 36.583 244.153 37.217 C 244.028 37.982,243.899 38.121,243.250 38.193 C 242.556 38.270,242.505 38.394,242.505 40.000 C 242.505 41.454,242.795 42.659,243.192 42.859 C 244.231 43.381,251.973 43.500,268.724 43.249 C 273.122 43.183,275.265 43.208,275.408 43.326 C 275.523 43.422,275.816 43.484,276.059 43.464 L 276.500 43.427 276.500 41.421 C 276.500 40.317,276.415 39.152,276.312 38.832 C 276.209 38.512,276.077 37.875,276.020 37.417 L 275.917 36.583 273.216 36.583 L 270.515 36.583 270.466 35.833 C 270.419 35.125,270.387 35.080,269.887 35.032 C 269.095 34.955,268.861 34.586,269.215 33.969 C 269.741 33.053,269.487 30.776,268.916 31.293 C 268.841 31.361,268.842 31.310,268.917 31.180 C 269.017 31.008,268.985 30.970,268.800 31.041 C 268.635 31.104,268.546 31.041,268.546 30.861 C 268.546 30.708,268.535 29.627,268.523 28.458 L 268.500 26.333 268.026 26.333 C 267.183 26.333,266.756 25.553,267.245 24.907 C 267.425 24.668,267.491 24.094,267.495 22.719 L 267.500 20.854 266.959 20.802 L 266.419 20.750 266.418 18.000 L 266.417 15.250 265.957 15.284 C 265.242 15.337,264.844 14.642,265.222 14.002 C 265.439 13.636,265.500 13.104,265.500 11.599 L 265.500 9.667 264.958 9.667 L 264.417 9.667 264.475 6.929 L 264.534 4.190 263.992 4.137 C 263.264 4.065,263.036 3.677,263.297 2.954 C 263.747 1.711,263.580 0.860,262.875 0.802 C 262.416 0.764,262.206 0.651,262.085 0.375 L 261.921 0.000 252.627 0.000 C 243.646 0.000,243.333 0.011,243.333 0.313 C 243.333 0.757,242.927 1.038,242.236 1.073 C 241.909 1.090,241.591 1.185,241.529 1.285 C 241.467 1.385,241.229 1.493,241.000 1.525 C 240.470 1.599,240.373 2.146,240.749 2.939 C 241.082 3.640,240.880 4.000,240.155 4.000 C 239.895 4.000,239.623 4.105,239.550 4.234 C 239.477 4.363,239.229 4.494,239.000 4.526 C 238.564 4.586,238.514 4.862,238.687 6.250 C 238.745 6.711,238.706 6.754,238.190 6.804 C 237.810 6.840,237.603 6.958,237.548 7.169 C 237.499 7.355,237.288 7.502,237.025 7.532 C 236.611 7.580,236.580 7.644,236.533 8.542 C 236.487 9.437,236.456 9.500,236.071 9.500 C 235.748 9.500,235.637 9.606,235.560 9.991 C 235.485 10.366,235.358 10.494,235.023 10.532 C 234.681 10.572,234.571 10.687,234.530 11.048 C 234.489 11.402,234.368 11.535,234.022 11.604 C 233.546 11.699,233.376 12.376,233.765 12.631 C 234.451 13.081,233.910 14.167,233.000 14.167 C 232.725 14.167,232.500 14.237,232.500 14.322 C 232.500 14.408,232.294 14.502,232.042 14.531 C 231.480 14.595,231.354 15.122,231.753 15.731 C 232.195 16.406,232.025 16.907,231.333 16.968 C 231.012 16.996,230.672 17.120,230.577 17.243 C 230.482 17.367,230.219 17.494,229.993 17.525 C 229.477 17.598,229.380 18.125,229.726 18.989 C 230.021 19.727,229.863 20.000,229.142 20.000 C 228.890 20.000,228.623 20.105,228.550 20.234 C 228.477 20.363,228.229 20.494,228.000 20.526 C 227.601 20.581,227.585 20.628,227.623 21.625 L 227.663 22.667 227.168 22.667 C 226.782 22.667,226.650 22.756,226.571 23.074 C 226.500 23.357,226.334 23.496,226.026 23.532 C 225.681 23.572,225.572 23.686,225.530 24.048 C 225.490 24.400,225.368 24.535,225.030 24.602 C 224.550 24.699,224.341 25.403,224.747 25.559 C 225.562 25.872,225.007 27.167,224.058 27.167 C 223.751 27.167,223.500 27.237,223.500 27.322 C 223.500 27.408,223.294 27.502,223.042 27.531 C 222.478 27.595,222.354 28.122,222.758 28.739 C 223.201 29.415,222.968 30.000,222.255 30.000 C 221.939 30.000,221.624 30.104,221.550 30.234 C 221.477 30.363,221.229 30.494,221.000 30.526 C 220.553 30.587,220.476 31.130,220.757 32.226 C 220.892 32.754,220.674 32.993,220.050 32.997 C 219.848 32.999,219.623 33.105,219.550 33.234 C 219.477 33.363,219.229 33.494,219.000 33.526 C 218.690 33.569,218.570 33.698,218.532 34.032 C 218.492 34.378,218.378 34.492,218.032 34.532 C 217.682 34.572,217.572 34.685,217.531 35.042 C 217.501 35.298,217.375 35.500,217.245 35.500 C 216.957 35.500,216.667 35.983,216.667 36.461 C 216.667 36.532,215.361 36.561,213.766 36.526 C 210.588 36.457,210.500 36.483,210.500 37.500 C 210.500 37.592,210.237 37.667,209.917 37.667 C 209.384 37.667,209.333 37.624,209.333 37.184 C 209.333 36.528,209.199 36.499,206.195 36.505 C 204.163 36.509,203.512 36.565,203.260 36.755 C 202.481 37.344,201.817 36.837,202.256 35.988 C 202.481 35.552,202.523 35.072,202.475 33.434 L 202.417 31.417 202.970 31.364 L 203.523 31.310 203.460 29.864 C 203.425 29.068,203.291 28.174,203.162 27.878 C 202.887 27.243,203.221 26.848,204.042 26.839 L 204.500 26.833 204.500 24.667 L 204.500 22.500 205.019 22.500 L 205.538 22.500 205.477 20.375 L 205.417 18.250 205.917 18.250 L 206.417 18.250 206.391 16.750 C 206.377 15.925,206.339 15.025,206.308 14.750 C 206.255 14.291,206.298 14.243,206.833 14.167 L 207.417 14.083 207.467 12.921 C 207.502 12.097,207.435 11.576,207.235 11.133 C 206.884 10.355,207.104 10.000,207.937 10.000 C 208.493 10.000,208.500 9.991,208.500 9.250 L 208.500 8.500 209.323 8.500 C 210.128 8.500,210.147 8.488,210.198 7.962 C 210.284 7.073,212.383 6.581,213.260 7.245 C 213.494 7.422,214.054 7.491,215.292 7.495 L 217.000 7.500 217.000 6.893 C 217.000 6.194,217.347 5.847,218.054 5.839 L 218.525 5.833 218.422 4.458 C 218.365 3.702,218.321 2.545,218.325 1.886 C 218.333 0.544,218.041 0.219,217.298 0.739 C 216.650 1.193,213.468 0.824,213.363 0.282 C 213.286 -0.119,184.667 -0.159,184.667 0.242 C 184.667 0.386,184.437 0.528,184.104 0.590 C 183.795 0.648,183.544 0.783,183.547 0.890 C 183.583 2.205,183.499 2.478,183.042 2.531 C 182.493 2.594,182.311 3.335,182.739 3.763 C 183.334 4.358,182.855 5.248,182.025 5.088 C 181.541 4.995,181.442 5.235,181.674 5.940 C 181.900 6.623,181.705 6.875,181.042 6.756 C 180.758 6.705,180.643 6.785,180.568 7.085 C 180.500 7.357,180.330 7.497,180.026 7.532 C 179.612 7.580,179.580 7.644,179.534 8.531 C 179.487 9.422,179.457 9.483,179.035 9.531 C 178.465 9.597,178.378 10.009,178.757 10.850 C 179.100 11.610,178.906 12.000,178.183 12.000 C 177.940 12.000,177.612 12.150,177.455 12.333 C 177.298 12.517,177.028 12.667,176.853 12.667 C 176.679 12.667,176.541 12.760,176.545 12.875 C 176.593 14.168,176.499 14.478,176.042 14.531 C 175.477 14.596,175.337 15.262,175.754 15.899 C 176.156 16.513,175.945 17.000,175.276 17.000 C 174.947 17.000,174.631 17.128,174.455 17.333 C 174.298 17.517,174.028 17.667,173.853 17.667 C 173.679 17.667,173.541 17.760,173.545 17.875 C 173.593 19.168,173.499 19.478,173.042 19.531 C 172.477 19.596,172.337 20.262,172.754 20.899 C 173.164 21.526,172.948 21.970,172.202 22.032 C 171.735 22.071,171.574 22.164,171.537 22.417 C 171.411 23.259,171.310 23.477,170.923 23.730 C 170.230 24.185,169.589 22.382,170.250 21.833 C 170.455 21.663,170.500 21.101,170.500 18.730 L 170.500 15.833 170.004 15.833 C 169.184 15.833,168.724 14.635,169.253 13.879 C 169.464 13.578,169.499 12.944,169.462 10.134 L 169.417 6.750 168.940 6.750 C 168.228 6.750,167.829 5.725,168.239 4.949 C 169.112 3.296,168.337 -0.159,167.303 0.778 C 166.715 1.310,163.537 0.928,163.374 0.306 C 163.268 -0.101,143.667 -0.181,143.667 0.225 C 143.667 0.391,143.242 0.478,142.042 0.557 C 141.148 0.616,140.155 0.740,139.834 0.832 C 138.937 1.091,137.217 1.041,136.763 0.743 C 136.470 0.551,136.017 0.498,134.977 0.535 L 133.583 0.583 133.533 1.548 C 133.486 2.452,133.454 2.517,133.020 2.604 L 132.558 2.697 132.570 5.057 L 132.583 7.417 136.031 7.462 L 139.479 7.507 139.531 7.962 C 139.572 8.318,139.683 8.428,140.042 8.469 C 140.483 8.520,140.500 8.558,140.500 9.485 C 140.500 10.015,140.614 10.676,140.752 10.955 C 141.148 11.748,140.844 12.113,139.894 11.986 C 139.590 11.945,139.493 12.614,139.531 14.500 L 139.572 16.583 139.078 16.583 L 138.583 16.583 138.535 17.983 C 138.499 19.016,138.557 19.534,138.759 19.959 C 139.087 20.649,138.922 20.897,138.123 20.916 L 137.583 20.928 137.534 22.134 C 137.498 23.014,137.555 23.438,137.743 23.707 C 138.293 24.492,137.916 25.167,136.928 25.167 C 136.485 25.167,136.237 27.318,136.650 27.573 C 137.411 28.043,136.957 29.423,136.093 29.266 C 135.447 29.149,135.216 30.912,135.768 31.755 C 136.204 32.420,135.963 32.969,135.208 33.032 L 134.583 33.083 134.583 34.303 C 134.583 35.292,134.528 35.554,134.292 35.687 C 134.131 35.776,134.000 36.024,134.000 36.238 C 134.000 36.866,133.615 37.068,133.013 36.757 C 132.588 36.537,131.951 36.501,129.210 36.538 L 125.917 36.583 125.864 37.125 C 125.797 37.823,125.333 37.875,125.333 37.184 C 125.333 36.528,125.202 36.500,122.164 36.500 L 119.522 36.500 119.469 36.042 C 119.428 35.682,119.318 35.572,118.958 35.531 C 118.535 35.482,118.500 35.421,118.500 34.739 C 118.500 34.011,118.492 34.000,117.937 34.000 C 117.135 34.000,116.859 33.617,117.221 33.005 C 117.424 32.661,117.500 32.141,117.500 31.099 L 117.500 29.667 116.958 29.667 L 116.417 29.667 116.475 26.917 L 116.534 24.167 116.072 24.167 C 115.274 24.167,114.965 23.740,115.256 23.043 C 115.424 22.642,115.500 21.840,115.500 20.480 L 115.500 18.500 114.977 18.500 C 114.126 18.500,113.629 17.349,114.255 16.829 C 114.462 16.657,114.502 16.266,114.464 14.767 L 114.417 12.917 113.953 12.917 C 113.371 12.917,113.154 12.587,113.356 12.008 C 113.441 11.764,113.489 10.593,113.464 9.407 L 113.417 7.250 112.866 7.197 C 112.139 7.127,111.834 6.543,112.230 5.978 C 112.442 5.676,112.500 5.169,112.500 3.630 L 112.500 1.667 111.984 1.667 C 111.609 1.667,111.445 1.576,111.382 1.333 C 111.334 1.150,111.284 0.986,111.272 0.970 C 111.247 0.936,103.910 0.716,98.042 0.572 C 94.832 0.494,94.167 0.437,94.167 0.239 C 94.167 0.047,93.825 0.000,92.417 0.000 C 91.007 0.000,90.667 0.047,90.667 0.239 M285.639 0.292 C 285.623 0.452,285.605 0.807,285.597 1.080 C 285.586 1.497,285.502 1.592,285.083 1.669 C 284.592 1.759,284.584 1.777,284.616 2.714 C 284.648 3.660,284.645 3.667,284.169 3.667 C 283.590 3.667,283.423 4.051,283.585 5.007 C 283.694 5.654,283.687 5.667,283.193 5.667 C 282.589 5.667,282.421 6.037,282.585 7.007 C 282.694 7.654,282.687 7.667,282.193 7.667 C 281.579 7.667,281.375 8.128,281.671 8.843 C 281.944 9.503,281.781 9.833,281.182 9.833 C 280.511 9.833,280.408 10.076,280.755 10.844 C 281.106 11.623,280.928 11.953,280.113 12.032 C 279.544 12.087,279.421 12.839,279.709 14.500 C 279.765 14.821,279.816 15.177,279.822 15.292 C 279.828 15.406,279.978 15.500,280.156 15.500 C 280.383 15.500,280.493 15.635,280.531 15.958 C 280.588 16.455,282.472 16.761,282.891 16.342 C 283.397 15.836,284.000 16.247,284.000 17.097 C 284.000 17.527,285.258 17.675,286.083 17.342 C 286.532 17.161,286.833 17.434,286.833 18.020 C 286.833 18.485,286.860 18.500,287.667 18.500 L 288.500 18.500 288.500 17.865 C 288.500 17.516,288.394 17.085,288.264 16.907 C 287.943 16.468,288.217 16.167,288.937 16.167 L 289.500 16.167 289.500 14.758 L 289.500 13.349 289.958 13.383 C 290.345 13.411,290.425 13.345,290.469 12.958 C 290.514 12.574,290.602 12.500,291.011 12.500 C 291.443 12.500,291.500 12.442,291.500 12.000 C 291.500 11.556,291.556 11.500,292.000 11.500 C 292.444 11.500,292.500 11.444,292.500 11.000 C 292.500 10.556,292.556 10.500,293.000 10.500 C 293.444 10.500,293.500 10.444,293.500 10.000 L 293.500 9.500 294.500 9.500 L 295.500 9.500 295.500 9.000 C 295.500 8.505,295.509 8.500,296.417 8.500 C 297.305 8.500,297.333 8.486,297.336 8.042 C 297.341 7.126,298.394 6.674,299.237 7.226 C 299.500 7.399,299.824 7.460,300.137 7.398 C 300.408 7.343,300.674 7.378,300.734 7.475 C 300.854 7.668,300.393 7.948,300.000 7.922 C 299.580 7.894,299.505 8.187,299.503 9.879 L 299.500 11.508 299.021 11.604 L 298.541 11.700 298.541 14.142 L 298.542 16.583 298.063 16.583 L 297.583 16.583 297.531 17.917 C 297.502 18.666,297.569 19.524,297.683 19.876 C 297.916 20.591,297.904 20.617,297.291 20.728 C 297.042 20.773,296.763 20.857,296.669 20.915 C 296.394 21.085,296.464 23.446,296.760 24.020 C 297.082 24.642,296.880 24.958,296.113 25.032 L 295.583 25.083 295.534 26.211 C 295.498 27.023,295.557 27.441,295.742 27.706 C 296.276 28.468,296.000 29.090,295.083 29.194 C 294.416 29.269,294.267 30.767,294.816 31.877 C 295.210 32.673,295.070 33.109,294.370 33.262 C 294.121 33.317,293.823 33.390,293.708 33.425 C 293.572 33.467,293.500 33.833,293.500 34.481 C 293.500 35.026,293.429 35.497,293.342 35.528 C 293.255 35.558,293.140 35.840,293.085 36.153 C 292.921 37.091,292.550 37.259,291.768 36.746 C 291.448 36.537,290.817 36.501,288.149 36.538 L 284.917 36.583 284.833 37.167 C 284.759 37.685,284.685 37.759,284.167 37.833 L 283.583 37.917 283.589 39.784 L 283.595 41.651 283.089 41.700 C 282.600 41.748,282.583 41.777,282.583 42.583 C 282.583 43.562,283.083 43.777,284.094 43.232 C 284.611 42.954,284.695 42.953,285.651 43.219 C 286.472 43.447,287.426 43.500,290.747 43.500 C 294.268 43.500,294.833 43.535,294.833 43.750 C 294.833 43.970,296.315 44.000,307.167 44.000 C 317.598 44.000,319.500 43.964,319.500 43.768 C 319.500 43.640,319.387 43.492,319.250 43.440 C 318.508 43.155,319.183 41.667,320.055 41.667 L 320.500 41.667 320.500 40.120 C 320.500 39.050,320.427 38.470,320.262 38.234 C 320.131 38.047,320.000 37.599,319.970 37.239 L 319.917 36.583 316.167 36.568 L 312.417 36.552 312.474 35.603 C 312.513 34.957,312.442 34.465,312.252 34.064 C 311.909 33.342,312.229 32.833,313.026 32.833 L 313.500 32.833 313.488 31.042 C 313.482 30.056,313.416 29.100,313.342 28.917 C 313.161 28.468,313.434 28.167,314.020 28.167 L 314.500 28.167 314.494 26.792 C 314.490 25.948,314.400 25.257,314.259 25.003 C 313.928 24.405,314.196 24.000,314.923 24.000 L 315.500 24.000 315.500 22.782 C 315.500 21.969,315.419 21.456,315.255 21.240 C 314.724 20.538,315.110 19.750,315.985 19.750 L 316.417 19.750 316.464 18.125 C 316.502 16.831,316.562 16.500,316.756 16.500 C 316.890 16.500,317.000 16.387,317.000 16.250 C 317.000 16.112,317.131 15.999,317.292 15.997 C 317.541 15.995,317.547 15.971,317.333 15.833 C 317.135 15.705,317.131 15.671,317.314 15.669 C 317.502 15.667,317.530 15.270,317.466 13.500 L 317.388 11.333 317.944 11.333 L 318.500 11.333 318.500 9.917 C 318.500 9.083,318.569 8.500,318.667 8.500 C 318.758 8.500,318.833 8.278,318.833 8.006 C 318.833 7.365,319.215 7.167,320.452 7.167 C 321.407 7.167,322.277 7.520,322.086 7.830 C 321.809 8.277,322.226 8.500,323.340 8.500 C 324.457 8.500,324.479 8.508,324.531 8.958 C 324.570 9.300,324.688 9.431,324.993 9.475 C 325.219 9.506,325.482 9.633,325.577 9.757 C 325.672 9.880,326.012 10.004,326.333 10.032 C 327.020 10.092,327.196 10.593,326.763 11.254 C 326.394 11.816,326.388 16.255,326.755 16.740 C 326.890 16.918,327.000 17.387,327.000 17.782 L 327.000 18.500 327.750 18.500 C 328.495 18.500,328.500 18.496,328.500 17.923 C 328.500 17.062,329.506 16.674,330.260 17.245 C 330.734 17.603,334.000 17.608,334.000 17.250 C 334.000 17.112,334.113 17.000,334.250 17.000 C 334.388 17.000,334.481 16.906,334.458 16.792 C 334.429 16.647,334.734 16.568,335.458 16.534 L 336.500 16.484 336.500 13.003 L 336.500 9.521 335.964 9.469 C 335.164 9.391,334.807 8.689,335.208 7.985 C 335.441 7.577,335.500 7.073,335.500 5.497 L 335.500 3.521 334.964 3.469 C 334.164 3.391,333.807 2.689,334.208 1.985 C 334.463 1.538,334.585 1.045,334.458 0.978 C 334.368 0.931,314.097 0.634,306.292 0.566 C 299.110 0.504,298.000 0.461,298.000 0.247 C 298.000 -0.165,285.678 -0.121,285.639 0.292 M342.111 0.611 C 342.050 0.672,342.000 0.926,342.000 1.174 C 342.000 1.719,341.750 1.952,341.083 2.027 L 340.583 2.083 340.536 3.809 C 340.508 4.827,340.559 5.620,340.660 5.742 C 340.755 5.857,340.881 6.299,340.939 6.725 L 341.045 7.500 343.759 7.500 C 345.991 7.500,346.559 7.450,346.958 7.221 C 347.575 6.868,347.979 7.022,348.107 7.659 C 348.162 7.934,348.310 8.245,348.437 8.350 C 348.700 8.568,348.751 9.656,348.500 9.688 C 348.408 9.699,348.202 9.716,348.042 9.726 C 347.467 9.760,347.232 13.049,347.755 13.740 C 348.287 14.443,347.987 15.092,347.083 15.194 L 346.583 15.250 346.536 16.880 L 346.488 18.511 345.991 18.610 C 345.594 18.690,345.533 18.755,345.684 18.938 C 345.817 19.098,345.820 19.167,345.692 19.167 C 345.486 19.167,345.525 22.670,345.739 23.281 C 345.854 23.609,345.804 23.650,345.225 23.697 L 344.583 23.750 344.534 25.080 C 344.505 25.858,344.564 26.558,344.675 26.766 C 344.994 27.362,344.813 27.740,344.165 27.833 L 343.583 27.917 343.533 29.079 C 343.497 29.909,343.565 30.423,343.769 30.876 C 344.100 31.611,343.997 31.782,343.167 31.873 C 342.464 31.950,342.245 32.955,342.759 33.741 C 343.201 34.415,342.967 35.000,342.255 35.000 C 341.939 35.000,341.624 35.104,341.550 35.234 C 341.477 35.363,341.229 35.494,341.000 35.526 C 340.688 35.569,340.570 35.698,340.531 36.039 L 340.478 36.494 336.531 36.539 L 332.583 36.583 332.533 37.459 C 332.499 38.050,332.567 38.455,332.741 38.705 C 333.293 39.492,332.917 40.167,331.928 40.167 C 331.451 40.167,331.241 42.654,331.694 42.933 C 331.885 43.052,340.658 43.295,349.875 43.436 C 353.947 43.499,354.667 43.547,354.667 43.755 C 354.667 43.969,356.778 44.000,371.333 44.000 C 385.921 44.000,388.000 43.969,388.000 43.754 C 388.000 43.618,388.185 43.387,388.410 43.239 C 388.636 43.091,388.871 42.808,388.933 42.610 C 389.080 42.137,389.302 42.006,389.958 42.003 C 390.534 42.000,390.647 41.682,390.345 40.917 C 390.139 40.397,390.320 40.167,390.934 40.167 C 391.389 40.167,391.500 40.101,391.500 39.833 C 391.500 39.574,391.611 39.500,392.000 39.500 L 392.500 39.500 392.500 38.500 L 392.500 37.500 393.000 37.500 C 393.587 37.500,393.695 36.860,393.251 36.002 C 392.941 35.402,393.246 35.000,394.012 35.000 C 394.335 35.000,394.500 34.915,394.500 34.750 C 394.500 34.533,394.928 34.405,395.387 34.484 C 395.463 34.498,395.511 34.338,395.494 34.129 C 395.386 32.802,395.479 32.500,396.000 32.500 L 396.500 32.500 396.500 31.500 L 396.500 30.500 397.006 30.500 L 397.513 30.500 397.465 29.042 L 397.417 27.583 396.386 27.631 L 395.355 27.678 395.303 27.131 L 395.250 26.583 393.343 26.536 C 392.295 26.510,391.346 26.413,391.235 26.321 C 391.095 26.205,391.006 26.219,390.946 26.368 C 390.897 26.491,390.853 26.441,390.844 26.250 C 390.831 25.968,390.801 25.955,390.651 26.167 C 390.511 26.364,390.489 26.324,390.543 25.979 L 390.613 25.541 389.071 25.513 C 388.092 25.494,387.488 25.551,387.415 25.669 C 387.141 26.113,386.479 26.181,385.902 25.824 C 384.805 25.146,384.180 25.671,384.773 26.772 C 385.168 27.504,384.950 27.897,384.108 27.968 C 383.507 28.020,383.500 28.029,383.500 28.764 C 383.500 29.446,383.461 29.516,383.034 29.602 C 382.668 29.675,382.565 29.791,382.554 30.139 C 382.513 31.484,382.516 31.476,382.042 31.531 C 381.680 31.572,381.572 31.681,381.530 32.048 C 381.489 32.408,381.369 32.535,381.001 32.608 C 380.739 32.661,380.556 32.789,380.594 32.893 C 380.704 33.194,380.452 33.461,380.000 33.525 C 379.703 33.567,379.567 33.703,379.526 34.000 C 379.494 34.229,379.363 34.477,379.234 34.550 C 379.105 34.623,379.000 34.895,379.000 35.155 C 379.000 35.868,378.640 36.081,377.997 35.748 C 377.324 35.401,377.000 35.528,377.000 36.141 C 377.000 36.891,376.613 37.115,375.903 36.777 C 375.388 36.532,374.476 36.500,367.911 36.500 L 360.500 36.500 360.495 36.042 C 360.492 35.790,360.379 35.438,360.245 35.260 C 359.714 34.559,360.111 33.750,360.985 33.750 C 361.416 33.750,361.417 33.749,361.464 32.136 C 361.504 30.777,361.557 30.510,361.798 30.447 C 362.062 30.377,362.062 30.371,361.792 30.353 C 361.593 30.340,361.500 30.194,361.500 29.898 C 361.500 29.509,361.553 29.470,362.000 29.536 L 362.500 29.609 362.500 27.982 C 362.500 27.087,362.432 26.175,362.348 25.955 C 362.102 25.307,362.370 25.053,363.044 25.297 C 363.731 25.545,367.767 25.575,367.917 25.333 C 368.268 24.765,369.000 25.281,369.000 26.097 C 369.000 26.341,369.097 26.500,369.246 26.500 C 369.452 26.500,369.500 26.981,369.538 29.458 L 369.583 32.417 372.404 32.462 C 375.352 32.510,375.608 32.453,375.402 31.792 C 375.326 31.547,375.419 31.500,375.979 31.500 C 376.346 31.500,376.692 31.427,376.747 31.338 C 376.802 31.249,377.219 31.127,377.674 31.067 L 378.500 30.957 378.500 30.229 C 378.500 29.525,378.518 29.500,379.016 29.500 L 379.532 29.500 379.476 26.958 L 379.420 24.417 379.960 24.364 L 380.500 24.312 380.494 22.864 C 380.490 21.951,380.403 21.263,380.257 21.000 C 379.960 20.465,380.318 20.000,381.026 20.000 L 381.500 20.000 381.500 18.250 L 381.500 16.500 382.004 16.500 L 382.509 16.500 382.463 14.042 L 382.417 11.583 378.002 11.583 C 373.052 11.583,373.123 11.563,373.773 12.772 C 374.168 13.504,373.950 13.897,373.108 13.968 C 372.557 14.015,372.130 14.667,372.650 14.667 C 372.733 14.667,372.877 14.886,372.970 15.153 C 373.183 15.765,372.810 16.167,372.029 16.167 C 371.738 16.167,371.500 16.242,371.500 16.333 C 371.500 16.425,371.284 16.500,371.021 16.500 C 370.219 16.500,369.521 16.693,369.594 16.893 C 369.764 17.360,369.366 17.481,367.413 17.553 C 366.315 17.593,365.192 17.675,364.917 17.734 C 364.159 17.899,363.895 17.649,364.252 17.104 C 364.455 16.793,364.683 16.667,365.036 16.667 L 365.535 16.667 365.476 14.542 L 365.417 12.417 365.917 12.417 L 366.417 12.417 366.465 10.931 C 366.492 10.114,366.440 9.233,366.349 8.973 C 366.199 8.544,366.230 8.476,366.675 8.246 C 366.946 8.106,367.167 7.858,367.167 7.696 C 367.167 7.094,367.503 7.000,369.658 7.001 C 371.188 7.002,371.878 7.069,372.227 7.251 C 372.928 7.617,379.249 7.613,379.939 7.247 C 380.869 6.754,382.333 7.218,382.333 8.006 L 382.333 8.500 383.417 8.500 L 384.500 8.500 384.500 9.000 C 384.500 9.442,384.557 9.500,384.989 9.500 C 385.398 9.500,385.486 9.574,385.531 9.958 C 385.572 10.318,385.682 10.428,386.042 10.469 C 386.469 10.519,386.500 10.576,386.502 11.303 C 386.506 12.513,386.631 12.818,387.092 12.734 C 387.576 12.646,387.801 13.010,387.858 13.974 C 387.905 14.769,387.755 14.983,387.112 15.036 C 386.051 15.124,386.253 17.060,387.330 17.136 C 387.741 17.166,388.161 17.259,388.263 17.344 C 388.382 17.443,388.638 17.406,388.963 17.243 C 389.476 16.987,390.333 17.055,390.333 17.351 C 390.333 17.433,391.533 17.500,393.000 17.500 L 395.667 17.500 395.667 17.012 C 395.667 16.102,396.325 15.781,397.227 16.251 C 397.516 16.402,398.159 16.500,398.852 16.500 L 400.000 16.500 400.000 12.417 C 400.000 8.915,399.965 8.333,399.752 8.333 C 399.174 8.333,398.755 6.245,399.250 5.833 C 399.449 5.668,399.500 5.177,399.500 3.414 L 399.500 1.202 398.792 1.083 C 396.476 0.696,347.182 0.384,345.954 0.748 C 344.866 1.071,343.189 1.069,342.760 0.745 C 342.401 0.473,342.275 0.447,342.111 0.611 M151.934 11.403 C 151.984 11.533,151.916 11.847,151.783 12.101 L 151.541 12.563 151.279 12.056 C 151.082 11.675,151.064 11.502,151.209 11.358 C 151.471 11.096,151.825 11.118,151.934 11.403 M246.751 11.501 C 246.897 11.737,246.676 12.359,246.488 12.243 C 246.285 12.117,246.287 11.333,246.490 11.333 C 246.576 11.333,246.694 11.409,246.751 11.501 M95.214 12.153 C 95.616 12.306,95.616 12.308,95.536 14.388 C 95.439 16.922,95.516 17.339,96.064 17.239 C 96.632 17.136,96.938 17.554,96.691 18.096 C 96.229 19.111,96.486 22.494,97.019 22.411 C 97.488 22.338,97.720 22.598,97.603 23.065 C 97.494 23.499,97.112 23.649,96.917 23.333 C 96.860 23.242,96.724 23.168,96.615 23.169 C 96.496 23.171,96.516 23.236,96.667 23.333 C 96.832 23.440,95.494 23.496,92.729 23.497 C 89.356 23.500,88.503 23.545,88.348 23.732 C 88.031 24.115,87.524 24.156,87.124 23.832 L 86.750 23.528 87.100 23.055 C 87.335 22.738,87.629 22.566,87.995 22.530 L 88.540 22.476 88.445 21.696 C 88.393 21.267,88.328 20.767,88.300 20.583 C 88.259 20.307,88.358 20.241,88.875 20.198 C 89.365 20.158,89.500 20.077,89.500 19.823 C 89.500 19.575,89.616 19.500,90.000 19.500 C 90.444 19.500,90.500 19.444,90.500 19.000 C 90.500 18.667,90.583 18.500,90.750 18.500 C 90.888 18.500,91.000 18.387,91.000 18.250 C 91.000 18.112,91.100 18.000,91.222 18.000 C 91.344 18.000,91.444 17.887,91.444 17.750 C 91.444 17.612,91.344 17.500,91.222 17.500 C 91.075 17.500,91.000 17.281,91.000 16.851 C 91.000 16.148,91.176 16.000,92.014 16.000 C 92.335 16.000,92.500 15.915,92.500 15.750 C 92.500 15.581,92.669 15.500,93.023 15.500 L 93.546 15.500 93.454 14.486 C 93.377 13.631,93.413 13.421,93.681 13.152 C 93.857 12.977,94.000 12.690,94.000 12.514 C 94.000 12.035,94.508 11.884,95.214 12.153 M246.500 13.883 C 246.500 14.094,246.594 14.368,246.708 14.491 C 246.875 14.671,246.875 14.692,246.708 14.598 C 246.594 14.533,246.500 14.567,246.500 14.672 C 246.500 14.778,246.649 14.904,246.831 14.951 C 247.014 14.999,247.124 15.101,247.076 15.178 C 247.028 15.256,246.860 15.282,246.703 15.238 C 246.546 15.193,246.591 15.248,246.804 15.359 C 247.120 15.525,247.219 15.518,247.340 15.323 C 247.433 15.173,247.507 15.930,247.536 17.333 L 247.583 19.583 248.083 19.640 C 248.991 19.742,249.314 20.521,248.755 21.260 C 248.608 21.455,248.508 21.965,248.505 22.542 L 248.500 23.500 245.542 23.505 C 243.205 23.509,242.515 23.562,242.260 23.755 C 241.773 24.123,238.460 24.104,238.151 23.731 C 237.906 23.436,238.587 22.667,239.093 22.667 C 239.368 22.667,239.415 22.403,239.167 22.250 C 238.591 21.894,239.152 21.000,239.950 21.000 C 240.328 21.000,240.500 20.922,240.500 20.750 C 240.500 20.583,240.667 20.500,241.000 20.500 C 241.567 20.500,241.667 20.030,241.316 19.021 C 241.085 18.360,241.334 18.000,242.020 18.000 C 242.336 18.000,242.500 17.914,242.500 17.750 C 242.500 17.583,242.667 17.500,243.000 17.500 C 243.444 17.500,243.500 17.444,243.500 17.000 C 243.500 16.642,243.583 16.494,243.792 16.481 C 244.069 16.462,244.069 16.458,243.792 16.385 C 243.223 16.237,243.416 15.450,244.000 15.536 C 244.470 15.605,244.500 15.576,244.500 15.054 C 244.500 14.550,244.545 14.500,245.000 14.500 C 245.444 14.500,245.500 14.444,245.500 14.000 C 245.500 13.556,245.556 13.500,246.000 13.500 C 246.411 13.500,246.500 13.569,246.500 13.883 M269.167 30.730 C 269.167 30.868,269.242 31.027,269.333 31.083 C 269.425 31.140,269.500 31.074,269.500 30.936 C 269.500 30.799,269.425 30.640,269.333 30.583 C 269.242 30.527,269.167 30.593,269.167 30.730 M147.000 31.750 C 147.000 31.887,146.887 32.000,146.750 32.000 C 146.612 32.000,146.500 31.921,146.500 31.823 C 146.500 31.726,146.575 31.693,146.667 31.750 C 146.758 31.807,146.833 31.774,146.833 31.677 C 146.833 31.579,146.871 31.500,146.917 31.500 C 146.962 31.500,147.000 31.613,147.000 31.750 M209.751 40.335 C 209.897 40.570,209.676 41.192,209.488 41.076 C 209.285 40.951,209.287 40.167,209.490 40.167 C 209.576 40.167,209.694 40.242,209.751 40.335 " stroke="none" fill="#9c9c9c" fill-rule="evenodd"></path><path id="path1" d="M23.500 0.313 C 23.500 0.676,24.418 1.183,24.819 1.042 C 25.952 0.641,25.755 0.000,24.500 0.000 C 23.633 0.000,23.500 0.042,23.500 0.313 M42.167 0.300 C 42.167 0.812,42.469 0.983,43.014 0.777 C 43.777 0.489,43.664 0.000,42.833 0.000 C 42.302 0.000,42.167 0.061,42.167 0.300 M49.500 0.550 C 49.500 1.087,49.515 1.098,50.125 1.030 C 51.475 0.880,51.653 0.000,50.333 0.000 C 49.502 0.000,49.500 0.001,49.500 0.550 M57.365 0.289 C 57.400 0.471,57.637 0.617,58.002 0.683 C 58.322 0.740,58.794 0.873,59.053 0.977 C 60.020 1.368,60.500 1.237,60.500 0.583 L 60.500 0.000 58.904 0.000 C 57.480 0.000,57.315 0.031,57.365 0.289 M94.167 0.239 C 94.167 0.437,94.832 0.494,98.042 0.572 C 103.910 0.716,111.247 0.936,111.272 0.970 C 111.284 0.986,111.334 1.150,111.382 1.333 C 111.499 1.781,112.503 1.819,112.495 1.375 C 112.487 0.969,112.100 0.500,111.773 0.500 C 111.623 0.500,111.500 0.388,111.500 0.250 C 111.500 0.031,110.426 0.000,102.833 0.000 C 95.419 0.000,94.167 0.035,94.167 0.239 M136.500 0.273 C 136.500 0.942,138.367 1.255,139.834 0.832 C 140.155 0.740,141.148 0.616,142.042 0.557 C 143.242 0.478,143.667 0.391,143.667 0.225 C 143.667 0.043,142.980 0.000,140.083 0.000 C 136.874 0.000,136.500 0.028,136.500 0.273 M163.363 0.281 C 163.472 0.846,166.663 1.321,167.224 0.855 C 168.025 0.190,167.619 -0.000,165.404 0.000 C 163.529 0.000,163.315 0.030,163.363 0.281 M213.364 0.287 C 213.515 1.072,217.358 1.152,217.470 0.372 C 217.523 0.004,217.500 0.000,215.416 0.000 C 213.513 0.000,213.314 0.028,213.364 0.287 M241.500 0.563 C 241.500 1.116,241.511 1.125,242.171 1.080 C 243.636 0.980,243.860 0.000,242.417 0.000 L 241.500 0.000 241.500 0.563 M262.000 0.217 C 262.000 0.588,262.378 0.833,262.950 0.833 C 263.426 0.833,263.500 0.777,263.500 0.417 C 263.500 0.034,263.439 0.000,262.750 0.000 C 262.246 0.000,262.000 0.071,262.000 0.217 M285.500 0.250 C 285.500 0.407,285.341 0.500,285.073 0.500 C 284.832 0.500,284.692 0.572,284.750 0.667 C 284.807 0.758,284.785 0.833,284.702 0.833 C 284.619 0.833,284.545 1.048,284.537 1.310 C 284.524 1.759,284.555 1.780,285.053 1.678 C 285.511 1.584,285.992 -0.000,285.562 -0.000 C 285.528 -0.000,285.500 0.112,285.500 0.250 M298.000 0.250 C 298.000 0.469,298.997 0.500,305.973 0.500 C 310.359 0.500,314.540 0.574,315.265 0.664 C 315.990 0.754,320.615 0.848,325.542 0.872 L 334.500 0.917 334.500 0.458 L 334.500 0.000 316.250 0.000 C 300.139 0.000,298.000 0.029,298.000 0.250 M342.500 0.273 C 342.500 0.996,344.290 1.242,345.954 0.748 C 347.182 0.384,396.476 0.696,398.792 1.083 L 399.500 1.202 399.500 0.601 L 399.500 0.000 371.000 0.000 C 344.698 0.000,342.500 0.021,342.500 0.273 M45.125 0.605 C 45.240 0.654,45.333 0.918,45.333 1.191 C 45.333 1.954,46.391 1.844,46.467 1.073 C 46.516 0.571,46.504 0.563,45.717 0.540 C 45.277 0.527,45.010 0.556,45.125 0.605 M218.144 0.643 C 218.316 0.757,218.343 1.033,218.254 1.797 C 218.109 3.044,218.311 3.500,219.006 3.500 L 219.500 3.500 219.500 2.031 L 219.500 0.562 218.708 0.528 C 218.193 0.506,217.996 0.546,218.144 0.643 M340.611 0.611 C 340.550 0.672,340.500 1.032,340.500 1.411 C 340.500 2.581,341.865 2.253,342.034 1.042 C 342.107 0.512,341.035 0.187,340.611 0.611 M17.750 1.667 C 17.807 1.758,17.778 1.833,17.687 1.833 C 17.595 1.833,17.532 1.987,17.546 2.175 C 17.567 2.450,17.670 2.506,18.078 2.466 C 18.356 2.439,18.572 2.342,18.558 2.250 C 18.544 2.158,18.603 1.952,18.689 1.792 C 18.824 1.539,18.765 1.500,18.246 1.500 C 17.889 1.500,17.689 1.567,17.750 1.667 M46.985 2.107 C 47.179 3.303,48.500 3.286,48.500 2.087 L 48.500 1.500 47.693 1.500 L 46.886 1.500 46.985 2.107 M88.611 1.611 C 88.550 1.672,88.500 2.034,88.500 2.414 L 88.500 3.106 89.208 3.011 C 89.984 2.908,90.197 2.512,89.838 1.842 C 89.660 1.509,88.863 1.359,88.611 1.611 M334.259 1.870 C 333.750 2.597,334.166 3.500,335.009 3.500 C 335.498 3.500,335.500 3.496,335.500 2.500 C 335.500 1.365,334.846 1.033,334.259 1.870 M239.619 2.603 C 239.553 2.669,239.500 3.032,239.500 3.411 C 239.500 4.143,240.337 4.349,240.841 3.741 C 241.284 3.206,240.110 2.113,239.619 2.603 M263.339 2.822 C 262.939 3.570,263.248 4.167,264.033 4.167 C 264.482 4.167,264.500 4.135,264.500 3.333 C 264.500 2.404,263.742 2.070,263.339 2.822 M283.750 2.667 C 283.807 2.758,283.786 2.833,283.704 2.833 C 283.621 2.833,283.549 3.115,283.542 3.458 C 283.535 3.802,283.567 3.990,283.612 3.875 C 283.657 3.760,283.913 3.667,284.181 3.667 C 284.680 3.667,284.740 3.542,284.562 2.875 C 284.492 2.616,284.335 2.500,284.054 2.500 C 283.825 2.500,283.692 2.573,283.750 2.667 M59.276 2.971 C 58.702 3.606,59.111 4.500,59.977 4.500 C 60.500 4.500,60.500 4.500,60.500 3.583 C 60.500 2.567,59.909 2.272,59.276 2.971 M181.611 3.611 C 181.191 4.031,181.512 5.117,182.048 5.091 C 182.774 5.054,183.000 4.895,183.000 4.419 C 183.000 3.744,182.038 3.184,181.611 3.611 M11.750 4.667 C 11.807 4.758,11.770 4.833,11.669 4.833 C 11.404 4.833,11.537 5.396,11.833 5.530 C 12.404 5.788,12.667 5.678,12.667 5.181 C 12.667 4.913,12.760 4.657,12.875 4.610 C 12.990 4.564,12.760 4.520,12.365 4.513 C 11.926 4.505,11.687 4.565,11.750 4.667 M86.619 4.603 C 86.553 4.669,86.500 5.032,86.500 5.411 C 86.500 6.143,87.337 6.349,87.841 5.741 C 88.284 5.206,87.110 4.113,86.619 4.603 M168.246 4.947 C 167.786 5.648,168.227 6.746,168.974 6.761 L 169.500 6.771 169.500 5.636 L 169.500 4.500 169.019 4.500 C 168.682 4.500,168.451 4.633,168.246 4.947 M282.750 4.667 C 282.807 4.758,282.786 4.833,282.704 4.833 C 282.621 4.833,282.549 5.115,282.542 5.458 C 282.535 5.802,282.567 5.990,282.612 5.875 C 282.657 5.760,282.913 5.667,283.181 5.667 C 283.680 5.667,283.740 5.542,283.562 4.875 C 283.492 4.616,283.335 4.500,283.054 4.500 C 282.825 4.500,282.692 4.573,282.750 4.667 M112.252 5.937 C 111.838 6.569,112.116 7.105,112.904 7.197 L 113.500 7.266 113.500 6.383 C 113.500 5.323,112.815 5.078,112.252 5.937 M180.619 5.603 C 180.553 5.669,180.506 6.028,180.513 6.403 C 180.520 6.777,180.562 6.995,180.606 6.888 C 180.650 6.780,180.850 6.722,181.051 6.758 C 181.655 6.866,181.898 6.611,181.716 6.061 C 181.561 5.593,180.903 5.319,180.619 5.603 M237.611 5.611 C 237.173 6.050,237.514 6.931,238.096 6.863 C 238.782 6.783,238.916 6.572,238.678 5.945 C 238.515 5.517,237.899 5.324,237.611 5.611 M339.611 5.611 C 339.550 5.672,339.500 6.122,339.500 6.611 L 339.500 7.500 340.273 7.500 L 341.045 7.500 340.939 6.725 C 340.794 5.665,340.121 5.101,339.611 5.611 M399.276 5.805 C 398.778 6.355,399.151 8.333,399.752 8.333 C 399.952 8.333,400.000 8.059,400.000 6.917 C 400.000 5.413,399.845 5.175,399.276 5.805 M217.292 6.065 C 217.108 6.205,217.000 6.511,217.000 6.893 L 217.000 7.500 217.750 7.500 L 218.500 7.500 218.500 6.667 C 218.500 5.762,218.011 5.519,217.292 6.065 M35.672 6.213 C 35.374 6.364,35.252 6.570,35.233 6.961 L 35.206 7.500 37.447 7.500 L 39.688 7.500 39.636 6.962 C 39.549 6.071,36.931 5.576,35.672 6.213 M8.592 6.708 C 8.557 6.823,8.475 7.142,8.410 7.417 C 8.345 7.692,8.258 7.823,8.216 7.708 C 8.173 7.594,8.028 7.500,7.893 7.500 C 7.758 7.500,7.693 7.575,7.750 7.667 C 7.807 7.758,7.778 7.833,7.687 7.833 C 7.595 7.833,7.532 7.983,7.546 8.167 C 7.576 8.573,8.410 8.641,8.560 8.250 C 8.615 8.107,8.864 8.000,9.141 8.000 C 9.718 8.000,9.932 7.771,10.034 7.042 C 10.109 6.502,10.106 6.500,9.383 6.500 C 8.947 6.500,8.631 6.583,8.592 6.708 M281.750 6.667 C 281.807 6.758,281.786 6.833,281.704 6.833 C 281.621 6.833,281.549 7.115,281.542 7.458 C 281.535 7.802,281.567 7.990,281.612 7.875 C 281.657 7.760,281.913 7.667,282.181 7.667 C 282.680 7.667,282.740 7.542,282.562 6.875 C 282.492 6.616,282.335 6.500,282.054 6.500 C 281.825 6.500,281.692 6.573,281.750 6.667 M58.305 7.284 C 57.951 7.711,58.337 8.408,58.961 8.469 C 59.493 8.520,59.500 8.512,59.500 7.802 C 59.499 7.026,58.779 6.713,58.305 7.284 M210.667 7.215 C 210.375 7.361,210.234 7.586,210.198 7.962 L 210.146 8.500 211.823 8.500 L 213.500 8.500 213.500 7.923 C 213.500 7.038,211.841 6.624,210.667 7.215 M297.833 7.121 C 297.478 7.257,297.339 7.515,297.336 8.042 C 297.333 8.644,299.391 8.773,299.578 8.182 C 299.635 8.002,299.803 7.885,299.965 7.911 C 300.358 7.974,300.866 7.688,300.736 7.477 C 300.677 7.381,300.393 7.345,300.106 7.396 C 299.776 7.455,299.464 7.399,299.260 7.244 C 298.935 6.999,298.299 6.944,297.833 7.121 M346.875 7.255 C 346.271 7.681,346.353 8.500,347.000 8.500 C 347.491 8.500,347.500 8.516,347.512 9.375 C 347.518 9.856,347.574 10.136,347.637 9.996 C 347.699 9.857,347.881 9.735,348.042 9.726 C 348.202 9.716,348.408 9.699,348.500 9.688 C 348.735 9.658,348.708 8.608,348.467 8.367 C 348.357 8.257,348.188 7.923,348.092 7.625 C 347.889 6.997,347.436 6.859,346.875 7.255 M367.367 7.200 C 367.257 7.310,367.167 7.533,367.167 7.696 C 367.167 7.858,366.946 8.106,366.675 8.246 C 366.222 8.480,366.197 8.538,366.358 9.000 C 366.616 9.740,367.500 9.740,367.500 9.000 L 367.500 8.500 370.000 8.500 L 372.500 8.500 372.500 7.913 C 372.500 7.435,372.420 7.295,372.072 7.163 C 371.442 6.923,367.614 6.953,367.367 7.200 M380.000 7.210 C 379.710 7.359,379.567 7.588,379.531 7.962 L 379.479 8.500 380.906 8.500 L 382.333 8.500 382.333 8.006 C 382.333 7.253,380.882 6.758,380.000 7.210 M41.792 7.399 C 41.159 7.879,41.417 8.500,42.250 8.500 C 42.932 8.500,43.000 8.464,43.000 8.097 C 43.000 7.193,42.468 6.885,41.792 7.399 M319.125 7.347 C 318.952 7.448,318.833 7.716,318.833 8.008 L 318.833 8.500 320.489 8.500 L 322.144 8.500 322.097 8.058 C 322.011 7.254,320.079 6.791,319.125 7.347 M31.370 7.989 C 31.358 8.423,31.410 8.476,31.839 8.463 C 32.105 8.456,32.283 8.386,32.234 8.308 C 32.186 8.230,32.210 8.167,32.288 8.167 C 32.366 8.167,32.440 8.017,32.454 7.833 C 32.475 7.563,32.377 7.500,31.932 7.500 C 31.440 7.500,31.383 7.550,31.370 7.989 M84.611 7.611 C 84.173 8.050,84.514 8.931,85.096 8.863 C 85.782 8.783,85.916 8.572,85.678 7.945 C 85.515 7.517,84.899 7.324,84.611 7.611 M335.259 7.870 C 334.750 8.597,335.166 9.500,336.009 9.500 C 336.498 9.500,336.500 9.496,336.500 8.500 C 336.500 7.365,335.846 7.033,335.259 7.870 M29.221 8.375 C 28.796 9.047,29.017 9.500,29.770 9.500 C 30.458 9.500,30.500 9.473,30.500 9.033 C 30.500 8.275,29.583 7.803,29.221 8.375 M235.750 8.667 C 235.807 8.758,235.785 8.833,235.702 8.833 C 235.619 8.833,235.548 9.077,235.544 9.375 C 235.540 9.673,235.572 9.823,235.616 9.708 C 235.659 9.594,235.876 9.500,236.097 9.500 C 236.441 9.500,236.500 9.421,236.497 8.958 C 236.496 8.547,236.456 8.477,236.333 8.667 C 236.226 8.833,236.171 8.847,236.169 8.708 C 236.168 8.594,236.050 8.500,235.907 8.500 C 235.764 8.500,235.693 8.575,235.750 8.667 M264.439 8.874 C 264.253 9.566,264.314 9.667,264.917 9.667 C 265.465 9.667,265.500 9.634,265.500 9.119 C 265.500 8.415,264.616 8.211,264.439 8.874 M280.611 8.611 C 280.550 8.672,280.500 8.995,280.500 9.328 C 280.500 9.976,281.552 10.160,281.785 9.553 C 282.028 8.918,281.072 8.150,280.611 8.611 M44.500 10.682 L 44.500 11.500 45.077 11.500 C 46.026 11.500,46.429 10.263,45.542 10.076 C 44.431 9.843,44.500 9.803,44.500 10.682 M325.500 10.697 L 325.500 11.500 326.077 11.500 C 327.258 11.500,327.376 10.145,326.208 9.989 L 325.500 9.894 325.500 10.697 M207.167 10.250 C 206.779 10.718,207.261 11.500,207.937 11.500 C 208.493 11.500,208.500 11.491,208.500 10.750 C 208.500 9.937,207.681 9.630,207.167 10.250 M26.079 10.566 C 25.936 10.786,25.666 11.005,25.480 11.054 C 25.294 11.102,25.104 11.288,25.057 11.467 C 25.010 11.645,24.753 11.953,24.486 12.151 C 23.672 12.752,23.929 13.500,24.950 13.500 C 25.450 13.500,25.500 13.455,25.500 13.000 C 25.500 12.556,25.556 12.500,26.000 12.500 C 26.444 12.500,26.500 12.444,26.500 12.000 C 26.500 11.556,26.556 11.500,27.000 11.500 C 27.437 11.500,27.500 11.441,27.500 11.033 C 27.500 10.137,26.563 9.828,26.079 10.566 M4.611 10.611 C 4.550 10.672,4.500 10.892,4.500 11.100 C 4.500 11.388,4.391 11.490,4.042 11.531 C 3.625 11.579,3.579 11.652,3.534 12.344 L 3.484 13.105 4.034 13.075 C 4.336 13.058,4.643 13.034,4.717 13.022 C 4.790 13.010,4.961 12.734,5.097 12.409 C 5.233 12.085,5.454 11.777,5.589 11.725 C 5.844 11.627,5.905 11.215,5.732 10.764 C 5.632 10.502,4.830 10.393,4.611 10.611 M82.750 10.667 C 82.807 10.758,82.786 10.833,82.704 10.833 C 82.621 10.833,82.549 11.115,82.542 11.458 C 82.535 11.802,82.567 11.990,82.612 11.875 C 82.657 11.760,82.913 11.667,83.181 11.667 C 83.680 11.667,83.740 11.542,83.562 10.875 C 83.492 10.616,83.335 10.500,83.054 10.500 C 82.825 10.500,82.692 10.573,82.750 10.667 M139.611 10.611 C 139.550 10.672,139.501 11.103,139.503 11.569 C 139.504 12.035,139.560 12.341,139.628 12.249 C 139.695 12.157,139.975 12.056,140.250 12.024 C 140.999 11.937,141.159 11.375,140.626 10.708 C 140.449 10.487,139.797 10.425,139.611 10.611 M177.611 10.611 C 177.550 10.672,177.500 11.032,177.500 11.411 C 177.500 12.147,178.338 12.347,178.848 11.733 C 179.347 11.131,178.164 10.058,177.611 10.611 M279.611 10.611 C 279.550 10.672,279.500 11.032,279.500 11.411 C 279.500 12.147,280.338 12.347,280.848 11.733 C 281.347 11.131,280.164 10.058,279.611 10.611 M151.209 11.358 C 151.064 11.502,151.082 11.675,151.279 12.056 L 151.541 12.563 151.783 12.101 C 152.162 11.378,151.737 10.829,151.209 11.358 M246.333 11.740 C 246.333 11.964,246.403 12.190,246.488 12.243 C 246.676 12.359,246.897 11.737,246.751 11.501 C 246.562 11.196,246.333 11.327,246.333 11.740 M317.333 11.653 C 317.333 12.260,317.528 12.500,318.018 12.500 C 318.458 12.500,318.500 12.449,318.500 11.917 C 318.500 11.361,318.472 11.333,317.917 11.333 C 317.453 11.333,317.333 11.399,317.333 11.653 M57.399 11.764 C 57.454 11.909,57.500 12.124,57.500 12.243 C 57.500 12.361,57.686 12.458,57.914 12.458 C 58.141 12.458,58.287 12.393,58.237 12.313 C 58.188 12.232,58.210 12.167,58.288 12.167 C 58.366 12.167,58.440 12.017,58.454 11.833 C 58.475 11.558,58.377 11.500,57.888 11.500 C 57.418 11.500,57.318 11.554,57.399 11.764 M113.367 11.975 C 113.150 12.598,113.362 12.917,113.994 12.917 C 114.474 12.917,114.500 12.882,114.500 12.244 C 114.500 11.351,113.655 11.150,113.367 11.975 M94.208 12.110 C 94.094 12.157,94.000 12.338,94.000 12.514 C 94.000 12.690,93.845 12.988,93.656 13.178 C 93.133 13.700,93.349 14.500,94.013 14.500 C 94.443 14.500,94.500 14.441,94.500 14.000 C 94.500 13.560,94.558 13.500,94.982 13.500 C 95.473 13.500,95.667 13.260,95.667 12.649 C 95.667 12.195,94.796 11.873,94.208 12.110 M365.399 12.529 C 365.151 12.930,365.506 13.500,366.003 13.500 C 366.767 13.500,366.762 12.424,365.998 12.393 C 365.722 12.381,365.452 12.443,365.399 12.529 M386.522 13.833 C 386.513 14.704,386.560 15.342,386.628 15.250 C 386.695 15.158,386.938 15.058,387.167 15.027 C 387.775 14.945,387.903 14.749,387.858 13.974 C 387.801 13.006,387.577 12.646,387.086 12.735 C 386.811 12.785,386.663 12.720,386.612 12.529 C 386.572 12.375,386.531 12.963,386.522 13.833 M232.611 12.611 C 232.219 13.004,232.509 14.167,233.000 14.167 C 233.912 14.167,234.448 13.089,233.765 12.628 C 233.537 12.474,232.759 12.463,232.611 12.611 M372.619 12.603 C 372.554 12.669,372.500 13.010,372.500 13.361 C 372.500 14.072,373.364 14.316,373.842 13.740 C 374.352 13.125,373.184 12.039,372.619 12.603 M45.512 15.292 L 45.500 17.500 46.077 17.500 C 46.837 17.500,47.001 17.168,46.998 15.636 C 46.995 14.188,46.747 13.581,46.161 13.589 C 45.935 13.592,45.699 13.479,45.637 13.339 C 45.574 13.198,45.518 14.077,45.512 15.292 M289.500 13.915 C 289.500 14.382,289.558 14.458,289.914 14.458 C 290.141 14.458,290.287 14.393,290.237 14.313 C 290.188 14.232,290.210 14.167,290.287 14.167 C 290.742 14.167,290.456 13.411,289.995 13.392 C 289.543 13.374,289.500 13.420,289.500 13.915 M169.259 13.870 C 168.724 14.635,169.179 15.833,170.004 15.833 L 170.500 15.833 170.500 14.667 L 170.500 13.500 170.009 13.500 C 169.691 13.500,169.428 13.630,169.259 13.870 M265.244 13.948 C 264.827 14.586,265.189 15.245,265.965 15.261 L 266.500 15.271 266.500 14.386 C 266.500 13.316,265.815 13.077,265.244 13.948 M278.611 13.611 C 278.550 13.672,278.500 14.122,278.500 14.611 L 278.500 15.500 279.173 15.500 L 279.846 15.500 279.758 14.768 C 279.617 13.594,279.125 13.097,278.611 13.611 M346.619 13.603 C 346.554 13.669,346.500 14.073,346.500 14.502 L 346.500 15.281 347.107 15.182 C 347.865 15.059,348.129 14.685,347.907 14.050 C 347.746 13.588,346.921 13.302,346.619 13.603 M206.865 14.121 C 205.876 14.243,205.996 15.500,206.996 15.500 C 207.482 15.500,207.500 15.473,207.500 14.750 C 207.500 14.338,207.481 14.012,207.458 14.027 C 207.435 14.041,207.169 14.084,206.865 14.121 M150.500 14.979 C 150.500 15.378,150.569 15.458,150.914 15.458 C 151.141 15.458,151.287 15.393,151.237 15.313 C 151.188 15.232,151.210 15.167,151.288 15.167 C 151.366 15.167,151.440 15.017,151.454 14.833 C 151.474 14.570,151.377 14.500,150.990 14.500 C 150.561 14.500,150.500 14.560,150.500 14.979 M187.909 14.909 C 187.684 15.134,187.500 15.472,187.500 15.659 C 187.500 15.935,187.393 16.000,186.937 16.000 C 186.143 16.000,185.907 16.336,186.244 16.988 C 186.614 17.704,187.499 17.742,187.503 17.042 C 187.506 16.438,187.678 16.203,188.072 16.263 C 188.858 16.384,189.257 15.624,188.827 14.822 C 188.600 14.397,188.402 14.416,187.909 14.909 M371.611 14.611 C 371.203 15.019,371.511 16.167,372.029 16.167 C 372.790 16.167,373.192 15.756,372.979 15.195 C 372.743 14.573,371.976 14.246,371.611 14.611 M246.500 15.016 C 246.500 15.099,246.594 15.168,246.708 15.169 C 246.847 15.171,246.833 15.226,246.667 15.333 C 246.529 15.422,246.501 15.496,246.605 15.497 C 247.000 15.503,247.195 15.046,246.837 14.953 C 246.652 14.904,246.500 14.933,246.500 15.016 M22.208 15.110 C 21.635 15.342,22.311 16.500,23.019 16.500 C 23.478 16.500,23.500 16.466,23.500 15.750 C 23.500 14.984,23.060 14.767,22.208 15.110 M138.750 15.667 C 138.807 15.758,138.783 15.833,138.697 15.833 C 138.612 15.833,138.542 16.007,138.542 16.219 C 138.542 16.596,139.276 16.780,139.578 16.478 C 139.840 16.216,139.457 15.500,139.055 15.500 C 138.826 15.500,138.692 15.573,138.750 15.667 M174.611 15.611 C 174.550 15.672,174.500 16.030,174.500 16.407 L 174.500 17.092 175.161 17.029 C 175.946 16.954,176.170 16.535,175.760 15.909 C 175.507 15.522,174.866 15.356,174.611 15.611 M230.611 15.611 C 230.550 15.672,230.500 16.034,230.500 16.414 L 230.500 17.106 231.208 17.011 C 231.984 16.908,232.197 16.512,231.838 15.842 C 231.660 15.509,230.863 15.359,230.611 15.611 M243.500 15.906 C 243.500 16.141,243.569 16.333,243.653 16.333 C 243.737 16.333,243.937 16.384,244.097 16.445 C 244.295 16.521,244.350 16.495,244.268 16.362 C 244.201 16.254,244.220 16.167,244.309 16.167 C 244.694 16.167,244.357 15.580,243.943 15.531 C 243.565 15.486,243.500 15.540,243.500 15.906 M297.750 15.667 C 297.807 15.758,297.783 15.833,297.697 15.833 C 297.612 15.833,297.542 16.007,297.542 16.219 C 297.542 16.596,298.276 16.780,298.578 16.478 C 298.840 16.216,298.457 15.500,298.055 15.500 C 297.826 15.500,297.692 15.573,297.750 15.667 M56.181 16.056 C 55.755 16.853,55.996 17.410,56.792 17.468 L 57.500 17.519 57.500 16.593 L 57.500 15.667 56.945 15.667 C 56.534 15.667,56.336 15.768,56.181 16.056 M91.208 16.110 C 91.091 16.158,91.000 16.481,91.000 16.847 L 91.000 17.500 91.750 17.500 L 92.500 17.500 92.500 16.750 C 92.500 15.984,92.060 15.767,91.208 16.110 M317.000 16.250 C 317.000 16.387,317.079 16.500,317.177 16.500 C 317.274 16.500,317.311 16.431,317.259 16.348 C 317.207 16.264,317.259 16.157,317.374 16.111 C 317.500 16.060,317.468 16.021,317.292 16.013 C 317.131 16.006,317.000 16.112,317.000 16.250 M395.929 16.262 C 395.276 16.914,395.586 17.500,396.583 17.500 L 397.500 17.500 397.500 16.913 C 397.500 16.094,396.507 15.683,395.929 16.262 M282.792 16.399 C 282.159 16.879,282.417 17.500,283.250 17.500 C 283.932 17.500,284.000 17.464,284.000 17.097 C 284.000 16.193,283.468 15.885,282.792 16.399 M288.217 16.350 C 287.900 16.667,288.496 17.498,289.042 17.499 C 289.465 17.500,289.500 17.450,289.500 16.833 C 289.500 16.135,288.724 15.843,288.217 16.350 M114.276 16.805 C 113.673 17.471,114.098 18.500,114.977 18.500 L 115.500 18.500 115.500 17.500 C 115.500 16.399,114.934 16.077,114.276 16.805 M325.611 16.611 C 325.550 16.672,325.500 17.122,325.500 17.611 L 325.500 18.500 326.250 18.500 L 327.000 18.500 327.000 17.822 C 327.000 16.731,326.194 16.028,325.611 16.611 M364.252 17.104 C 364.015 17.465,364.005 17.567,364.191 17.685 C 364.788 18.063,365.500 17.771,365.500 17.149 C 365.500 16.480,364.680 16.451,364.252 17.104 M21.244 17.234 C 20.694 17.636,21.088 18.403,21.878 18.468 L 22.500 18.520 22.500 17.760 C 22.500 16.922,21.972 16.701,21.244 17.234 M95.513 17.708 C 95.497 18.660,96.314 18.923,96.695 18.088 C 96.936 17.559,96.627 17.137,96.073 17.238 C 95.860 17.276,95.650 17.220,95.606 17.112 C 95.562 17.005,95.520 17.273,95.513 17.708 M328.792 17.180 C 328.603 17.290,328.500 17.553,328.500 17.925 L 328.500 18.500 329.500 18.500 L 330.500 18.500 330.500 17.923 C 330.500 17.103,329.598 16.710,328.792 17.180 M334.000 17.250 C 334.000 17.387,334.079 17.500,334.177 17.500 C 334.274 17.500,334.311 17.431,334.259 17.348 C 334.207 17.264,334.259 17.157,334.374 17.111 C 334.500 17.060,334.468 17.021,334.292 17.013 C 334.131 17.006,334.000 17.112,334.000 17.250 M386.500 17.790 L 386.500 18.500 388.500 18.500 L 390.500 18.500 390.497 18.042 C 390.493 17.154,389.836 16.808,388.974 17.238 C 388.655 17.397,388.378 17.441,388.267 17.351 C 388.166 17.269,387.727 17.175,387.292 17.142 L 386.500 17.081 386.500 17.790 M285.958 17.370 C 285.145 17.650,285.302 18.500,286.167 18.500 C 286.790 18.500,286.833 18.469,286.833 18.020 C 286.833 17.386,286.541 17.168,285.958 17.370 M77.611 17.611 C 77.191 18.031,77.512 19.117,78.048 19.091 C 78.982 19.044,79.249 18.610,78.827 17.822 C 78.659 17.508,77.854 17.368,77.611 17.611 M151.503 18.458 L 151.500 19.500 152.067 19.500 C 152.729 19.500,153.147 18.754,152.825 18.150 C 152.656 17.834,152.595 17.805,152.042 17.776 C 151.881 17.768,151.695 17.684,151.628 17.589 C 151.560 17.494,151.504 17.885,151.503 18.458 M91.000 18.250 C 91.000 18.387,91.079 18.500,91.177 18.500 C 91.274 18.500,91.311 18.431,91.259 18.348 C 91.207 18.264,91.259 18.157,91.374 18.111 C 91.500 18.060,91.468 18.021,91.292 18.013 C 91.131 18.006,91.000 18.112,91.000 18.250 M241.338 18.244 C 240.975 18.681,241.351 19.408,241.971 19.469 C 242.496 19.521,242.500 19.515,242.500 18.761 C 242.500 17.940,241.835 17.645,241.338 18.244 M205.385 18.440 C 205.181 18.970,205.490 19.500,206.003 19.500 C 206.785 19.500,206.767 18.260,205.985 18.232 C 205.691 18.221,205.435 18.310,205.385 18.440 M228.611 18.611 C 228.550 18.672,228.500 19.032,228.500 19.411 C 228.500 20.124,229.332 20.354,229.813 19.774 C 230.267 19.228,229.112 18.110,228.611 18.611 M150.000 19.250 C 150.000 19.387,150.079 19.500,150.177 19.500 C 150.274 19.500,150.311 19.431,150.259 19.348 C 150.207 19.264,150.259 19.157,150.374 19.111 C 150.500 19.060,150.468 19.021,150.292 19.013 C 150.131 19.006,150.000 19.112,150.000 19.250 M20.393 19.417 C 20.182 19.968,20.481 20.500,21.003 20.500 C 21.472 20.500,21.500 20.462,21.500 19.833 C 21.500 19.121,20.632 18.794,20.393 19.417 M137.619 19.603 C 137.184 20.038,137.508 20.951,138.087 20.922 C 138.898 20.881,139.090 20.651,138.807 20.058 C 138.587 19.596,137.892 19.330,137.619 19.603 M184.500 19.979 C 184.500 20.378,184.569 20.458,184.914 20.458 C 185.141 20.458,185.287 20.393,185.237 20.313 C 185.188 20.232,185.210 20.167,185.288 20.167 C 185.366 20.167,185.440 20.017,185.454 19.833 C 185.474 19.570,185.377 19.500,184.990 19.500 C 184.561 19.500,184.500 19.560,184.500 19.979 M186.611 19.611 C 186.166 20.056,186.515 20.778,187.125 20.676 C 187.751 20.570,187.821 20.422,187.581 19.708 C 187.507 19.490,186.803 19.420,186.611 19.611 M247.500 20.529 L 247.500 21.500 248.077 21.500 C 249.400 21.500,249.368 19.818,248.042 19.633 L 247.500 19.558 247.500 20.529 M266.402 19.914 C 266.243 20.548,266.427 20.833,266.995 20.833 C 267.768 20.833,267.776 19.592,267.004 19.533 C 266.598 19.502,266.488 19.572,266.402 19.914 M296.619 19.603 C 296.428 19.794,296.476 21.034,296.669 20.915 C 296.763 20.857,297.042 20.773,297.291 20.728 C 297.891 20.620,297.922 20.571,297.736 20.038 C 297.580 19.592,296.896 19.326,296.619 19.603 M315.254 19.996 C 314.700 20.608,315.129 21.500,315.977 21.500 C 316.779 21.500,316.806 19.761,316.004 19.732 C 315.731 19.723,315.394 19.841,315.254 19.996 M380.295 20.276 C 379.865 20.706,380.325 21.500,381.004 21.500 C 381.481 21.500,381.500 21.471,381.500 20.750 C 381.500 19.914,380.895 19.676,380.295 20.276 M88.262 20.314 C 88.023 20.700,88.532 21.500,89.016 21.500 C 89.470 21.500,89.500 21.458,89.500 20.833 C 89.500 20.176,88.585 19.792,88.262 20.314 M63.004 21.208 C 63.193 22.342,63.307 22.500,63.934 22.500 L 64.500 22.500 64.500 21.500 L 64.500 20.500 63.693 20.500 L 62.886 20.500 63.004 21.208 M75.611 20.611 C 75.550 20.672,75.500 21.035,75.500 21.418 L 75.500 22.114 76.107 22.015 C 76.914 21.884,77.150 21.503,76.776 20.933 C 76.508 20.523,75.874 20.348,75.611 20.611 M171.611 20.611 C 171.550 20.672,171.500 20.897,171.500 21.111 C 171.500 21.427,171.411 21.500,171.026 21.500 C 170.101 21.500,169.724 22.482,170.255 23.509 C 170.502 23.987,170.521 23.994,170.923 23.730 C 171.310 23.477,171.411 23.259,171.537 22.417 C 171.574 22.164,171.735 22.071,172.202 22.032 C 172.943 21.970,173.164 21.526,172.760 20.909 C 172.507 20.522,171.866 20.356,171.611 20.611 M183.208 21.110 C 182.580 21.364,183.209 22.500,183.977 22.500 C 184.486 22.500,184.500 22.480,184.500 21.750 C 184.500 20.984,184.060 20.767,183.208 21.110 M239.200 21.200 C 238.957 21.443,238.936 22.108,239.167 22.250 C 239.415 22.403,239.368 22.667,239.093 22.667 C 238.960 22.667,238.644 22.846,238.390 23.064 C 237.583 23.758,238.030 24.000,240.115 24.000 C 242.179 24.000,242.500 23.876,242.500 23.077 L 242.500 22.500 241.500 22.500 L 240.500 22.500 240.500 21.750 C 240.500 20.959,239.756 20.644,239.200 21.200 M226.611 21.611 C 226.550 21.672,226.506 22.028,226.513 22.403 C 226.520 22.777,226.564 22.990,226.610 22.875 C 226.657 22.760,226.913 22.667,227.181 22.667 C 227.680 22.667,227.802 22.380,227.566 21.764 C 227.465 21.501,226.823 21.399,226.611 21.611 M96.535 22.617 C 96.563 23.606,97.656 23.776,97.664 22.792 C 97.667 22.503,97.612 22.473,97.042 22.443 C 96.881 22.435,96.698 22.353,96.635 22.262 C 96.572 22.171,96.527 22.331,96.535 22.617 M87.174 22.945 C 86.779 23.448,86.795 23.628,87.261 23.938 C 87.802 24.297,88.404 23.890,88.468 23.121 C 88.536 22.312,87.756 22.206,87.174 22.945 M115.255 23.042 C 114.972 23.713,115.283 24.167,116.026 24.167 C 116.484 24.167,116.500 24.138,116.500 23.333 C 116.500 22.252,115.671 22.058,115.255 23.042 M204.500 22.979 C 204.500 23.378,204.569 23.458,204.914 23.458 C 205.141 23.458,205.287 23.393,205.237 23.313 C 205.188 23.232,205.210 23.167,205.288 23.167 C 205.366 23.167,205.440 23.017,205.454 22.833 C 205.474 22.570,205.377 22.500,204.990 22.500 C 204.561 22.500,204.500 22.560,204.500 22.979 M344.611 22.611 C 344.160 23.062,344.516 23.757,345.167 23.695 C 345.885 23.627,345.918 23.577,345.671 22.928 C 345.514 22.516,344.892 22.330,344.611 22.611 M148.200 23.033 C 147.676 23.557,148.176 24.500,148.977 24.500 C 149.494 24.500,149.500 24.490,149.500 23.667 C 149.500 22.792,148.788 22.446,148.200 23.033 M20.000 23.250 C 20.000 23.387,20.079 23.500,20.177 23.500 C 20.274 23.500,20.311 23.431,20.259 23.348 C 20.207 23.264,20.259 23.157,20.374 23.111 C 20.500 23.060,20.468 23.021,20.292 23.013 C 20.131 23.006,20.000 23.113,20.000 23.250 M73.619 23.603 C 73.217 24.005,73.505 24.959,74.014 24.915 C 74.731 24.855,74.935 24.607,74.738 24.043 C 74.580 23.592,73.898 23.324,73.619 23.603 M136.611 23.611 C 136.260 23.962,136.505 25.167,136.928 25.167 C 137.863 25.167,138.243 24.599,137.827 23.822 C 137.659 23.508,136.854 23.368,136.611 23.611 M185.611 23.611 C 185.550 23.672,185.500 23.998,185.500 24.335 L 185.500 24.948 186.125 24.847 C 186.803 24.737,187.054 24.217,186.659 23.741 C 186.454 23.493,185.809 23.413,185.611 23.611 M295.611 23.611 C 295.550 23.672,295.500 24.032,295.500 24.411 C 295.500 25.141,296.336 25.349,296.838 24.744 C 297.289 24.201,296.110 23.112,295.611 23.611 M314.190 24.287 C 313.919 24.771,314.408 25.500,315.004 25.500 C 315.481 25.500,315.500 25.471,315.500 24.750 C 315.500 23.920,314.577 23.593,314.190 24.287 M181.393 24.417 C 181.182 24.968,181.481 25.500,182.003 25.500 C 182.472 25.500,182.500 25.462,182.500 24.833 C 182.500 24.121,181.632 23.794,181.393 24.417 M379.411 24.509 C 379.153 24.927,379.495 25.500,380.003 25.500 C 380.460 25.500,380.500 25.453,380.500 24.917 C 380.500 24.319,379.711 24.024,379.411 24.509 M267.259 24.870 C 266.758 25.586,267.165 26.333,268.055 26.333 C 268.483 26.333,268.500 26.299,268.500 25.417 C 268.500 24.365,267.823 24.066,267.259 24.870 M385.611 24.611 C 385.310 24.913,385.520 25.607,386.000 25.890 C 386.742 26.328,387.397 25.987,387.468 25.124 L 387.520 24.500 386.621 24.500 C 386.127 24.500,385.672 24.550,385.611 24.611 M152.503 26.135 L 152.500 27.520 153.124 27.468 C 154.341 27.367,154.455 25.330,153.251 25.193 C 152.976 25.162,152.696 25.050,152.628 24.943 C 152.560 24.837,152.504 25.373,152.503 26.135 M362.289 25.375 C 362.118 25.874,362.522 26.500,363.016 26.500 C 363.441 26.500,363.500 26.440,363.500 26.006 C 363.500 25.336,362.485 24.807,362.289 25.375 M367.792 25.399 C 367.159 25.879,367.417 26.500,368.250 26.500 C 368.932 26.500,369.000 26.464,369.000 26.097 C 369.000 25.193,368.468 24.885,367.792 25.399 M29.611 25.611 C 29.550 25.672,29.500 26.122,29.500 26.611 L 29.500 27.500 30.322 27.500 L 31.144 27.500 31.084 26.845 C 30.981 25.715,30.179 25.043,29.611 25.611 M62.500 25.906 C 62.500 26.141,62.569 26.333,62.653 26.333 C 62.737 26.333,62.937 26.384,63.097 26.445 C 63.295 26.521,63.350 26.495,63.268 26.362 C 63.201 26.254,63.220 26.167,63.309 26.167 C 63.694 26.167,63.357 25.580,62.943 25.531 C 62.565 25.486,62.500 25.540,62.500 25.906 M223.619 25.603 C 223.189 26.033,223.507 27.167,224.058 27.167 C 225.308 27.167,225.549 25.640,224.314 25.534 C 223.997 25.506,223.685 25.538,223.619 25.603 M390.469 25.966 C 390.525 26.260,390.582 26.306,390.686 26.140 C 390.793 25.973,390.832 26.000,390.844 26.250 C 390.853 26.441,390.897 26.491,390.946 26.368 C 391.012 26.203,391.087 26.198,391.266 26.347 C 391.450 26.500,391.500 26.484,391.500 26.270 C 391.500 26.122,391.425 26.000,391.333 26.000 C 391.242 26.000,391.167 25.888,391.167 25.752 C 391.167 25.594,391.026 25.515,390.780 25.536 C 390.467 25.562,390.407 25.645,390.469 25.966 M71.750 26.667 C 71.807 26.758,71.786 26.833,71.704 26.833 C 71.621 26.833,71.549 27.115,71.542 27.458 C 71.535 27.802,71.567 27.990,71.612 27.875 C 71.657 27.760,71.913 27.667,72.181 27.667 C 72.680 27.667,72.740 27.542,72.562 26.875 C 72.492 26.616,72.335 26.500,72.054 26.500 C 71.825 26.500,71.692 26.573,71.750 26.667 M343.611 26.611 C 343.550 26.672,343.500 26.998,343.500 27.335 L 343.500 27.948 344.125 27.847 C 344.803 27.737,345.054 27.217,344.659 26.741 C 344.454 26.493,343.809 26.413,343.611 26.611 M383.619 26.603 C 383.554 26.669,383.500 27.010,383.500 27.361 C 383.500 28.072,384.364 28.316,384.842 27.740 C 385.352 27.125,384.184 26.039,383.619 26.603 M395.302 27.088 C 395.400 27.926,396.384 27.915,396.466 27.075 C 396.514 26.593,396.483 26.564,395.874 26.528 L 395.232 26.490 395.302 27.088 M203.292 27.065 C 202.690 27.522,203.134 28.500,203.943 28.500 L 204.500 28.500 204.500 27.667 C 204.500 26.762,204.011 26.519,203.292 27.065 M34.875 27.249 C 34.037 27.852,34.361 28.500,35.500 28.500 L 36.500 28.500 36.503 29.625 C 36.504 30.244,36.560 30.667,36.628 30.565 C 36.695 30.464,36.877 30.400,37.032 30.424 C 38.137 30.595,38.489 28.201,37.399 27.927 C 37.155 27.866,36.835 27.668,36.686 27.486 C 36.315 27.032,35.352 26.906,34.875 27.249 M147.273 27.418 C 147.076 27.930,147.458 28.500,147.996 28.500 C 148.473 28.500,148.500 28.464,148.500 27.833 C 148.500 27.115,147.516 26.782,147.273 27.418 M135.619 27.603 C 135.554 27.669,135.506 28.141,135.513 28.653 C 135.520 29.165,135.562 29.495,135.606 29.388 C 135.650 29.280,135.868 29.225,136.090 29.266 C 136.775 29.390,137.221 28.797,136.948 28.125 C 136.732 27.593,135.940 27.282,135.619 27.603 M184.619 27.603 C 184.246 27.976,184.502 29.000,184.968 29.000 C 185.771 29.000,186.089 28.649,185.813 28.069 C 185.587 27.597,184.895 27.327,184.619 27.603 M294.619 27.603 C 294.554 27.669,294.500 28.073,294.500 28.502 L 294.500 29.281 295.107 29.182 C 295.865 29.059,296.129 28.685,295.907 28.050 C 295.746 27.588,294.921 27.302,294.619 27.603 M55.272 28.252 C 54.843 28.681,55.330 29.500,56.014 29.500 C 56.505 29.500,56.518 29.481,56.468 28.792 C 56.410 27.992,55.805 27.719,55.272 28.252 M313.382 28.352 C 313.025 28.708,313.463 29.500,314.016 29.500 C 314.470 29.500,314.500 29.458,314.500 28.833 C 314.500 28.134,313.871 27.863,313.382 28.352 M116.439 28.874 C 116.253 29.566,116.314 29.667,116.917 29.667 C 117.465 29.667,117.500 29.634,117.500 29.119 C 117.500 28.415,116.616 28.211,116.439 28.874 M221.611 28.611 C 221.550 28.672,221.500 29.030,221.500 29.407 L 221.500 30.092 222.168 30.028 C 222.917 29.957,223.184 29.489,222.842 28.849 C 222.660 28.509,221.866 28.356,221.611 28.611 M178.289 29.375 C 178.118 29.874,178.522 30.500,179.016 30.500 C 179.470 30.500,179.500 30.458,179.500 29.833 C 179.500 29.151,178.497 28.771,178.289 29.375 M361.500 29.906 C 361.500 30.141,361.569 30.333,361.653 30.333 C 361.737 30.333,361.937 30.384,362.097 30.445 C 362.295 30.521,362.350 30.495,362.268 30.362 C 362.201 30.254,362.220 30.167,362.309 30.167 C 362.694 30.167,362.357 29.580,361.943 29.531 C 361.565 29.486,361.500 29.540,361.500 29.906 M249.792 30.399 C 249.631 30.520,249.500 30.818,249.500 31.060 C 249.500 31.771,250.562 31.707,250.815 30.981 C 251.094 30.181,250.513 29.851,249.792 30.399 M68.611 30.611 C 68.550 30.672,68.500 31.030,68.500 31.407 L 68.500 32.092 69.168 32.028 C 69.917 31.957,70.184 31.489,69.842 30.849 C 69.660 30.509,68.866 30.356,68.611 30.611 M268.654 30.542 C 268.522 30.974,268.565 31.131,268.794 31.043 C 268.985 30.970,269.018 31.007,268.917 31.180 C 268.842 31.310,268.841 31.361,268.916 31.293 C 268.991 31.225,269.166 31.263,269.303 31.376 C 269.510 31.546,269.535 31.539,269.444 31.333 C 269.383 31.196,269.287 30.952,269.231 30.792 C 269.148 30.559,268.707 30.367,268.654 30.542 M342.611 30.611 C 342.155 31.068,342.516 31.961,343.125 31.883 C 343.963 31.775,344.090 31.620,343.837 31.009 C 343.633 30.516,342.933 30.289,342.611 30.611 M377.250 31.119 C 377.067 31.163,376.845 31.267,376.758 31.350 C 376.671 31.432,376.327 31.500,375.994 31.500 C 375.433 31.500,375.389 31.536,375.389 32.000 L 375.389 32.500 376.944 32.500 L 378.500 32.500 378.500 31.750 C 378.500 30.953,378.319 30.862,377.250 31.119 M202.411 31.509 C 202.153 31.927,202.495 32.500,203.003 32.500 C 203.460 32.500,203.500 32.453,203.500 31.917 C 203.500 31.319,202.711 31.024,202.411 31.509 M134.611 31.611 C 134.550 31.672,134.500 32.030,134.500 32.407 L 134.500 33.092 135.168 33.028 C 135.917 32.957,136.184 32.489,135.842 31.849 C 135.660 31.509,134.866 31.356,134.611 31.611 M146.833 31.677 C 146.833 31.774,146.758 31.807,146.667 31.750 C 146.575 31.693,146.500 31.726,146.500 31.823 C 146.500 31.921,146.612 32.000,146.750 32.000 C 146.887 32.000,147.000 31.887,147.000 31.750 C 147.000 31.613,146.962 31.500,146.917 31.500 C 146.871 31.500,146.833 31.579,146.833 31.677 M147.107 31.868 C 146.964 32.402,146.975 32.500,147.177 32.500 C 147.274 32.500,147.307 32.425,147.250 32.333 C 147.193 32.242,147.220 32.167,147.309 32.167 C 147.398 32.167,147.454 32.056,147.435 31.921 C 147.372 31.498,147.213 31.472,147.107 31.868 M183.611 31.611 C 183.550 31.672,183.500 32.035,183.500 32.418 L 183.500 33.114 184.107 33.015 C 184.860 32.893,185.086 32.572,184.850 31.958 C 184.680 31.512,183.922 31.300,183.611 31.611 M219.611 31.611 C 219.398 31.824,219.486 33.160,219.708 33.092 C 219.823 33.057,220.123 32.983,220.375 32.927 C 220.870 32.819,220.975 32.410,220.661 31.822 C 220.495 31.512,219.841 31.381,219.611 31.611 M293.619 31.603 C 293.554 31.669,293.500 32.114,293.500 32.594 L 293.500 33.465 294.121 33.325 C 294.974 33.133,295.212 32.777,294.939 32.104 C 294.731 31.592,293.933 31.289,293.619 31.603 M0.000 32.739 C 0.000 33.384,0.050 33.500,0.327 33.500 C 1.104 33.500,1.227 32.119,0.458 32.031 C 0.018 31.980,0.000 32.007,0.000 32.739 M80.263 32.261 C 79.846 32.678,80.338 33.500,81.004 33.500 C 81.481 33.500,81.500 33.471,81.500 32.750 C 81.500 31.922,80.856 31.668,80.263 32.261 M153.503 33.302 L 153.500 34.520 154.122 34.468 C 155.243 34.375,155.354 32.653,154.247 32.527 C 153.974 32.495,153.696 32.383,153.628 32.277 C 153.560 32.170,153.504 32.632,153.503 33.302 M117.246 32.945 C 116.861 33.533,117.093 33.900,117.892 33.968 L 118.500 34.020 118.500 33.260 C 118.500 32.316,117.777 32.135,117.246 32.945 M98.503 34.428 L 98.500 36.106 99.197 36.011 C 100.501 35.834,100.474 33.306,99.167 33.137 C 98.938 33.108,98.695 33.008,98.628 32.917 C 98.560 32.825,98.504 33.505,98.503 34.428 M312.261 33.155 C 311.819 33.643,312.221 34.397,312.959 34.469 L 313.500 34.521 313.500 33.677 C 313.500 32.726,312.884 32.466,312.261 33.155 M231.208 33.110 C 230.580 33.364,231.209 34.500,231.977 34.500 C 232.486 34.500,232.500 34.480,232.500 33.750 C 232.500 32.984,232.060 32.767,231.208 33.110 M21.402 33.628 C 20.858 33.995,21.060 35.000,21.678 35.000 C 21.845 35.000,22.090 35.156,22.223 35.346 C 22.626 35.921,23.403 35.729,23.469 35.038 C 23.498 34.738,23.461 34.503,23.386 34.516 C 22.751 34.625,22.500 34.479,22.500 34.000 C 22.500 33.491,21.904 33.289,21.402 33.628 M269.224 33.933 C 268.850 34.503,269.086 34.884,269.893 35.015 L 270.500 35.114 270.500 34.307 C 270.500 33.322,269.765 33.107,269.224 33.933 M341.611 33.611 C 341.550 33.672,341.500 34.030,341.500 34.407 L 341.500 35.092 342.168 35.028 C 342.917 34.957,343.184 34.489,342.842 33.849 C 342.660 33.509,341.866 33.356,341.611 33.611 M360.254 33.996 C 359.688 34.621,360.079 35.500,360.923 35.500 L 361.500 35.500 361.500 34.625 C 361.499 33.663,360.852 33.335,360.254 33.996 M175.238 34.388 C 175.049 34.881,175.471 35.500,175.996 35.500 C 176.473 35.500,176.500 35.464,176.500 34.833 C 176.500 34.138,175.473 33.776,175.238 34.388 M34.611 34.611 C 34.550 34.672,34.500 34.892,34.500 35.100 C 34.500 35.388,34.391 35.490,34.042 35.531 C 33.374 35.607,33.284 36.515,33.916 36.803 C 34.550 37.092,34.758 37.048,34.970 36.583 C 35.074 36.354,35.262 36.167,35.387 36.167 C 35.513 36.167,35.745 36.023,35.903 35.848 C 36.497 35.192,35.237 33.985,34.611 34.611 M53.399 34.764 C 53.454 34.909,53.500 35.124,53.500 35.243 C 53.500 35.361,53.686 35.458,53.914 35.458 C 54.141 35.458,54.287 35.393,54.237 35.313 C 54.188 35.232,54.210 35.167,54.288 35.167 C 54.366 35.167,54.440 35.017,54.454 34.833 C 54.475 34.558,54.377 34.500,53.888 34.500 C 53.418 34.500,53.318 34.554,53.399 34.764 M133.750 34.667 C 133.807 34.758,133.770 34.833,133.669 34.833 C 133.568 34.833,133.507 34.962,133.534 35.120 C 133.569 35.323,133.439 35.432,133.083 35.495 C 132.333 35.630,132.284 36.380,133.002 36.751 C 133.611 37.066,134.000 36.871,134.000 36.250 C 134.000 36.043,134.156 35.770,134.347 35.644 C 134.844 35.313,134.637 34.500,134.055 34.500 C 133.826 34.500,133.692 34.573,133.750 34.667 M182.611 34.611 C 182.550 34.672,182.500 34.892,182.500 35.100 C 182.500 35.388,182.391 35.490,182.042 35.531 C 181.396 35.605,181.363 36.513,182.000 36.673 C 182.501 36.798,182.833 36.703,182.833 36.433 C 182.833 36.325,183.077 36.164,183.375 36.076 C 183.973 35.900,184.151 35.426,183.838 34.842 C 183.660 34.509,182.863 34.359,182.611 34.611 M377.611 34.611 C 377.112 35.110,378.201 36.289,378.744 35.838 C 379.349 35.336,379.141 34.500,378.411 34.500 C 378.032 34.500,377.672 34.550,377.611 34.611 M393.263 35.261 C 392.846 35.678,393.338 36.500,394.004 36.500 C 394.481 36.500,394.500 36.471,394.500 35.750 C 394.500 34.922,393.856 34.668,393.263 35.261 M23.972 36.170 C 24.091 37.415,25.364 37.374,25.468 36.121 L 25.520 35.500 24.714 35.500 L 23.908 35.500 23.972 36.170 M202.239 36.021 C 201.876 36.723,202.229 37.159,202.956 36.905 C 203.691 36.648,203.739 35.500,203.014 35.500 C 202.616 35.500,202.451 35.611,202.239 36.021 M215.611 35.611 C 215.399 35.823,215.501 36.465,215.764 36.566 C 216.326 36.781,216.857 36.615,216.639 36.292 C 216.623 36.269,216.701 36.081,216.811 35.875 C 217.011 35.501,215.954 35.268,215.611 35.611 M270.500 36.083 C 270.500 36.693,270.794 36.844,271.326 36.508 C 271.533 36.377,271.535 36.294,271.339 35.928 C 270.988 35.272,270.500 35.362,270.500 36.083 M291.611 35.611 C 291.169 36.053,291.733 36.984,292.448 36.995 C 292.886 37.001,292.966 36.890,293.091 36.103 L 293.187 35.500 292.455 35.500 C 292.052 35.500,291.672 35.550,291.611 35.611 M312.449 35.957 C 312.335 36.539,312.527 36.738,313.071 36.601 C 313.731 36.436,313.690 35.585,313.020 35.534 C 312.616 35.504,312.525 35.571,312.449 35.957 M375.611 35.611 C 375.058 36.164,376.131 37.347,376.733 36.848 C 377.347 36.338,377.147 35.500,376.411 35.500 C 376.032 35.500,375.672 35.550,375.611 35.611 M1.500 36.682 C 1.500 37.480,1.512 37.500,2.000 37.500 C 2.444 37.500,2.500 37.556,2.500 38.000 C 2.500 38.457,2.548 38.500,3.066 38.500 C 3.423 38.500,3.668 38.595,3.730 38.759 C 3.787 38.907,3.759 38.974,3.665 38.915 C 3.574 38.859,3.500 38.875,3.500 38.950 C 3.500 39.263,4.166 39.518,4.178 39.210 C 4.197 38.739,4.474 39.482,4.488 40.042 C 4.508 40.829,6.000 40.739,6.000 39.950 C 6.000 39.276,5.747 39.000,5.128 39.000 C 4.862 39.000,4.614 38.891,4.560 38.750 C 4.508 38.612,4.322 38.500,4.149 38.500 C 3.920 38.500,3.833 38.381,3.833 38.066 C 3.833 37.827,3.646 37.409,3.417 37.136 C 3.188 36.864,3.000 36.536,3.000 36.407 C 3.000 36.278,2.794 36.130,2.542 36.076 C 1.431 35.843,1.500 35.803,1.500 36.682 M27.708 36.615 C 27.899 36.665,28.000 36.854,28.000 37.159 C 28.000 38.132,31.224 38.166,31.411 37.195 C 31.450 36.996,31.527 36.757,31.584 36.666 C 31.650 36.559,30.932 36.507,29.552 36.519 C 28.377 36.530,27.548 36.573,27.708 36.615 M125.125 36.610 C 125.240 36.657,125.333 36.913,125.333 37.181 C 125.333 37.892,125.780 37.811,125.865 37.083 C 125.930 36.527,125.909 36.501,125.425 36.513 C 125.145 36.520,125.010 36.564,125.125 36.610 M209.125 36.610 C 209.240 36.657,209.333 36.913,209.333 37.181 C 209.333 37.625,209.383 37.667,209.917 37.667 C 210.237 37.667,210.500 37.592,210.500 37.500 C 210.500 37.202,210.530 37.088,210.689 36.792 C 210.830 36.529,210.749 36.501,209.881 36.513 C 209.351 36.520,209.010 36.564,209.125 36.610 M236.292 36.610 C 236.406 36.657,236.500 36.867,236.500 37.078 C 236.500 37.377,236.610 37.478,237.000 37.536 C 237.377 37.591,237.499 37.544,237.495 37.346 C 237.485 36.877,237.063 36.500,236.565 36.513 C 236.300 36.520,236.177 36.564,236.292 36.610 M242.611 36.611 C 242.550 36.672,242.501 37.141,242.503 37.653 C 242.504 38.165,242.560 38.508,242.628 38.416 C 242.695 38.324,242.975 38.224,243.250 38.193 C 243.902 38.121,244.015 37.996,244.164 37.180 L 244.289 36.500 243.505 36.500 C 243.075 36.500,242.672 36.550,242.611 36.611 M276.015 37.375 C 276.232 39.028,276.453 39.500,277.008 39.500 L 277.500 39.500 277.500 38.000 L 277.500 36.500 276.700 36.500 L 275.899 36.500 276.015 37.375 M283.611 36.611 C 283.550 36.672,283.500 36.998,283.500 37.335 L 283.500 37.948 284.123 37.846 C 284.687 37.755,284.755 37.687,284.846 37.123 L 284.948 36.500 284.335 36.500 C 283.998 36.500,283.672 36.550,283.611 36.611 M319.960 37.125 C 320.059 38.148,320.311 38.500,320.945 38.500 L 321.500 38.500 321.500 37.500 L 321.500 36.500 320.700 36.500 L 319.900 36.500 319.960 37.125 M57.611 37.611 C 57.550 37.672,57.500 37.995,57.500 38.328 C 57.500 38.976,58.552 39.160,58.785 38.553 C 59.028 37.918,58.072 37.150,57.611 37.611 M52.500 38.979 C 52.500 39.378,52.569 39.458,52.914 39.458 C 53.141 39.458,53.287 39.393,53.237 39.313 C 53.188 39.232,53.210 39.167,53.288 39.167 C 53.366 39.167,53.440 39.017,53.454 38.833 C 53.474 38.570,53.377 38.500,52.990 38.500 C 52.561 38.500,52.500 38.560,52.500 38.979 M90.611 38.611 C 90.260 38.962,90.505 40.167,90.928 40.167 C 91.863 40.167,92.243 39.599,91.827 38.822 C 91.659 38.508,90.854 38.368,90.611 38.611 M331.611 38.611 C 331.260 38.962,331.505 40.167,331.928 40.167 C 332.863 40.167,333.243 39.599,332.827 38.822 C 332.659 38.508,331.854 38.368,331.611 38.611 M172.865 39.121 C 171.900 39.240,172.019 40.500,172.996 40.500 C 173.482 40.500,173.500 40.474,173.500 39.750 C 173.500 39.337,173.481 39.012,173.458 39.027 C 173.435 39.041,173.169 39.084,172.865 39.121 M174.611 39.611 C 174.550 39.672,174.501 40.066,174.503 40.486 C 174.504 40.906,174.560 41.172,174.628 41.076 C 174.695 40.981,174.929 40.906,175.148 40.910 C 175.702 40.919,175.952 40.477,175.703 39.930 C 175.515 39.517,174.888 39.334,174.611 39.611 M154.503 40.542 L 154.500 41.500 155.067 41.500 C 156.121 41.500,156.212 40.105,155.167 39.970 C 154.938 39.941,154.695 39.842,154.628 39.750 C 154.560 39.658,154.504 40.015,154.503 40.542 M209.333 40.573 C 209.333 40.797,209.403 41.023,209.488 41.076 C 209.676 41.192,209.897 40.570,209.751 40.335 C 209.562 40.029,209.333 40.160,209.333 40.573 M390.289 40.375 C 390.118 40.874,390.522 41.500,391.016 41.500 C 391.470 41.500,391.500 41.458,391.500 40.833 C 391.500 40.151,390.497 39.771,390.289 40.375 M282.750 40.667 C 282.807 40.758,282.785 40.833,282.702 40.833 C 282.619 40.833,282.545 41.043,282.538 41.298 C 282.525 41.732,282.563 41.759,283.095 41.697 C 283.680 41.629,283.737 41.529,283.562 40.875 C 283.492 40.616,283.335 40.500,283.054 40.500 C 282.825 40.500,282.692 40.573,282.750 40.667 M151.917 40.790 C 150.640 40.976,150.694 42.500,151.977 42.500 C 152.500 42.500,152.500 42.500,152.500 41.583 C 152.500 41.079,152.481 40.678,152.458 40.692 C 152.435 40.705,152.192 40.750,151.917 40.790 M41.700 41.367 C 41.230 41.836,41.457 42.500,42.087 42.500 C 42.718 42.500,43.148 41.961,42.944 41.427 C 42.825 41.117,41.990 41.077,41.700 41.367 M56.611 41.611 C 56.205 42.018,56.510 43.500,57.000 43.500 C 57.333 43.500,57.500 43.583,57.500 43.750 C 57.500 43.966,58.074 44.000,61.667 44.000 C 65.259 44.000,65.833 43.966,65.833 43.750 C 65.833 43.538,65.421 43.500,63.125 43.499 C 60.285 43.499,58.414 43.181,58.153 42.654 C 58.089 42.524,57.954 42.210,57.855 41.958 C 57.679 41.513,56.921 41.301,56.611 41.611 M241.619 41.603 C 241.206 42.016,241.505 43.500,242.000 43.500 C 242.333 43.500,242.500 43.583,242.500 43.750 C 242.500 43.971,244.446 44.000,259.012 44.000 L 275.523 44.000 275.470 43.625 L 275.417 43.250 269.083 43.290 C 243.283 43.453,243.186 43.449,242.770 42.161 C 242.588 41.597,241.939 41.283,241.619 41.603 M319.264 41.984 C 318.687 42.622,318.967 43.408,319.792 43.468 L 320.500 43.519 320.500 42.593 C 320.500 41.560,319.911 41.270,319.264 41.984 M85.000 42.250 C 85.000 42.387,85.079 42.500,85.177 42.500 C 85.274 42.500,85.311 42.431,85.259 42.348 C 85.207 42.264,85.259 42.157,85.374 42.111 C 85.500 42.060,85.468 42.021,85.292 42.013 C 85.131 42.006,85.000 42.112,85.000 42.250 M389.231 42.128 C 389.129 42.195,388.994 42.412,388.933 42.610 C 388.871 42.808,388.636 43.091,388.410 43.239 C 387.740 43.678,387.883 44.000,388.750 44.000 C 389.306 44.000,389.500 43.935,389.500 43.750 C 389.500 43.583,389.667 43.500,390.000 43.500 C 390.481 43.500,390.500 43.472,390.500 42.750 C 390.500 41.987,389.895 41.690,389.231 42.128 M38.388 42.375 C 37.985 43.012,38.187 43.500,38.853 43.500 C 39.673 43.500,39.829 42.703,39.075 42.360 C 38.550 42.121,38.549 42.121,38.388 42.375 M10.792 42.445 C 10.111 42.630,10.429 43.500,11.177 43.500 C 11.841 43.500,11.853 43.489,11.802 42.958 C 11.749 42.403,11.469 42.261,10.792 42.445 M90.500 43.407 L 90.500 44.000 97.083 44.000 C 102.728 44.000,103.667 43.965,103.667 43.758 C 103.667 43.560,103.189 43.501,101.042 43.436 C 95.499 43.268,90.870 43.042,90.689 42.930 C 90.562 42.852,90.500 43.008,90.500 43.407 M331.500 43.407 L 331.500 44.000 343.083 44.000 C 353.165 44.000,354.667 43.968,354.667 43.755 C 354.667 43.547,353.947 43.499,349.875 43.436 C 340.658 43.295,331.885 43.052,331.694 42.933 C 331.560 42.851,331.500 42.999,331.500 43.407 M13.870 43.259 C 13.222 43.713,13.401 44.000,14.333 44.000 C 15.025 44.000,15.167 43.949,15.167 43.700 C 15.167 43.033,14.512 42.810,13.870 43.259 M35.095 43.262 C 34.591 43.766,34.772 44.000,35.667 44.000 C 36.633 44.000,36.889 43.473,36.072 43.163 C 35.501 42.945,35.402 42.955,35.095 43.262 M42.503 43.458 C 42.500 43.990,42.514 44.000,43.250 44.000 C 43.798 44.000,44.000 43.934,44.000 43.756 C 44.000 43.451,43.499 43.171,43.072 43.237 C 42.895 43.264,42.695 43.203,42.628 43.101 C 42.560 43.000,42.504 43.160,42.503 43.458 M49.833 43.193 C 47.187 43.377,46.333 43.518,46.333 43.771 C 46.333 43.955,46.835 44.000,48.917 44.000 C 51.351 44.000,51.500 43.982,51.500 43.681 C 51.500 43.505,51.590 43.331,51.700 43.294 C 52.174 43.136,51.320 43.090,49.833 43.193 M52.000 43.250 C 52.000 43.387,52.079 43.500,52.177 43.500 C 52.274 43.500,52.311 43.431,52.259 43.348 C 52.207 43.264,52.259 43.157,52.374 43.111 C 52.500 43.060,52.468 43.021,52.292 43.013 C 52.131 43.006,52.000 43.112,52.000 43.250 M124.167 43.130 C 123.236 43.234,123.000 43.343,123.000 43.670 C 123.000 43.993,123.130 44.000,128.833 44.000 C 133.766 44.000,134.667 43.963,134.667 43.763 C 134.667 43.574,134.199 43.505,132.375 43.426 C 131.115 43.371,128.846 43.271,127.333 43.205 C 125.821 43.138,124.396 43.104,124.167 43.130 M155.500 43.533 L 155.500 44.000 160.583 44.000 C 164.991 44.000,165.667 43.967,165.667 43.750 C 165.667 43.542,165.345 43.500,163.775 43.500 C 162.734 43.500,161.666 43.429,161.400 43.342 C 161.134 43.256,159.698 43.158,158.208 43.126 L 155.500 43.067 155.500 43.533 M175.870 43.259 C 174.875 43.957,175.179 44.000,181.083 44.000 C 185.935 44.000,186.667 43.967,186.667 43.750 C 186.667 43.536,186.170 43.500,183.208 43.497 C 180.932 43.495,179.294 43.411,178.417 43.253 C 176.700 42.942,176.322 42.943,175.870 43.259 M209.897 43.234 C 209.613 43.438,209.447 43.451,209.047 43.300 C 208.430 43.067,208.000 43.216,208.000 43.661 C 208.000 43.999,208.038 44.000,222.250 44.000 L 236.500 44.000 236.500 43.535 L 236.500 43.070 231.292 43.127 C 228.427 43.158,225.723 43.255,225.283 43.342 C 224.278 43.541,213.824 43.551,213.303 43.354 C 212.480 43.042,210.272 42.965,209.897 43.234 M283.958 43.293 C 282.888 43.957,283.206 44.000,289.167 44.000 C 294.093 44.000,294.833 43.967,294.833 43.750 C 294.833 43.535,294.263 43.500,290.708 43.498 C 287.537 43.497,286.394 43.439,285.765 43.248 C 284.737 42.936,284.525 42.941,283.958 43.293 M150.292 43.399 C 149.788 43.781,149.955 44.000,150.750 44.000 C 151.439 44.000,151.500 43.966,151.500 43.583 C 151.500 43.104,150.818 42.999,150.292 43.399 " stroke="none" fill="#d4d4d4" fill-rule="evenodd"></path></g></svg>