<svg id="svg" xmlns="http://www.w3.org/2000/svg" xmlns:xlink="http://www.w3.org/1999/xlink" width="400" height="64.82213438735178" viewBox="0, 0, 400,64.82213438735178"><g id="svgg"><path id="path0" d="M347.237 5.775 C 342.387 6.961,341.451 7.648,343.820 8.286 C 345.839 8.830,346.838 10.180,346.494 11.900 C 346.126 13.739,337.514 40.348,336.872 41.630 C 334.819 45.729,336.325 50.593,339.648 50.593 C 342.017 50.593,347.842 44.897,348.296 42.136 C 348.504 40.866,347.559 40.999,346.620 42.372 C 343.630 46.743,340.316 48.766,340.316 46.221 C 340.316 45.556,343.079 36.352,346.456 25.767 C 349.833 15.182,352.546 6.168,352.484 5.735 C 352.330 4.659,351.782 4.663,347.237 5.775 M363.439 5.199 C 360.503 6.963,361.053 10.507,364.332 10.946 C 367.350 11.351,369.698 7.485,367.668 5.455 C 367.061 4.848,364.301 4.681,363.439 5.199 M318.972 5.422 C 316.282 5.920,312.804 9.725,309.841 15.410 C 306.973 20.914,306.748 21.120,302.998 21.688 C 298.710 22.338,298.559 24.111,302.792 24.111 C 305.931 24.111,305.964 23.373,302.178 37.790 C 297.545 55.428,297.220 56.026,291.957 56.588 C 286.704 57.149,284.502 61.660,289.481 61.660 C 295.773 61.660,301.815 52.593,306.560 36.031 C 309.752 24.889,309.710 24.995,311.007 24.746 C 311.584 24.635,313.064 24.348,314.298 24.108 C 315.531 23.868,316.736 23.436,316.976 23.147 C 317.437 22.591,317.133 22.497,312.945 21.912 C 310.692 21.597,310.580 21.049,311.892 16.741 C 313.850 10.314,315.941 8.658,320.190 10.167 C 322.059 10.831,322.133 10.827,323.207 10.025 C 326.015 7.929,323.019 4.672,318.972 5.422 M175.194 6.257 C 174.802 6.506,174.718 11.177,174.799 28.286 L 174.901 50.000 178.261 50.000 L 181.621 50.000 181.723 28.209 L 181.825 6.418 180.932 6.179 C 179.643 5.833,175.778 5.886,175.194 6.257 M186.120 7.463 C 182.257 11.326,186.341 17.533,191.183 15.159 C 195.068 13.255,195.586 8.375,192.089 6.621 C 189.722 5.434,187.891 5.692,186.120 7.463 M74.336 7.000 C 73.591 7.389,72.667 8.152,72.284 8.696 C 71.703 9.520,59.684 49.145,59.684 50.237 C 59.684 50.433,61.278 50.593,63.228 50.593 L 66.771 50.593 68.193 45.949 C 68.975 43.394,69.681 41.099,69.761 40.848 C 69.897 40.423,80.900 39.862,82.059 40.222 C 82.300 40.297,82.992 41.994,83.598 43.993 C 85.589 50.567,85.601 50.579,90.051 50.587 L 93.343 50.593 93.099 49.478 C 92.418 46.378,81.001 9.702,80.460 8.876 C 79.031 6.696,76.441 5.902,74.336 7.000 M123.348 7.000 C 122.603 7.389,121.679 8.152,121.296 8.696 C 120.715 9.520,108.696 49.145,108.696 50.237 C 108.696 50.433,110.290 50.593,112.239 50.593 L 115.783 50.593 117.205 45.949 C 117.987 43.394,118.692 41.099,118.773 40.848 C 118.909 40.423,129.912 39.862,131.071 40.222 C 131.312 40.297,132.004 41.994,132.610 43.993 C 134.601 50.567,134.613 50.579,139.063 50.587 L 142.355 50.593 142.110 49.478 C 141.430 46.378,130.013 9.702,129.472 8.876 C 128.043 6.696,125.453 5.902,123.348 7.000 M148.399 6.880 C 144.618 8.527,144.612 8.568,144.748 31.225 L 144.862 50.000 148.187 50.116 C 150.581 50.199,151.604 50.088,151.838 49.721 C 152.016 49.439,152.165 41.250,152.168 31.522 L 152.174 13.834 155.055 13.834 C 163.715 13.834,166.268 21.784,158.847 25.641 C 151.857 29.274,151.811 30.891,158.402 41.502 C 164.318 51.028,163.416 50.198,167.848 50.198 C 172.500 50.198,172.588 50.827,166.601 41.281 C 160.783 32.004,161.126 33.374,164.081 31.222 C 173.673 24.237,172.653 11.040,162.219 7.136 C 159.572 6.145,150.473 5.977,148.399 6.880 M204.166 6.694 C 203.739 7.384,204.235 7.783,206.107 8.254 C 209.641 9.144,209.683 8.772,203.745 28.809 C 197.891 48.560,198.556 47.211,193.978 48.616 C 192.272 49.140,192.011 49.422,192.501 50.217 C 192.922 50.898,206.364 51.308,208.672 50.710 C 210.390 50.264,210.666 49.505,209.218 49.206 C 203.700 48.067,203.769 48.333,206.546 38.937 C 207.788 34.733,208.913 31.120,209.046 30.907 C 209.180 30.694,212.668 30.327,216.798 30.091 C 228.776 29.407,233.177 27.640,235.491 22.586 C 238.390 16.254,236.253 10.215,230.109 7.376 C 227.988 6.396,204.728 5.784,204.166 6.694 M87.747 10.432 C 87.747 14.851,87.457 14.625,93.115 14.625 L 97.233 14.625 97.239 32.115 C 97.243 41.734,97.391 49.835,97.570 50.116 C 97.803 50.484,98.826 50.594,101.220 50.511 L 104.545 50.395 104.648 32.286 L 104.751 14.177 108.798 14.422 C 114.023 14.738,113.997 14.759,114.170 10.291 L 114.308 6.719 101.027 6.719 L 87.747 6.719 87.747 10.432 M25.593 7.364 C 24.945 7.555,24.901 8.943,24.901 29.278 L 24.901 50.988 27.636 50.988 C 29.140 50.988,30.651 50.880,30.995 50.748 C 31.841 50.424,31.959 9.310,31.118 8.159 C 30.604 7.456,27.029 6.942,25.593 7.364 M33.300 7.394 C 32.236 7.599,32.310 6.683,32.395 18.577 C 32.488 31.578,34.205 37.563,39.453 43.177 C 43.867 47.900,52.066 51.920,54.562 50.584 C 55.724 49.962,55.648 44.269,54.477 44.269 C 53.542 44.269,47.875 41.331,45.959 39.853 C 39.032 34.509,35.969 26.706,35.968 14.407 C 35.968 10.000,35.824 7.918,35.494 7.589 C 35.011 7.106,34.863 7.093,33.300 7.394 M192.461 8.156 C 193.421 9.376,193.529 11.694,192.679 12.817 C 191.869 13.888,191.503 13.307,191.493 10.935 C 191.482 8.259,191.203 7.905,189.107 7.905 L 187.352 7.905 187.352 10.705 C 187.352 13.425,188.136 14.562,188.466 12.321 C 188.654 11.045,189.796 11.299,190.773 12.834 C 191.800 14.446,191.669 14.625,189.456 14.625 C 185.901 14.625,184.231 11.259,186.384 8.437 C 187.765 6.625,191.135 6.470,192.461 8.156 M20.347 8.004 C 20.248 8.276,20.010 12.233,19.819 16.798 C 19.442 25.820,19.147 27.097,16.107 32.895 C 14.106 36.712,8.330 41.961,4.920 43.064 C 1.449 44.186,0.791 44.916,0.791 47.644 C 0.791 51.610,2.564 51.930,8.559 49.047 C 20.265 43.417,23.676 36.310,23.702 17.490 L 23.715 7.510 22.122 7.510 C 21.207 7.510,20.451 7.720,20.347 8.004 M228.114 9.296 C 233.299 11.905,230.795 23.557,224.308 27.004 C 221.849 28.311,210.538 28.310,210.351 27.002 C 210.147 25.567,214.255 11.402,215.280 10.008 C 216.648 8.147,224.918 7.688,228.114 9.296 M190.316 9.684 C 190.316 9.901,189.916 10.136,189.427 10.205 C 188.815 10.292,188.538 10.130,188.538 9.684 C 188.538 9.238,188.815 9.075,189.427 9.162 C 189.916 9.232,190.316 9.466,190.316 9.684 M291.808 10.087 C 291.239 10.486,290.610 11.842,289.929 14.138 C 287.727 21.557,287.590 21.739,284.216 21.739 C 281.228 21.739,281.282 23.112,284.289 23.589 C 286.018 23.863,286.385 24.066,286.490 24.807 C 286.633 25.810,283.334 37.651,282.228 40.102 C 276.840 52.052,284.978 54.998,292.679 43.886 C 295.053 40.460,293.168 40.932,289.781 44.611 C 284.179 50.697,283.841 49.010,287.901 35.218 C 291.287 23.717,291.124 23.982,294.970 23.715 C 299.509 23.401,299.330 21.362,294.763 21.350 C 291.954 21.342,291.949 21.313,293.896 15.292 C 295.047 11.731,295.208 10.854,294.785 10.455 C 293.893 9.611,292.699 9.463,291.808 10.087 M390.428 16.423 C 390.189 16.662,390.707 19.297,391.063 19.653 C 391.319 19.910,391.539 19.309,391.853 17.490 C 392.063 16.273,391.214 15.637,390.428 16.423 M393.162 16.871 C 392.942 17.232,392.768 18.856,392.854 19.763 C 392.896 20.213,393.015 20.174,393.349 19.599 C 393.782 18.853,393.797 18.853,394.349 19.599 C 394.901 20.343,394.920 20.343,395.468 19.603 C 395.969 18.927,396.051 18.917,396.276 19.502 C 396.669 20.527,397.233 19.852,397.233 18.356 C 397.233 17.260,397.080 16.996,396.443 16.996 C 396.008 16.996,395.652 17.174,395.652 17.391 C 395.652 17.984,394.816 17.868,394.043 17.168 C 393.667 16.828,393.270 16.694,393.162 16.871 M78.425 25.950 C 80.838 33.925,81.048 33.252,76.186 33.117 L 72.134 33.004 72.264 32.016 C 72.411 30.896,75.459 20.139,75.773 19.631 C 76.183 18.968,76.645 20.069,78.425 25.950 M127.436 25.950 C 129.850 33.925,130.060 33.252,125.198 33.117 L 121.146 33.004 121.276 32.016 C 121.423 30.896,124.471 20.139,124.785 19.631 C 125.195 18.968,125.657 20.069,127.436 25.950 M378.269 21.161 C 370.048 25.590,364.416 37.785,367.187 45.158 C 367.657 46.408,368.227 47.431,368.454 47.431 C 368.682 47.431,369.467 47.957,370.200 48.600 C 377.807 55.279,391.657 43.368,391.693 30.116 C 391.716 21.451,385.467 17.283,378.269 21.161 M323.518 21.695 C 317.329 24.674,311.726 33.769,311.682 40.909 C 311.573 58.555,333.070 52.495,336.574 33.891 C 338.452 23.916,331.805 17.707,323.518 21.695 M242.688 21.323 C 230.905 24.976,223.519 43.910,231.445 50.144 C 239.698 56.636,253.755 44.561,253.755 30.979 C 253.755 24.299,248.337 19.571,242.688 21.323 M357.905 21.567 C 355.851 22.629,350.988 27.793,350.988 28.913 C 350.988 29.987,352.855 28.948,355.000 26.680 C 360.927 20.413,360.124 26.400,352.853 42.688 C 349.741 49.659,354.325 53.230,359.875 48.158 C 363.263 45.062,365.859 41.107,364.503 41.107 C 364.328 41.107,362.757 42.530,361.013 44.269 C 355.190 50.076,355.058 48.328,360.277 34.490 C 362.342 29.014,364.032 24.163,364.032 23.711 C 364.032 21.421,360.546 20.201,357.905 21.567 M275.039 23.216 C 273.938 24.246,271.602 27.181,269.847 29.738 C 268.093 32.295,266.511 34.387,266.333 34.387 C 265.919 34.387,265.877 34.743,266.830 30.201 C 268.856 20.542,264.500 18.625,257.560 26.121 C 253.232 30.796,253.326 32.974,257.663 28.531 C 264.355 21.679,264.741 24.265,259.318 39.619 C 255.200 51.278,255.257 50.988,257.071 50.988 C 259.071 50.988,259.534 50.397,265.418 40.316 C 271.859 29.282,273.273 27.613,277.189 26.422 C 280.196 25.507,281.028 24.878,281.028 23.518 C 281.028 20.721,277.877 20.562,275.039 23.216 M385.829 22.373 C 390.432 26.474,384.850 45.172,378.063 48.393 C 372.139 51.204,369.196 45.203,371.854 35.736 C 374.952 24.697,381.457 18.478,385.829 22.373 M330.052 22.734 C 335.497 25.549,330.378 45.411,323.275 49.035 C 314.935 53.290,312.966 40.519,320.109 28.496 C 323.492 22.801,326.647 20.973,330.052 22.734 M247.673 24.223 C 252.972 29.079,244.787 50.198,237.607 50.198 C 232.847 50.198,231.543 46.457,233.441 38.249 C 236.132 26.613,242.950 19.894,247.673 24.223 " stroke="none" fill="#000000" fill-rule="evenodd"></path></g></svg>