<svg id="svg" version="1.1" xmlns="http://www.w3.org/2000/svg" xmlns:xlink="http://www.w3.org/1999/xlink" width="400" height="50.64377682403433" viewBox="0, 0, 400,50.64377682403433"><g id="svgg"><path id="path0" d="M11.667 0.250 C 11.667 0.451,11.407 0.500,10.333 0.500 C 9.022 0.500,9.000 0.507,9.000 0.917 C 9.000 1.306,8.944 1.333,8.167 1.333 C 7.389 1.333,7.333 1.361,7.333 1.750 C 7.333 2.139,7.278 2.167,6.503 2.167 C 5.757 2.167,5.662 2.209,5.568 2.583 C 5.493 2.882,5.351 3.000,5.065 3.000 C 4.751 3.000,4.667 3.088,4.667 3.417 C 4.667 3.750,4.583 3.833,4.250 3.833 C 3.917 3.833,3.833 3.917,3.833 4.250 C 3.833 4.583,3.750 4.667,3.417 4.667 C 3.083 4.667,3.000 4.750,3.000 5.083 C 3.000 5.417,2.917 5.500,2.583 5.500 C 2.189 5.500,2.167 5.550,2.167 6.417 C 2.167 7.283,2.144 7.333,1.750 7.333 C 1.361 7.333,1.333 7.389,1.333 8.167 C 1.333 8.944,1.306 9.000,0.917 9.000 C 0.509 9.000,0.500 9.028,0.500 10.250 C 0.500 11.250,0.450 11.500,0.250 11.500 C 0.030 11.500,0.000 13.185,0.000 25.667 C 0.000 38.148,0.030 39.833,0.250 39.833 C 0.450 39.833,0.500 40.083,0.500 41.083 C 0.500 42.306,0.509 42.333,0.917 42.333 C 1.306 42.333,1.333 42.389,1.333 43.167 C 1.333 43.944,1.361 44.000,1.750 44.000 C 2.144 44.000,2.167 44.050,2.167 44.917 C 2.167 45.783,2.189 45.833,2.583 45.833 C 2.917 45.833,3.000 45.917,3.000 46.250 C 3.000 46.583,3.083 46.667,3.417 46.667 C 3.750 46.667,3.833 46.750,3.833 47.083 C 3.833 47.417,3.917 47.500,4.250 47.500 C 4.583 47.500,4.667 47.583,4.667 47.917 C 4.667 48.245,4.751 48.333,5.065 48.333 C 5.351 48.333,5.493 48.451,5.568 48.750 C 5.662 49.125,5.757 49.167,6.503 49.167 C 7.278 49.167,7.333 49.195,7.333 49.583 C 7.333 49.972,7.389 50.000,8.167 50.000 C 8.796 50.000,9.000 50.061,9.000 50.250 C 9.000 50.472,30.380 50.500,200.417 50.500 C 370.454 50.500,391.833 50.472,391.833 50.250 C 391.833 50.061,392.037 50.000,392.667 50.000 C 393.444 50.000,393.500 49.972,393.500 49.583 C 393.500 49.189,393.550 49.167,394.417 49.167 C 395.283 49.167,395.333 49.144,395.333 48.750 C 395.333 48.417,395.417 48.333,395.750 48.333 C 396.083 48.333,396.167 48.250,396.167 47.917 C 396.167 47.583,396.250 47.500,396.583 47.500 C 396.917 47.500,397.000 47.417,397.000 47.083 C 397.000 46.750,397.083 46.667,397.417 46.667 C 397.750 46.667,397.833 46.583,397.833 46.250 C 397.833 45.917,397.917 45.833,398.250 45.833 C 398.644 45.833,398.667 45.783,398.667 44.917 C 398.667 44.050,398.689 44.000,399.083 44.000 C 399.472 44.000,399.500 43.944,399.500 43.167 C 399.500 42.537,399.561 42.333,399.750 42.333 C 399.971 42.333,400.000 40.370,400.000 25.667 C 400.000 10.963,399.971 9.000,399.750 9.000 C 399.561 9.000,399.500 8.796,399.500 8.167 C 399.500 7.389,399.472 7.333,399.083 7.333 C 398.689 7.333,398.667 7.283,398.667 6.417 C 398.667 5.550,398.644 5.500,398.250 5.500 C 397.917 5.500,397.833 5.417,397.833 5.083 C 397.833 4.750,397.750 4.667,397.417 4.667 C 397.083 4.667,397.000 4.583,397.000 4.250 C 397.000 3.917,396.917 3.833,396.583 3.833 C 396.250 3.833,396.167 3.750,396.167 3.417 C 396.167 3.083,396.083 3.000,395.750 3.000 C 395.417 3.000,395.333 2.917,395.333 2.583 C 395.333 2.189,395.283 2.167,394.417 2.167 C 393.550 2.167,393.500 2.144,393.500 1.750 C 393.500 1.361,393.444 1.333,392.667 1.333 C 391.889 1.333,391.833 1.306,391.833 0.917 C 391.833 0.509,391.806 0.500,390.583 0.500 C 389.583 0.500,389.333 0.450,389.333 0.250 C 389.333 0.028,368.241 0.000,200.500 0.000 C 32.759 0.000,11.667 0.028,11.667 0.250 M271.000 13.027 C 276.195 13.058,287.131 13.043,288.000 13.004 C 291.302 12.854,292.532 13.212,293.016 14.464 C 293.096 14.673,293.200 17.973,293.245 21.797 C 293.291 25.621,293.380 30.287,293.443 32.167 C 293.595 36.669,293.624 36.531,292.472 36.841 C 290.632 37.336,288.850 37.003,288.506 36.098 C 288.324 35.622,287.832 25.440,287.833 22.192 C 287.834 17.759,289.609 18.184,271.272 18.227 L 256.294 18.262 255.897 18.724 C 255.679 18.978,255.492 19.350,255.481 19.551 C 255.405 21.068,255.427 22.828,255.529 23.221 C 255.861 24.507,255.742 35.820,255.391 36.293 C 254.967 36.865,254.186 37.145,252.983 37.157 C 250.781 37.179,250.497 36.762,250.401 33.354 C 250.363 32.013,250.262 29.342,250.177 27.417 C 249.833 19.655,249.828 14.324,250.164 13.919 C 250.816 13.135,251.718 12.971,254.917 13.056 C 256.567 13.100,259.379 13.080,261.167 13.010 C 262.954 12.940,264.679 12.908,265.000 12.939 C 265.321 12.969,268.021 13.009,271.000 13.027 M311.052 12.991 C 314.644 12.968,317.808 12.959,318.083 12.972 C 318.358 12.985,323.108 12.998,328.637 13.001 C 340.962 13.007,340.638 12.930,340.534 15.823 C 340.440 18.452,341.396 18.236,329.667 18.279 C 320.655 18.311,316.987 18.311,315.500 18.277 C 315.179 18.269,312.329 18.282,309.167 18.304 L 303.417 18.344 303.083 18.797 C 302.618 19.430,302.675 29.946,303.152 31.462 C 303.287 31.892,333.647 32.086,334.756 31.664 C 335.373 31.430,335.533 30.832,335.325 29.528 C 335.002 27.497,335.010 27.500,330.474 27.500 C 326.037 27.500,325.665 27.269,325.884 24.648 C 326.084 22.270,326.028 22.288,333.276 22.312 C 341.585 22.338,340.931 21.671,340.923 30.121 L 340.917 35.992 340.473 36.436 C 340.008 36.901,337.186 37.324,336.184 37.079 C 335.965 37.025,330.527 36.994,324.101 37.009 C 299.771 37.065,298.531 37.033,298.180 36.346 C 297.892 35.783,297.376 28.046,297.334 23.667 C 297.232 12.989,297.147 13.962,298.238 13.364 C 298.707 13.107,303.922 12.776,304.385 12.975 C 304.460 13.007,307.460 13.014,311.052 12.991 M360.883 13.167 C 362.331 13.264,363.606 13.286,363.716 13.216 C 363.826 13.147,365.717 13.077,367.917 13.060 C 370.117 13.044,372.104 13.025,372.333 13.018 C 372.563 13.010,373.613 13.044,374.667 13.092 C 377.153 13.207,376.938 13.206,386.583 13.177 C 386.767 13.177,387.479 13.144,388.167 13.104 C 392.918 12.831,394.295 13.937,394.317 18.047 C 394.323 19.309,394.378 20.535,394.437 20.772 C 394.663 21.671,394.598 29.735,394.363 29.982 C 394.213 30.140,394.186 30.354,394.280 30.649 C 394.610 31.695,394.396 35.454,393.976 35.983 C 393.094 37.093,391.094 37.372,384.000 37.373 C 383.587 37.373,382.243 37.289,381.013 37.187 C 379.132 37.030,378.734 37.038,378.513 37.236 C 378.300 37.426,377.903 37.445,376.417 37.335 C 375.408 37.260,372.896 37.194,370.833 37.187 C 368.771 37.180,366.858 37.108,366.582 37.027 C 366.306 36.946,365.919 36.939,365.721 37.013 C 365.253 37.185,356.575 37.240,355.167 37.079 C 353.447 36.883,352.667 36.260,352.667 35.083 C 352.667 33.063,355.306 32.153,359.744 32.646 C 360.697 32.752,361.052 32.718,361.735 32.459 C 362.435 32.193,362.633 32.176,362.991 32.353 C 363.848 32.775,387.392 32.766,387.986 32.343 C 388.251 32.154,388.590 32.000,388.739 32.000 C 388.888 32.000,389.049 31.869,389.097 31.708 C 389.145 31.548,389.292 31.204,389.425 30.945 C 389.873 30.070,389.742 29.308,389.025 28.608 L 388.384 27.982 382.150 27.920 C 378.722 27.886,375.767 27.855,375.583 27.851 C 375.400 27.847,374.650 27.871,373.917 27.905 C 370.639 28.054,365.886 28.040,365.578 27.879 C 365.393 27.783,365.105 27.767,364.917 27.843 C 364.733 27.916,363.976 27.982,363.233 27.988 C 362.491 27.995,361.643 28.084,361.351 28.186 C 360.902 28.342,360.766 28.324,360.486 28.071 C 360.209 27.820,360.067 27.800,359.619 27.951 C 358.968 28.171,355.644 28.089,355.183 27.842 C 355.003 27.746,354.671 27.667,354.445 27.667 C 352.912 27.667,352.292 25.046,353.546 23.868 C 354.214 23.241,362.077 22.815,363.914 23.306 C 364.182 23.378,364.743 23.379,365.159 23.309 C 365.923 23.180,371.735 23.153,382.000 23.231 C 386.784 23.267,387.655 23.236,388.083 23.014 C 388.837 22.623,389.333 22.144,389.333 21.808 C 389.333 21.642,389.448 21.220,389.588 20.869 C 389.826 20.275,389.820 20.180,389.503 19.462 C 388.826 17.933,388.385 17.754,385.477 17.828 C 384.621 17.850,383.889 17.786,383.672 17.669 C 383.376 17.511,383.250 17.524,383.019 17.733 C 382.768 17.960,382.438 17.971,380.408 17.822 C 379.129 17.729,377.446 17.660,376.667 17.670 C 375.887 17.681,374.928 17.638,374.533 17.576 C 373.970 17.487,373.747 17.527,373.489 17.760 C 373.199 18.022,373.040 18.036,372.122 17.878 C 371.444 17.761,368.183 17.720,362.722 17.759 C 353.260 17.827,354.058 17.934,352.982 16.449 C 351.781 14.790,353.309 13.043,355.977 13.026 C 356.652 13.021,357.248 12.974,357.302 12.920 C 357.356 12.866,357.592 12.860,357.825 12.906 C 358.059 12.953,359.435 13.070,360.883 13.167 M184.543 13.154 C 185.034 13.013,187.052 13.265,187.551 13.529 C 188.543 14.054,188.900 16.804,188.125 17.951 C 187.629 18.686,187.244 18.765,184.630 18.667 C 183.413 18.621,182.084 18.640,181.678 18.709 C 180.766 18.864,165.386 18.824,164.285 18.664 C 163.846 18.600,163.134 18.608,162.702 18.681 C 162.270 18.754,159.742 18.846,157.083 18.884 C 150.980 18.974,150.737 19.068,151.214 21.159 C 151.494 22.388,151.996 22.690,153.693 22.651 C 155.661 22.606,157.184 22.612,158.167 22.667 C 158.671 22.696,160.208 22.663,161.583 22.594 C 164.335 22.456,164.427 22.453,166.583 22.469 C 167.408 22.475,168.233 22.478,168.417 22.475 C 168.600 22.473,170.963 22.522,173.667 22.584 C 176.371 22.647,179.033 22.672,179.583 22.640 C 187.575 22.184,188.953 22.620,188.895 25.589 C 188.852 27.727,188.021 28.144,184.000 28.048 C 182.535 28.013,178.098 28.040,173.417 28.113 C 171.033 28.150,165.278 28.178,160.628 28.175 L 152.172 28.170 151.890 28.600 C 151.491 29.210,151.399 30.655,151.721 31.277 C 152.203 32.209,152.068 32.189,157.696 32.160 C 174.665 32.072,187.670 32.209,188.197 32.480 C 189.937 33.375,189.459 37.101,187.565 37.410 C 186.031 37.660,147.916 37.777,147.311 37.533 C 146.030 37.017,145.999 36.781,145.577 24.268 C 145.534 22.995,145.432 20.574,145.349 18.888 C 145.231 16.462,145.247 15.644,145.425 14.968 C 145.645 14.135,145.726 14.025,146.412 13.635 C 146.794 13.418,151.476 13.342,167.778 13.286 C 173.844 13.266,178.844 13.212,178.889 13.166 C 178.934 13.121,180.122 13.129,181.527 13.184 C 182.933 13.240,184.290 13.226,184.543 13.154 M244.828 13.625 C 245.428 14.227,246.053 16.510,245.752 16.997 C 245.706 17.072,245.740 18.209,245.828 19.525 C 246.121 23.911,246.218 35.858,245.964 36.333 C 245.554 37.100,243.321 37.445,242.091 36.931 C 241.085 36.510,240.930 36.067,240.807 33.258 C 240.747 31.879,240.654 29.813,240.600 28.667 C 240.506 26.686,240.363 21.630,240.266 16.917 C 240.197 13.579,240.583 13.000,242.875 13.000 C 244.191 13.000,244.213 13.007,244.828 13.625 M139.380 13.501 C 141.443 14.138,141.499 14.351,141.597 22.000 C 141.635 24.979,141.749 28.504,141.850 29.833 C 142.440 37.587,142.262 38.106,139.155 37.665 C 136.767 37.326,136.527 36.725,136.489 30.982 C 136.478 29.330,136.373 27.717,136.230 26.982 C 136.098 26.304,136.033 25.505,136.086 25.206 C 136.438 23.225,135.586 19.308,134.758 19.100 C 134.196 18.959,124.524 18.949,123.779 19.089 C 122.872 19.259,122.802 19.609,122.921 23.345 C 123.023 26.536,123.151 31.625,123.213 34.950 C 123.254 37.173,123.041 37.522,121.516 37.713 C 118.439 38.098,117.776 36.911,117.585 30.667 C 117.522 28.604,117.392 26.392,117.296 25.750 C 117.150 24.771,117.075 23.380,117.010 20.468 C 116.984 19.299,116.606 19.169,112.919 19.061 C 107.801 18.911,104.994 19.092,104.439 19.606 C 103.912 20.095,103.807 22.885,104.237 24.947 C 104.396 25.709,104.429 26.327,104.337 26.823 C 104.262 27.230,104.272 28.730,104.361 30.157 C 104.847 37.972,104.861 37.932,101.679 37.809 C 99.277 37.715,98.956 36.903,98.761 30.417 C 98.703 28.492,98.573 26.429,98.472 25.833 C 98.372 25.238,98.292 24.488,98.295 24.167 C 98.299 23.846,98.315 22.758,98.331 21.750 C 98.347 20.742,98.270 19.129,98.160 18.167 C 97.800 15.026,97.905 14.403,98.869 13.957 C 99.691 13.578,103.419 13.492,121.119 13.444 C 129.755 13.420,136.874 13.348,136.938 13.284 C 137.158 13.065,138.295 13.166,139.380 13.501 M196.242 13.306 C 196.964 13.403,197.137 13.507,197.617 14.138 L 198.167 14.859 198.167 17.402 C 198.167 20.255,198.385 21.780,198.853 22.193 C 199.519 22.781,220.790 22.569,221.199 21.970 C 221.348 21.753,221.256 17.408,221.067 15.729 C 220.836 13.676,223.205 12.473,225.460 13.496 C 226.390 13.918,226.418 14.022,226.637 17.833 C 226.920 22.749,226.577 22.417,231.362 22.417 C 236.483 22.417,236.167 21.954,236.428 29.833 C 236.675 37.291,236.700 37.223,233.725 37.131 C 231.399 37.058,231.150 36.538,231.078 31.583 C 231.043 29.160,230.842 28.064,230.379 27.778 C 230.058 27.580,220.680 27.533,214.417 27.698 C 210.842 27.792,206.066 27.880,203.804 27.893 C 198.716 27.922,198.809 27.886,198.645 29.934 C 198.587 30.658,198.612 31.558,198.700 31.934 C 198.937 32.942,198.622 36.325,198.237 36.913 C 197.940 37.367,197.929 37.369,196.329 37.305 C 193.441 37.189,193.410 37.127,193.255 31.083 C 193.130 26.260,193.088 25.391,192.820 22.167 C 192.368 16.724,192.561 14.055,193.456 13.375 C 193.748 13.153,194.888 13.125,196.242 13.306 M92.069 13.775 C 92.712 13.851,93.033 14.007,93.564 14.503 L 94.240 15.133 94.367 16.858 C 94.436 17.807,94.566 20.758,94.654 23.417 C 94.742 26.075,94.891 29.300,94.985 30.583 C 95.434 36.685,95.343 37.249,93.822 37.754 C 91.298 38.592,89.980 37.538,89.897 34.613 C 89.871 33.713,89.741 32.588,89.608 32.113 C 89.475 31.638,89.315 30.884,89.253 30.437 C 88.951 28.271,90.155 28.391,70.500 28.567 C 67.246 28.597,63.291 28.631,61.711 28.644 L 58.839 28.667 58.301 29.147 C 57.637 29.740,57.533 30.800,57.811 34.120 C 58.091 37.474,57.854 37.887,55.520 38.104 C 52.956 38.343,52.337 37.362,52.247 32.920 C 52.224 31.726,52.117 29.662,52.011 28.333 C 51.904 27.004,51.781 25.017,51.736 23.917 C 51.692 22.817,51.590 21.692,51.511 21.417 C 51.252 20.522,51.379 15.097,51.667 14.749 C 52.426 13.829,51.871 13.860,69.477 13.771 C 78.399 13.727,85.748 13.640,85.808 13.579 C 85.923 13.461,90.681 13.610,92.069 13.775 M46.090 14.421 C 47.317 15.009,47.733 15.646,47.596 16.727 C 47.236 19.584,47.851 19.389,39.013 19.443 C 17.684 19.574,12.053 19.666,11.401 19.891 L 10.750 20.116 10.618 21.433 C 10.492 22.692,10.624 25.666,11.004 30.083 C 11.173 32.048,11.186 32.093,11.753 32.662 L 12.329 33.240 17.790 33.188 C 20.793 33.160,26.550 33.106,30.583 33.069 C 34.617 33.033,38.104 33.001,38.333 32.998 C 41.924 32.954,43.088 32.526,42.944 31.303 C 42.689 29.141,41.573 28.512,38.208 28.632 C 37.910 28.642,37.155 28.670,36.531 28.693 C 34.007 28.787,32.942 27.592,33.420 25.202 C 33.776 23.419,34.182 23.318,40.717 23.390 C 48.690 23.478,47.949 22.354,48.428 35.086 C 48.537 37.970,47.993 38.471,45.010 38.230 C 43.467 38.105,32.868 38.160,29.083 38.312 C 25.378 38.461,9.333 38.421,8.259 38.260 C 7.357 38.125,6.742 37.663,6.395 36.860 C 6.151 36.295,5.759 31.630,5.818 30.000 C 5.830 29.679,5.765 29.042,5.673 28.583 C 5.581 28.125,5.471 27.037,5.427 26.167 C 5.384 25.296,5.266 23.533,5.164 22.250 C 4.720 16.641,4.936 14.781,6.065 14.478 C 6.318 14.411,13.288 14.305,21.554 14.244 C 29.820 14.182,38.271 14.076,40.333 14.007 C 44.686 13.863,44.970 13.883,46.090 14.421 M64.583 19.360 C 64.125 19.421,62.490 19.477,60.951 19.485 C 57.340 19.504,56.896 19.834,57.509 22.043 C 57.847 23.260,56.812 23.190,72.973 23.089 C 89.889 22.983,88.738 23.138,88.633 20.972 C 88.542 19.105,88.886 19.145,74.250 19.302 C 73.333 19.312,70.971 19.304,69.000 19.285 C 67.029 19.266,65.042 19.300,64.583 19.360 " stroke="none" fill="#68729d" fill-rule="evenodd"></path><path id="path1" d="M261.167 13.010 C 259.379 13.080,256.567 13.100,254.917 13.056 C 251.718 12.971,250.816 13.135,250.164 13.919 C 249.828 14.324,249.833 19.655,250.177 27.417 C 250.262 29.342,250.363 32.013,250.401 33.354 C 250.497 36.762,250.781 37.179,252.983 37.157 C 254.186 37.145,254.967 36.865,255.391 36.293 C 255.742 35.820,255.861 24.507,255.529 23.221 C 255.427 22.828,255.405 21.068,255.481 19.551 C 255.492 19.350,255.679 18.978,255.897 18.724 L 256.294 18.262 271.272 18.227 C 289.609 18.184,287.834 17.759,287.833 22.192 C 287.832 25.440,288.324 35.622,288.506 36.098 C 288.850 37.003,290.632 37.336,292.472 36.841 C 293.624 36.531,293.595 36.669,293.443 32.167 C 293.380 30.287,293.291 25.621,293.245 21.797 C 293.200 17.973,293.096 14.673,293.016 14.464 C 292.532 13.212,291.302 12.854,288.000 13.004 C 286.050 13.092,266.013 13.035,265.000 12.939 C 264.679 12.908,262.954 12.940,261.167 13.010 M301.500 13.000 C 298.653 13.086,298.076 13.220,297.488 13.933 C 297.249 14.222,297.246 14.411,297.334 23.667 C 297.376 28.046,297.892 35.783,298.180 36.346 C 298.531 37.033,299.771 37.065,324.101 37.009 C 330.527 36.994,335.965 37.025,336.184 37.079 C 337.186 37.324,340.008 36.901,340.473 36.436 L 340.917 35.992 340.923 30.121 C 340.931 21.671,341.585 22.338,333.276 22.312 C 326.028 22.288,326.084 22.270,325.884 24.648 C 325.665 27.269,326.037 27.500,330.474 27.500 C 335.010 27.500,335.002 27.497,335.325 29.528 C 335.533 30.832,335.373 31.430,334.756 31.664 C 333.647 32.086,303.287 31.892,303.152 31.462 C 302.675 29.946,302.618 19.430,303.083 18.797 L 303.417 18.344 309.167 18.304 C 312.329 18.282,315.179 18.269,315.500 18.277 C 316.987 18.311,320.655 18.311,329.667 18.279 C 341.396 18.236,340.440 18.452,340.534 15.823 C 340.638 12.930,340.962 13.007,328.637 13.001 C 323.108 12.998,318.358 12.985,318.083 12.972 C 317.808 12.959,314.644 12.968,311.052 12.991 C 307.460 13.014,304.460 13.007,304.385 12.975 C 304.311 12.943,303.012 12.954,301.500 13.000 M178.889 13.166 C 178.844 13.212,173.844 13.266,167.778 13.286 C 151.476 13.342,146.794 13.418,146.412 13.635 C 145.726 14.025,145.645 14.135,145.425 14.968 C 145.247 15.644,145.231 16.462,145.349 18.888 C 145.432 20.574,145.534 22.995,145.577 24.268 C 145.999 36.781,146.030 37.017,147.311 37.533 C 147.916 37.777,186.031 37.660,187.565 37.410 C 189.459 37.101,189.937 33.375,188.197 32.480 C 187.670 32.209,174.665 32.072,157.696 32.160 C 152.068 32.189,152.203 32.209,151.721 31.277 C 151.399 30.655,151.491 29.210,151.890 28.600 L 152.172 28.170 160.628 28.175 C 165.278 28.178,171.033 28.150,173.417 28.113 C 178.098 28.040,182.535 28.013,184.000 28.048 C 188.021 28.144,188.852 27.727,188.895 25.589 C 188.953 22.620,187.575 22.184,179.583 22.640 C 179.033 22.672,176.371 22.647,173.667 22.584 C 170.963 22.522,168.600 22.473,168.417 22.475 C 168.233 22.478,167.408 22.475,166.583 22.469 C 164.427 22.453,164.335 22.456,161.583 22.594 C 160.208 22.663,158.671 22.696,158.167 22.667 C 157.184 22.612,155.661 22.606,153.693 22.651 C 151.996 22.690,151.494 22.388,151.214 21.159 C 150.737 19.068,150.980 18.974,157.083 18.884 C 159.742 18.846,162.270 18.754,162.702 18.681 C 163.134 18.608,163.846 18.600,164.285 18.664 C 165.386 18.824,180.766 18.864,181.678 18.709 C 182.084 18.640,183.413 18.621,184.630 18.667 C 187.244 18.765,187.629 18.686,188.125 17.951 C 188.900 16.804,188.543 14.054,187.551 13.529 C 187.052 13.265,185.034 13.013,184.543 13.154 C 184.290 13.226,182.933 13.240,181.527 13.184 C 180.122 13.129,178.934 13.121,178.889 13.166 M241.086 13.361 C 240.350 13.940,240.216 14.521,240.266 16.917 C 240.363 21.630,240.506 26.686,240.600 28.667 C 240.654 29.813,240.747 31.879,240.807 33.258 C 240.930 36.067,241.085 36.510,242.091 36.931 C 243.321 37.445,245.554 37.100,245.964 36.333 C 246.218 35.858,246.121 23.911,245.828 19.525 C 245.740 18.209,245.706 17.072,245.752 16.997 C 246.053 16.510,245.428 14.227,244.828 13.625 C 244.038 12.831,241.947 12.684,241.086 13.361 M136.938 13.284 C 136.874 13.348,129.755 13.420,121.119 13.444 C 103.419 13.492,99.691 13.578,98.869 13.957 C 97.905 14.403,97.800 15.026,98.160 18.167 C 98.270 19.129,98.347 20.742,98.331 21.750 C 98.315 22.758,98.299 23.846,98.295 24.167 C 98.292 24.488,98.372 25.238,98.472 25.833 C 98.573 26.429,98.703 28.492,98.761 30.417 C 98.956 36.903,99.277 37.715,101.679 37.809 C 104.861 37.932,104.847 37.972,104.361 30.157 C 104.272 28.730,104.262 27.230,104.337 26.823 C 104.429 26.327,104.396 25.709,104.237 24.947 C 103.807 22.885,103.912 20.095,104.439 19.606 C 104.994 19.092,107.801 18.911,112.919 19.061 C 116.606 19.169,116.984 19.299,117.010 20.468 C 117.075 23.380,117.150 24.771,117.296 25.750 C 117.392 26.392,117.522 28.604,117.585 30.667 C 117.776 36.911,118.439 38.098,121.516 37.713 C 123.041 37.522,123.254 37.173,123.213 34.950 C 123.151 31.625,123.023 26.536,122.921 23.345 C 122.802 19.609,122.872 19.259,123.779 19.089 C 124.524 18.949,134.196 18.959,134.758 19.100 C 135.586 19.308,136.438 23.225,136.086 25.206 C 136.033 25.505,136.098 26.304,136.230 26.982 C 136.373 27.717,136.478 29.330,136.489 30.982 C 136.527 36.725,136.767 37.326,139.155 37.665 C 142.262 38.106,142.440 37.587,141.850 29.833 C 141.749 28.504,141.635 24.979,141.597 22.000 C 141.518 15.879,141.448 15.138,140.871 14.376 C 140.272 13.585,137.428 12.795,136.938 13.284 M193.456 13.375 C 192.561 14.055,192.368 16.724,192.820 22.167 C 193.088 25.391,193.130 26.260,193.255 31.083 C 193.410 37.127,193.441 37.189,196.329 37.305 C 197.929 37.369,197.940 37.367,198.237 36.913 C 198.622 36.325,198.937 32.942,198.700 31.934 C 198.612 31.558,198.587 30.658,198.645 29.934 C 198.809 27.886,198.716 27.922,203.804 27.893 C 206.066 27.880,210.842 27.792,214.417 27.698 C 220.680 27.533,230.058 27.580,230.379 27.778 C 230.842 28.064,231.043 29.160,231.078 31.583 C 231.150 36.538,231.399 37.058,233.725 37.131 C 236.700 37.223,236.675 37.291,236.428 29.833 C 236.167 21.954,236.483 22.417,231.362 22.417 C 226.577 22.417,226.920 22.749,226.637 17.833 C 226.418 14.022,226.390 13.918,225.460 13.496 C 223.205 12.473,220.836 13.676,221.067 15.729 C 221.256 17.408,221.348 21.753,221.199 21.970 C 220.790 22.569,199.519 22.781,198.853 22.193 C 198.385 21.780,198.167 20.255,198.167 17.402 L 198.167 14.859 197.617 14.138 C 197.137 13.507,196.964 13.403,196.242 13.306 C 194.888 13.125,193.748 13.153,193.456 13.375 M85.808 13.579 C 85.748 13.640,78.399 13.727,69.477 13.771 C 51.871 13.860,52.426 13.829,51.667 14.749 C 51.379 15.097,51.252 20.522,51.511 21.417 C 51.590 21.692,51.692 22.817,51.736 23.917 C 51.781 25.017,51.904 27.004,52.011 28.333 C 52.117 29.662,52.224 31.726,52.247 32.920 C 52.337 37.362,52.956 38.343,55.520 38.104 C 57.854 37.887,58.091 37.474,57.811 34.120 C 57.533 30.800,57.637 29.740,58.301 29.147 L 58.839 28.667 61.711 28.644 C 63.291 28.631,67.246 28.597,70.500 28.567 C 90.155 28.391,88.951 28.271,89.253 30.437 C 89.315 30.884,89.475 31.638,89.608 32.113 C 89.741 32.588,89.871 33.713,89.897 34.613 C 89.980 37.538,91.298 38.592,93.822 37.754 C 95.343 37.249,95.434 36.685,94.985 30.583 C 94.891 29.300,94.742 26.075,94.654 23.417 C 94.566 20.758,94.436 17.807,94.367 16.858 L 94.240 15.133 93.564 14.503 C 93.033 14.007,92.712 13.851,92.069 13.775 C 90.681 13.610,85.923 13.461,85.808 13.579 M40.333 14.007 C 38.271 14.076,29.820 14.182,21.554 14.244 C 13.288 14.305,6.318 14.411,6.065 14.478 C 4.936 14.781,4.720 16.641,5.164 22.250 C 5.266 23.533,5.384 25.296,5.427 26.167 C 5.471 27.037,5.581 28.125,5.673 28.583 C 5.765 29.042,5.830 29.679,5.818 30.000 C 5.759 31.630,6.151 36.295,6.395 36.860 C 6.742 37.663,7.357 38.125,8.259 38.260 C 9.333 38.421,25.378 38.461,29.083 38.312 C 32.868 38.160,43.467 38.105,45.010 38.230 C 47.993 38.471,48.537 37.970,48.428 35.086 C 47.949 22.354,48.690 23.478,40.717 23.390 C 34.182 23.318,33.776 23.419,33.420 25.202 C 32.942 27.592,34.007 28.787,36.531 28.693 C 37.155 28.670,37.910 28.642,38.208 28.632 C 41.573 28.512,42.689 29.141,42.944 31.303 C 43.088 32.526,41.924 32.954,38.333 32.998 C 38.104 33.001,34.617 33.033,30.583 33.069 C 26.550 33.106,20.793 33.160,17.790 33.188 L 12.329 33.240 11.753 32.662 C 11.186 32.093,11.173 32.048,11.004 30.083 C 10.624 25.666,10.492 22.692,10.618 21.433 L 10.750 20.116 11.401 19.891 C 12.053 19.666,17.684 19.574,39.013 19.443 C 47.851 19.389,47.236 19.584,47.596 16.727 C 47.888 14.420,46.260 13.811,40.333 14.007 M74.250 19.302 C 88.886 19.145,88.542 19.105,88.633 20.972 C 88.738 23.138,89.889 22.983,72.973 23.089 C 56.812 23.190,57.847 23.260,57.509 22.043 C 56.896 19.834,57.340 19.504,60.951 19.485 C 62.490 19.477,64.125 19.421,64.583 19.360 C 65.042 19.300,67.029 19.266,69.000 19.285 C 70.971 19.304,73.333 19.312,74.250 19.302 " stroke="none" fill="#e8e9e2" fill-rule="evenodd"></path><path id="path2" d="M357.302 12.920 C 357.248 12.974,356.652 13.021,355.977 13.026 C 353.309 13.043,351.781 14.790,352.982 16.449 C 354.058 17.934,353.260 17.827,362.722 17.759 C 368.183 17.720,371.444 17.761,372.122 17.878 C 373.040 18.036,373.199 18.022,373.489 17.760 C 373.747 17.527,373.970 17.487,374.533 17.576 C 374.928 17.638,375.887 17.681,376.667 17.670 C 377.446 17.660,379.129 17.729,380.408 17.822 C 382.438 17.971,382.768 17.960,383.019 17.733 C 383.250 17.524,383.376 17.511,383.672 17.669 C 383.889 17.786,384.621 17.850,385.477 17.828 C 388.385 17.754,388.826 17.933,389.503 19.462 C 389.820 20.180,389.826 20.275,389.588 20.869 C 389.448 21.220,389.333 21.642,389.333 21.808 C 389.333 22.144,388.837 22.623,388.083 23.014 C 387.655 23.236,386.784 23.267,382.000 23.231 C 371.735 23.153,365.923 23.180,365.159 23.309 C 364.743 23.379,364.182 23.378,363.914 23.306 C 362.077 22.815,354.214 23.241,353.546 23.868 C 352.292 25.046,352.912 27.667,354.445 27.667 C 354.671 27.667,355.003 27.746,355.183 27.842 C 355.644 28.089,358.968 28.171,359.619 27.951 C 360.067 27.800,360.209 27.820,360.486 28.071 C 360.766 28.324,360.902 28.342,361.351 28.186 C 361.643 28.084,362.491 27.995,363.233 27.988 C 363.976 27.982,364.733 27.916,364.917 27.843 C 365.105 27.767,365.393 27.783,365.578 27.879 C 365.886 28.040,370.639 28.054,373.917 27.905 C 374.650 27.871,375.400 27.847,375.583 27.851 C 375.767 27.855,378.722 27.886,382.150 27.920 L 388.384 27.982 389.025 28.608 C 389.742 29.308,389.873 30.070,389.425 30.945 C 389.292 31.204,389.145 31.548,389.097 31.708 C 389.049 31.869,388.888 32.000,388.739 32.000 C 388.590 32.000,388.251 32.154,387.986 32.343 C 387.392 32.766,363.848 32.775,362.991 32.353 C 362.633 32.176,362.435 32.193,361.735 32.459 C 361.052 32.718,360.697 32.752,359.744 32.646 C 355.306 32.153,352.667 33.063,352.667 35.083 C 352.667 36.260,353.447 36.883,355.167 37.079 C 356.575 37.240,365.253 37.185,365.721 37.013 C 365.919 36.939,366.306 36.946,366.582 37.027 C 366.858 37.108,368.771 37.180,370.833 37.187 C 372.896 37.194,375.408 37.260,376.417 37.335 C 377.903 37.445,378.300 37.426,378.513 37.236 C 378.734 37.038,379.132 37.030,381.013 37.187 C 383.548 37.398,383.575 37.398,388.000 37.302 C 391.042 37.237,392.220 37.079,393.333 36.587 C 394.266 36.176,394.856 32.476,394.280 30.649 C 394.186 30.354,394.213 30.140,394.363 29.982 C 394.598 29.735,394.663 21.671,394.437 20.772 C 394.378 20.535,394.323 19.309,394.317 18.047 C 394.295 13.937,392.918 12.831,388.167 13.104 C 387.479 13.144,386.767 13.177,386.583 13.177 C 376.938 13.206,377.153 13.207,374.667 13.092 C 373.613 13.044,372.563 13.010,372.333 13.018 C 372.104 13.025,370.117 13.044,367.917 13.060 C 365.717 13.077,363.826 13.147,363.716 13.216 C 363.525 13.337,358.716 13.084,357.825 12.906 C 357.592 12.860,357.356 12.866,357.302 12.920 " stroke="none" fill="#d57e4d" fill-rule="evenodd"></path></g></svg>