<?xml version="1.0" encoding="UTF-8" standalone="no"?>
<svg
   xmlns:dc="http://purl.org/dc/elements/1.1/"
   xmlns:cc="http://creativecommons.org/ns#"
   xmlns:rdf="http://www.w3.org/1999/02/22-rdf-syntax-ns#"
   xmlns:svg="http://www.w3.org/2000/svg"
   xmlns="http://www.w3.org/2000/svg"
   xmlns:sodipodi="http://sodipodi.sourceforge.net/DTD/sodipodi-0.dtd"
   xmlns:inkscape="http://www.inkscape.org/namespaces/inkscape"
   version="1.1"
   id="svg194"
   width="1000"
   height="1266"
   viewBox="0 0 1000 1266"
   sodipodi:docname="mascot.svg"
   inkscape:version="1.0.2 (e86c870879, 2021-01-15)">
  <metadata
     id="metadata200">
    <rdf:RDF>
      <cc:Work
         rdf:about="">
        <dc:format>image/svg+xml</dc:format>
        <dc:type
           rdf:resource="http://purl.org/dc/dcmitype/StillImage" />
        <dc:title></dc:title>
      </cc:Work>
    </rdf:RDF>
  </metadata>
  <defs
     id="defs198" />
  <sodipodi:namedview
     pagecolor="#ffffff"
     bordercolor="#666666"
     borderopacity="1"
     objecttolerance="10"
     gridtolerance="10"
     guidetolerance="10"
     inkscape:pageopacity="0"
     inkscape:pageshadow="2"
     inkscape:window-width="1600"
     inkscape:window-height="835"
     id="namedview196"
     showgrid="false"
     inkscape:zoom="0.7372899"
     inkscape:cx="384.60053"
     inkscape:cy="517.93655"
     inkscape:window-x="0"
     inkscape:window-y="36"
     inkscape:window-maximized="1"
     inkscape:current-layer="g202" />
  <g
     inkscape:groupmode="layer"
     inkscape:label="Image"
     id="g202">
    <path
       style="fill:#f5db00;fill-opacity:1"
       d="m 447.60052,1208.8616 v -13.0043 h 12 12 v -10.5 -10.5 h -21.5 -21.5 v -55.9816 -55.9815 l 23.25,-0.2685 23.25,-0.2684 0.26009,-45.7501 0.26009,-45.74997 h 21.98991 21.98992 v -19 -19 h -81.00001 -81 v -19.5 -19.5 h -24 -24 l -0.2291,77.25 c -0.22483,75.81097 -0.2782,83.93787 -0.60746,92.50007 l -0.16344,4.25 h -118.99999 -119 V 856.54843 c 0,-167.4776 0.25928,-211.66005 1.25,-213.00176 1.16059,-1.57179 9.86842,-1.71062 121.75,-1.94113 l 120.49999,-0.24827 0.27418,-16.75 0.27418,-16.75 6.22582,-0.13902 c 3.4242,-0.0765 19.27582,-0.41396 35.22582,-0.75 l 29,-0.61098 0.30108,-16 c 0.1656,-8.8 0.0374,-17.83319 -0.28484,-20.07376 -0.50241,-3.49308 -5.4986,-10.21421 -35.05108,-47.1525 l -34.46516,-43.07874 v -21.64352 -21.64352 l 16.23895,-16.70398 c 8.93142,-9.18719 26.21584,-26.92532 38.40981,-39.41808 l 22.17085,-22.71409 76.51117,-0.69722 76.51118,-0.69722 39.32902,38.35523 39.32903,38.35522 0.636,12.55609 c 0.34979,6.90585 0.68729,19.75808 0.75,28.5605 l 0.114,16.00441 -42.44266,42.43386 c -23.34347,23.33861 -42.25734,42.73372 -42.03082,43.10022 0.22651,0.36651 -0.61001,1.62636 -1.85894,2.79967 -2.22614,2.09135 -3.0267,2.13844 -40.71919,2.39536 l -38.4484,0.26207 -0.27903,13.25 -0.27902,13.25 h 15.52902 15.52903 v 56 56 h 104.00001 104 v 12.49213 12.49213 l -59.75,0.25787 -59.75,0.25787 -0.27673,14.75 -0.27674,14.75 h 13.02674 13.02673 v 14.5 14.5 h -65.5 -65.50001 v 13 13 h 55.00001 55 v 13.5 13.49996 h 34.5 34.5 v 47.5 47.5 h -10 -10 v 19 19 h -23.5 -23.5 v 34.50007 34.5 h -13.5 -13.5 v 42.5 42.5 h 57.51174 57.51175 l -0.26175,38.75 -0.26174,38.75 -112.75,0.2543 -112.75001,0.2543 z m 198.00001,-20.0043 v -11 h -44.5 -44.5 v 11 11 h 44.5 44.5 z m -371.5,-183.5001 v -18.99997 l -20.25,-0.2707 -20.25,-0.2707 v -18.9586 -18.9585 l 20.25,-0.2707 20.25,-0.2708 v -19 -19 l -20.25,-0.2707 -20.25,-0.2707 v -18.4581 -18.4582 l 19.75,-0.2711 19.75,-0.2712 0.27251,-18.87038 c 0.18877,-13.07202 -0.0793,-19.29432 -0.87245,-20.25 -0.90123,-1.08592 -5.26968,-1.37958 -20.5225,-1.37958 h -19.37756 v -19.47886 -19.47886 l 19.75,-0.27114 19.75,-0.27114 v -19 -19 l -20.25,-0.27071 -20.25,-0.2707 v -18.95674 -18.95673 l 18.25,-0.27256 18.25,-0.27256 v -19 -19 h -21 -21 l -0.27207,18.75 -0.27206,18.75 h -17.45587 -17.45587 l -0.27206,-18.75 -0.27207,-18.75 h -21 -21 l -0.27152,19.22936 -0.27152,19.22937 -20.22848,0.27063 -20.22848,0.27064 v 19 19 l 20.25,0.27071 20.25,0.2707 v 18.9793 18.97929 h 21 21 v 19.5 19.5 h 19.95985 19.95985 l 0.29015,20.00103 0.29015,20.00103 -19.25,-10e-4 h -19.25 v -19.49996 -19.5 h -20.5 -20.5 v -19.51989 -19.51989 l -21.25,0.26989 -21.25,0.26989 v 19 19 l 20.25,0.27071 20.25,0.2707 v 19.45901 19.45904 l -20.75,0.2703 -20.75,0.2702 v 19 19 l 20.75,0.2703 20.75,0.2703 v 18.459 18.459 l -20.25,0.2707 -20.25,0.2707 v 19 19 l 20.22801,0.2706 20.22801,0.2707 0.27199,18.72927 0.27199,18.7295 h 21 21 l 0.27207,-18.7501 0.27206,-18.74997 h 19.97794 19.97793 v 18.83327 c 0,10.3584 0.30887,19.1423 0.68639,19.5199 0.37751,0.3775 9.94001,0.565 21.25,0.4166 l 20.56361,-0.2697 z m -123.5,-39.49997 v -19 h 20 20 v 19 19 h -20 -20 z m 41,-37.5 v -18.5 h 20 20 v 18.5 18.5 h -20 -20 z m -42,-39 v -18.5 h 20.5 20.5 v 18.5 18.5 h -20.5 -20.5 z m 41,-116.99996 v -19.5 h 19.5 19.5 v 19.5 19.5 h -19.5 -19.5 z m -41,-38.5 v -19 h 19.5 19.5 v 19 19 h -19.5 -19.5 z m 378.77988,28.25 -0.27988,-12.75 -40.74133,-0.26121 -40.74132,-0.26121 -0.25868,-53.73879 -0.25868,-53.73879 h -51 -51 l -0.25709,66.75 -0.25709,66.75 h 92.53697 92.53697 z M 141.10053,1166.2978 c -23.1,-21.1897 -44.13273,-40.6448 -46.7394,-43.2336 l -4.73939,-4.7069 h 24.73939 24.7394 l 0.27988,-12.75 0.27987,-12.75 h 13.93935 13.93934 l 0.28078,12.25 0.28078,12.25 16.5,0.7191 c 9.075,0.3956 17.0625,0.5222 17.75,0.2814 0.91021,-0.3187 1.25,-3.8441 1.25,-12.9691 v -12.5314 h 14.97012 14.97013 l 0.27987,12.75 0.27988,12.75 22.93989,0.5 22.9399,0.5 -11.9399,11.0024 c -37.83181,34.8611 -81.74628,74.0296 -83.22584,74.2312 -1.04988,0.143 -17.98858,-14.6951 -43.71405,-38.2931 z"
       id="path210" />
    <path
       style="fill:#000000"
       id="path206"
       d="" />
    <rect
       style="fill:#ff0000;fill-opacity:1;stroke-width:1.0106"
       id="rect1037"
       width="106.87309"
       height="133.92146"
       x="343.05447"
       y="641.3573" />
    <rect
       style="fill:#ff0000;fill-opacity:1;stroke-width:1.06246"
       id="rect1039"
       width="79.425919"
       height="27.134472"
       x="449.92752"
       y="748.14117" />
    <rect
       style="fill:#ff0000;fill-opacity:1"
       id="rect1041"
       width="89"
       height="22"
       x="556.60052"
       y="1177.8573" />
    <rect
       style="fill:#ff0000;fill-opacity:1;stroke-width:1.04601"
       id="rect1045"
       width="44.279804"
       height="38.528336"
       x="146.87407"
       y="676.3573" />
    <rect
       style="fill:#ff0000;fill-opacity:1;stroke-width:1.02649"
       id="rect1047"
       width="43.076847"
       height="39.03931"
       x="225.02368"
       y="676.3573" />
    <rect
       style="fill:#ff0000;fill-opacity:1;stroke-width:1.07294"
       id="rect1049"
       width="42.500004"
       height="43.168835"
       x="107.10053"
       y="711.94635" />
    <rect
       style="fill:#ff0000;fill-opacity:1;stroke-width:1.08799"
       id="rect1051"
       width="43.628433"
       height="43.29142"
       x="187.97209"
       y="712.34387" />
    <rect
       style="fill:#ff0000;fill-opacity:1;stroke-width:1.02448"
       id="rect1053"
       width="43.031746"
       height="39"
       x="147.56877"
       y="752.8573" />
    <rect
       style="fill:#ff0000;fill-opacity:1;stroke-width:1.07838"
       id="rect1055"
       width="42.562149"
       height="42.648323"
       x="229.53838"
       y="752.81592" />
    <rect
       style="fill:#ff0000;fill-opacity:1;stroke-width:1.11746"
       id="rect1059"
       width="42.780739"
       height="45.561596"
       x="108.10053"
       y="788.35022" />
    <rect
       style="fill:#ff0000;fill-opacity:1;stroke-width:1.06761"
       id="rect1061"
       width="44.358818"
       height="42.088055"
       x="188.24171"
       y="791.8573" />
    <rect
       style="fill:#ff0000;fill-opacity:1;stroke-width:1.02703"
       id="rect1063"
       width="43.246639"
       height="38.999962"
       x="148.35388"
       y="831.8584" />
    <rect
       style="fill:#ff0000;fill-opacity:1"
       id="rect1065"
       width="40.500004"
       height="40.499931"
       x="232.60052"
       y="830.8573" />
    <rect
       style="fill:#ff0000;fill-opacity:1;stroke-width:1.09069"
       id="rect1067"
       width="43.925388"
       height="42.010502"
       x="107.10053"
       y="868.02423" />
    <rect
       style="fill:#ff0000;fill-opacity:1;stroke-width:1.03651"
       id="rect1069"
       width="43.870346"
       height="39.040569"
       x="189.73018"
       y="870.85834" />
    <rect
       style="fill:#ff0000;fill-opacity:1;stroke-width:1.0276"
       id="rect1071"
       width="43"
       height="39.026245"
       x="148.60052"
       y="907.83099" />
    <rect
       style="fill:#ff0000;fill-opacity:1;stroke-width:1.02986"
       id="rect1073"
       width="42.5"
       height="39.77327"
       x="231.60052"
       y="908.51208" />
    <rect
       style="fill:#ff0000;fill-opacity:1;stroke-width:1.04993"
       id="rect1075"
       width="43.092789"
       height="40.768177"
       x="108.10053"
       y="945.97845" />
    <rect
       style="fill:#ff0000;fill-opacity:1"
       id="rect1077"
       width="43"
       height="38.958599"
       x="190.60052"
       y="946.85724" />
    <rect
       style="fill:#ff0000;fill-opacity:1;stroke-width:1.03686"
       id="rect1079"
       width="43.409172"
       height="39.468147"
       x="148.55655"
       y="983.89026" />
    <rect
       style="fill:#ff0000;fill-opacity:1;stroke-width:1.03509"
       id="rect1081"
       width="42.720093"
       height="39.149174"
       x="231.38043"
       y="985.81586" />
    <rect
       style="fill:#ff0000;fill-opacity:1;stroke-width:1.0142"
       id="rect1083"
       width="44.262524"
       height="41.016342"
       x="229.52023"
       y="830.8573" />
    <rect
       style="fill:#ff0000;fill-opacity:1"
       id="rect1091"
       width="23.915453"
       height="89.745934"
       x="416.03693"
       y="412.99271" />
    <rect
       style="fill:#ff0000;fill-opacity:1"
       id="rect1093"
       width="80.994667"
       height="87.475807"
       x="467.76019"
       y="411.56711" />
  </g>
</svg>
