<svg id="svg" xmlns="http://www.w3.org/2000/svg" xmlns:xlink="http://www.w3.org/1999/xlink" width="400" height="247.8114478114478" viewBox="0, 0, 400,247.8114478114478" version="1.1"><g id="svgg"><path id="path0" d="M21.115 0.928 C 22.301 0.973,24.308 0.973,25.576 0.928 C 26.844 0.883,25.874 0.846,23.420 0.846 C 20.967 0.846,19.929 0.883,21.115 0.928 M2.040 14.870 C 2.040 15.347,2.091 15.542,2.153 15.304 C 2.216 15.065,2.216 14.675,2.153 14.436 C 2.091 14.198,2.040 14.393,2.040 14.870 M2.040 21.561 C 2.040 22.038,2.091 22.234,2.153 21.995 C 2.216 21.757,2.216 21.366,2.153 21.128 C 2.091 20.889,2.040 21.084,2.040 21.561 M91.022 21.809 C 91.022 22.423,91.070 22.673,91.129 22.367 C 91.188 22.060,91.188 21.558,91.129 21.252 C 91.070 20.945,91.022 21.196,91.022 21.809 M34.278 23.668 C 34.279 24.486,34.325 24.790,34.380 24.345 C 34.436 23.900,34.434 23.230,34.378 22.858 C 34.321 22.486,34.276 22.850,34.278 23.668 M62.778 31.599 C 62.780 32.416,62.826 32.721,62.881 32.276 C 62.936 31.830,62.935 31.161,62.878 30.789 C 62.822 30.416,62.777 30.781,62.778 31.599 M0.841 35.068 C 0.842 36.976,0.881 37.724,0.928 36.730 C 0.975 35.736,0.975 34.175,0.927 33.261 C 0.879 32.346,0.841 33.160,0.841 35.068 M106.903 37.794 C 106.903 39.021,106.944 39.554,106.996 38.979 C 107.048 38.404,107.049 37.400,106.998 36.748 C 106.947 36.097,106.904 36.568,106.903 37.794 M240.247 39.157 C 240.247 41.134,240.286 41.942,240.333 40.954 C 240.380 39.966,240.380 38.349,240.333 37.361 C 240.286 36.372,240.247 37.181,240.247 39.157 M293.014 42.503 C 293.015 43.321,293.061 43.626,293.116 43.180 C 293.172 42.735,293.170 42.066,293.114 41.693 C 293.057 41.321,293.012 41.685,293.014 42.503 M19.388 45.849 C 19.388 46.326,19.439 46.521,19.502 46.283 C 19.564 46.044,19.564 45.654,19.502 45.415 C 19.439 45.177,19.388 45.372,19.388 45.849 M146.278 49.814 C 146.278 50.291,146.329 50.486,146.391 50.248 C 146.454 50.009,146.454 49.619,146.391 49.380 C 146.329 49.142,146.278 49.337,146.278 49.814 M93.743 56.877 C 93.746 57.423,93.796 57.616,93.856 57.308 C 93.915 57.000,93.913 56.554,93.851 56.317 C 93.789 56.080,93.740 56.332,93.743 56.877 M259.065 62.825 C 259.066 63.779,259.111 64.139,259.165 63.625 C 259.218 63.111,259.218 62.330,259.163 61.890 C 259.108 61.450,259.064 61.871,259.065 62.825 M238.996 67.410 C 238.996 68.569,239.039 69.043,239.091 68.463 C 239.143 67.884,239.143 66.936,239.091 66.357 C 239.039 65.778,238.996 66.252,238.996 67.410 M0.857 76.828 C 0.857 82.485,0.889 84.799,0.929 81.970 C 0.969 79.142,0.969 74.514,0.929 71.685 C 0.889 68.857,0.857 71.171,0.857 76.828 M259.055 72.491 C 259.057 73.172,259.105 73.422,259.162 73.045 C 259.219 72.668,259.217 72.111,259.158 71.806 C 259.100 71.501,259.053 71.809,259.055 72.491 M245.906 78.067 C 245.906 78.544,245.957 78.739,246.020 78.501 C 246.082 78.262,246.082 77.872,246.020 77.633 C 245.957 77.395,245.906 77.590,245.906 78.067 M201.061 87.171 C 201.712 87.223,202.716 87.222,203.291 87.170 C 203.866 87.118,203.333 87.076,202.107 87.077 C 200.880 87.078,200.409 87.120,201.061 87.171 M115.309 89.219 C 115.309 89.833,115.357 90.084,115.417 89.777 C 115.476 89.470,115.476 88.968,115.417 88.662 C 115.357 88.355,115.309 88.606,115.309 89.219 M35.745 92.937 C 35.745 93.414,35.796 93.609,35.859 93.371 C 35.921 93.132,35.921 92.742,35.859 92.503 C 35.796 92.265,35.745 92.460,35.745 92.937 M102.297 112.447 C 102.742 112.502,103.411 112.501,103.784 112.445 C 104.156 112.388,103.792 112.343,102.974 112.344 C 102.156 112.346,101.851 112.392,102.297 112.447 M174.040 115.165 C 174.278 115.227,174.669 115.227,174.907 115.165 C 175.146 115.102,174.950 115.051,174.473 115.051 C 173.996 115.051,173.801 115.102,174.040 115.165 M106.261 126.074 C 106.569 126.133,107.015 126.131,107.252 126.069 C 107.489 126.007,107.237 125.958,106.691 125.961 C 106.146 125.964,105.952 126.014,106.261 126.074 M178.129 134.010 C 178.708 134.063,179.656 134.063,180.235 134.010 C 180.815 133.958,180.341 133.916,179.182 133.916 C 178.024 133.916,177.550 133.958,178.129 134.010 M97.727 156.753 C 97.728 157.708,97.773 158.068,97.826 157.553 C 97.880 157.039,97.879 156.258,97.824 155.819 C 97.770 155.379,97.726 155.799,97.727 156.753 M116.290 161.586 C 116.290 162.063,116.341 162.258,116.404 162.020 C 116.466 161.781,116.466 161.391,116.404 161.152 C 116.341 160.914,116.290 161.109,116.290 161.586 M197.109 170.508 C 197.109 171.530,197.153 171.949,197.207 171.437 C 197.260 170.926,197.260 170.090,197.207 169.579 C 197.153 169.068,197.109 169.486,197.109 170.508 M326.750 176.580 C 326.750 180.124,326.785 181.539,326.827 179.725 C 326.870 177.911,326.869 175.011,326.827 173.282 C 326.784 171.552,326.750 173.036,326.750 176.580 M183.981 174.102 C 183.982 175.465,184.024 175.991,184.074 175.271 C 184.124 174.550,184.124 173.435,184.073 172.792 C 184.022 172.149,183.981 172.739,183.981 174.102 M159.705 178.563 C 159.705 180.880,159.742 181.861,159.788 180.743 C 159.833 179.625,159.834 177.730,159.788 176.530 C 159.743 175.331,159.705 176.245,159.705 178.563 M178.300 182.528 C 178.300 186.344,178.334 187.871,178.376 185.921 C 178.418 183.970,178.418 180.847,178.376 178.981 C 178.334 177.115,178.300 178.711,178.300 182.528 M269.965 181.289 C 269.967 182.107,270.013 182.411,270.068 181.966 C 270.123 181.520,270.122 180.851,270.066 180.479 C 270.009 180.106,269.964 180.471,269.965 181.289 M116.328 184.139 C 116.328 185.843,116.368 186.540,116.416 185.688 C 116.465 184.836,116.465 183.442,116.416 182.590 C 116.368 181.738,116.328 182.435,116.328 184.139 M255.366 184.758 C 255.366 186.803,255.404 187.606,255.451 186.544 C 255.497 185.481,255.497 183.808,255.450 182.826 C 255.403 181.844,255.365 182.714,255.366 184.758 M159.687 188.848 C 159.687 189.870,159.731 190.288,159.784 189.777 C 159.837 189.266,159.837 188.429,159.784 187.918 C 159.731 187.407,159.687 187.825,159.687 188.848 M236.502 188.228 C 236.504 188.910,236.552 189.159,236.609 188.782 C 236.666 188.405,236.665 187.848,236.606 187.543 C 236.547 187.238,236.500 187.546,236.502 188.228 M197.105 193.309 C 197.105 194.195,197.150 194.557,197.205 194.114 C 197.260 193.671,197.260 192.946,197.205 192.503 C 197.150 192.060,197.105 192.423,197.105 193.309 M178.286 196.283 C 178.286 197.986,178.326 198.683,178.374 197.831 C 178.423 196.980,178.423 195.586,178.374 194.734 C 178.326 193.882,178.286 194.579,178.286 196.283 M115.051 195.291 C 115.051 195.768,115.102 195.963,115.165 195.725 C 115.227 195.486,115.227 195.096,115.165 194.857 C 115.102 194.619,115.051 194.814,115.051 195.291 M96.483 200.124 C 96.485 200.942,96.531 201.246,96.586 200.801 C 96.641 200.356,96.640 199.686,96.584 199.314 C 96.527 198.942,96.482 199.306,96.483 200.124 M251.111 204.709 C 251.111 205.186,251.162 205.381,251.224 205.143 C 251.286 204.904,251.286 204.514,251.224 204.275 C 251.162 204.037,251.111 204.232,251.111 204.709 M385.683 207.435 C 385.683 207.912,385.734 208.107,385.797 207.869 C 385.859 207.630,385.859 207.240,385.797 207.001 C 385.734 206.763,385.683 206.958,385.683 207.435 M314.436 212.319 C 314.743 212.378,315.245 212.378,315.551 212.319 C 315.858 212.260,315.607 212.211,314.994 212.211 C 314.380 212.211,314.129 212.260,314.436 212.319 M322.085 212.347 C 322.004 212.477,322.096 212.714,322.288 212.873 C 322.563 213.102,322.625 213.083,322.581 212.784 C 322.506 212.273,322.263 212.059,322.085 212.347 M342.561 214.126 C 342.561 214.603,342.612 214.799,342.674 214.560 C 342.736 214.322,342.736 213.931,342.674 213.693 C 342.612 213.454,342.561 213.649,342.561 214.126 M91.050 240.149 C 91.050 241.853,91.089 242.550,91.138 241.698 C 91.186 240.846,91.186 239.452,91.138 238.600 C 91.089 237.748,91.050 238.445,91.050 240.149 " stroke="none" fill="#445c84" fill-rule="evenodd"></path><path id="path1" d="M83.024 0.434 C 83.024 0.820,82.791 0.858,80.917 0.780 L 78.810 0.693 78.810 1.338 C 78.810 1.860,78.693 1.983,78.191 1.983 C 77.668 1.983,77.571 2.098,77.571 2.726 C 77.571 3.387,77.489 3.470,76.828 3.470 C 76.200 3.470,76.084 3.566,76.084 4.089 C 76.084 4.585,75.960 4.709,75.465 4.709 C 74.941 4.709,74.845 4.824,74.845 5.452 C 74.845 6.080,74.749 6.196,74.226 6.196 C 73.730 6.196,73.606 6.320,73.606 6.815 C 73.606 7.339,73.490 7.435,72.862 7.435 C 72.126 7.435,72.119 7.449,72.119 8.798 C 72.119 10.087,72.085 10.161,71.499 10.161 C 70.976 10.161,70.880 10.277,70.880 10.905 C 70.880 11.565,70.797 11.648,70.136 11.648 C 69.409 11.648,69.393 11.676,69.393 12.887 C 69.393 14.044,69.352 14.126,68.773 14.126 C 68.188 14.126,68.154 14.202,68.154 15.473 C 68.154 16.758,68.122 16.823,67.472 16.898 C 66.836 16.971,66.786 17.064,66.716 18.278 C 66.647 19.472,66.591 19.579,66.034 19.579 C 65.464 19.579,65.428 19.661,65.428 20.942 C 65.428 22.291,65.420 22.305,64.684 22.305 L 63.941 22.305 63.941 24.287 C 63.941 26.266,63.939 26.270,63.285 26.270 L 62.629 26.270 62.803 29.616 L 62.976 32.962 62.219 32.962 L 61.462 32.962 61.462 36.431 L 61.462 39.901 60.719 39.901 L 59.975 39.901 59.975 41.884 C 59.975 43.833,59.965 43.866,59.356 43.866 C 58.747 43.866,58.736 43.900,58.736 45.832 C 58.736 47.793,58.734 47.799,58.055 47.877 L 57.373 47.955 57.382 50.000 L 57.391 52.045 56.701 52.045 C 56.038 52.045,56.010 52.095,56.010 53.267 C 56.010 54.417,55.969 54.495,55.328 54.568 C 54.693 54.642,54.642 54.734,54.572 55.948 C 54.503 57.143,54.447 57.249,53.890 57.249 C 53.320 57.249,53.284 57.331,53.284 58.612 C 53.284 59.901,53.250 59.975,52.664 59.975 L 52.045 59.975 52.045 62.701 L 52.045 65.428 51.301 65.428 C 50.565 65.428,50.558 65.441,50.558 66.791 C 50.558 68.069,50.520 68.154,49.955 68.154 C 49.487 68.154,49.328 68.307,49.248 68.835 L 49.145 69.517 49.108 68.835 C 49.078 68.283,48.953 68.154,48.451 68.154 C 47.839 68.154,47.831 68.129,47.831 66.047 L 47.831 63.941 47.088 63.941 L 46.344 63.941 46.344 61.958 C 46.344 60.008,46.334 59.975,45.725 59.975 C 45.116 59.975,45.105 59.942,45.105 57.993 C 45.105 56.043,45.095 56.010,44.486 56.010 C 43.900 56.010,43.866 55.936,43.866 54.647 C 43.866 53.298,43.859 53.284,43.123 53.284 L 42.379 53.284 42.379 50.558 L 42.379 47.831 41.760 47.831 C 41.150 47.831,41.140 47.798,41.140 45.849 L 41.140 43.866 40.397 43.866 L 39.653 43.866 39.653 41.884 L 39.653 39.901 38.971 39.901 L 38.290 39.902 38.370 37.795 L 38.450 35.688 37.689 35.688 L 36.927 35.688 36.927 33.086 L 36.927 30.483 36.307 30.483 L 35.688 30.483 35.688 27.757 L 35.688 25.031 34.957 25.031 L 34.225 25.031 34.376 20.322 L 34.526 15.613 33.744 15.613 L 32.962 15.613 32.962 12.887 L 32.962 10.161 32.342 10.161 L 31.722 10.161 31.722 6.815 L 31.722 3.470 30.979 3.470 C 30.247 3.470,30.235 3.449,30.235 2.169 L 30.235 0.867 22.181 0.842 L 14.126 0.817 14.126 1.400 C 14.126 1.963,14.060 1.983,12.144 1.983 L 10.161 1.983 10.161 2.726 C 10.161 3.462,10.147 3.470,8.798 3.470 C 7.509 3.470,7.435 3.503,7.435 4.089 C 7.435 4.585,7.311 4.709,6.815 4.709 C 6.292 4.709,6.196 4.824,6.196 5.452 C 6.196 6.113,6.113 6.196,5.452 6.196 C 4.824 6.196,4.709 6.292,4.709 6.815 C 4.709 7.311,4.585 7.435,4.089 7.435 C 3.566 7.435,3.470 7.551,3.470 8.178 C 3.470 8.840,3.387 8.922,2.722 8.922 L 1.975 8.922 2.042 15.613 L 2.109 22.305 1.389 22.305 L 0.669 22.305 0.847 30.359 C 1.024 38.393,1.023 38.414,0.512 38.414 C 0.000 38.414,0.000 38.426,0.000 52.540 L 0.000 66.667 0.536 66.667 L 1.072 66.667 0.913 81.537 L 0.753 96.406 1.430 96.406 L 2.107 96.405 2.029 99.008 L 1.951 101.611 2.710 101.611 C 3.389 101.611,3.470 101.690,3.470 102.354 C 3.470 102.982,3.566 103.098,4.089 103.098 C 4.585 103.098,4.709 103.222,4.709 103.717 C 4.709 104.241,4.824 104.337,5.452 104.337 C 6.113 104.337,6.196 104.420,6.196 105.081 C 6.196 105.817,6.210 105.824,7.559 105.824 C 8.848 105.824,8.922 105.858,8.922 106.444 L 8.922 107.063 12.144 107.063 L 15.366 107.063 15.366 106.444 C 15.366 105.920,15.481 105.824,16.109 105.824 C 16.770 105.824,16.853 105.741,16.853 105.081 C 16.853 104.453,16.949 104.337,17.472 104.337 L 18.092 104.337 18.092 88.244 L 18.092 72.152 18.773 72.073 L 19.455 71.995 19.522 66.729 L 19.589 61.462 18.840 61.462 L 18.092 61.462 18.092 58.753 L 18.092 56.043 18.773 55.964 L 19.455 55.886 19.455 50.496 L 19.455 45.105 20.120 45.105 C 20.655 45.105,20.805 44.972,20.888 44.424 L 20.991 43.742 21.029 44.424 C 21.059 44.976,21.184 45.105,21.685 45.105 C 22.271 45.105,22.305 45.180,22.305 46.468 C 22.305 47.749,22.341 47.831,22.911 47.831 C 23.469 47.831,23.524 47.938,23.593 49.133 C 23.665 50.377,23.700 50.437,24.411 50.507 L 25.155 50.579 25.069 53.914 L 24.982 57.249 25.618 57.249 L 26.253 57.249 26.324 59.913 L 26.394 62.577 27.076 62.656 C 27.755 62.734,27.757 62.740,27.757 64.700 L 27.757 66.667 28.439 66.666 L 29.120 66.666 29.039 68.649 L 28.959 70.632 29.721 70.632 L 30.483 70.632 30.483 73.358 L 30.483 76.084 31.103 76.084 L 31.722 76.084 31.722 78.810 L 31.722 81.537 32.404 81.536 L 33.086 81.536 33.086 84.201 L 33.086 86.865 33.767 86.943 L 34.449 87.022 34.449 89.608 L 34.449 92.193 35.130 92.193 L 35.812 92.193 35.812 97.584 L 35.812 102.974 36.493 103.052 C 37.143 103.127,37.175 103.193,37.175 104.477 C 37.175 105.749,37.209 105.824,37.794 105.824 C 38.290 105.824,38.414 105.948,38.414 106.444 C 38.414 106.967,38.530 107.063,39.157 107.063 C 39.785 107.063,39.901 107.160,39.901 107.683 L 39.901 108.302 43.123 108.302 L 46.344 108.302 46.344 107.683 C 46.344 107.097,46.419 107.063,47.708 107.063 C 48.986 107.063,49.071 107.026,49.071 106.460 C 49.071 105.986,49.217 105.840,49.752 105.779 C 50.287 105.717,50.451 105.554,50.512 105.019 C 50.574 104.483,50.720 104.337,51.194 104.337 C 51.667 104.337,51.797 104.208,51.797 103.734 C 51.797 103.260,51.943 103.114,52.478 103.052 C 53.014 102.991,53.177 102.828,53.238 102.292 C 53.300 101.757,53.446 101.611,53.920 101.611 C 54.398 101.611,54.523 101.482,54.523 100.991 C 54.523 100.468,54.639 100.372,55.266 100.372 C 56.002 100.372,56.010 100.358,56.010 99.009 C 56.010 97.720,56.044 97.646,56.629 97.646 C 57.125 97.646,57.249 97.522,57.249 97.026 C 57.249 96.530,57.373 96.406,57.869 96.406 C 58.481 96.406,58.488 96.382,58.488 94.300 L 58.488 92.193 59.232 92.193 L 59.975 92.193 59.975 90.211 C 59.975 88.261,59.986 88.228,60.595 88.228 L 61.214 88.228 61.214 85.502 L 61.214 82.776 61.977 82.776 L 62.739 82.776 62.658 80.792 L 62.577 78.809 63.259 78.810 C 63.920 78.810,63.941 78.769,63.941 77.447 C 63.941 76.098,63.948 76.084,64.684 76.084 L 65.428 76.084 65.428 74.102 C 65.428 72.137,65.433 72.119,66.065 72.119 L 66.703 72.119 66.623 70.012 L 66.543 67.905 67.224 67.905 C 67.877 67.906,67.906 67.853,67.906 66.667 C 67.906 65.455,67.922 65.428,68.649 65.428 L 69.393 65.428 69.393 63.321 C 69.393 61.239,69.400 61.214,70.012 61.214 C 70.598 61.214,70.632 61.140,70.632 59.851 C 70.632 58.502,70.639 58.488,71.375 58.488 L 72.119 58.488 72.119 56.506 C 72.119 54.556,72.129 54.523,72.739 54.523 C 73.347 54.523,73.358 54.489,73.358 52.557 C 73.358 50.596,73.360 50.590,74.040 50.512 C 74.675 50.439,74.726 50.346,74.796 49.133 C 74.865 47.938,74.921 47.831,75.478 47.831 C 76.071 47.831,76.084 47.787,76.084 45.849 C 76.084 43.899,76.095 43.866,76.704 43.866 C 77.290 43.866,77.323 43.792,77.323 42.503 C 77.323 41.154,77.331 41.140,78.067 41.140 L 78.810 41.140 78.810 39.033 C 78.810 36.952,78.818 36.927,79.430 36.927 C 80.039 36.927,80.050 36.894,80.050 34.944 L 80.050 32.962 80.793 32.962 C 81.529 32.962,81.537 32.948,81.537 31.599 C 81.537 30.310,81.570 30.235,82.156 30.235 C 82.742 30.235,82.776 30.161,82.776 28.872 C 82.776 27.523,82.783 27.509,83.519 27.509 L 84.263 27.509 84.263 25.527 C 84.263 23.577,84.273 23.544,84.882 23.544 C 85.468 23.544,85.502 23.470,85.502 22.181 C 85.502 20.832,85.509 20.818,86.245 20.818 C 86.873 20.818,86.989 20.721,86.989 20.198 C 86.989 19.612,87.063 19.579,88.352 19.579 C 89.641 19.579,89.715 19.612,89.715 20.198 C 89.715 20.709,89.835 20.818,90.397 20.818 L 91.078 20.818 90.991 28.872 L 90.903 36.927 91.672 36.927 L 92.441 36.927 92.441 46.468 L 92.441 56.010 93.123 56.010 L 93.804 56.010 93.725 67.410 L 93.645 78.810 94.280 78.810 L 94.915 78.810 94.979 92.255 L 95.043 105.700 95.840 105.777 L 96.636 105.854 96.485 107.822 L 96.333 109.789 96.989 109.789 C 97.524 109.789,97.646 109.904,97.646 110.409 C 97.646 110.932,97.761 111.029,98.389 111.029 C 99.039 111.029,99.133 111.116,99.133 111.726 L 99.133 112.423 103.098 112.431 L 107.063 112.438 107.063 111.733 C 107.063 111.147,107.167 111.029,107.683 111.029 L 108.302 111.029 108.302 108.426 L 108.302 105.824 109.046 105.824 L 109.789 105.824 109.789 76.828 L 109.789 47.831 109.046 47.831 L 108.302 47.831 108.302 43.866 L 108.302 39.901 107.559 39.901 L 106.815 39.901 106.815 37.794 L 106.815 35.688 107.559 35.688 L 108.302 35.688 108.302 25.527 L 108.302 15.366 109.046 15.366 L 109.789 15.366 109.789 10.037 L 109.789 4.709 109.046 4.709 C 108.310 4.709,108.302 4.695,108.302 3.346 C 108.302 2.057,108.269 1.983,107.683 1.983 C 107.187 1.983,107.063 1.859,107.063 1.363 C 107.063 0.867,106.939 0.743,106.444 0.743 C 106.058 0.743,105.824 0.603,105.824 0.372 C 105.824 0.047,104.392 0.000,94.424 0.000 C 83.732 0.000,83.024 0.027,83.024 0.434 M301.115 18.959 C 301.115 19.545,301.041 19.579,299.752 19.579 L 298.389 19.579 298.389 20.942 C 298.389 22.230,298.355 22.305,297.770 22.305 C 297.278 22.305,297.150 22.430,297.150 22.908 C 297.150 23.382,297.004 23.528,296.468 23.589 C 295.793 23.667,295.786 23.687,295.715 25.713 C 295.645 27.700,295.626 27.757,295.033 27.757 C 294.460 27.757,294.424 27.837,294.424 29.120 L 294.424 30.483 292.317 30.483 L 290.211 30.483 290.211 29.740 C 290.211 29.004,290.197 28.996,288.848 28.996 C 287.559 28.996,287.485 28.962,287.485 28.377 C 287.485 27.791,287.410 27.757,286.121 27.757 C 284.765 27.757,284.758 27.754,284.758 26.995 L 284.758 26.232 282.775 26.313 L 280.792 26.394 280.792 25.713 L 280.793 25.031 275.465 25.031 L 270.136 25.031 270.137 25.713 L 270.137 26.394 267.472 26.394 L 264.808 26.394 264.730 27.076 C 264.655 27.726,264.589 27.757,263.304 27.757 C 262.041 27.757,261.958 27.795,261.958 28.364 C 261.958 28.921,261.852 28.976,260.657 29.045 C 259.443 29.115,259.350 29.166,259.277 29.802 C 259.216 30.337,259.069 30.483,258.596 30.483 C 258.118 30.483,257.993 30.612,257.993 31.103 C 257.993 31.599,257.869 31.722,257.373 31.722 C 256.877 31.722,256.753 31.846,256.753 32.342 C 256.753 32.865,256.638 32.962,256.010 32.962 C 255.349 32.962,255.266 33.044,255.266 33.705 C 255.266 34.333,255.170 34.449,254.647 34.449 C 254.156 34.449,254.027 34.574,254.027 35.052 C 254.027 35.525,253.881 35.672,253.346 35.733 C 252.710 35.806,252.659 35.899,252.589 37.113 C 252.520 38.308,252.465 38.414,251.908 38.414 C 251.399 38.414,251.301 38.534,251.301 39.157 C 251.301 39.818,251.219 39.901,250.558 39.901 C 249.930 39.901,249.814 39.997,249.814 40.520 C 249.814 41.016,249.690 41.140,249.195 41.140 C 248.671 41.140,248.575 41.256,248.575 41.884 C 248.575 42.511,248.479 42.627,247.955 42.627 C 247.377 42.627,247.336 42.710,247.336 43.866 C 247.336 45.078,247.319 45.105,246.592 45.105 C 245.856 45.105,245.849 45.119,245.849 46.468 C 245.849 47.757,245.815 47.831,245.229 47.831 L 244.610 47.831 244.610 50.558 L 244.610 53.284 243.866 53.284 L 243.123 53.284 243.123 61.338 L 243.123 69.393 243.866 69.393 L 244.610 69.393 244.610 73.358 L 244.610 77.323 245.336 77.323 L 246.062 77.323 245.918 80.050 L 245.775 82.776 246.555 82.776 L 247.336 82.776 247.336 84.882 C 247.336 86.964,247.343 86.989,247.955 86.989 C 248.534 86.989,248.575 87.071,248.575 88.228 C 248.575 89.415,248.604 89.467,249.257 89.467 C 249.928 89.466,249.937 89.487,249.853 90.830 L 249.768 92.193 250.535 92.193 C 251.221 92.193,251.301 92.271,251.301 92.937 C 251.301 93.560,251.399 93.680,251.908 93.680 C 252.465 93.680,252.520 93.787,252.589 94.981 C 252.659 96.195,252.710 96.288,253.346 96.361 C 253.881 96.423,254.027 96.569,254.027 97.042 C 254.027 97.521,254.156 97.646,254.647 97.646 C 255.143 97.646,255.266 97.770,255.266 98.265 C 255.266 98.788,255.382 98.885,256.010 98.885 C 256.671 98.885,256.753 98.967,256.753 99.628 C 256.753 100.256,256.850 100.372,257.373 100.372 C 257.869 100.372,257.993 100.496,257.993 100.991 C 257.993 101.577,258.067 101.611,259.356 101.611 C 260.705 101.611,260.719 101.618,260.719 102.354 C 260.719 103.090,260.732 103.098,262.082 103.098 C 263.371 103.098,263.445 103.132,263.445 103.717 L 263.445 104.337 266.031 104.337 L 268.616 104.337 268.695 105.019 L 268.773 105.700 271.437 105.770 L 274.102 105.841 274.102 105.089 L 274.102 104.337 276.828 104.337 L 279.554 104.337 279.554 103.717 C 279.554 103.108,279.587 103.098,281.537 103.098 L 283.519 103.098 283.519 102.354 C 283.519 101.727,283.616 101.611,284.139 101.611 C 284.634 101.611,284.758 101.487,284.758 100.991 C 284.758 100.406,284.833 100.372,286.121 100.372 L 287.485 100.372 287.485 99.009 C 287.485 97.659,287.492 97.646,288.228 97.646 C 288.856 97.646,288.971 97.549,288.971 97.026 C 288.971 96.530,289.095 96.406,289.591 96.406 C 290.114 96.406,290.211 96.291,290.211 95.663 C 290.211 95.002,290.293 94.919,290.954 94.919 C 291.582 94.919,291.698 94.823,291.698 94.300 C 291.698 93.804,291.822 93.680,292.317 93.680 C 292.813 93.680,292.937 93.804,292.937 94.300 C 292.937 94.823,293.052 94.919,293.680 94.919 C 294.416 94.919,294.424 94.933,294.424 96.283 C 294.424 97.571,294.458 97.646,295.043 97.646 C 295.629 97.646,295.663 97.720,295.663 99.009 C 295.663 100.358,295.670 100.372,296.406 100.372 C 297.142 100.372,297.150 100.386,297.150 101.735 C 297.150 103.024,297.184 103.098,297.770 103.098 C 298.265 103.098,298.389 103.222,298.389 103.717 C 298.389 104.209,298.514 104.337,298.992 104.337 C 299.466 104.337,299.612 104.483,299.674 105.019 C 299.735 105.554,299.898 105.717,300.434 105.779 C 300.969 105.840,301.115 105.986,301.115 106.460 C 301.115 106.938,301.244 107.063,301.735 107.063 C 302.230 107.063,302.354 107.187,302.354 107.683 C 302.354 108.206,302.470 108.302,303.098 108.302 C 303.759 108.302,303.841 108.385,303.841 109.046 L 303.841 109.789 307.187 109.789 L 310.533 109.789 310.533 109.046 C 310.533 108.418,310.629 108.302,311.152 108.302 C 311.648 108.302,311.772 108.178,311.772 107.683 C 311.772 107.187,311.896 107.063,312.392 107.063 L 313.011 107.063 313.011 103.098 L 313.011 99.133 312.330 99.133 L 311.648 99.134 311.728 97.027 L 311.808 94.919 311.171 94.919 L 310.533 94.919 310.533 92.333 L 310.533 89.746 309.727 89.646 L 308.922 89.546 309.730 89.507 L 310.538 89.467 310.474 79.492 L 310.409 69.517 309.727 69.438 L 309.046 69.360 309.046 51.161 L 309.046 32.962 309.789 32.962 L 310.533 32.962 310.533 27.633 L 310.533 22.305 309.789 22.305 C 309.052 22.305,309.046 22.294,309.046 20.919 L 309.046 19.533 307.682 19.618 C 306.340 19.701,306.319 19.692,306.319 19.021 L 306.320 18.340 303.717 18.340 L 301.115 18.340 301.115 18.959 M232.466 27.032 C 232.466 27.673,232.379 27.757,231.722 27.757 C 231.095 27.757,230.979 27.854,230.979 28.377 C 230.979 28.872,230.855 28.996,230.359 28.996 C 229.836 28.996,229.740 29.112,229.740 29.740 C 229.740 30.401,229.657 30.483,228.996 30.483 C 228.269 30.483,228.253 30.511,228.253 31.722 C 228.253 32.879,228.211 32.962,227.633 32.962 C 227.021 32.962,227.014 32.986,227.014 35.068 C 227.014 37.150,227.006 37.175,226.394 37.175 C 225.785 37.175,225.774 37.208,225.774 39.157 L 225.774 41.140 225.031 41.140 C 224.295 41.140,224.287 41.154,224.287 42.503 C 224.287 43.792,224.254 43.866,223.668 43.866 L 223.048 43.866 223.048 47.955 L 223.048 52.045 222.305 52.045 L 221.561 52.045 221.561 59.356 L 221.561 66.667 222.305 66.667 C 222.966 66.667,223.048 66.749,223.048 67.410 C 223.048 68.073,222.967 68.154,222.295 68.154 L 221.543 68.154 221.614 73.482 L 221.685 78.811 221.004 78.811 C 220.412 78.810,220.322 78.908,220.322 79.554 C 220.322 80.215,220.240 80.297,219.579 80.297 C 218.951 80.297,218.835 80.394,218.835 80.917 C 218.835 81.413,218.711 81.537,218.216 81.537 C 217.692 81.537,217.596 81.652,217.596 82.280 C 217.596 83.016,217.582 83.024,216.233 83.024 C 214.944 83.024,214.870 83.057,214.870 83.643 L 214.870 84.263 212.144 84.263 L 209.418 84.263 209.418 84.882 L 209.418 85.502 206.815 85.502 L 204.213 85.502 204.213 86.369 L 204.213 87.237 202.107 87.237 L 200.000 87.237 200.000 86.369 L 200.000 85.502 197.274 85.502 L 194.548 85.502 194.548 84.882 C 194.548 84.387,194.424 84.263,193.928 84.263 C 193.432 84.263,193.309 84.139,193.309 83.643 C 193.309 83.057,193.234 83.024,191.945 83.024 L 190.582 83.024 190.582 81.660 C 190.582 80.372,190.549 80.297,189.963 80.297 C 189.377 80.297,189.343 80.223,189.343 78.934 C 189.343 77.585,189.336 77.571,188.600 77.571 L 187.856 77.571 187.856 72.739 L 187.856 67.906 188.600 67.906 C 189.327 67.906,189.343 67.878,189.343 66.667 C 189.343 65.510,189.385 65.428,189.963 65.428 C 190.486 65.428,190.582 65.312,190.582 64.684 C 190.582 64.056,190.679 63.941,191.202 63.941 C 191.788 63.941,191.822 63.866,191.822 62.577 C 191.822 61.228,191.829 61.214,192.565 61.214 C 193.193 61.214,193.309 61.118,193.309 60.595 C 193.309 60.099,193.432 59.975,193.928 59.975 C 194.451 59.975,194.548 59.860,194.548 59.232 C 194.548 58.571,194.630 58.488,195.291 58.488 C 195.919 58.488,196.035 58.392,196.035 57.869 C 196.035 57.283,196.109 57.249,197.398 57.249 C 198.686 57.249,198.761 57.215,198.761 56.629 C 198.761 56.134,198.885 56.010,199.380 56.010 C 199.904 56.010,200.000 55.894,200.000 55.266 C 200.000 54.530,200.014 54.523,201.363 54.523 C 202.652 54.523,202.726 54.489,202.726 53.903 C 202.726 53.408,202.850 53.284,203.346 53.284 C 203.869 53.284,203.965 53.168,203.965 52.540 C 203.965 51.804,203.979 51.797,205.328 51.797 C 206.607 51.797,206.691 51.759,206.691 51.194 C 206.691 50.720,206.838 50.574,207.373 50.512 C 207.908 50.451,208.071 50.287,208.133 49.752 C 208.207 49.111,208.284 49.071,209.434 49.071 C 210.573 49.071,210.657 49.028,210.657 48.451 C 210.657 47.928,210.772 47.831,211.400 47.831 C 212.061 47.831,212.144 47.749,212.144 47.088 C 212.144 46.460,212.240 46.344,212.763 46.344 C 213.259 46.344,213.383 46.221,213.383 45.725 C 213.383 45.202,213.499 45.105,214.126 45.105 C 214.754 45.105,214.870 45.009,214.870 44.486 C 214.870 43.990,214.994 43.866,215.489 43.866 C 216.013 43.866,216.109 43.751,216.109 43.123 C 216.109 42.464,216.193 42.379,216.842 42.379 L 217.575 42.379 217.575 39.777 L 217.575 37.175 216.842 37.175 C 216.193 37.175,216.109 37.090,216.109 36.431 L 216.109 35.688 212.144 35.688 L 208.178 35.688 208.178 36.431 L 208.178 37.175 205.452 37.175 L 202.726 37.175 202.726 37.794 C 202.726 38.404,202.693 38.414,200.743 38.414 L 198.761 38.414 198.761 39.157 C 198.761 39.893,198.747 39.901,197.398 39.901 C 196.109 39.901,196.035 39.935,196.035 40.520 C 196.035 41.106,195.960 41.140,194.672 41.140 C 193.322 41.140,193.309 41.148,193.309 41.884 C 193.309 42.511,193.212 42.627,192.689 42.627 C 192.193 42.627,192.069 42.751,192.069 43.247 C 192.069 43.832,191.995 43.866,190.706 43.866 C 189.428 43.866,189.343 43.903,189.343 44.469 C 189.343 44.943,189.197 45.089,188.662 45.151 C 188.126 45.212,187.963 45.375,187.902 45.911 C 187.840 46.446,187.694 46.592,187.220 46.592 C 186.742 46.592,186.617 46.721,186.617 47.212 C 186.617 47.798,186.543 47.831,185.254 47.831 C 183.905 47.831,183.891 47.839,183.891 48.575 C 183.891 49.203,183.795 49.318,183.271 49.318 C 182.776 49.318,182.652 49.442,182.652 49.938 C 182.652 50.461,182.536 50.558,181.908 50.558 C 181.247 50.558,181.165 50.640,181.165 51.301 C 181.165 51.929,181.068 52.045,180.545 52.045 C 180.050 52.045,179.926 52.169,179.926 52.664 C 179.926 53.187,179.810 53.284,179.182 53.284 C 178.554 53.284,178.439 53.380,178.439 53.903 C 178.439 54.399,178.315 54.523,177.819 54.523 C 177.233 54.523,177.200 54.597,177.200 55.886 C 177.200 57.175,177.166 57.249,176.580 57.249 C 176.057 57.249,175.960 57.365,175.960 57.993 C 175.960 58.653,175.878 58.736,175.217 58.736 C 174.481 58.736,174.473 58.750,174.473 60.099 C 174.473 61.388,174.440 61.462,173.854 61.462 C 173.245 61.462,173.234 61.495,173.234 63.445 L 173.234 65.428 172.491 65.428 L 171.747 65.428 171.747 67.410 C 171.747 69.360,171.737 69.393,171.128 69.393 L 170.508 69.393 170.508 76.828 L 170.508 84.263 171.128 84.263 C 171.737 84.263,171.747 84.296,171.747 86.245 L 171.747 88.228 172.491 88.228 C 173.227 88.228,173.234 88.242,173.234 89.591 C 173.234 90.880,173.268 90.954,173.854 90.954 C 174.349 90.954,174.473 91.078,174.473 91.574 C 174.473 92.097,174.589 92.193,175.217 92.193 C 175.878 92.193,175.960 92.276,175.960 92.937 C 175.960 93.565,176.057 93.680,176.580 93.680 C 177.076 93.680,177.200 93.804,177.200 94.300 C 177.200 94.791,177.325 94.919,177.803 94.919 C 178.276 94.919,178.423 95.066,178.484 95.601 C 178.546 96.136,178.709 96.299,179.244 96.361 C 179.787 96.423,179.926 96.567,179.926 97.065 C 179.926 97.669,179.974 97.688,181.289 97.607 C 182.632 97.523,182.652 97.532,182.652 98.203 C 182.652 98.765,182.761 98.885,183.271 98.885 C 183.795 98.885,183.891 99.000,183.891 99.628 L 183.891 100.372 186.617 100.372 L 189.343 100.372 189.343 100.991 L 189.343 101.611 193.292 101.611 L 197.241 101.611 197.319 102.292 L 197.398 102.974 206.072 102.974 L 214.746 102.974 214.824 102.292 C 214.947 101.224,216.357 101.281,216.357 102.354 C 216.357 103.081,216.384 103.098,217.596 103.098 L 218.835 103.098 218.835 105.824 L 218.835 108.550 218.197 108.550 L 217.558 108.550 217.639 110.533 L 217.720 112.517 217.038 112.516 C 216.377 112.516,216.357 112.557,216.357 113.879 C 216.357 115.228,216.349 115.242,215.613 115.242 C 214.986 115.242,214.870 115.338,214.870 115.861 C 214.870 116.357,214.746 116.481,214.250 116.481 C 213.727 116.481,213.631 116.596,213.631 117.224 C 213.631 117.885,213.548 117.968,212.887 117.968 C 212.264 117.968,212.144 118.066,212.144 118.574 C 212.144 119.131,212.037 119.187,210.843 119.256 C 209.629 119.326,209.536 119.377,209.463 120.012 C 209.385 120.692,209.379 120.694,207.418 120.694 C 205.486 120.694,205.452 120.705,205.452 121.314 C 205.452 121.923,205.419 121.933,203.470 121.933 L 201.487 121.933 201.487 122.677 L 201.487 123.420 196.035 123.420 L 190.582 123.420 190.582 122.677 L 190.582 121.933 182.528 121.933 L 174.473 121.933 174.473 122.677 C 174.473 123.413,174.460 123.420,173.110 123.420 C 171.822 123.420,171.747 123.454,171.747 124.040 C 171.747 124.625,171.673 124.659,170.384 124.659 L 169.021 124.659 169.021 128.005 L 169.021 131.351 169.765 131.351 C 170.392 131.351,170.508 131.447,170.508 131.970 C 170.508 132.461,170.633 132.590,171.111 132.590 C 171.585 132.590,171.731 132.736,171.793 133.271 L 171.871 133.953 176.518 133.879 L 181.165 133.806 181.165 134.561 L 181.165 135.316 194.672 135.316 L 208.178 135.316 208.178 134.634 L 208.177 133.953 210.780 134.031 L 213.383 134.109 213.383 133.349 L 213.383 132.590 215.489 132.590 L 217.596 132.590 217.596 131.887 L 217.596 131.185 219.579 131.300 L 221.561 131.414 221.561 130.639 C 221.561 129.864,221.563 129.864,222.924 129.864 C 224.213 129.864,224.287 129.830,224.287 129.244 C 224.287 128.658,224.362 128.625,225.651 128.625 C 226.932 128.625,227.014 128.588,227.014 128.018 C 227.014 127.461,227.120 127.405,228.315 127.336 C 229.528 127.267,229.621 127.216,229.694 126.580 C 229.756 126.045,229.902 125.898,230.376 125.898 C 230.854 125.898,230.979 125.770,230.979 125.279 C 230.979 124.783,231.103 124.659,231.599 124.659 C 232.122 124.659,232.218 124.544,232.218 123.916 C 232.218 123.255,232.301 123.172,232.962 123.172 C 233.589 123.172,233.705 123.076,233.705 122.553 C 233.705 122.057,233.829 121.933,234.325 121.933 C 234.910 121.933,234.944 121.859,234.944 120.570 C 234.944 119.221,234.952 119.207,235.688 119.207 C 236.424 119.207,236.431 119.193,236.431 117.844 C 236.431 116.555,236.465 116.481,237.051 116.481 L 237.670 116.481 237.670 113.135 L 237.670 109.789 238.414 109.789 L 239.157 109.789 239.157 107.807 L 239.157 105.824 238.414 105.824 L 237.670 105.824 237.670 100.372 L 237.670 94.919 238.441 94.919 L 239.211 94.919 239.122 80.173 L 239.033 65.427 239.752 65.428 L 240.471 65.428 240.338 50.558 L 240.205 35.688 240.921 35.688 L 241.636 35.688 241.636 31.722 L 241.636 27.757 241.016 27.757 C 240.495 27.757,240.397 27.641,240.397 27.024 L 240.397 26.291 236.431 26.298 L 232.466 26.306 232.466 27.032 M135.316 32.342 C 135.316 32.920,135.233 32.962,134.077 32.962 C 132.865 32.962,132.838 32.978,132.838 33.705 C 132.838 34.366,132.755 34.449,132.094 34.449 C 131.466 34.449,131.351 34.545,131.351 35.068 C 131.351 35.564,131.227 35.688,130.731 35.688 C 130.208 35.688,130.112 35.803,130.112 36.431 C 130.112 37.092,130.029 37.175,129.368 37.175 C 128.744 37.175,128.625 37.273,128.625 37.781 C 128.625 38.338,128.518 38.394,127.323 38.463 C 126.110 38.533,126.017 38.584,125.944 39.219 C 125.882 39.755,125.736 39.901,125.262 39.901 C 124.784 39.901,124.659 40.029,124.659 40.520 C 124.659 41.106,124.585 41.140,123.296 41.140 C 121.947 41.140,121.933 41.148,121.933 41.884 C 121.933 42.511,121.837 42.627,121.314 42.627 C 120.818 42.627,120.694 42.751,120.694 43.247 C 120.694 43.832,120.620 43.866,119.331 43.866 C 118.052 43.866,117.968 43.903,117.968 44.469 C 117.968 44.943,117.822 45.089,117.286 45.151 C 116.751 45.212,116.588 45.375,116.526 45.911 C 116.464 46.454,116.321 46.592,115.822 46.592 C 115.218 46.592,115.199 46.640,115.281 47.956 C 115.364 49.299,115.355 49.319,114.684 49.319 L 114.002 49.318 114.002 53.284 L 114.002 57.249 113.259 57.249 L 112.515 57.249 112.515 63.321 L 112.515 69.393 113.259 69.393 L 114.002 69.393 114.002 78.810 L 114.002 88.228 114.750 88.228 L 115.498 88.228 115.333 90.954 L 115.167 93.680 115.824 93.680 C 116.480 93.680,116.481 93.683,116.481 95.663 L 116.481 97.646 117.224 97.646 C 117.960 97.646,117.968 97.659,117.968 99.009 C 117.968 100.297,118.002 100.372,118.587 100.372 C 119.083 100.372,119.207 100.496,119.207 100.991 C 119.207 101.577,119.281 101.611,120.570 101.611 C 121.919 101.611,121.933 101.618,121.933 102.354 C 121.933 103.015,122.016 103.098,122.677 103.098 C 123.304 103.098,123.420 103.194,123.420 103.717 C 123.420 104.295,123.504 104.337,124.643 104.337 C 125.792 104.337,125.870 104.378,125.944 105.019 L 126.022 105.700 128.067 105.700 L 130.112 105.700 130.112 106.408 L 130.112 107.116 132.094 107.026 L 134.077 106.936 134.077 107.619 C 134.077 108.282,134.117 108.302,135.440 108.302 C 136.789 108.302,136.803 108.310,136.803 109.046 L 136.803 109.789 138.786 109.789 C 140.735 109.789,140.768 109.800,140.768 110.409 C 140.768 111.021,140.793 111.029,142.875 111.029 L 144.981 111.029 144.981 111.772 L 144.981 112.515 146.964 112.515 C 148.914 112.515,148.947 112.526,148.947 113.135 L 148.947 113.755 152.292 113.755 L 155.638 113.755 155.638 114.501 L 155.638 115.248 168.401 115.225 L 181.165 115.203 181.165 114.479 C 181.165 113.766,181.187 113.755,182.528 113.755 C 183.817 113.755,183.891 113.721,183.891 113.135 C 183.891 112.639,184.015 112.515,184.511 112.515 L 185.130 112.515 185.130 108.550 L 185.130 104.585 183.767 104.585 C 182.410 104.585,182.404 104.581,182.404 103.822 L 182.404 103.059 179.058 103.141 L 175.712 103.222 175.712 102.540 L 175.713 101.859 171.764 101.859 L 167.815 101.859 167.736 101.177 L 167.658 100.496 163.631 100.428 L 159.603 100.359 159.603 99.746 L 159.603 99.133 156.274 99.133 L 152.945 99.133 152.867 98.451 L 152.788 97.770 150.743 97.770 L 148.698 97.770 148.698 97.088 C 148.699 96.437,148.645 96.406,147.476 96.406 C 146.327 96.406,146.249 96.366,146.175 95.725 C 146.102 95.089,146.009 95.038,144.796 94.968 C 143.601 94.900,143.494 94.844,143.494 94.287 C 143.494 93.717,143.412 93.680,142.131 93.680 C 140.843 93.680,140.768 93.647,140.768 93.061 C 140.768 92.475,140.694 92.441,139.405 92.441 C 138.056 92.441,138.042 92.434,138.042 91.698 C 138.042 90.962,138.028 90.954,136.679 90.954 C 135.390 90.954,135.316 90.920,135.316 90.335 C 135.316 89.749,135.242 89.715,133.953 89.715 C 132.604 89.715,132.590 89.707,132.590 88.971 C 132.590 88.344,132.493 88.228,131.970 88.228 C 131.384 88.228,131.351 88.154,131.351 86.865 C 131.351 85.516,131.343 85.502,130.607 85.502 L 129.864 85.502 129.864 80.793 L 129.864 76.084 130.607 76.084 C 131.231 76.084,131.351 75.986,131.351 75.478 C 131.351 74.921,131.457 74.865,132.652 74.796 C 133.865 74.726,133.958 74.675,134.031 74.040 C 134.106 73.389,134.172 73.358,135.456 73.358 C 136.728 73.358,136.803 73.323,136.803 72.739 C 136.803 72.160,136.886 72.119,138.042 72.119 C 139.254 72.119,139.281 72.102,139.281 71.375 L 139.281 70.632 141.388 70.632 C 143.470 70.632,143.494 70.625,143.494 70.012 C 143.494 69.403,143.527 69.393,145.477 69.393 L 147.460 69.393 147.460 68.649 C 147.460 67.913,147.473 67.906,148.823 67.906 C 150.112 67.906,150.186 67.872,150.186 67.286 C 150.186 66.700,150.260 66.667,151.549 66.667 C 152.830 66.667,152.912 66.630,152.912 66.060 C 152.912 65.503,153.018 65.447,154.213 65.379 C 155.427 65.309,155.520 65.258,155.593 64.622 C 155.654 64.087,155.800 63.941,156.274 63.941 C 156.748 63.941,156.877 63.811,156.877 63.337 C 156.877 62.864,157.024 62.717,157.559 62.656 C 158.195 62.583,158.245 62.490,158.315 61.276 C 158.385 60.068,158.435 59.975,159.020 59.975 C 159.628 59.975,159.646 59.929,159.564 58.612 C 159.481 57.269,159.490 57.248,160.161 57.249 L 160.843 57.249 160.843 55.283 C 160.843 53.322,160.845 53.316,161.524 53.238 L 162.206 53.160 162.273 47.893 L 162.339 42.627 161.591 42.627 C 160.849 42.627,160.843 42.615,160.843 41.264 C 160.843 39.975,160.809 39.901,160.223 39.901 C 159.637 39.901,159.603 39.827,159.603 38.538 C 159.603 37.259,159.566 37.175,159.000 37.175 C 158.527 37.175,158.380 37.028,158.319 36.493 C 158.257 35.958,158.094 35.795,157.559 35.733 C 157.024 35.672,156.877 35.525,156.877 35.052 C 156.877 34.578,156.748 34.449,156.274 34.449 C 155.800 34.449,155.654 34.302,155.593 33.767 C 155.531 33.232,155.368 33.069,154.833 33.007 C 154.297 32.945,154.151 32.799,154.151 32.326 L 154.151 31.722 144.734 31.722 L 135.316 31.722 135.316 32.342 M278.315 40.401 L 278.315 41.148 284.944 41.082 L 291.574 41.016 291.652 40.335 C 291.799 39.055,292.836 39.408,293.027 40.803 C 293.372 43.323,293.269 43.866,292.441 43.866 L 291.698 43.866 291.698 46.592 L 291.698 49.318 290.954 49.318 L 290.211 49.318 290.211 51.921 L 290.211 54.523 289.573 54.523 L 288.935 54.523 289.015 56.630 L 289.095 58.737 288.414 58.737 L 287.732 58.736 287.732 60.719 L 287.732 62.701 286.989 62.701 L 286.245 62.701 286.245 64.684 C 286.245 66.634,286.235 66.667,285.626 66.667 C 285.041 66.667,285.006 66.742,285.006 68.013 C 285.006 69.298,284.975 69.363,284.325 69.438 C 283.689 69.511,283.638 69.604,283.568 70.818 C 283.499 72.013,283.444 72.119,282.887 72.119 C 282.317 72.119,282.280 72.201,282.280 73.482 C 282.280 74.831,282.273 74.845,281.537 74.845 C 280.801 74.845,280.793 74.859,280.793 76.208 C 280.793 77.497,280.759 77.571,280.173 77.571 C 279.588 77.571,279.554 77.646,279.554 78.934 C 279.554 80.223,279.520 80.297,278.934 80.297 C 278.439 80.297,278.315 80.421,278.315 80.917 C 278.315 81.440,278.199 81.537,277.571 81.537 C 276.835 81.537,276.828 81.550,276.828 82.900 C 276.828 84.188,276.794 84.263,276.208 84.263 C 275.717 84.263,275.589 84.388,275.589 84.866 C 275.589 85.340,275.442 85.486,274.907 85.547 C 274.372 85.609,274.209 85.772,274.147 86.307 C 274.086 86.843,273.939 86.989,273.466 86.989 C 272.900 86.989,272.862 87.073,272.862 88.352 L 272.862 89.715 270.136 89.715 L 267.410 89.715 267.410 88.352 C 267.410 87.003,267.403 86.989,266.667 86.989 C 266.006 86.989,265.923 86.906,265.923 86.245 C 265.923 85.618,265.827 85.502,265.304 85.502 C 264.808 85.502,264.684 85.378,264.684 84.882 C 264.684 84.359,264.568 84.263,263.941 84.263 C 263.205 84.263,263.197 84.249,263.197 82.900 C 263.197 81.611,263.163 81.537,262.577 81.537 C 261.992 81.537,261.958 81.462,261.958 80.173 C 261.958 78.852,261.937 78.810,261.276 78.811 L 260.595 78.811 260.679 76.208 L 260.764 73.606 259.936 73.606 L 259.108 73.606 259.098 67.410 L 259.089 61.214 259.904 61.214 L 260.719 61.214 260.719 57.869 L 260.719 54.523 261.338 54.523 C 261.924 54.523,261.958 54.449,261.958 53.160 C 261.958 51.871,261.992 51.797,262.577 51.797 C 263.073 51.797,263.197 51.673,263.197 51.177 C 263.197 50.654,263.313 50.558,263.941 50.558 C 264.677 50.558,264.684 50.544,264.684 49.195 C 264.684 47.906,264.718 47.831,265.304 47.831 C 265.827 47.831,265.923 47.716,265.923 47.088 C 265.923 46.427,266.006 46.344,266.667 46.344 C 267.295 46.344,267.410 46.248,267.410 45.725 C 267.410 45.229,267.534 45.105,268.030 45.105 C 268.521 45.105,268.649 44.980,268.649 44.502 C 268.649 44.028,268.796 43.882,269.331 43.821 C 269.967 43.748,270.017 43.655,270.087 42.441 L 270.162 41.140 271.388 41.140 C 272.586 41.140,272.615 41.122,272.615 40.397 L 272.615 39.653 275.465 39.653 L 278.315 39.653 278.315 40.401 M144.981 48.464 C 144.981 48.973,145.101 49.071,145.725 49.071 C 146.386 49.071,146.468 49.153,146.468 49.814 C 146.468 50.475,146.386 50.558,145.725 50.558 C 144.989 50.558,144.981 50.571,144.981 51.921 C 144.981 53.270,144.974 53.284,144.238 53.284 C 143.610 53.284,143.494 53.380,143.494 53.903 C 143.494 54.399,143.371 54.523,142.875 54.523 C 142.352 54.523,142.255 54.639,142.255 55.266 C 142.255 55.927,142.173 56.010,141.512 56.010 C 140.884 56.010,140.768 56.106,140.768 56.629 C 140.768 57.239,140.735 57.249,138.786 57.249 L 136.803 57.249 136.803 57.993 L 136.803 58.736 133.333 58.736 L 129.864 58.736 129.864 56.010 L 129.864 53.284 130.607 53.284 C 131.268 53.284,131.351 53.201,131.351 52.540 C 131.351 51.912,131.447 51.797,131.970 51.797 C 132.461 51.797,132.590 51.672,132.590 51.194 C 132.590 50.720,132.736 50.574,133.271 50.512 C 133.807 50.451,133.970 50.287,134.031 49.752 C 134.110 49.073,134.115 49.071,136.076 49.071 L 138.042 49.071 138.042 48.389 L 138.041 47.708 141.511 47.783 L 144.981 47.858 144.981 48.464 M92.441 129.368 L 92.441 134.077 93.061 134.077 C 93.647 134.077,93.680 134.151,93.680 135.440 C 93.680 136.729,93.714 136.803,94.300 136.803 C 94.878 136.803,94.919 136.886,94.919 138.042 C 94.919 139.254,94.936 139.281,95.663 139.281 C 96.324 139.281,96.406 139.364,96.406 140.025 C 96.406 140.653,96.503 140.768,97.026 140.768 C 97.522 140.768,97.646 140.892,97.646 141.388 C 97.646 141.973,97.721 142.007,98.992 142.007 C 100.277 142.007,100.342 142.039,100.417 142.689 L 100.496 143.371 103.780 143.371 L 107.064 143.371 107.064 144.052 L 107.063 144.734 113.119 144.734 L 119.174 144.734 119.252 145.415 L 119.331 146.097 122.615 146.166 L 125.898 146.235 125.898 146.847 L 125.898 147.460 128.608 147.460 L 131.318 147.460 131.396 148.141 L 131.475 148.823 134.139 148.893 C 136.787 148.963,136.803 148.967,136.803 149.575 C 136.803 150.150,136.882 150.186,138.166 150.186 C 139.455 150.186,139.529 150.220,139.529 150.805 C 139.529 151.391,139.603 151.425,140.892 151.425 C 142.241 151.425,142.255 151.433,142.255 152.169 C 142.255 152.905,142.269 152.912,143.618 152.912 C 144.907 152.912,144.981 152.946,144.981 153.532 C 144.981 154.027,145.105 154.151,145.601 154.151 C 146.124 154.151,146.221 154.267,146.221 154.895 C 146.221 155.523,146.317 155.638,146.840 155.638 C 147.336 155.638,147.460 155.762,147.460 156.258 C 147.460 156.781,147.575 156.877,148.203 156.877 C 148.939 156.877,148.947 156.891,148.947 158.240 C 148.947 159.529,148.981 159.603,149.566 159.603 C 150.062 159.603,150.186 159.727,150.186 160.223 C 150.186 160.746,150.302 160.843,150.929 160.843 C 151.590 160.843,151.673 160.925,151.673 161.586 C 151.673 162.214,151.769 162.330,152.292 162.330 C 152.878 162.330,152.912 162.404,152.912 163.693 C 152.912 165.042,152.920 165.056,153.656 165.056 C 154.283 165.056,154.399 165.152,154.399 165.675 C 154.399 166.171,154.523 166.295,155.019 166.295 C 155.604 166.295,155.638 166.369,155.638 167.658 C 155.638 168.947,155.672 169.021,156.258 169.021 C 156.753 169.021,156.877 169.145,156.877 169.641 C 156.877 170.175,156.989 170.260,157.683 170.260 L 158.488 170.259 158.408 172.366 L 158.328 174.473 159.084 174.473 L 159.841 174.473 159.784 182.528 L 159.727 190.582 159.024 190.582 L 158.320 190.582 158.404 193.309 L 158.488 196.035 157.683 196.035 L 156.877 196.035 156.877 197.398 L 156.877 198.761 155.638 198.761 C 154.482 198.761,154.399 198.802,154.399 199.380 C 154.399 199.904,154.283 200.000,153.656 200.000 C 152.995 200.000,152.912 200.083,152.912 200.743 C 152.912 201.371,152.816 201.487,152.292 201.487 C 151.782 201.487,151.673 201.607,151.673 202.169 C 151.674 202.840,151.653 202.849,150.310 202.765 L 148.947 202.680 148.947 203.447 C 148.947 204.210,148.942 204.213,147.584 204.213 C 146.295 204.213,146.221 204.247,146.221 204.833 C 146.221 205.328,146.097 205.452,145.601 205.452 C 145.078 205.452,144.981 205.568,144.981 206.196 C 144.981 206.932,144.968 206.939,143.618 206.939 C 142.330 206.939,142.255 206.973,142.255 207.559 C 142.255 208.082,142.140 208.178,141.512 208.178 C 140.888 208.178,140.768 208.276,140.768 208.785 C 140.768 209.342,140.662 209.398,139.467 209.467 C 138.254 209.536,138.161 209.587,138.088 210.223 C 138.013 210.873,137.947 210.905,136.663 210.905 C 135.391 210.905,135.316 210.939,135.316 211.524 C 135.316 212.020,135.192 212.144,134.696 212.144 C 134.173 212.144,134.077 212.259,134.077 212.887 L 134.077 213.631 132.094 213.631 C 130.145 213.631,130.112 213.641,130.112 214.250 C 130.112 214.836,130.037 214.870,128.748 214.870 C 127.399 214.870,127.385 214.877,127.385 215.613 C 127.385 216.349,127.372 216.357,126.022 216.357 C 124.734 216.357,124.659 216.391,124.659 216.976 C 124.659 217.562,124.585 217.596,123.296 217.596 C 122.007 217.596,121.933 217.630,121.933 218.216 C 121.933 218.825,121.900 218.835,119.950 218.835 L 117.968 218.835 117.968 219.579 L 117.968 220.322 115.861 220.322 L 113.755 220.322 113.755 219.579 C 113.755 218.951,113.658 218.835,113.135 218.835 L 112.515 218.835 112.515 216.109 L 112.515 213.383 113.135 213.383 L 113.755 213.383 113.755 208.055 L 113.755 202.726 114.530 202.726 L 115.306 202.726 115.194 198.637 L 115.082 194.548 115.817 194.548 L 116.551 194.548 116.371 187.856 L 116.190 181.165 117.082 181.165 L 117.974 181.165 117.909 171.809 L 117.844 162.454 117.034 162.376 L 116.224 162.298 116.388 160.331 L 116.552 158.364 115.897 158.364 C 115.268 158.364,115.242 158.310,115.242 157.001 C 115.242 155.652,115.234 155.638,114.498 155.638 C 113.762 155.638,113.755 155.624,113.755 154.275 C 113.755 152.994,113.718 152.912,113.148 152.912 C 112.591 152.912,112.535 152.806,112.466 151.611 C 112.397 150.397,112.346 150.305,111.710 150.231 C 111.175 150.170,111.029 150.024,111.029 149.550 C 111.029 149.072,110.900 148.947,110.409 148.947 C 109.886 148.947,109.789 148.831,109.789 148.203 C 109.789 147.542,109.707 147.460,109.046 147.460 C 108.418 147.460,108.302 147.363,108.302 146.840 L 108.302 146.221 105.081 146.221 L 101.859 146.221 101.859 146.840 C 101.859 147.426,101.784 147.460,100.496 147.460 L 99.133 147.460 99.133 148.806 C 99.133 150.091,99.101 150.157,98.451 150.231 L 97.770 150.310 97.837 154.337 L 97.905 158.364 97.156 158.364 L 96.406 158.364 96.406 160.347 L 96.406 162.330 97.090 162.330 L 97.773 162.330 97.683 164.312 L 97.593 166.295 98.363 166.295 L 99.133 166.295 99.133 168.278 C 99.133 170.227,99.143 170.260,99.752 170.260 L 100.372 170.260 100.372 173.110 L 100.372 175.960 99.752 175.960 L 99.133 175.960 99.133 179.909 L 99.133 183.858 98.451 183.936 L 97.770 184.015 97.770 188.042 L 97.770 192.070 97.049 192.070 L 96.329 192.069 96.479 196.778 L 96.630 201.487 95.774 201.487 L 94.919 201.487 94.919 206.815 L 94.919 212.144 94.300 212.144 L 93.680 212.144 93.680 218.216 L 93.680 224.287 93.061 224.287 L 92.441 224.287 92.441 227.617 L 92.441 230.946 91.760 231.024 L 91.078 231.103 91.076 239.095 L 91.074 247.088 91.758 247.088 C 92.200 247.088,92.441 247.219,92.441 247.460 C 92.441 247.775,93.047 247.831,96.406 247.831 C 99.766 247.831,100.372 247.775,100.372 247.460 C 100.372 247.160,100.757 247.088,102.354 247.088 C 104.304 247.088,104.337 247.078,104.337 246.468 C 104.337 245.883,104.411 245.849,105.700 245.849 C 107.049 245.849,107.063 245.841,107.063 245.105 C 107.063 244.369,107.077 244.362,108.426 244.362 C 109.715 244.362,109.789 244.328,109.789 243.742 C 109.789 243.247,109.913 243.123,110.409 243.123 C 110.920 243.123,111.028 243.003,111.028 242.441 C 111.028 241.770,111.048 241.761,112.391 241.844 L 113.755 241.929 113.755 241.163 C 113.755 240.399,113.759 240.397,115.118 240.397 C 116.406 240.397,116.481 240.363,116.481 239.777 C 116.481 239.191,116.555 239.157,117.844 239.157 C 119.193 239.157,119.207 239.150,119.207 238.414 C 119.207 237.678,119.221 237.670,120.570 237.670 C 121.851 237.670,121.933 237.634,121.933 237.064 C 121.933 236.507,122.039 236.451,123.234 236.382 C 124.448 236.312,124.541 236.261,124.614 235.626 C 124.692 234.946,124.698 234.944,126.658 234.944 C 128.590 234.944,128.625 234.933,128.625 234.325 C 128.625 233.739,128.699 233.705,129.988 233.705 C 131.337 233.705,131.351 233.698,131.351 232.962 C 131.351 232.226,131.364 232.218,132.714 232.218 C 134.002 232.218,134.077 232.184,134.077 231.599 C 134.077 231.013,134.151 230.979,135.440 230.979 C 136.729 230.979,136.803 230.945,136.803 230.359 C 136.803 229.750,136.836 229.740,138.786 229.740 L 140.768 229.740 140.768 228.996 L 140.768 228.253 142.751 228.253 L 144.734 228.253 144.733 227.571 L 144.732 226.890 146.716 226.971 L 148.699 227.051 148.699 226.289 L 148.699 225.527 150.805 225.527 C 152.887 225.527,152.912 225.519,152.912 224.907 C 152.912 224.321,152.986 224.287,154.275 224.287 C 155.624 224.287,155.638 224.280,155.638 223.544 L 155.638 222.800 157.621 222.800 C 159.570 222.800,159.603 222.790,159.603 222.181 C 159.603 221.685,159.727 221.561,160.223 221.561 C 160.719 221.561,160.843 221.437,160.843 220.942 C 160.843 220.356,160.917 220.322,162.206 220.322 C 163.555 220.322,163.569 220.315,163.569 219.579 C 163.569 218.843,163.583 218.835,164.932 218.835 C 166.211 218.835,166.295 218.798,166.295 218.232 C 166.295 217.758,166.441 217.612,166.976 217.551 C 167.512 217.489,167.675 217.326,167.736 216.791 C 167.810 216.150,167.888 216.109,169.038 216.109 C 170.177 216.109,170.260 216.067,170.260 215.489 C 170.260 214.966,170.376 214.870,171.004 214.870 C 171.665 214.870,171.747 214.787,171.747 214.126 C 171.747 213.499,171.844 213.383,172.367 213.383 C 172.862 213.383,172.986 213.259,172.986 212.763 C 172.986 212.240,173.102 212.144,173.730 212.144 C 174.358 212.144,174.473 212.047,174.473 211.524 C 174.473 211.029,174.597 210.905,175.093 210.905 C 175.678 210.905,175.713 210.829,175.713 209.558 C 175.713 208.273,175.744 208.208,176.394 208.133 C 177.030 208.060,177.081 207.967,177.150 206.753 C 177.220 205.541,177.269 205.452,177.862 205.452 L 178.499 205.452 178.317 199.380 L 178.135 193.309 178.906 193.309 L 179.678 193.309 179.678 191.326 L 179.678 189.343 178.894 189.343 L 178.111 189.343 178.282 178.563 L 178.453 167.782 177.826 167.782 L 177.200 167.782 177.200 164.436 L 177.200 161.090 176.456 161.090 L 175.713 161.090 175.713 158.984 C 175.713 156.912,175.703 156.877,175.103 156.877 C 174.515 156.877,174.492 156.812,174.422 154.957 C 174.351 153.066,174.339 153.035,173.668 152.958 C 173.018 152.883,172.986 152.817,172.986 151.532 C 172.986 150.261,172.952 150.186,172.367 150.186 C 171.871 150.186,171.747 150.062,171.747 149.566 C 171.747 149.043,171.632 148.947,171.004 148.947 C 170.268 148.947,170.260 148.933,170.260 147.584 C 170.260 146.295,170.226 146.221,169.641 146.221 C 169.145 146.221,169.021 146.097,169.021 145.601 C 169.021 145.105,168.897 144.981,168.401 144.981 C 167.878 144.981,167.782 144.866,167.782 144.238 C 167.782 143.577,167.699 143.494,167.038 143.494 C 166.411 143.494,166.295 143.398,166.295 142.875 C 166.295 142.384,166.170 142.255,165.692 142.255 C 165.218 142.255,165.072 142.109,165.010 141.574 C 164.949 141.038,164.786 140.875,164.250 140.814 C 163.715 140.752,163.569 140.606,163.569 140.132 C 163.569 139.566,163.485 139.529,162.206 139.529 C 160.856 139.529,160.843 139.522,160.843 138.786 C 160.843 138.059,160.815 138.042,159.603 138.042 C 158.447 138.042,158.364 138.001,158.364 137.423 C 158.364 136.837,158.290 136.803,157.001 136.803 C 155.713 136.803,155.638 136.769,155.638 136.183 C 155.638 135.598,155.564 135.564,154.275 135.564 C 152.926 135.564,152.912 135.556,152.912 134.820 L 152.912 134.077 149.566 134.077 L 146.221 134.077 146.221 133.457 L 146.221 132.838 142.751 132.838 L 139.281 132.838 139.281 132.070 L 139.281 131.302 135.935 131.388 L 132.590 131.475 132.590 130.793 L 132.590 130.112 129.244 130.112 L 125.898 130.112 125.898 129.368 L 125.898 128.625 123.172 128.625 L 120.446 128.625 120.446 127.975 L 120.446 127.326 116.493 127.427 L 112.539 127.527 112.465 126.775 L 112.392 126.022 109.108 126.057 L 105.824 126.092 105.824 125.375 L 105.824 124.659 99.133 124.659 L 92.441 124.659 92.441 129.368 M332.094 144.238 C 332.094 144.974,332.080 144.981,330.731 144.981 C 329.442 144.981,329.368 145.015,329.368 145.601 C 329.368 146.097,329.244 146.221,328.748 146.221 C 328.257 146.221,328.129 146.346,328.129 146.824 C 328.129 147.297,327.983 147.444,327.447 147.505 C 326.812 147.578,326.761 147.671,326.691 148.885 C 326.622 150.080,326.566 150.186,326.009 150.186 C 325.413 150.186,325.403 150.223,325.403 152.292 L 325.403 154.399 324.654 154.399 L 323.906 154.399 323.973 159.665 L 324.040 164.932 324.721 165.010 L 325.403 165.089 325.403 167.674 L 325.403 170.260 326.186 170.260 L 326.969 170.260 326.796 180.421 L 326.623 190.582 327.376 190.582 L 328.129 190.582 328.129 194.672 L 328.129 198.761 328.810 198.761 L 329.492 198.761 329.423 210.161 L 329.354 221.561 329.980 221.561 L 330.607 221.561 330.607 224.907 L 330.607 228.253 331.351 228.253 C 332.012 228.253,332.094 228.335,332.094 228.996 L 332.094 229.740 336.059 229.740 L 340.025 229.740 340.025 228.996 C 340.025 228.330,340.104 228.253,340.795 228.253 L 341.564 228.253 341.474 226.270 L 341.384 224.287 342.095 224.287 L 342.805 224.287 342.715 218.835 L 342.624 213.383 343.307 213.383 C 343.961 213.383,343.990 213.331,343.990 212.144 C 343.990 210.932,344.007 210.905,344.734 210.905 C 345.394 210.905,345.477 210.822,345.477 210.161 C 345.477 209.425,345.491 209.418,346.840 209.418 C 348.189 209.418,348.203 209.425,348.203 210.161 L 348.203 210.905 350.186 210.905 C 352.151 210.905,352.169 210.910,352.169 211.542 L 352.169 212.180 354.276 212.100 L 356.383 212.020 356.382 212.701 C 356.382 213.362,356.423 213.383,357.745 213.383 C 359.094 213.383,359.108 213.390,359.108 214.126 L 359.108 214.870 361.090 214.870 C 363.040 214.870,363.073 214.880,363.073 215.489 C 363.073 216.075,363.147 216.109,364.436 216.109 C 365.793 216.109,365.799 216.113,365.799 216.871 L 365.799 217.634 367.782 217.553 L 369.766 217.472 369.765 218.154 C 369.765 218.746,369.862 218.835,370.508 218.835 C 371.169 218.835,371.252 218.918,371.252 219.579 C 371.252 220.306,371.279 220.322,372.491 220.322 C 373.647 220.322,373.730 220.363,373.730 220.942 C 373.730 221.528,373.804 221.561,375.093 221.561 C 376.382 221.561,376.456 221.595,376.456 222.181 C 376.456 222.767,376.530 222.800,377.819 222.800 C 379.168 222.800,379.182 222.808,379.182 223.544 C 379.182 224.280,379.196 224.287,380.545 224.287 C 381.834 224.287,381.908 224.321,381.908 224.907 C 381.908 225.493,381.983 225.527,383.271 225.527 C 384.628 225.527,384.634 225.530,384.634 226.289 L 384.634 227.051 386.618 226.971 L 388.601 226.890 388.600 227.571 L 388.600 228.253 393.928 228.253 L 399.257 228.253 399.257 227.633 C 399.257 227.248,399.397 227.014,399.628 227.014 C 399.940 227.014,400.000 226.477,400.000 223.668 C 400.000 220.859,399.940 220.322,399.628 220.322 C 399.380 220.322,399.257 220.074,399.257 219.579 C 399.257 218.951,399.160 218.835,398.637 218.835 C 398.141 218.835,398.017 218.711,398.017 218.216 C 398.017 217.692,397.902 217.596,397.274 217.596 C 396.646 217.596,396.530 217.500,396.530 216.976 C 396.530 216.481,396.406 216.357,395.911 216.357 C 395.388 216.357,395.291 216.241,395.291 215.613 C 395.291 214.986,395.195 214.870,394.672 214.870 C 394.176 214.870,394.052 214.746,394.052 214.250 C 394.052 213.727,393.936 213.631,393.309 213.631 C 392.648 213.631,392.565 213.548,392.565 212.887 C 392.565 212.259,392.469 212.144,391.945 212.144 C 391.450 212.144,391.326 212.020,391.326 211.524 C 391.326 210.939,391.250 210.905,389.979 210.905 C 388.694 210.905,388.629 210.873,388.554 210.223 C 388.493 209.688,388.330 209.525,387.794 209.463 C 387.259 209.401,387.113 209.255,387.113 208.782 C 387.113 208.277,386.992 208.178,386.369 208.178 C 385.708 208.178,385.626 208.096,385.626 207.435 C 385.626 206.774,385.708 206.691,386.369 206.691 C 387.105 206.691,387.113 206.678,387.113 205.328 C 387.113 203.979,387.120 203.965,387.856 203.965 C 388.484 203.965,388.600 203.869,388.600 203.346 C 388.600 202.850,388.724 202.726,389.219 202.726 C 389.743 202.726,389.839 202.610,389.839 201.983 C 389.839 201.322,389.922 201.239,390.582 201.239 C 391.210 201.239,391.326 201.143,391.326 200.620 C 391.326 200.124,391.450 200.000,391.945 200.000 L 392.565 200.000 392.565 196.035 L 392.565 192.069 391.955 192.069 C 391.363 192.069,391.344 192.012,391.274 190.025 C 391.203 187.999,391.196 187.979,390.520 187.902 C 389.985 187.840,389.839 187.694,389.839 187.220 C 389.839 186.742,389.710 186.617,389.219 186.617 C 388.724 186.617,388.600 186.493,388.600 185.998 C 388.600 185.474,388.484 185.378,387.856 185.378 C 387.195 185.378,387.113 185.295,387.113 184.634 C 387.113 184.007,387.016 183.891,386.493 183.891 C 385.998 183.891,385.874 183.767,385.874 183.271 C 385.874 182.780,385.749 182.652,385.270 182.652 C 384.797 182.652,384.651 182.506,384.589 181.970 C 384.516 181.335,384.423 181.284,383.209 181.214 C 382.015 181.145,381.908 181.089,381.908 180.532 C 381.908 179.963,381.825 179.926,380.562 179.926 C 379.277 179.926,379.211 179.894,379.137 179.244 L 379.058 178.563 377.014 178.589 L 374.969 178.615 374.969 177.907 L 374.969 177.200 371.004 177.200 L 367.038 177.200 367.039 177.881 L 367.040 178.563 365.056 178.482 L 363.073 178.401 363.073 179.163 C 363.073 179.922,363.067 179.926,361.710 179.926 C 360.421 179.926,360.347 179.959,360.347 180.545 C 360.347 181.154,360.314 181.165,358.364 181.165 L 356.382 181.165 356.382 181.908 L 356.382 182.652 353.656 182.652 L 350.929 182.652 350.930 183.333 L 350.931 184.015 348.947 183.934 L 346.964 183.853 346.964 184.616 L 346.964 185.378 344.857 185.378 L 342.751 185.378 342.751 184.634 C 342.751 184.011,342.653 183.891,342.144 183.891 C 341.587 183.891,341.532 183.785,341.463 182.590 C 341.393 181.376,341.342 181.283,340.706 181.210 L 340.025 181.132 340.025 178.546 C 340.025 175.961,340.025 175.960,339.412 175.960 L 338.800 175.960 338.731 172.553 L 338.662 169.145 337.980 169.067 L 337.299 168.988 337.299 156.985 L 337.299 144.981 335.936 144.981 C 334.586 144.981,334.572 144.974,334.572 144.238 C 334.572 143.511,334.545 143.494,333.333 143.494 C 332.122 143.494,332.094 143.511,332.094 144.238 M279.554 145.663 L 279.555 146.344 277.572 146.264 L 275.589 146.183 275.589 146.821 C 275.589 147.430,275.525 147.460,274.226 147.460 C 272.876 147.460,272.862 147.467,272.862 148.203 C 272.862 148.864,272.780 148.947,272.119 148.947 C 271.491 148.947,271.375 149.043,271.375 149.566 C 271.375 150.062,271.252 150.186,270.756 150.186 C 270.233 150.186,270.136 150.302,270.136 150.929 C 270.136 151.590,270.054 151.673,269.393 151.673 C 268.765 151.673,268.649 151.769,268.649 152.292 C 268.649 152.788,268.525 152.912,268.030 152.912 C 267.507 152.912,267.410 153.028,267.410 153.656 C 267.410 154.283,267.314 154.399,266.791 154.399 C 266.295 154.399,266.171 154.523,266.171 155.019 C 266.171 155.542,266.055 155.638,265.428 155.638 C 264.800 155.638,264.684 155.735,264.684 156.258 C 264.684 156.753,264.560 156.877,264.064 156.877 C 263.480 156.877,263.445 156.953,263.445 158.224 C 263.445 159.509,263.414 159.574,262.763 159.649 C 262.128 159.722,262.077 159.815,262.007 161.029 C 261.937 162.237,261.887 162.330,261.302 162.330 C 260.694 162.330,260.676 162.376,260.758 163.693 L 260.843 165.056 260.014 165.056 L 259.186 165.056 259.271 166.419 C 259.354 167.762,259.345 167.783,258.674 167.782 L 257.993 167.782 257.993 169.765 C 257.993 171.714,257.982 171.747,257.373 171.747 L 256.753 171.747 256.753 174.473 L 256.753 177.200 256.072 177.200 L 255.390 177.200 255.349 186.617 L 255.307 196.035 256.030 196.035 L 256.753 196.035 256.753 199.380 L 256.753 202.726 257.373 202.726 C 257.982 202.726,257.993 202.759,257.993 204.709 L 257.993 206.691 258.674 206.691 L 259.356 206.691 259.356 208.736 L 259.356 210.781 260.037 210.859 C 260.678 210.933,260.719 211.011,260.719 212.160 C 260.719 213.299,260.761 213.383,261.338 213.383 C 261.861 213.383,261.958 213.499,261.958 214.126 C 261.958 214.787,262.040 214.870,262.701 214.870 C 263.437 214.870,263.445 214.884,263.445 216.233 C 263.445 217.522,263.479 217.596,264.064 217.596 C 264.560 217.596,264.684 217.720,264.684 218.216 C 264.684 218.739,264.800 218.835,265.428 218.835 C 266.088 218.835,266.171 218.918,266.171 219.579 C 266.171 220.207,266.267 220.322,266.791 220.322 C 267.286 220.322,267.410 220.446,267.410 220.942 C 267.410 221.437,267.534 221.561,268.030 221.561 C 268.525 221.561,268.649 221.685,268.649 222.181 C 268.649 222.704,268.765 222.800,269.393 222.800 C 270.054 222.800,270.136 222.883,270.136 223.544 C 270.136 224.172,270.233 224.287,270.756 224.287 C 271.252 224.287,271.375 224.411,271.375 224.907 C 271.375 225.492,271.451 225.527,272.722 225.527 C 274.007 225.527,274.072 225.558,274.147 226.208 C 274.220 226.844,274.313 226.895,275.527 226.965 C 276.721 227.033,276.828 227.089,276.828 227.646 C 276.828 228.239,276.873 228.253,278.794 228.253 C 280.755 228.253,280.760 228.255,280.839 228.934 L 280.917 229.616 284.325 229.616 L 287.733 229.616 287.733 230.297 L 287.732 230.979 292.317 230.979 L 296.902 230.979 296.902 230.297 L 296.901 229.616 300.991 229.694 L 305.081 229.773 305.081 229.013 L 305.081 228.253 307.063 228.253 C 309.013 228.253,309.046 228.242,309.046 227.633 C 309.046 227.047,309.120 227.014,310.409 227.014 C 311.758 227.014,311.772 227.006,311.772 226.270 C 311.772 225.534,311.786 225.527,313.135 225.527 C 314.424 225.527,314.498 225.493,314.498 224.907 C 314.498 224.411,314.622 224.287,315.118 224.287 C 315.641 224.287,315.737 224.172,315.737 223.544 C 315.737 222.808,315.751 222.800,317.100 222.800 C 318.389 222.800,318.463 222.767,318.463 222.181 C 318.463 221.658,318.579 221.561,319.207 221.561 C 319.835 221.561,319.950 221.465,319.950 220.942 C 319.950 220.446,320.074 220.322,320.570 220.322 C 321.093 220.322,321.190 220.207,321.190 219.579 C 321.190 218.918,321.272 218.835,321.933 218.835 C 322.561 218.835,322.677 218.739,322.677 218.216 C 322.677 217.720,322.800 217.596,323.296 217.596 C 323.905 217.596,323.916 217.563,323.916 215.613 L 323.916 213.631 323.186 213.631 C 322.593 213.631,322.475 213.539,322.552 213.140 C 322.607 212.855,322.523 212.673,322.352 212.706 C 322.190 212.738,322.087 212.619,322.123 212.442 C 322.161 212.255,322.005 212.151,321.751 212.194 C 321.435 212.247,321.292 212.079,321.235 211.586 L 321.157 210.905 318.571 210.905 L 315.985 210.905 315.985 211.637 L 315.985 212.370 312.639 212.219 L 309.294 212.067 309.294 212.849 L 309.294 213.631 306.568 213.631 L 303.841 213.631 303.841 214.240 C 303.841 214.833,303.784 214.852,301.797 214.922 C 299.771 214.993,299.751 215.000,299.674 215.675 L 299.595 216.357 293.540 216.357 L 287.485 216.357 287.485 215.613 L 287.485 214.870 285.502 214.870 C 283.552 214.870,283.519 214.860,283.519 214.250 C 283.519 213.759,283.394 213.631,282.916 213.631 C 282.442 213.631,282.296 213.485,282.235 212.949 C 282.161 212.314,282.069 212.263,280.855 212.193 C 279.660 212.124,279.554 212.068,279.554 211.511 C 279.554 211.002,279.434 210.905,278.810 210.905 C 278.074 210.905,278.067 210.891,278.067 209.542 C 278.067 208.253,278.033 208.178,277.447 208.178 C 276.952 208.178,276.828 208.055,276.828 207.559 C 276.828 207.036,276.712 206.939,276.084 206.939 C 275.348 206.939,275.341 206.926,275.341 205.576 C 275.341 204.287,275.307 204.213,274.721 204.213 C 274.135 204.213,274.102 204.139,274.102 202.850 C 274.102 201.501,274.094 201.487,273.358 201.487 C 272.622 201.487,272.615 201.473,272.615 200.124 C 272.615 198.835,272.581 198.761,271.995 198.761 C 271.386 198.761,271.375 198.728,271.375 196.778 L 271.375 194.796 270.694 194.795 L 270.012 194.794 270.009 187.360 L 270.005 179.926 270.690 179.926 L 271.375 179.926 271.375 177.200 L 271.375 174.473 271.995 174.473 C 272.518 174.473,272.615 174.358,272.615 173.730 C 272.615 173.069,272.697 172.986,273.358 172.986 C 274.094 172.986,274.102 172.973,274.102 171.623 C 274.102 170.335,274.135 170.260,274.721 170.260 C 275.217 170.260,275.341 170.136,275.341 169.641 C 275.341 169.117,275.456 169.021,276.084 169.021 C 276.820 169.021,276.828 169.007,276.828 167.658 C 276.828 166.369,276.862 166.295,277.447 166.295 C 277.938 166.295,278.067 166.170,278.067 165.692 C 278.067 165.218,278.213 165.072,278.748 165.010 C 279.284 164.949,279.447 164.786,279.508 164.250 C 279.570 163.715,279.716 163.569,280.190 163.569 C 280.668 163.569,280.793 163.440,280.793 162.949 C 280.793 162.426,280.909 162.330,281.537 162.330 C 282.197 162.330,282.280 162.247,282.280 161.586 C 282.280 160.958,282.376 160.843,282.900 160.843 C 283.395 160.843,283.519 160.719,283.519 160.223 C 283.519 159.637,283.594 159.603,284.882 159.603 C 286.171 159.603,286.245 159.570,286.245 158.984 L 286.245 158.364 290.954 158.364 L 295.663 158.364 295.663 158.984 C 295.663 159.593,295.696 159.603,297.646 159.603 C 299.595 159.603,299.628 159.614,299.628 160.223 C 299.628 160.809,299.703 160.843,300.991 160.843 C 302.341 160.843,302.354 160.850,302.354 161.586 L 302.354 162.330 304.461 162.330 C 306.543 162.330,306.568 162.337,306.568 162.949 C 306.568 163.535,306.642 163.569,307.931 163.569 C 309.280 163.569,309.294 163.576,309.294 164.312 C 309.294 165.039,309.321 165.056,310.533 165.056 C 311.744 165.056,311.772 165.039,311.772 164.312 C 311.772 163.576,311.786 163.569,313.135 163.569 C 314.424 163.569,314.498 163.535,314.498 162.949 C 314.498 162.454,314.622 162.330,315.118 162.330 L 315.737 162.330 315.737 159.603 L 315.737 156.877 315.118 156.877 C 314.622 156.877,314.498 156.753,314.498 156.258 C 314.498 155.735,314.382 155.638,313.755 155.638 C 313.127 155.638,313.011 155.542,313.011 155.019 C 313.011 154.523,312.887 154.399,312.392 154.399 C 311.868 154.399,311.772 154.283,311.772 153.656 C 311.772 153.028,311.676 152.912,311.152 152.912 C 310.657 152.912,310.533 152.788,310.533 152.292 C 310.533 151.708,310.457 151.673,309.186 151.673 C 307.901 151.673,307.836 151.642,307.761 150.991 C 307.700 150.456,307.537 150.293,307.001 150.231 C 306.466 150.170,306.320 150.024,306.320 149.550 C 306.320 148.984,306.235 148.947,304.957 148.947 C 303.607 148.947,303.594 148.939,303.594 148.203 L 303.594 147.460 301.611 147.460 C 299.639 147.460,299.628 147.456,299.628 146.813 L 299.628 146.166 296.902 146.259 L 294.176 146.352 294.176 145.667 L 294.176 144.981 286.865 144.981 L 279.554 144.981 279.554 145.663 M185.378 158.984 C 185.378 159.507,185.262 159.603,184.634 159.603 C 183.974 159.603,183.891 159.686,183.891 160.347 C 183.891 160.975,183.795 161.090,183.271 161.090 L 182.652 161.090 182.652 166.419 L 182.652 171.747 183.354 171.747 L 184.056 171.747 183.940 183.891 L 183.823 196.035 184.601 196.035 L 185.378 196.035 185.378 200.743 L 185.378 205.452 185.998 205.452 L 186.617 205.452 186.617 208.178 L 186.617 210.905 187.299 210.904 L 187.980 210.903 187.899 212.887 L 187.819 214.870 188.581 214.870 C 189.340 214.870,189.343 214.876,189.343 216.233 C 189.343 217.522,189.377 217.596,189.963 217.596 C 190.458 217.596,190.582 217.720,190.582 218.216 C 190.582 218.739,190.698 218.835,191.326 218.835 C 192.062 218.835,192.069 218.849,192.069 220.198 C 192.069 221.487,192.103 221.561,192.689 221.561 C 193.185 221.561,193.309 221.685,193.309 222.181 C 193.309 222.767,193.383 222.800,194.672 222.800 C 196.021 222.800,196.035 222.808,196.035 223.544 C 196.035 224.172,196.131 224.287,196.654 224.287 C 197.150 224.287,197.274 224.411,197.274 224.907 C 197.274 225.430,197.390 225.527,198.017 225.527 C 198.678 225.527,198.761 225.609,198.761 226.270 C 198.761 227.006,198.775 227.014,200.124 227.014 C 201.464 227.014,201.614 227.115,201.505 227.947 C 201.482 228.119,201.552 228.246,201.661 228.227 C 202.876 228.023,204.213 228.296,204.213 228.748 C 204.213 229.021,204.353 229.246,204.523 229.248 C 204.732 229.250,204.712 229.335,204.461 229.507 C 204.152 229.719,204.173 229.755,204.585 229.722 C 206.992 229.530,208.178 229.740,208.178 230.359 L 208.178 230.979 215.489 230.979 L 222.800 230.979 222.800 230.369 C 222.800 229.777,222.858 229.758,224.845 229.688 C 226.871 229.617,226.890 229.610,226.968 228.934 C 227.046 228.255,227.052 228.253,229.013 228.253 C 230.945 228.253,230.979 228.242,230.979 227.633 C 230.979 227.047,231.053 227.014,232.342 227.014 C 233.691 227.014,233.705 227.006,233.705 226.270 L 233.705 225.527 237.034 225.527 L 240.364 225.527 240.442 226.208 C 240.504 226.743,240.667 226.907,241.202 226.968 C 241.852 227.043,241.884 227.108,241.884 228.393 C 241.884 229.664,241.918 229.740,242.503 229.740 C 242.999 229.740,243.123 229.864,243.123 230.359 C 243.123 230.883,243.238 230.979,243.866 230.979 C 244.602 230.979,244.610 230.993,244.610 232.342 L 244.610 233.705 245.973 233.705 C 247.261 233.705,247.336 233.739,247.336 234.325 L 247.336 234.944 249.938 234.944 L 252.540 234.944 252.540 234.325 C 252.540 233.829,252.664 233.705,253.160 233.705 C 253.683 233.705,253.779 233.589,253.779 232.962 C 253.779 232.301,253.862 232.218,254.523 232.218 C 255.250 232.218,255.266 232.191,255.266 230.979 C 255.266 229.822,255.308 229.740,255.886 229.740 L 256.506 229.740 256.506 225.651 L 256.506 221.561 255.818 221.561 L 255.130 221.561 255.226 218.959 L 255.323 216.357 254.551 216.357 L 253.779 216.357 253.779 213.631 L 253.779 210.905 253.160 210.905 L 252.540 210.905 252.540 208.178 L 252.540 205.452 251.821 205.452 L 251.103 205.452 251.140 202.788 L 251.177 200.124 250.434 200.051 L 249.690 199.979 249.768 197.387 L 249.846 194.796 249.149 194.795 L 248.451 194.795 248.451 188.600 L 248.451 182.404 249.133 182.404 L 249.814 182.404 249.814 177.819 L 249.814 173.234 249.195 173.234 C 248.609 173.234,248.575 173.160,248.575 171.871 C 248.575 170.522,248.567 170.508,247.831 170.508 C 247.171 170.508,247.088 170.425,247.088 169.765 C 247.088 169.137,246.992 169.021,246.468 169.021 C 245.973 169.021,245.849 168.897,245.849 168.401 L 245.849 167.782 243.123 167.782 L 240.397 167.782 240.397 168.401 C 240.397 168.980,240.314 169.021,239.157 169.021 L 237.918 169.021 237.918 171.128 L 237.918 173.234 237.147 173.234 L 236.376 173.234 236.467 181.289 L 236.558 189.343 235.875 189.343 L 235.192 189.343 235.192 194.052 L 235.192 198.761 234.449 198.761 L 233.705 198.761 233.705 201.487 L 233.705 204.213 233.086 204.213 C 232.476 204.213,232.466 204.246,232.466 206.196 L 232.466 208.178 231.722 208.178 C 231.095 208.178,230.979 208.275,230.979 208.798 C 230.979 209.294,230.855 209.418,230.359 209.418 C 229.774 209.418,229.740 209.492,229.740 210.781 L 229.740 212.144 228.377 212.144 C 227.027 212.144,227.014 212.151,227.014 212.887 C 227.014 213.515,226.917 213.631,226.394 213.631 C 225.901 213.631,225.774 213.755,225.774 214.240 C 225.774 214.833,225.717 214.852,223.730 214.922 C 221.704 214.993,221.685 215.000,221.607 215.675 L 221.528 216.357 216.836 216.357 L 212.144 216.357 212.144 215.613 L 212.144 214.870 210.161 214.870 C 208.211 214.870,208.178 214.860,208.178 214.250 C 208.178 213.665,208.103 213.631,206.832 213.631 C 205.547 213.631,205.482 213.599,205.407 212.949 C 205.345 212.414,205.182 212.251,204.647 212.189 C 204.112 212.128,203.965 211.981,203.965 211.508 C 203.965 211.030,203.837 210.905,203.346 210.905 C 202.760 210.905,202.726 210.830,202.726 209.542 C 202.726 208.192,202.719 208.178,201.983 208.178 C 201.247 208.178,201.239 208.165,201.239 206.815 C 201.239 205.527,201.205 205.452,200.620 205.452 L 200.000 205.452 200.000 202.726 L 200.000 200.000 199.380 200.000 L 198.761 200.000 198.761 197.398 L 198.761 194.796 197.955 194.796 L 197.150 194.796 197.194 179.306 L 197.239 163.817 196.637 163.817 C 196.072 163.817,196.035 163.732,196.035 162.454 C 196.035 161.104,196.027 161.090,195.291 161.090 C 194.625 161.090,194.548 161.010,194.548 160.324 L 194.548 159.558 193.184 159.642 C 191.842 159.726,191.821 159.717,191.821 159.046 L 191.822 158.364 188.600 158.364 L 185.378 158.364 185.378 158.984 M372.491 192.565 C 372.491 193.301,372.504 193.309,373.854 193.309 C 375.143 193.309,375.217 193.342,375.217 193.928 C 375.217 194.424,375.341 194.548,375.836 194.548 C 376.360 194.548,376.456 194.663,376.456 195.291 C 376.456 195.919,376.360 196.035,375.836 196.035 C 375.313 196.035,375.217 196.150,375.217 196.778 C 375.217 197.439,375.134 197.522,374.473 197.522 C 373.846 197.522,373.730 197.618,373.730 198.141 C 373.730 198.720,373.647 198.761,372.491 198.761 C 371.304 198.761,371.252 198.790,371.252 199.442 L 371.252 200.124 367.782 200.124 L 364.312 200.124 364.312 199.429 L 364.312 198.734 360.985 198.809 L 357.657 198.885 357.577 197.398 C 357.448 195.010,357.559 194.548,358.257 194.548 C 358.735 194.548,358.860 194.419,358.860 193.928 C 358.860 193.342,358.934 193.309,360.223 193.309 C 361.572 193.309,361.586 193.301,361.586 192.565 L 361.586 191.822 367.038 191.822 L 372.491 191.822 372.491 192.565 " stroke="none" fill="#415e81" fill-rule="evenodd"></path></g></svg>