<?xml version="1.0" encoding="UTF-8" standalone="no"?>
<!-- Created with Inkscape (http://www.inkscape.org/) -->

<svg
   xmlns:dc="http://purl.org/dc/elements/1.1/"
   xmlns:cc="http://creativecommons.org/ns#"
   xmlns:rdf="http://www.w3.org/1999/02/22-rdf-syntax-ns#"
   xmlns:svg="http://www.w3.org/2000/svg"
   xmlns="http://www.w3.org/2000/svg"
   xmlns:sodipodi="http://sodipodi.sourceforge.net/DTD/sodipodi-0.dtd"
   xmlns:inkscape="http://www.inkscape.org/namespaces/inkscape"
   version="1.1"
   id="svg2"
   width="333.33334"
   height="192"
   viewBox="0 0 333.33334 192"
   sodipodi:docname="logo-mc-10.svg"
   inkscape:version="0.92.4 (5da689c313, 2019-01-14)">
  <metadata
     id="metadata8">
    <rdf:RDF>
      <cc:Work
         rdf:about="">
        <dc:format>image/svg+xml</dc:format>
        <dc:type
           rdf:resource="http://purl.org/dc/dcmitype/StillImage" />
        <dc:title></dc:title>
      </cc:Work>
    </rdf:RDF>
  </metadata>
  <defs
     id="defs6" />
  <sodipodi:namedview
     pagecolor="#ffffff"
     bordercolor="#666666"
     borderopacity="1"
     objecttolerance="10"
     gridtolerance="10"
     guidetolerance="10"
     inkscape:pageopacity="1"
     inkscape:pageshadow="2"
     inkscape:window-width="1600"
     inkscape:window-height="836"
     id="namedview4"
     showgrid="false"
     inkscape:zoom="2.4594851"
     inkscape:cx="176.3153"
     inkscape:cy="68.094186"
     inkscape:window-x="0"
     inkscape:window-y="36"
     inkscape:window-maximized="1"
     inkscape:current-layer="layer1"
     inkscape:pagecheckerboard="true" />
  <g
     inkscape:groupmode="layer"
     id="layer1"
     inkscape:label="Layer 1">
    <path
       style="opacity:1;fill:#ffffff;fill-opacity:1;stroke:none;stroke-width:4.03020287;stroke-miterlimit:4;stroke-dasharray:none;stroke-dashoffset:0;stroke-opacity:1"
       d="M 1.3379911,1.4993738 H 333.29716 V 191.59692 H 1.3379911 Z"
       id="rect834" />
    <path
       style="fill:#000000;fill-opacity:0.98431373;stroke-width:1.33333337"
       d="m 16.527628,183.71979 c -1.7627,-0.90585 -4.4627,-3.34048 -6,-5.41027 -2.7496002,-3.70186 -2.8014002,-4.99141 -3.1711002,-79.044989 -0.3568,-71.47776 -0.248,-75.57067 2.1534,-80.99944 C 14.387128,7.2395509 2.4872278,7.9804909 168.21823,8.3831409 l 146.6527,0.3563 3.7641,2.8060401 c 8.5396,6.36615 8.1999,2.92009 8.5951,87.19396 0.2713,57.846419 -0.035,77.386319 -1.246,79.598299 -4.1069,7.49842 5.4268,7.07008 -156.8817,7.04872 -115.894902,-0.0152 -150.088302,-0.38878 -152.574802,-1.66667 z m 83.3585,-16.31368 c 0.438202,-11.40215 0.416702,-11.33268 3.512902,-11.35375 4.3026,-0.0293 6.8612,-2.01426 5.8828,-4.56392 -0.7059,-1.83965 -2.6946,-2.12558 -12.527602,-1.80122 -10.6711,0.352 -11.6885,0.61768 -11.6885,3.05222 0,1.54011 0.7624,2.5064 1.8047,2.28731 0.9927,-0.20865 2.9427,-0.0183 4.3334,0.42319 2.1126,0.6705 2.5286,2.11922 2.5286,8.80542 0,7.53664 0.1748,7.97807 3,7.57682 2.3063,-0.32756 3.0355,-1.35092 3.1537,-4.42607 z m 18.232602,2 c 0.5795,-2.21605 1.8187,-2.66667 7.3333,-2.66667 5.6069,0 6.7489,0.43155 7.3637,2.78263 1.0778,4.1214 5.6903,2.8074 5.2335,-1.49091 -0.5236,-4.92702 -0.4938,-5.66721 0.3741,-9.29172 0.4795,-2.00234 0.011,-4.39812 -1.1749,-6 -1.706,-2.30581 -3.4757,-2.65794 -13.0779,-2.60218 l -11.1048,0.0644 -0.3988,9.13657 c -0.2194,5.02512 -0.088,9.94611 0.2915,10.93553 1.0422,2.71606 4.3694,2.15659 5.1603,-0.86772 z m 0.5026,-10.22223 c -2.2119,-2.21188 -0.3492,-3.1111 6.4444,-3.1111 5.6296,0 7.3333,0.46464 7.3333,2 0,1.50192 -1.6049,2 -6.4444,2 -3.5445,0 -6.8445,-0.4 -7.3333,-0.8889 z m 47.1111,10.22223 c 5.5057,-5.50576 2.1619,-10.44673 -7.3334,-10.83601 -7.609,-0.31195 -10,-0.94315 -10,-2.63998 0,-1.77921 10.3091,-1.43661 13.3182,0.4426 3.1098,1.94208 5.8835,-0.0209 4.6333,-3.27893 -0.9927,-2.58696 -4.73,-3.64584 -12.9515,-3.66948 -6.8837,-0.0197 -11.6666,3.18553 -11.6666,7.81855 0,3.78178 2.5146,5.1066 11.6646,6.14541 4.5822,0.52023 7.9967,1.48705 7.5879,2.14852 -1.0137,1.6402 -12.2264,1.52964 -13.2525,-0.13067 -1.2878,-2.0837 -4.6614,-1.56517 -5.5918,0.85948 -1.3904,3.62324 3.3156,5.80719 12.5133,5.80719 6.634,0 8.9754,-0.56359 11.0785,-2.66667 z m 49.471,0.15663 c 2.6581,-2.15246 2.8889,-2.97279 1.6197,-5.75832 -0.814,-1.78658 -1.1545,-4.95084 -0.7568,-7.03174 0.9786,-5.11876 -2.3654,-7.36657 -10.9588,-7.36657 -10.0792,0 -12.2606,2.10771 -12.3531,11.93635 -0.091,9.65326 0.9915,10.63133 11.8303,10.68977 5.4209,0.0292 8.3838,-0.65983 10.6187,-2.46949 z m -16.1377,-4.8233 c 0,-1.70874 1.17,-2.06868 5.6667,-1.74333 3.1166,0.22551 5.6666,1.01 5.6666,1.74333 0,0.73334 -2.55,1.51783 -5.6666,1.74334 -4.4967,0.32534 -5.6667,-0.0345 -5.6667,-1.74334 z m 0.8889,-6.88889 c -2.0533,-2.05325 -0.5688,-3.11111 4.3657,-3.11111 5.5362,0 8.1863,1.82844 4.6287,3.19363 -2.7962,1.073 -7.8856,1.02632 -8.9944,-0.0825 z m 44.4444,11.55556 c 3.4012,-3.40119 3.7628,-14.76383 0.5545,-17.42644 -3.4158,-2.83491 -17.2575,-3.29324 -21.2116,-0.70239 -2.8682,1.87928 -3.34,3.17994 -3.3224,9.15956 0.03,10.39055 1.1771,11.35947 13.6462,11.53067 5.9822,0.0821 8.2526,-0.48064 10.3333,-2.5614 z m -17.3333,-8.66667 v -4.66666 h 6.6667 6.6666 v 4.66666 4.66667 h -6.6666 -6.6667 z m -42.109,3.85735 c 1.1599,-0.44512 2.109,-1.94512 2.109,-3.33333 0,-2.10254 -1.0019,-2.52402 -6,-2.52402 -4.9293,0 -6,0.43622 -6,2.44444 0,1.34446 0.4,2.84446 0.8889,3.33334 1.1101,1.11012 6.1993,1.15509 9.0021,0.0796 z m 138.109,-62.52401 V 68.072771 h -156 -156.000002 v 34.000009 34 h 156.000002 156 z m -217.3787,25.27868 c -0.8156,-0.98281 -1.2633,-4.07255 -0.9948,-6.86612 0.4723,-4.91482 0.668,-5.09241 6.0465,-5.48673 7.8906,-0.57848 10.9937,1.44335 10.9937,7.16293 0,5.03091 -0.4706,5.36404 -8.9479,6.33425 -3.7418,0.42825 -6.1091,0.0465 -7.0975,-1.14433 z m 12.712,-5.27867 c 0,-3.65977 -0.4253,-4.0352 -5,-4.41382 -4.9333,-0.40831 -5,-0.34947 -5,4.41382 0,4.76327 0.067,4.82211 5,4.41381 4.5747,-0.37863 5,-0.75406 5,-4.41381 z m 13.5975,6.24717 c -3.5655,-0.41771 -3.7175,-0.72195 -3.3333,-6.67574 l 0.4025,-6.2381 6.3333,-0.40639 c 3.8095,-0.24444 6.3334,0.15406 6.3334,1 0,0.77351 -2.1,1.40639 -4.6667,1.40639 -2.5667,0 -4.6667,0.6 -4.6667,1.33333 0,0.73334 2.1,1.33334 4.6667,1.33334 6.2559,0 5.9823,2.3968 -0.3333,2.91951 -6.349,0.52547 -5.9803,2.82994 0.6225,3.89127 2.7743,0.44594 4.7441,0.94594 4.3775,1.11111 -1.3217,0.59538 -6.0747,0.75418 -9.7359,0.32528 z m 19.8214,-0.20112 c -1.2138,-2.25587 -1.9678,-8.1347 -1.275,-9.9401 1.4888,-3.87991 3.1895,-2.15907 3.1895,3.22738 0,5.20634 0.111,5.33332 4.6666,5.33332 2.5667,0 4.6667,0.56821 4.6667,1.26269 0,1.29372 -10.5556,1.40325 -11.2478,0.11671 z m -98.418902,-0.80862 c -0.55,-0.55837 -1,-3.33404 -1,-6.16817 0,-5.92644 3.493,-8.57346 5.9149,-4.48241 0.7802,1.31779 2.3652,3.61277 3.5223,5.09996 2.0639,2.65257 2.1617,2.61026 5.1512,-2.22674 1.8737,-3.03174 3.8877,-4.76795 5.2295,-4.5081 2.0918,0.40511 2.202,1.12072 1.6498,10.71468 -0.074,1.28334 -0.8024,2.33334 -1.619,2.33334 -0.8912,0 -1.25,-1.59892 -0.8976,-3.99999 0.3229,-2.2 0.2038,-4 -0.2646,-4 -0.4684,0 -2.1824,1.8 -3.809,4 -1.6265,2.19999 -3.4448,3.99999 -4.0408,3.99999 -0.5959,0 -2.2143,-2.1 -3.5966,-4.66666 -3.1855,-5.91509 -4.3072,-5.88573 -4.8262,0.12633 -0.2276,2.63614 -0.8639,4.33614 -1.4139,3.77777 z m 28.8642,-1.11052 c -0.3953,-1.03019 -0.5264,-3.88018 -0.2914,-6.33332 0.3825,-3.99371 0.8998,-4.5054 4.9451,-4.89183 9.4943,-0.90696 13.370702,2.81872 10.633,10.21946 -0.899,2.43025 -2.1168,2.87877 -7.8164,2.87877 -4.568,0 -6.9839,-0.60577 -7.4703,-1.87308 z m 12.5536,-4.46025 c 0.4095,-4.24647 0.3093,-4.33333 -5,-4.33333 -5.06,0 -5.4178,0.24944 -5.4178,3.77778 0,4.87215 1.0105,5.76947 5.9521,5.2854 3.493,-0.34216 4.1052,-0.99061 4.4657,-4.72985 z m 85.582202,-0.33333 c 0,-5.58786 0.3976,-6.66667 2.4567,-6.66667 1.4401,0 3.4967,1.93115 4.9699,4.66667 1.3823,2.56667 2.8823,4.66667 3.3333,4.66667 0.4511,0 1.9511,-2.1 3.3334,-4.66667 1.418,-2.63303 3.5431,-4.66667 4.8766,-4.66667 1.9473,0 2.3635,1.17398 2.3635,6.66667 0,7.7399 -2.3079,9.05737 -2.9195,1.66667 l -0.4139,-5 -2.955,5 c -1.6253,2.74999 -3.5263,4.99999 -4.2246,4.99999 -0.6982,0 -2.6685,-2.25 -4.3783,-4.99999 l -3.1087,-5 -0.4139,5 c -0.6116,7.3907 -2.9195,6.07323 -2.9195,-1.66667 z m 28.8889,5.77777 c -1.8548,-1.85485 -0.9151,-10.81573 1.2202,-11.63512 5.754,-2.208 15.1955,10e-4 13.2764,3.10636 -0.7084,1.14613 -1.4229,1.1598 -2.7569,0.0527 -0.9903,-0.82193 -3.4869,-1.30107 -5.5479,-1.06475 -3.1793,0.36455 -3.7473,1.03599 -3.7473,4.42968 0,3.39368 0.568,4.06512 3.7473,4.42966 2.061,0.23632 4.6255,-0.29918 5.6989,-1.19 2.1721,-1.80269 3.9774,-0.87652 2.6086,1.33828 -0.9529,1.5419 -13.0459,1.98657 -14.4993,0.53316 z m 47.1111,-3.75651 c 0,-4.43568 -0.2662,-4.78477 -3,-3.93391 -2.9739,0.92561 -2.9779,0.90902 -0.46,-1.91015 1.397,-1.56413 3.3356,-2.84387 4.308,-2.84387 3.4967,0 4.2445,11.87846 0.8187,13.00667 -1.1292,0.37188 -1.6667,-1.0208 -1.6667,-4.31874 z m 10.2822,3.8164 c -0.5219,-0.52183 -0.9488,-3.18458 -0.9488,-5.91723 0,-5.48043 1.4469,-6.5871 8.6124,-6.5871 5.4855,0 7.6923,2.54683 7.1452,8.24624 -0.413,4.303 -0.6027,4.43086 -7.1422,4.81365 -3.6948,0.21627 -7.1448,-0.0337 -7.6666,-0.55556 z m 12.1357,-5.50433 c 0.4094,-4.24647 0.3092,-4.33333 -5,-4.33333 -5.0601,0 -5.4179,0.24944 -5.4179,3.77778 0,4.87215 1.0105,5.76947 5.9521,5.2854 3.493,-0.34216 4.1052,-0.99061 4.4658,-4.72985 z m -46.4179,-0.91552 c 0,-1.5026 1.3337,-2.08448 4.7778,-2.08448 6.0244,0 5.5653,3.14749 -0.5471,3.75115 -3.1261,0.30872 -4.2307,-0.12643 -4.2307,-1.66667 z M 52.703128,106.48169 c -0.5016,-0.50162 -0.3041,-7.420019 -0.3041,-14.631139 v -13.11111 h 33.38 33.380002 l -0.38,13.66667 -0.38,13.666679 -32.087902,0.35648 c -17.6484,0.19606 -33.608,0.0524 -33.608,0.0524 z M 215.06573,92.739441 v -14 h 34 34 v 14 14.000009 h -34 -34 z M 87.856928,55.726041 c 1.402,-1.40198 1.696,-16.79948 0.3819,-20.00356 -1.7254,-4.2073 -4.8916,-5.33678 -13.28,-4.73743 -5.3147,0.37973 -5.9345,0.78095 -6.315,4.08772 -0.3905,3.39346 -0.068,3.66667 4.3333,3.66667 2.6154,0 4.7553,0.6 4.7553,1.33333 0,0.73334 -1.7862,1.33334 -3.9693,1.33334 -5.4365,0 -9.0722,5.3204 -6.8974,10.09357 0.8314,1.82472 2.8665,3.83404 4.5225,4.46516 2.7677,1.05482 15.3576,0.87226 16.4687,-0.2388 z m -14.9398,-5.55975 c -1.3276,-3.45956 0.5332,-6.31891 3.8093,-5.8537 4.2728,0.60674 4.2728,6.91362 0,7.52037 -1.803,0.25603 -3.3274,-0.41094 -3.8093,-1.66667 z m 44.815302,-10.23939 v -15.85413 h -4.574 c -3.7034,0 -4.655,0.56157 -5,2.95063 -0.3128,2.16676 -1.6607,3.20174 -5.0735,3.89585 -2.7227,0.55375 -6.234002,2.72083 -8.478102,5.23242 -3.171,3.54895 -3.7,5.09218 -3.072,8.96201 1.4899,9.18091 8.29,12.64768 21.864202,11.14655 l 4.3334,-0.47921 z m -16.7156,9.32519 c -0.6601,-2.07999 -0.2541,-3.48099 1.3484,-4.65281 3.3668,-2.46183 6.2503,-0.80821 5.7726,3.31049 -0.5415,4.66952 -5.7532,5.65194 -7.121,1.34232 z m 52.2448,5.58556 c 8.8378,-5.389 8.3534,-18.66579 -0.8548,-23.42755 -5.5174,-2.85315 -10.9978,-1.58926 -15.3051,3.52966 -5.7608,6.84636 -3.9152,16.58571 3.964,20.91877 3.9187,2.15503 7.4758,1.85727 12.1959,-1.02088 z m -10.2791,-5.5871 c -1.1936,-2.23017 -1.0853,-3.24739 0.5163,-4.84899 3.8176,-3.81754 9.6679,1.53308 6.2195,5.68819 -2.3184,2.79349 -4.9684,2.46334 -6.7358,-0.8392 z m 123.8327,4.59841 c 3.818,-2.41029 3.0863,-5.24487 -1.2178,-4.718 -9.1985,1.126 -9.8576,0.9938 -10.2919,-2.06415 -0.52,-3.66186 3.062,-5.40486 6.5854,-3.20447 1.3596,0.84907 4.3586,1.54377 6.6645,1.54377 4.0974,0 4.1745,-0.11352 3.3964,-5 -2.6118,-16.4038 -26.2194,-13.42912 -26.2194,3.30377 0,4.92947 3.3227,9.52782 8.5044,11.76938 4.4326,1.91751 7.611,1.50555 12.5784,-1.6303 z m 30.9172,0.66167 c 0,-0.70226 -1.2587,-4.20281 -2.7972,-7.779 -2.5942,-6.03038 -2.6425,-6.72284 -0.6666,-9.54385 3.0596,-4.36821 2.6961,-5.11501 -2.4893,-5.11501 -3.2552,0 -5.0413,0.7877 -6.0469,2.66667 -2.4922,4.6567 -4,2.8976 -4,-4.66667 0,-6.93333 -0.1818,-7.33333 -3.3334,-7.33333 h -3.3333 v 16.66667 16.66666 h 3.2489 c 2.6907,0 3.3206,-0.74436 3.6666,-4.33333 0.5032,-5.21829 2.3192,-5.32257 5.1067,-0.29323 2.1399,3.86078 6.0931,6.0475 8.9778,4.96606 0.9167,-0.34364 1.6667,-1.19938 1.6667,-1.90164 z M 49.732428,52.739441 c 0,-1.83333 0.6128,-3.33333 1.3619,-3.33333 0.749,0 2.0454,1.5 2.8807,3.33333 1.1787,2.58692 2.5158,3.33333 5.9714,3.33333 2.4489,0 4.4526,-0.3239 4.4526,-0.71978 0,-0.39588 -1.2447,-3.15962 -2.766,-6.14164 l -2.766,-5.42185 2.766,-2.9443 c 3.558,-3.78729 3.606,-10.59916 0.099,-14.10576 -2.1196,-2.11966 -4.4444,-2.66667 -11.3333,-2.66667 h -8.6667 v 16 16 h 4 c 3.3778,0 4,-0.51852 4,-3.33333 z m -2.1845,-9.33333 c -1.2595,-3.28212 0.5524,-6 4,-6 3.7132,0 5.6148,3.47326 3.3775,6.16899 -2.0206,2.43476 -6.417,2.33405 -7.3775,-0.16899 z m 83.234502,0.33333 -0.3834,-12.33333 -4.3333,-0.41781 -4.3333,-0.41782 v 12.75115 12.75114 h 4.7167 4.7167 z m 48.8902,11.50509 c 3.1545,-1.2105 6.0568,-7.62522 6.0802,-13.43888 0.023,-5.72935 0.9247,-7.53763 4.3981,-8.82097 1.7944,-0.66298 2.3105,-2.01416 2,-5.23607 -0.3869,-4.01401 -0.7599,-4.32616 -4.9309,-4.12643 -6.0389,0.28916 -9.5467,4.10822 -10.3377,11.25493 -1.0941,9.88651 -1.6895,11.51808 -4.4687,12.24485 -2.624,0.68619 -3.8143,6.04 -1.7923,8.06192 1.1182,1.11827 6.2064,1.15236 9.0513,0.0607 z m 23.4951,-4.83842 c 0.1178,-6.53715 0.7066,-10.25308 1.798,-11.3444 1.3499,-1.34991 2.7616,1.11523 2.9333,5.12217 0.092,2.13889 0.2417,5.72691 0.3334,7.97337 0.1541,3.77732 0.4925,4.05306 4.5,3.66667 l 4.3333,-0.41781 0.3974,-9.13632 c 0.4983,-11.45791 -1.668,-15.53035 -8.2615,-15.53035 -3.8991,0 -4.5713,-0.51022 -5.2692,-4 -0.6725,-3.36249 -1.4285,-4 -4.7435,-4 -4.7792,0 -5.4551,1.79665 -4.7652,12.66667 0.2793,4.4 0.538,10.85 0.5749,14.33333 0.065,6.13324 0.1935,6.33333 4.0671,6.33333 3.801,0 4.0051,-0.28193 4.102,-5.66666 z m 39.6181,-5.18469 c 0.5023,-13.22712 -0.8113,-14.75582 -12.2083,-14.20825 -7.3254,0.35195 -8.2229,0.70586 -8.6045,3.39294 -0.3609,2.54112 0.1879,3 3.5879,3 2.2078,0 4.3849,0.6 4.8381,1.33333 0.4533,0.73333 -0.2778,1.33333 -1.6246,1.33333 -7.108,0 -10.8685,8.36847 -6.1189,13.61675 1.8496,2.04373 3.8334,2.42335 11,2.10499 l 8.7435,-0.3884 z m -15.4534,5.25135 c -3.6392,-3.63916 0.7266,-9.74898 5.0547,-7.07404 2.673,1.652 0.5239,8.67404 -2.6547,8.67404 -0.44,0 -1.52,-0.72 -2.4,-1.6 z"
       id="path835"
       inkscape:connector-curvature="0"
       sodipodi:nodetypes="ccscsccscscsccssccssscsscccccsccccsssccsscccsccscsccccsscccscscscscccscsccsccccccccccssscccccccccccccsssccscscsssccsssssscscsssscssccsscsssssscsscscsscssccsscscsscccscccscscccscscccsccscscssscccssccsscscscccccsccccccccccccscssscccsccsccsccccscccsccccssccccccsccscsscscsscsscccssscscssssscscscccsccssssccccccccccccccsscccccccscssssscscsscscscscsssss"
       inkscape:export-xdpi="96.300003"
       inkscape:export-ydpi="96.300003" />
  </g>
  <g
     inkscape:groupmode="layer"
     id="layer2"
     inkscape:label="Layer 2">
    <path
       style="opacity:1;fill:#ff0000;fill-opacity:1;stroke:none;stroke-width:1.21596766;stroke-miterlimit:4;stroke-dasharray:none;stroke-dashoffset:0;stroke-opacity:1"
       d="m 52.502828,106.23469 c -0.2195,-0.57203 -0.2816,-7.048043 -0.1798,-18.755481 l 0.076,-8.739768 h 33.4105 33.410502 l -0.1333,3.571905 c -0.073,1.964548 -0.2602,8.069307 -0.4152,13.566131 -0.155,5.496823 -0.358,10.070313 -0.4509,10.163303 -0.2122,0.21217 -32.405502,0.61668 -51.315502,0.64478 -12.5878,0.0187 -14.2419,-0.0331 -14.4023,-0.45087 z"
       id="path865"
       inkscape:connector-curvature="0" />
    <path
       style="opacity:1;fill:#00ff00;fill-opacity:1;stroke:none;stroke-width:1.21596766;stroke-miterlimit:4;stroke-dasharray:none;stroke-dashoffset:0;stroke-opacity:1"
       d="M 134.36143,92.910057 V 78.773116 h 34.0501 34.0501 l -0.079,14.059627 -0.079,14.059627 -33.9711,0.0773 -33.9711,0.0773 z"
       id="path867-6"
       inkscape:connector-curvature="0" />
    <path
       style="opacity:1;fill:#0000ff;fill-opacity:1;stroke:none;stroke-width:1.21596766;stroke-miterlimit:4;stroke-dasharray:none;stroke-dashoffset:0;stroke-opacity:1"
       d="m 215.06573,92.739441 v -14.13694 h 34.0501 34.0502 l -0.079,14.059626 -0.079,14.059623 -33.9711,0.0773 -33.9711,0.0773 z"
       id="path867"
       inkscape:connector-curvature="0" />
  </g>
</svg>
