<svg id="svg" version="1.1" width="400" height="62.00000000000001" xmlns="http://www.w3.org/2000/svg" xmlns:xlink="http://www.w3.org/1999/xlink" style="display: block;"><g id="svgg"><path id="path0" d="M11.667 0.341 C 11.667 1.039,12.389 1.500,13.483 1.500 C 14.408 1.500,14.498 1.534,14.701 1.958 C 14.893 2.361,15.027 2.423,15.800 2.467 C 16.522 2.509,16.766 2.607,17.150 3.009 C 17.521 3.397,17.763 3.500,18.305 3.500 C 18.873 3.500,19.053 3.585,19.360 4.000 C 19.614 4.344,19.872 4.500,20.187 4.500 C 20.502 4.500,20.678 4.607,20.753 4.843 C 20.869 5.208,21.449 5.500,22.058 5.500 C 22.315 5.500,22.484 5.652,22.616 6.000 C 22.791 6.464,22.864 6.500,23.641 6.500 C 24.430 6.500,24.481 6.526,24.531 6.958 C 24.571 7.308,24.684 7.428,25.008 7.466 C 25.302 7.500,25.490 7.667,25.619 8.008 C 25.758 8.378,25.911 8.500,26.234 8.500 C 26.494 8.500,26.852 8.697,27.142 9.000 C 27.431 9.302,27.789 9.500,28.049 9.500 C 28.393 9.500,28.488 9.591,28.531 9.958 C 28.571 10.313,28.683 10.428,29.023 10.468 C 29.358 10.506,29.485 10.634,29.560 11.009 C 29.635 11.382,29.751 11.500,30.043 11.500 C 30.317 11.500,30.481 11.644,30.616 12.000 C 30.724 12.288,30.738 12.500,30.648 12.500 C 30.562 12.500,30.422 12.315,30.336 12.090 C 30.209 11.755,30.027 11.660,29.349 11.570 C 28.610 11.472,28.513 11.411,28.467 11.021 C 28.428 10.684,28.312 10.571,27.960 10.531 C 27.709 10.502,27.284 10.258,27.015 9.989 C 26.697 9.672,26.355 9.500,26.040 9.500 C 25.691 9.500,25.503 9.389,25.374 9.107 C 25.175 8.670,24.599 8.500,23.313 8.500 C 22.567 8.500,22.500 8.467,22.500 8.101 C 22.500 7.588,22.242 7.500,20.736 7.500 C 19.606 7.500,19.500 7.471,19.500 7.163 C 19.500 6.552,18.853 6.484,13.456 6.535 L 8.301 6.583 7.936 7.042 C 7.632 7.423,7.441 7.500,6.797 7.500 C 6.007 7.500,5.500 7.798,5.500 8.262 C 5.500 8.419,5.316 8.501,4.958 8.502 C 4.087 8.506,3.702 8.672,3.597 9.088 C 3.529 9.358,3.359 9.494,3.041 9.531 C 2.685 9.572,2.572 9.682,2.532 10.032 C 2.492 10.378,2.378 10.492,2.032 10.532 C 1.682 10.572,1.567 10.691,1.500 11.083 C 1.440 11.433,1.307 11.599,1.058 11.634 C 0.624 11.696,0.505 12.087,0.502 13.458 C 0.500 14.272,0.445 14.500,0.250 14.500 C 0.031 14.500,0.000 15.556,0.000 23.000 C 0.000 30.444,0.031 31.500,0.250 31.500 C 0.444 31.500,0.500 31.720,0.500 32.482 C 0.500 33.333,0.564 33.533,0.976 33.975 C 1.299 34.320,1.487 34.737,1.560 35.267 C 1.675 36.106,1.902 36.500,2.270 36.500 C 2.400 36.500,2.500 36.670,2.500 36.892 C 2.500 37.538,2.841 38.313,3.170 38.418 C 3.350 38.475,3.501 38.705,3.531 38.966 C 3.572 39.318,3.684 39.428,4.042 39.469 C 4.470 39.519,4.500 39.574,4.500 40.311 C 4.500 41.146,4.708 41.500,5.200 41.500 C 5.402 41.500,5.500 41.625,5.500 41.885 C 5.500 42.120,5.695 42.415,6.000 42.640 C 6.327 42.882,6.500 43.156,6.500 43.433 C 6.500 44.031,6.791 44.500,7.161 44.500 C 7.383 44.500,7.494 44.638,7.531 44.958 C 7.572 45.318,7.682 45.428,8.042 45.469 C 8.426 45.514,8.500 45.602,8.500 46.011 C 8.500 46.443,8.558 46.500,9.000 46.500 C 9.414 46.500,9.500 46.568,9.500 46.892 C 9.500 47.535,9.840 48.313,10.167 48.417 C 10.335 48.470,10.550 48.736,10.644 49.007 C 10.759 49.337,10.929 49.500,11.158 49.500 C 11.376 49.500,11.500 49.609,11.500 49.800 C 11.500 49.965,11.590 50.190,11.700 50.300 C 11.856 50.456,11.855 50.500,11.696 50.500 C 11.584 50.500,11.422 50.315,11.336 50.090 C 11.208 49.755,11.027 49.660,10.340 49.568 C 9.552 49.464,9.500 49.427,9.500 48.979 C 9.500 48.560,9.438 48.500,9.011 48.500 C 8.602 48.500,8.514 48.426,8.469 48.042 C 8.428 47.685,8.318 47.572,7.968 47.532 C 7.622 47.492,7.508 47.378,7.468 47.032 C 7.428 46.685,7.315 46.572,6.968 46.532 C 6.622 46.492,6.508 46.378,6.468 46.032 C 6.428 45.685,6.315 45.572,5.968 45.532 C 5.622 45.492,5.508 45.378,5.468 45.032 C 5.428 44.682,5.315 44.572,4.958 44.531 C 4.586 44.488,4.500 44.394,4.498 44.031 C 4.491 42.926,3.473 42.308,2.130 42.594 C 1.305 42.770,1.344 44.500,2.173 44.500 C 2.449 44.500,2.500 44.616,2.500 45.236 C 2.500 46.229,2.629 46.500,3.101 46.500 C 3.472 46.500,3.500 46.563,3.500 47.385 C 3.500 48.176,3.554 48.310,4.000 48.640 C 4.482 48.997,4.500 49.057,4.500 50.327 C 4.500 51.883,4.688 52.500,5.163 52.500 C 5.587 52.500,5.685 54.560,5.268 54.720 C 4.882 54.868,4.500 55.838,4.500 56.671 C 4.500 57.412,4.471 57.464,4.000 57.558 C 3.603 57.638,3.500 57.745,3.500 58.079 C 3.500 58.373,3.410 58.500,3.200 58.500 C 2.820 58.500,2.500 58.815,2.500 59.189 C 2.500 59.380,2.345 59.496,2.042 59.531 C 1.682 59.572,1.572 59.682,1.531 60.042 C 1.482 60.465,1.421 60.500,0.739 60.500 L 0.000 60.500 0.000 61.250 L 0.000 62.000 13.750 62.000 C 25.861 62.000,27.500 61.970,27.500 61.750 C 27.500 61.612,27.575 61.500,27.667 61.500 C 27.758 61.500,27.833 61.612,27.833 61.750 C 27.833 61.969,28.787 62.000,35.417 62.000 C 42.046 62.000,43.000 61.969,43.000 61.750 C 43.000 61.571,43.182 61.500,43.642 61.500 C 44.581 61.500,45.333 61.196,45.333 60.817 C 45.333 60.566,45.454 60.500,45.917 60.500 C 46.454 60.500,46.500 60.460,46.500 60.000 C 46.500 59.556,46.556 59.500,47.000 59.500 C 47.444 59.500,47.500 59.444,47.500 59.000 C 47.500 58.556,47.556 58.500,48.000 58.500 C 48.444 58.500,48.500 58.444,48.500 58.000 C 48.500 57.556,48.556 57.500,49.000 57.500 C 49.444 57.500,49.500 57.444,49.500 57.000 C 49.500 56.556,49.556 56.500,50.000 56.500 C 50.472 56.500,50.500 56.463,50.500 55.835 C 50.500 55.158,50.888 54.500,51.287 54.500 C 51.456 54.500,51.500 53.287,51.500 48.652 L 51.500 42.804 51.000 42.616 C 50.500 42.427,50.500 42.426,50.500 41.058 C 50.500 39.503,50.311 38.840,49.831 38.714 C 49.551 38.641,49.500 38.486,49.500 37.701 C 49.500 36.871,49.447 36.730,48.988 36.345 C 48.527 35.959,48.482 35.837,48.530 35.109 L 48.583 34.301 49.032 34.655 C 49.370 34.922,49.494 35.184,49.532 35.713 L 49.583 36.417 50.546 36.467 L 51.508 36.517 51.462 33.550 L 51.417 30.583 50.966 30.531 C 50.543 30.482,50.513 30.423,50.466 29.531 C 50.419 28.635,50.392 28.580,49.958 28.531 C 49.563 28.485,49.501 28.405,49.511 27.947 C 49.521 27.430,49.525 27.427,49.685 27.827 C 49.964 28.525,50.644 28.689,51.152 28.181 C 51.483 27.850,51.500 27.661,51.500 24.246 L 51.500 20.658 51.000 20.558 C 50.514 20.461,50.500 20.432,50.500 19.494 C 50.500 18.627,50.449 18.487,50.000 18.109 C 49.664 17.827,49.499 17.534,49.498 17.219 C 49.494 16.444,49.327 16.053,48.903 15.826 C 48.633 15.681,48.500 15.465,48.500 15.170 C 48.500 14.876,48.337 14.609,48.010 14.367 C 47.623 14.081,47.509 13.855,47.468 13.294 C 47.422 12.658,47.369 12.578,46.958 12.531 C 46.521 12.480,46.500 12.437,46.500 11.568 C 46.500 10.691,46.482 10.655,46.000 10.558 C 45.573 10.473,45.500 10.382,45.498 9.938 C 45.494 9.026,45.327 8.667,44.908 8.667 C 44.593 8.667,44.511 8.565,44.469 8.125 C 44.425 7.674,44.340 7.575,43.958 7.531 C 43.541 7.483,43.500 7.417,43.500 6.789 C 43.500 6.253,43.544 6.144,43.700 6.300 C 43.810 6.410,44.035 6.500,44.200 6.500 C 44.402 6.500,44.500 6.625,44.500 6.885 C 44.500 7.120,44.695 7.415,45.000 7.640 C 45.355 7.903,45.500 8.150,45.500 8.491 C 45.500 9.214,45.662 9.500,46.071 9.500 C 46.384 9.500,46.462 9.630,46.595 10.375 C 46.712 11.037,46.841 11.290,47.125 11.415 C 47.364 11.520,47.500 11.724,47.500 11.980 C 47.500 12.206,47.713 12.584,47.989 12.848 C 48.294 13.139,48.497 13.521,48.530 13.866 C 48.575 14.327,48.658 14.425,49.042 14.469 C 49.468 14.519,49.500 14.576,49.503 15.303 C 49.506 16.395,49.633 16.530,50.599 16.469 L 51.417 16.417 51.460 8.208 L 51.503 0.000 41.085 0.000 C 30.701 0.000,30.667 0.001,30.667 0.341 C 30.667 0.858,31.401 1.500,31.992 1.500 C 32.445 1.500,32.500 1.554,32.500 2.000 C 32.500 2.444,32.556 2.500,33.000 2.500 C 33.420 2.500,33.500 2.565,33.500 2.911 C 33.500 3.159,33.732 3.554,34.083 3.906 C 34.404 4.226,34.667 4.603,34.667 4.743 C 34.667 4.883,34.822 5.092,35.012 5.207 C 35.202 5.322,35.461 5.660,35.587 5.958 C 35.733 6.303,35.933 6.500,36.137 6.500 C 36.361 6.500,36.489 6.652,36.558 7.000 C 36.637 7.393,36.746 7.500,37.068 7.500 C 37.391 7.500,37.489 7.597,37.531 7.958 C 37.572 8.318,37.682 8.428,38.042 8.469 C 38.423 8.513,38.500 8.603,38.500 9.000 C 38.500 9.708,38.794 10.354,39.159 10.450 C 39.355 10.501,39.501 10.707,39.532 10.975 C 39.571 11.311,39.688 11.429,40.021 11.467 C 40.397 11.511,40.472 11.616,40.552 12.216 C 40.615 12.683,40.783 13.026,41.058 13.249 C 41.285 13.433,41.496 13.771,41.527 14.000 C 41.569 14.308,41.698 14.430,42.021 14.467 C 42.411 14.513,42.472 14.610,42.570 15.349 C 42.657 16.007,42.763 16.218,43.081 16.363 C 43.328 16.475,43.502 16.713,43.533 16.981 C 43.572 17.317,43.688 17.429,44.042 17.469 C 44.453 17.517,44.500 17.588,44.500 18.163 C 44.500 18.962,43.561 18.821,43.466 18.008 C 43.428 17.684,43.308 17.571,42.958 17.531 C 42.547 17.483,42.500 17.412,42.500 16.836 C 42.500 15.939,42.360 15.667,41.899 15.667 C 41.566 15.667,41.500 15.583,41.500 15.162 C 41.500 14.738,41.423 14.643,41.009 14.560 C 40.634 14.485,40.506 14.358,40.468 14.023 C 40.429 13.689,40.312 13.571,39.979 13.533 C 39.589 13.487,39.528 13.390,39.431 12.659 C 39.340 11.967,39.257 11.821,38.911 11.734 C 38.596 11.655,38.500 11.521,38.500 11.162 C 38.500 10.779,38.411 10.674,38.010 10.586 C 37.636 10.503,37.508 10.372,37.468 10.031 C 37.428 9.685,37.315 9.572,36.968 9.532 C 36.622 9.492,36.508 9.378,36.468 9.032 C 36.428 8.682,36.315 8.572,35.958 8.531 C 35.574 8.486,35.500 8.398,35.500 7.989 C 35.500 7.557,35.442 7.500,35.000 7.500 C 34.593 7.500,34.500 7.430,34.498 7.125 C 34.494 6.457,34.313 6.045,33.935 5.843 C 33.732 5.734,33.482 5.425,33.380 5.156 C 33.262 4.844,33.077 4.667,32.869 4.667 C 32.639 4.667,32.512 4.518,32.442 4.167 C 32.364 3.778,32.253 3.667,31.942 3.667 C 31.631 3.667,31.519 3.556,31.442 3.167 C 31.364 2.778,31.253 2.667,30.942 2.667 C 30.631 2.667,30.519 2.556,30.442 2.167 C 30.361 1.764,30.257 1.667,29.905 1.667 C 29.623 1.667,29.441 1.559,29.389 1.362 C 29.287 0.972,28.490 0.500,27.933 0.500 C 27.659 0.500,27.500 0.408,27.500 0.250 C 27.500 0.031,26.509 0.000,19.583 0.000 C 11.719 0.000,11.667 0.002,11.667 0.341 M60.500 0.239 C 60.500 0.376,60.304 0.500,60.042 0.531 C 59.682 0.572,59.572 0.682,59.531 1.042 C 59.496 1.345,59.380 1.500,59.189 1.500 C 58.553 1.500,58.499 1.792,58.517 5.158 C 58.535 8.773,58.593 9.162,59.150 9.439 C 59.362 9.545,59.623 9.808,59.730 10.024 C 59.908 10.382,60.047 10.421,61.296 10.465 C 62.475 10.507,62.667 10.555,62.667 10.807 C 62.667 11.464,62.913 11.500,67.421 11.500 L 71.776 11.500 71.702 12.000 L 71.629 12.500 65.773 12.503 C 62.552 12.504,59.816 12.569,59.693 12.647 C 59.374 12.849,59.480 17.825,59.812 18.225 C 60.445 18.986,74.921 18.546,75.225 17.756 C 75.299 17.562,75.586 17.500,76.411 17.500 L 77.500 17.500 77.500 17.000 C 77.500 16.556,77.556 16.500,78.000 16.500 C 78.442 16.500,78.500 16.443,78.500 16.011 C 78.500 15.602,78.574 15.514,78.958 15.469 C 79.356 15.424,79.428 15.329,79.500 14.750 C 79.553 14.328,79.633 14.160,79.718 14.292 C 79.792 14.406,79.999 14.500,80.177 14.500 C 80.403 14.500,80.500 14.615,80.500 14.883 C 80.500 15.330,80.857 16.163,81.048 16.165 C 81.121 16.166,81.474 16.467,81.833 16.833 C 82.464 17.477,82.525 17.500,83.577 17.500 C 84.549 17.500,84.667 17.535,84.667 17.827 C 84.667 18.461,85.102 18.500,92.144 18.500 C 98.133 18.500,99.009 18.468,99.238 18.238 C 99.470 18.006,99.500 16.937,99.500 8.988 L 99.500 0.000 96.000 0.000 L 92.500 0.000 92.500 6.250 L 92.500 12.500 90.018 12.500 L 87.536 12.500 87.432 12.083 C 87.355 11.779,87.216 11.667,86.913 11.667 L 86.500 11.667 86.500 5.833 L 86.500 0.000 83.000 0.000 L 79.500 0.000 79.500 4.304 L 79.500 8.609 79.000 8.536 C 78.577 8.473,78.500 8.388,78.500 7.981 C 78.500 7.560,78.439 7.500,78.011 7.500 C 77.602 7.500,77.514 7.426,77.469 7.042 C 77.417 6.585,77.411 6.583,75.969 6.535 C 74.621 6.491,74.518 6.462,74.469 6.120 C 74.394 5.593,73.968 5.542,69.458 5.520 C 67.281 5.509,65.500 5.466,65.500 5.425 C 65.500 5.384,65.677 5.159,65.894 4.925 L 66.288 4.500 72.394 4.500 L 78.500 4.500 78.500 2.250 L 78.500 0.000 69.500 0.000 C 61.796 0.000,60.500 0.034,60.500 0.239 M100.500 8.558 C 100.500 19.310,100.201 18.500,104.167 18.500 C 107.586 18.500,107.500 18.596,107.500 14.812 L 107.500 12.500 112.000 12.500 C 114.889 12.500,116.500 12.440,116.500 12.333 C 116.500 12.242,116.610 12.167,116.744 12.167 C 116.878 12.167,117.069 12.017,117.167 11.833 C 117.292 11.600,117.516 11.500,117.915 11.500 C 118.610 11.500,119.333 11.191,119.333 10.894 C 119.333 10.774,119.558 10.559,119.833 10.417 C 120.108 10.274,120.333 10.048,120.333 9.912 C 120.333 9.777,120.408 9.667,120.500 9.667 C 120.592 9.667,120.667 9.895,120.667 10.174 C 120.667 10.493,120.821 10.836,121.083 11.098 C 121.433 11.449,121.500 11.672,121.500 12.497 C 121.500 13.674,121.723 14.336,122.159 14.450 C 122.355 14.501,122.501 14.707,122.532 14.975 C 122.571 15.314,122.687 15.429,123.032 15.468 C 123.378 15.508,123.492 15.622,123.532 15.968 C 123.574 16.336,123.678 16.426,124.108 16.468 C 124.460 16.502,124.660 16.625,124.717 16.841 C 124.833 17.285,125.497 17.500,126.753 17.500 C 127.475 17.500,127.860 17.573,127.950 17.727 C 128.360 18.428,128.938 18.500,134.123 18.500 L 139.096 18.500 139.881 17.758 C 140.313 17.350,140.671 17.106,140.675 17.216 C 140.680 17.327,140.988 17.660,141.360 17.958 L 142.036 18.500 144.506 18.500 C 147.749 18.500,147.500 18.813,147.500 14.738 L 147.500 11.500 149.500 11.500 L 151.500 11.500 151.500 12.178 C 151.500 13.012,151.744 13.500,152.161 13.500 C 152.383 13.500,152.494 13.638,152.531 13.958 C 152.572 14.318,152.682 14.428,153.042 14.469 C 153.441 14.515,153.500 14.595,153.500 15.084 C 153.500 15.910,153.771 16.500,154.151 16.500 C 154.384 16.500,154.493 16.632,154.531 16.958 L 154.583 17.417 158.550 17.461 L 162.517 17.506 162.467 16.545 C 162.419 15.634,162.392 15.581,161.958 15.531 C 161.566 15.485,161.500 15.402,161.498 14.947 C 161.494 14.018,161.329 13.667,160.897 13.667 C 160.566 13.667,160.500 13.583,160.500 13.162 C 160.500 12.736,160.423 12.643,160.000 12.558 C 159.611 12.480,159.500 12.370,159.500 12.057 C 159.500 11.837,159.389 11.614,159.254 11.562 C 159.038 11.479,159.038 11.438,159.254 11.222 C 159.389 11.087,159.500 10.869,159.500 10.738 C 159.500 10.585,159.678 10.500,160.000 10.500 C 160.444 10.500,160.500 10.444,160.500 10.000 C 160.500 9.556,160.556 9.500,161.000 9.500 C 161.477 9.500,161.500 9.468,161.500 8.790 C 161.500 8.204,161.587 8.008,162.000 7.667 C 162.765 7.034,162.774 4.011,162.013 3.232 C 161.709 2.921,161.506 2.517,161.471 2.159 C 161.425 1.675,161.345 1.575,160.968 1.532 C 160.622 1.492,160.508 1.378,160.468 1.032 C 160.428 0.682,160.315 0.572,159.958 0.531 C 159.696 0.500,159.500 0.376,159.500 0.239 C 159.500 0.033,157.150 0.000,142.500 0.000 C 127.500 0.000,125.500 0.029,125.500 0.250 C 125.500 0.435,125.307 0.500,124.762 0.500 C 124.010 0.500,123.500 0.806,123.500 1.259 C 123.500 1.388,123.320 1.539,123.099 1.594 C 122.675 1.701,122.506 2.082,122.502 2.940 C 122.500 3.403,122.435 3.475,121.927 3.570 C 120.796 3.783,120.522 3.587,120.466 2.526 C 120.420 1.641,120.389 1.580,119.968 1.532 C 119.622 1.492,119.508 1.378,119.468 1.032 C 119.428 0.682,119.315 0.572,118.958 0.531 C 118.696 0.500,118.500 0.376,118.500 0.239 C 118.500 0.034,117.204 0.000,109.500 0.000 L 100.500 0.000 100.500 8.558 M175.500 0.239 C 175.500 0.376,175.304 0.500,175.042 0.531 C 174.685 0.572,174.572 0.682,174.532 1.032 C 174.492 1.378,174.378 1.492,174.032 1.532 C 173.682 1.572,173.572 1.685,173.531 2.042 C 173.495 2.354,173.381 2.500,173.176 2.500 C 172.719 2.500,172.527 2.841,172.469 3.754 C 172.424 4.464,172.364 4.591,172.047 4.636 C 171.502 4.713,171.476 5.075,171.532 11.850 C 171.573 16.717,171.630 18.005,171.812 18.225 C 172.149 18.631,178.243 18.642,178.399 18.236 C 178.454 18.091,178.500 16.516,178.500 14.736 L 178.500 11.500 184.500 11.500 L 190.500 11.500 190.500 13.072 C 190.500 14.859,190.672 15.500,191.151 15.500 C 191.384 15.500,191.493 15.632,191.531 15.958 C 191.571 16.313,191.683 16.428,192.023 16.468 C 192.358 16.506,192.485 16.634,192.560 17.009 C 192.656 17.487,192.684 17.500,193.662 17.500 C 194.534 17.500,194.667 17.541,194.667 17.813 C 194.667 18.495,194.802 18.505,203.269 18.460 L 211.417 18.417 211.417 11.500 L 211.417 4.583 210.966 4.531 C 210.543 4.482,210.513 4.423,210.466 3.531 C 210.419 2.635,210.392 2.580,209.958 2.531 C 209.574 2.486,209.500 2.398,209.500 1.989 C 209.500 1.559,209.441 1.500,209.011 1.500 C 208.602 1.500,208.514 1.426,208.469 1.042 C 208.425 0.660,208.326 0.575,207.875 0.531 C 207.539 0.499,207.333 0.388,207.333 0.239 C 207.333 0.033,205.142 0.000,191.417 0.000 C 177.707 0.000,175.500 0.033,175.500 0.239 M212.500 9.050 C 212.500 15.867,212.549 18.149,212.700 18.300 C 213.037 18.637,219.268 18.578,219.399 18.236 C 219.454 18.091,219.500 14.941,219.500 11.236 L 219.500 4.500 220.500 4.500 L 221.500 4.500 221.502 11.042 C 221.504 15.978,221.557 17.686,221.716 18.000 L 221.926 18.417 225.213 18.462 L 228.500 18.507 228.500 11.504 L 228.500 4.500 229.245 4.500 C 229.880 4.500,230.045 4.574,230.360 5.000 C 230.574 5.290,230.882 5.500,231.094 5.500 C 231.365 5.500,231.484 5.627,231.558 6.000 C 231.638 6.396,231.745 6.500,232.077 6.500 L 232.496 6.500 232.540 12.458 L 232.583 18.417 235.543 18.462 L 238.503 18.508 238.460 10.546 L 238.417 2.583 237.958 2.531 C 237.615 2.491,237.499 2.386,237.498 2.114 C 237.492 1.149,236.862 0.500,235.933 0.500 C 235.659 0.500,235.500 0.408,235.500 0.250 C 235.500 0.030,234.111 0.000,224.000 0.000 L 212.500 0.000 212.500 9.050 M239.536 8.911 C 239.580 17.202,239.604 17.842,239.881 18.119 C 240.142 18.381,240.576 18.423,243.496 18.468 C 247.822 18.535,247.500 18.816,247.500 14.967 C 247.500 12.737,247.544 12.144,247.700 12.300 C 247.810 12.410,248.035 12.500,248.200 12.500 C 248.451 12.500,248.500 12.644,248.500 13.385 C 248.500 14.170,248.555 14.312,248.985 14.630 C 249.269 14.839,249.520 15.216,249.588 15.536 C 249.740 16.245,249.956 16.500,250.403 16.500 C 250.603 16.500,250.950 16.722,251.174 16.993 C 251.538 17.431,251.689 17.487,252.531 17.493 C 253.438 17.500,253.480 17.519,253.531 17.958 L 253.583 18.417 260.000 18.417 L 266.417 18.417 266.500 16.083 C 266.546 14.800,266.633 13.919,266.693 14.125 C 266.760 14.355,266.933 14.500,267.140 14.500 C 267.385 14.500,267.492 14.626,267.531 14.958 C 267.572 15.318,267.682 15.428,268.042 15.469 C 268.426 15.514,268.500 15.602,268.500 16.011 C 268.500 16.438,268.560 16.500,268.979 16.500 C 269.378 16.500,269.475 16.584,269.558 17.000 C 269.654 17.480,269.693 17.500,270.543 17.500 C 271.372 17.500,271.439 17.531,271.616 18.000 L 271.804 18.500 277.452 18.500 C 283.310 18.500,283.500 18.478,283.500 17.808 C 283.500 17.570,283.676 17.507,284.458 17.467 C 285.366 17.419,285.419 17.392,285.469 16.958 C 285.514 16.574,285.602 16.500,286.011 16.500 C 286.441 16.500,286.500 16.441,286.500 16.011 C 286.500 15.602,286.574 15.514,286.958 15.469 C 287.318 15.428,287.428 15.318,287.469 14.960 C 287.498 14.709,287.742 14.284,288.011 14.015 C 288.483 13.543,288.500 13.471,288.500 11.948 C 288.500 10.403,288.509 10.367,288.917 10.265 C 289.187 10.197,289.347 10.030,289.371 9.788 C 289.392 9.584,289.448 11.442,289.496 13.917 L 289.583 18.417 293.042 18.462 L 296.500 18.507 296.500 12.003 L 296.500 5.500 297.500 5.500 L 298.500 5.500 298.514 10.875 C 298.529 16.618,298.628 18.101,299.010 18.343 C 299.142 18.427,300.656 18.496,302.375 18.497 L 305.500 18.500 305.500 12.000 L 305.500 5.500 306.989 5.500 L 308.478 5.500 308.531 5.958 C 308.572 6.318,308.682 6.428,309.042 6.469 L 309.500 6.522 309.500 12.511 L 309.500 18.500 312.502 18.500 L 315.503 18.500 315.460 10.542 L 315.417 2.583 314.958 2.531 C 314.574 2.486,314.500 2.398,314.500 1.989 C 314.500 1.559,314.441 1.500,314.011 1.500 C 313.602 1.500,313.514 1.426,313.469 1.042 C 313.424 0.644,313.334 0.577,312.792 0.532 C 312.383 0.498,312.167 0.397,312.167 0.240 C 312.167 0.033,310.585 0.000,300.833 0.000 L 289.500 0.000 289.487 4.042 C 289.480 6.265,289.436 7.990,289.390 7.875 C 289.343 7.760,289.124 7.667,288.903 7.667 C 288.503 7.667,288.500 7.655,288.500 5.930 C 288.500 3.915,288.435 3.667,287.909 3.667 C 287.593 3.667,287.511 3.566,287.469 3.125 C 287.426 2.677,287.339 2.574,286.968 2.532 C 286.622 2.492,286.508 2.378,286.468 2.032 C 286.428 1.682,286.315 1.572,285.958 1.531 C 285.638 1.494,285.500 1.383,285.500 1.161 C 285.500 0.744,285.012 0.500,284.178 0.500 C 283.686 0.500,283.500 0.431,283.500 0.250 C 283.500 0.032,282.722 0.000,277.500 0.000 C 272.278 0.000,271.500 0.032,271.500 0.250 C 271.500 0.435,271.307 0.500,270.762 0.500 C 270.014 0.500,269.500 0.806,269.500 1.251 C 269.500 1.376,269.294 1.502,269.042 1.531 C 268.685 1.572,268.572 1.682,268.532 2.032 C 268.492 2.378,268.378 2.492,268.032 2.532 C 267.682 2.572,267.572 2.685,267.531 3.041 C 267.494 3.361,267.359 3.529,267.081 3.599 C 266.863 3.653,266.652 3.822,266.612 3.974 C 266.572 4.126,266.530 3.294,266.519 2.125 L 266.500 0.000 259.500 0.000 C 253.389 0.000,252.500 0.032,252.500 0.250 C 252.500 0.435,252.307 0.500,251.762 0.500 C 251.008 0.500,250.500 0.807,250.500 1.262 C 250.500 1.393,250.365 1.500,250.200 1.500 C 249.789 1.500,249.500 1.824,249.500 2.283 C 249.500 2.549,249.403 2.667,249.183 2.667 C 248.772 2.667,248.500 3.439,248.500 4.608 C 248.500 5.356,248.452 5.500,248.200 5.500 C 248.035 5.500,247.810 5.590,247.700 5.700 C 247.544 5.856,247.500 5.244,247.500 2.950 L 247.500 0.000 243.494 0.000 L 239.489 0.000 239.536 8.911 M42.500 4.019 C 42.500 4.284,42.575 4.500,42.667 4.500 C 42.758 4.500,42.833 4.610,42.833 4.744 C 42.833 4.878,42.983 5.069,43.167 5.167 C 43.734 5.470,43.596 5.841,43.000 5.616 C 42.610 5.468,42.500 5.325,42.500 4.963 C 42.500 4.709,42.412 4.500,42.305 4.500 C 42.003 4.500,41.500 3.981,41.500 3.670 C 41.500 3.455,41.615 3.408,42.000 3.464 C 42.423 3.527,42.500 3.612,42.500 4.019 M191.727 4.250 C 191.809 4.465,192.566 4.500,197.125 4.500 L 202.427 4.500 202.616 5.000 L 202.804 5.500 199.480 5.500 C 196.033 5.500,195.125 5.647,194.896 6.242 C 194.824 6.430,194.557 6.500,193.911 6.500 C 193.006 6.500,192.500 6.773,192.500 7.262 C 192.500 7.393,192.365 7.500,192.200 7.500 C 191.801 7.500,191.500 7.820,191.500 8.244 C 191.500 8.438,191.339 8.659,191.130 8.752 C 190.927 8.843,190.713 9.104,190.655 9.333 C 190.597 9.563,190.519 8.875,190.483 7.805 C 190.446 6.735,190.358 5.802,190.286 5.730 C 190.215 5.659,187.960 5.569,185.276 5.530 L 180.397 5.459 180.467 4.979 L 180.538 4.500 185.762 4.500 C 190.137 4.500,191.022 4.460,191.202 4.256 C 191.479 3.942,191.608 3.941,191.727 4.250 M140.500 5.199 C 140.500 6.130,140.477 6.199,140.264 5.907 C 140.040 5.600,139.750 5.581,134.764 5.533 C 131.596 5.503,129.500 5.420,129.500 5.325 C 129.500 5.238,129.610 5.167,129.744 5.167 C 129.878 5.167,130.069 5.017,130.167 4.833 C 130.339 4.511,130.516 4.500,135.339 4.500 C 138.558 4.500,140.333 4.441,140.333 4.333 C 140.333 4.242,140.371 4.167,140.417 4.167 C 140.462 4.167,140.500 4.631,140.500 5.199 M113.500 4.883 C 113.500 5.094,113.582 5.348,113.681 5.448 C 113.812 5.578,113.812 5.660,113.681 5.741 C 113.582 5.803,113.500 5.999,113.500 6.177 C 113.500 6.485,113.358 6.500,110.500 6.500 L 107.500 6.500 107.500 5.500 L 107.500 4.500 110.500 4.500 L 113.500 4.500 113.500 4.883 M154.500 5.500 L 154.500 6.500 151.000 6.500 L 147.500 6.500 147.500 5.500 L 147.500 4.500 151.000 4.500 L 154.500 4.500 154.500 5.500 M266.500 5.564 C 266.500 6.475,266.454 6.640,266.178 6.712 C 265.362 6.925,265.269 9.817,266.052 10.634 C 266.453 11.053,266.500 11.227,266.500 12.301 L 266.500 13.500 262.000 13.500 L 257.500 13.500 257.500 13.103 C 257.500 12.659,257.149 12.506,256.125 12.502 C 255.502 12.500,255.500 12.498,255.497 11.792 C 255.494 10.964,255.385 10.754,254.875 10.595 C 254.407 10.449,254.277 7.500,254.738 7.500 C 255.193 7.500,255.500 6.992,255.500 6.238 C 255.500 5.526,255.518 5.500,256.011 5.500 C 256.359 5.500,256.664 5.347,256.969 5.020 L 257.417 4.540 261.958 4.520 L 266.500 4.500 266.500 5.564 M279.833 4.731 C 279.833 5.048,280.564 5.500,281.077 5.500 C 281.470 5.500,281.500 5.556,281.500 6.280 C 281.500 7.261,281.809 8.137,282.200 8.261 C 282.586 8.383,282.631 9.627,282.254 9.771 C 281.950 9.888,281.500 10.762,281.500 11.236 C 281.500 11.429,281.350 11.680,281.167 11.795 C 280.983 11.909,280.833 12.111,280.833 12.244 C 280.833 12.386,280.600 12.529,280.264 12.592 C 279.848 12.670,279.668 12.806,279.594 13.099 C 279.420 13.793,275.739 13.713,275.026 13.000 C 274.687 12.661,274.360 12.500,274.013 12.500 C 273.508 12.500,273.500 12.487,273.500 11.658 C 273.500 10.872,273.467 10.804,273.000 10.642 L 272.500 10.467 272.500 8.995 L 272.500 7.522 272.958 7.469 C 273.392 7.419,273.419 7.366,273.467 6.458 C 273.516 5.520,273.527 5.500,274.008 5.500 C 274.444 5.500,274.500 5.443,274.500 5.000 L 274.500 4.500 277.167 4.500 C 279.328 4.500,279.833 4.544,279.833 4.731 M140.481 11.875 C 140.470 12.631,140.429 13.128,140.389 12.979 C 140.279 12.564,139.506 12.504,134.311 12.502 L 129.538 12.500 129.464 12.000 L 129.391 11.500 134.337 11.500 C 139.524 11.500,140.333 11.408,140.333 10.817 C 140.333 10.643,140.371 10.500,140.417 10.500 C 140.462 10.500,140.491 11.119,140.481 11.875 M204.500 12.000 L 204.500 12.500 201.500 12.500 L 198.500 12.500 198.500 12.000 L 198.500 11.500 201.500 11.500 L 204.500 11.500 204.500 12.000 M31.667 12.800 C 31.667 12.965,31.757 13.190,31.867 13.300 C 32.022 13.456,32.004 13.500,31.783 13.500 C 31.595 13.500,31.500 13.365,31.500 13.097 C 31.500 12.876,31.406 12.657,31.292 12.610 C 31.167 12.560,31.201 12.521,31.375 12.513 C 31.550 12.505,31.667 12.620,31.667 12.800 M32.667 13.741 C 32.667 13.873,32.833 14.098,33.037 14.241 L 33.408 14.500 32.973 14.500 C 32.617 14.500,32.524 14.409,32.464 14.000 C 32.424 13.725,32.453 13.500,32.529 13.500 C 32.605 13.500,32.667 13.608,32.667 13.741 M16.622 19.551 C 17.009 19.798,17.422 20.000,17.539 20.000 C 17.656 20.000,18.120 20.262,18.572 20.583 C 19.023 20.904,19.454 21.167,19.529 21.167 C 19.605 21.167,19.805 21.298,19.975 21.458 C 20.144 21.619,20.680 22.050,21.165 22.417 C 22.140 23.154,25.000 25.918,25.000 26.123 C 25.000 26.195,25.182 26.449,25.404 26.689 C 26.763 28.155,27.235 31.185,26.417 33.199 C 26.188 33.763,26.000 34.330,26.000 34.458 C 26.000 34.925,24.659 35.989,24.262 35.838 C 23.885 35.695,22.435 34.767,22.000 34.391 C 21.236 33.731,20.512 33.185,19.958 32.850 C 19.615 32.643,19.333 32.409,19.333 32.331 C 19.333 32.253,19.165 32.136,18.958 32.072 C 18.752 32.008,18.337 31.740,18.036 31.478 C 17.735 31.215,17.377 31.000,17.241 31.000 C 17.105 31.000,16.676 30.799,16.288 30.554 C 15.474 30.039,13.715 29.909,12.966 30.308 C 12.419 30.599,11.237 29.917,10.972 29.157 C 10.878 28.887,10.741 28.667,10.668 28.667 C 10.071 28.667,9.584 24.199,9.980 22.353 C 10.229 21.192,11.372 19.728,12.417 19.231 C 13.296 18.813,15.758 19.000,16.622 19.551 M45.175 19.500 C 45.403 19.500,45.500 19.614,45.500 19.883 C 45.500 20.435,45.868 21.152,46.208 21.261 C 46.493 21.354,46.623 21.669,46.375 21.664 C 45.792 21.654,45.500 21.426,45.500 20.981 C 45.500 20.716,45.412 20.500,45.305 20.500 C 44.918 20.500,44.500 19.943,44.505 19.433 C 44.509 19.001,44.538 18.965,44.680 19.208 C 44.773 19.369,44.996 19.500,45.175 19.500 M62.763 19.761 C 62.618 19.906,62.500 20.117,62.500 20.230 C 62.500 20.343,62.181 20.507,61.792 20.593 C 61.303 20.701,61.032 20.868,60.917 21.132 C 60.825 21.342,60.579 21.557,60.369 21.610 C 59.933 21.720,59.500 22.450,59.500 23.075 C 59.500 23.373,59.410 23.500,59.200 23.500 C 58.506 23.500,58.500 23.567,58.500 31.878 C 58.500 40.072,58.533 40.500,59.161 40.500 C 59.383 40.500,59.494 40.638,59.531 40.958 C 59.572 41.315,59.682 41.428,60.032 41.468 C 60.378 41.508,60.492 41.622,60.532 41.968 C 60.571 42.312,60.686 42.429,61.023 42.468 C 61.358 42.506,61.485 42.634,61.560 43.009 C 61.654 43.480,61.695 43.500,62.558 43.500 C 63.425 43.500,63.462 43.519,63.558 44.000 L 63.658 44.500 76.644 44.500 L 89.631 44.500 89.730 44.898 C 89.791 45.138,89.995 45.338,90.243 45.400 C 91.305 45.667,91.500 46.147,91.500 48.496 C 91.500 50.596,91.492 50.645,91.125 50.697 C 90.884 50.731,90.731 50.884,90.697 51.125 C 90.660 51.386,90.530 51.500,90.272 51.500 C 89.823 51.500,89.500 51.793,89.500 52.199 C 89.500 52.484,88.784 52.500,74.042 52.541 L 58.583 52.583 58.539 56.542 L 58.494 60.500 77.997 60.500 L 97.500 60.500 97.500 60.000 C 97.500 59.514,97.522 59.500,98.300 59.500 C 99.146 59.500,99.500 59.293,99.500 58.800 C 99.500 58.622,99.622 58.500,99.800 58.500 C 100.293 58.500,100.500 58.146,100.500 57.300 C 100.500 56.522,100.514 56.500,101.000 56.500 L 101.500 56.500 101.500 48.515 L 101.500 40.530 101.000 40.109 C 100.643 39.809,100.500 39.541,100.500 39.173 C 100.500 38.734,100.426 38.644,100.000 38.558 C 99.621 38.482,99.500 38.367,99.500 38.080 C 99.500 37.693,99.218 37.500,98.653 37.500 C 98.450 37.500,98.333 37.384,98.333 37.183 C 98.333 36.774,97.562 36.500,96.410 36.500 C 95.629 36.500,95.526 36.458,95.437 36.105 C 95.286 35.502,95.237 35.500,81.907 35.500 L 69.522 35.500 69.469 35.042 C 69.428 34.682,69.318 34.572,68.958 34.531 L 68.500 34.478 68.500 31.989 L 68.500 29.500 68.921 29.500 C 69.255 29.500,69.362 29.397,69.442 29.000 C 69.517 28.624,69.634 28.500,69.913 28.500 C 70.606 28.500,71.333 28.150,71.333 27.817 C 71.333 27.508,71.677 27.500,84.920 27.500 L 98.506 27.500 98.461 23.542 L 98.417 19.583 80.721 19.541 C 64.798 19.503,62.999 19.525,62.763 19.761 M140.611 19.611 C 140.550 19.672,140.500 22.369,140.500 25.605 L 140.500 31.487 139.042 31.535 L 137.583 31.583 137.539 35.542 L 137.494 39.500 138.997 39.500 L 140.500 39.500 140.500 48.892 C 140.500 58.605,140.540 59.218,141.181 59.421 C 141.356 59.477,141.500 59.652,141.500 59.811 C 141.500 60.489,141.619 60.500,149.203 60.500 L 156.506 60.500 156.461 56.542 L 156.417 52.583 153.458 52.538 L 150.500 52.492 150.500 45.996 L 150.500 39.500 153.738 39.500 C 156.460 39.500,157.018 39.458,157.238 39.238 C 157.476 39.000,157.500 39.703,157.500 46.974 C 157.500 55.517,157.499 55.500,158.093 55.500 C 158.451 55.500,158.487 55.579,158.533 56.458 C 158.580 57.360,158.610 57.420,159.032 57.468 C 159.378 57.508,159.492 57.622,159.532 57.968 C 159.572 58.315,159.685 58.428,160.032 58.468 C 160.378 58.508,160.492 58.622,160.532 58.968 C 160.571 59.308,160.694 59.435,161.048 59.499 C 161.324 59.549,161.597 59.752,161.720 60.000 L 161.926 60.417 176.213 60.459 L 190.500 60.502 190.500 56.501 L 190.500 52.500 180.417 52.500 C 172.317 52.500,170.333 52.458,170.333 52.286 C 170.333 51.991,169.458 51.500,168.933 51.500 C 168.563 51.500,168.500 51.427,168.500 51.000 L 168.500 50.500 170.392 50.500 L 172.283 50.500 172.667 50.000 C 173.046 49.505,173.066 49.500,174.667 49.500 C 176.267 49.500,176.287 49.495,176.667 49.000 C 177.046 48.505,177.066 48.500,178.667 48.500 C 180.267 48.500,180.287 48.495,180.667 48.000 C 181.048 47.503,181.059 47.500,182.735 47.500 C 184.405 47.500,184.424 47.495,184.833 47.000 C 185.231 46.519,185.298 46.500,186.611 46.500 C 188.008 46.500,188.500 46.301,188.500 45.738 C 188.500 45.585,188.678 45.500,189.000 45.500 C 189.444 45.500,189.500 45.444,189.500 45.000 C 189.500 44.556,189.556 44.500,190.000 44.500 L 190.500 44.500 190.500 40.079 L 190.500 35.658 190.000 35.558 C 189.587 35.476,189.500 35.377,189.500 34.990 C 189.500 34.224,189.214 33.667,188.822 33.667 C 188.620 33.667,188.435 33.536,188.389 33.362 C 188.287 32.972,187.490 32.500,186.933 32.500 C 186.584 32.500,186.500 32.420,186.500 32.091 C 186.500 31.481,186.512 31.481,173.859 31.535 L 162.302 31.583 161.936 32.042 C 161.735 32.294,161.449 32.500,161.299 32.500 C 160.778 32.500,160.500 32.705,160.500 33.090 C 160.500 33.389,160.395 33.490,160.042 33.531 C 159.682 33.572,159.572 33.682,159.531 34.042 C 159.496 34.345,159.380 34.500,159.189 34.500 C 158.707 34.500,158.500 34.860,158.500 35.700 C 158.500 36.282,158.435 36.500,158.262 36.500 C 158.131 36.500,157.906 36.618,157.762 36.762 C 157.524 37.000,157.500 36.806,157.500 34.627 C 157.500 31.347,157.800 31.596,153.764 31.529 L 150.500 31.475 150.500 25.487 L 150.500 19.500 145.611 19.500 C 142.922 19.500,140.672 19.550,140.611 19.611 M193.614 19.609 C 193.395 19.828,193.480 61.080,193.700 61.300 C 194.008 61.608,203.057 61.583,203.314 61.274 C 203.451 61.108,203.490 55.498,203.459 40.315 L 203.417 19.583 198.572 19.539 C 195.907 19.515,193.676 19.546,193.614 19.609 M205.975 19.606 C 205.824 19.649,205.657 19.849,205.603 20.051 C 205.416 20.747,205.488 60.280,205.677 60.777 C 205.949 61.493,205.960 61.495,210.800 61.497 C 215.704 61.500,216.180 61.426,216.393 60.632 C 216.566 59.986,216.511 20.109,216.337 19.833 C 216.182 19.589,206.760 19.382,205.975 19.606 M293.765 19.758 C 293.619 19.904,293.500 20.131,293.500 20.262 C 293.500 20.393,293.393 20.500,293.262 20.500 C 292.787 20.500,292.500 21.007,292.500 21.845 C 292.500 22.547,292.453 22.667,292.177 22.667 C 291.295 22.667,291.305 25.976,292.187 26.256 C 292.394 26.322,292.500 26.512,292.500 26.820 C 292.500 27.656,292.822 28.294,293.303 28.413 C 293.549 28.474,293.954 28.745,294.203 29.016 L 294.655 29.508 297.536 29.462 L 300.417 29.417 300.469 28.958 C 300.514 28.574,300.602 28.500,301.011 28.500 C 301.441 28.500,301.500 28.441,301.500 28.011 C 301.500 27.602,301.574 27.514,301.958 27.469 L 302.417 27.417 302.417 24.500 L 302.417 21.583 301.958 21.531 C 301.574 21.486,301.500 21.398,301.500 20.989 C 301.500 20.559,301.441 20.500,301.011 20.500 C 300.602 20.500,300.514 20.426,300.469 20.042 L 300.417 19.583 297.224 19.538 C 294.485 19.499,293.993 19.531,293.765 19.758 M47.500 23.073 C 47.500 23.574,47.467 23.604,47.000 23.536 C 46.563 23.471,46.500 23.394,46.500 22.927 C 46.500 22.426,46.533 22.396,47.000 22.464 C 47.437 22.529,47.500 22.606,47.500 23.073 M33.781 22.944 C 34.348 23.115,34.991 23.423,35.209 23.628 C 35.427 23.832,35.692 24.000,35.799 24.000 C 36.031 24.000,38.683 26.256,38.905 26.642 C 38.991 26.791,39.195 27.026,39.360 27.165 C 39.665 27.422,40.147 28.063,40.930 29.250 C 41.172 29.617,41.455 29.994,41.560 30.088 C 41.836 30.335,42.232 31.072,43.437 33.582 C 43.865 34.473,43.923 34.792,43.976 36.536 L 44.035 38.492 43.357 39.162 C 42.495 40.016,42.290 39.965,40.500 38.452 C 40.179 38.180,39.592 37.687,39.196 37.354 C 38.800 37.022,38.267 36.563,38.012 36.333 C 36.867 35.304,35.703 34.322,35.167 33.934 C 34.846 33.701,34.399 33.377,34.174 33.214 C 33.824 32.960,33.448 32.922,31.613 32.951 C 29.488 32.985,29.000 32.877,29.000 32.371 C 29.000 32.287,28.856 32.088,28.679 31.928 C 27.882 31.207,27.879 27.313,28.674 25.568 C 28.853 25.174,29.001 24.754,29.003 24.634 C 29.008 24.278,30.034 23.231,30.750 22.853 C 31.518 22.446,32.198 22.467,33.781 22.944 M48.497 24.792 C 48.496 24.972,48.448 25.013,48.372 24.900 C 48.305 24.799,48.137 24.674,48.000 24.621 C 47.833 24.558,47.874 24.522,48.125 24.513 C 48.377 24.504,48.499 24.596,48.497 24.792 M293.722 30.612 C 292.934 30.677,292.845 30.727,292.680 31.200 C 292.487 31.754,292.411 60.740,292.601 61.236 C 292.743 61.605,302.011 61.639,302.316 61.271 C 302.669 60.845,302.489 31.251,302.131 30.893 C 301.842 30.604,296.126 30.413,293.722 30.612 M47.200 31.500 C 47.365 31.500,47.500 31.571,47.500 31.658 C 47.500 31.754,47.304 31.748,47.000 31.642 C 46.725 31.546,46.500 31.385,46.500 31.284 C 46.500 31.159,46.564 31.164,46.700 31.300 C 46.810 31.410,47.035 31.500,47.200 31.500 M105.209 31.617 C 104.657 31.724,104.583 32.219,104.586 35.807 C 104.588 38.795,104.612 39.048,104.909 39.265 C 105.176 39.460,106.770 39.500,114.344 39.500 L 123.458 39.500 123.558 40.000 C 123.643 40.423,123.736 40.500,124.162 40.500 C 124.491 40.500,124.667 40.584,124.667 40.741 C 124.667 40.873,124.833 41.098,125.037 41.241 C 125.383 41.483,125.294 41.500,123.716 41.500 C 121.979 41.500,121.500 41.665,121.500 42.262 C 121.500 42.453,121.157 42.500,119.762 42.500 C 117.976 42.500,117.500 42.660,117.500 43.262 C 117.500 43.453,117.157 43.500,115.762 43.500 C 113.976 43.500,113.500 43.660,113.500 44.262 C 113.500 44.453,113.157 44.500,111.762 44.500 C 109.976 44.500,109.500 44.660,109.500 45.262 C 109.500 45.449,109.187 45.504,108.042 45.517 C 106.244 45.537,105.765 45.658,105.699 46.111 C 105.660 46.381,105.494 46.479,104.950 46.552 C 104.140 46.661,103.545 47.272,103.466 48.076 C 103.430 48.448,103.321 48.597,103.059 48.634 C 102.069 48.775,102.266 54.430,103.282 55.050 C 103.408 55.127,103.500 55.490,103.500 55.914 C 103.500 56.888,103.748 57.500,104.142 57.500 C 104.360 57.500,104.489 57.655,104.558 58.000 C 104.636 58.389,104.747 58.500,105.058 58.500 C 105.369 58.500,105.481 58.611,105.558 59.000 C 105.639 59.403,105.743 59.500,106.096 59.500 C 106.367 59.500,106.711 59.690,107.000 60.000 L 107.467 60.500 119.484 60.500 C 127.383 60.500,131.500 60.443,131.500 60.333 C 131.500 60.242,131.610 60.167,131.744 60.167 C 131.878 60.167,132.066 60.021,132.161 59.844 C 132.265 59.649,132.549 59.500,132.875 59.469 C 133.323 59.426,133.426 59.339,133.468 58.968 C 133.508 58.622,133.622 58.508,133.968 58.468 C 134.318 58.428,134.428 58.315,134.469 57.958 C 134.498 57.706,134.624 57.500,134.749 57.500 C 135.285 57.500,135.500 56.995,135.500 55.738 C 135.500 54.543,135.514 54.500,135.899 54.500 C 136.502 54.500,136.500 54.530,136.497 46.028 C 136.495 37.800,136.494 37.788,135.875 37.595 C 135.550 37.493,135.500 37.363,135.498 36.614 C 135.495 35.438,135.375 35.079,134.903 34.826 C 134.627 34.678,134.500 34.466,134.500 34.152 C 134.500 33.778,134.408 33.673,134.000 33.583 C 133.660 33.509,133.500 33.373,133.500 33.159 C 133.500 32.746,133.012 32.500,132.189 32.500 C 131.585 32.500,131.517 32.456,131.469 32.042 L 131.417 31.583 118.500 31.564 C 111.396 31.553,105.415 31.577,105.209 31.617 M219.705 31.639 C 219.542 31.743,219.504 32.649,219.538 35.595 L 219.583 39.417 228.641 39.460 C 237.328 39.501,237.702 39.516,237.780 39.814 C 237.874 40.174,238.498 40.500,239.091 40.500 C 239.333 40.500,239.500 40.597,239.500 40.736 C 239.500 40.866,239.546 41.091,239.601 41.236 C 239.689 41.464,239.508 41.500,238.274 41.500 C 236.911 41.500,236.821 41.523,236.333 42.000 C 235.842 42.480,235.762 42.500,234.333 42.500 C 232.904 42.500,232.824 42.520,232.333 43.000 C 231.842 43.480,231.762 43.500,230.333 43.500 C 228.904 43.500,228.824 43.520,228.333 44.000 C 227.842 44.480,227.762 44.500,226.333 44.500 C 224.904 44.500,224.824 44.520,224.333 45.000 C 223.847 45.475,223.753 45.500,222.423 45.500 C 220.991 45.500,220.500 45.695,220.500 46.262 C 220.500 46.419,220.316 46.501,219.958 46.502 C 219.021 46.506,218.693 46.668,218.580 47.184 C 218.510 47.501,218.369 47.667,218.170 47.667 C 217.641 47.667,217.500 48.545,217.500 51.845 C 217.500 55.307,217.531 55.500,218.093 55.500 C 218.451 55.500,218.487 55.579,218.533 56.458 C 218.580 57.360,218.610 57.420,219.032 57.468 C 219.378 57.508,219.492 57.622,219.532 57.968 C 219.572 58.315,219.685 58.428,220.032 58.468 C 220.378 58.508,220.492 58.622,220.532 58.968 C 220.571 59.308,220.694 59.435,221.048 59.499 C 221.324 59.549,221.597 59.752,221.720 60.000 L 221.926 60.417 234.213 60.459 L 246.500 60.502 246.500 60.001 C 246.500 59.520,246.529 59.500,247.238 59.500 C 247.992 59.500,248.500 59.193,248.500 58.738 C 248.500 58.607,248.607 58.500,248.738 58.500 C 249.191 58.500,249.500 57.992,249.500 57.249 C 249.500 56.580,249.536 56.518,249.958 56.469 L 250.417 56.417 250.460 46.458 C 250.483 40.981,250.536 36.500,250.577 36.500 C 250.857 36.500,251.500 37.423,251.500 37.823 C 251.500 38.121,251.687 38.498,252.000 38.833 C 252.301 39.155,252.500 39.549,252.500 39.820 C 252.500 40.128,252.659 40.388,253.000 40.640 C 253.402 40.938,253.500 41.133,253.500 41.640 C 253.500 42.145,253.598 42.343,253.990 42.633 C 254.377 42.919,254.491 43.145,254.532 43.706 C 254.578 44.339,254.633 44.422,255.034 44.469 C 255.457 44.518,255.487 44.577,255.534 45.469 C 255.580 46.360,255.610 46.420,256.034 46.469 C 256.457 46.518,256.487 46.577,256.534 47.469 C 256.580 48.360,256.610 48.420,257.034 48.469 C 257.457 48.518,257.487 48.577,257.534 49.469 C 257.580 50.360,257.610 50.420,258.034 50.469 C 258.457 50.518,258.487 50.577,258.534 51.469 C 258.580 52.360,258.610 52.420,259.034 52.469 C 259.457 52.518,259.487 52.577,259.534 53.469 C 259.581 54.365,259.608 54.420,260.042 54.469 C 260.463 54.518,260.500 54.580,260.500 55.247 C 260.500 56.229,260.630 56.500,261.101 56.500 C 261.456 56.500,261.500 56.574,261.500 57.178 C 261.500 58.006,261.743 58.500,262.152 58.500 C 262.359 58.500,262.491 58.662,262.558 59.000 C 262.635 59.382,262.749 59.500,263.043 59.500 C 263.317 59.500,263.481 59.644,263.616 60.000 C 263.791 60.465,263.863 60.500,264.652 60.500 C 265.357 60.500,265.500 60.550,265.500 60.800 C 265.500 61.463,265.745 61.500,270.106 61.500 C 274.456 61.500,275.134 61.412,275.286 60.831 C 275.350 60.583,275.514 60.500,275.936 60.500 C 276.452 60.500,276.500 60.457,276.500 60.000 C 276.500 59.553,276.554 59.500,277.013 59.500 C 277.703 59.500,278.500 58.709,278.500 58.024 C 278.500 57.600,278.572 57.514,278.958 57.469 C 279.392 57.420,279.419 57.365,279.466 56.469 C 279.513 55.577,279.543 55.518,279.966 55.469 C 280.391 55.420,280.420 55.361,280.467 54.458 C 280.516 53.520,280.527 53.500,281.008 53.500 C 281.498 53.500,281.500 53.496,281.500 52.500 L 281.500 51.500 282.000 51.500 L 282.500 51.500 282.500 50.500 L 282.500 49.500 283.000 49.500 L 283.500 49.500 283.500 48.500 L 283.500 47.500 284.000 47.500 L 284.500 47.500 284.500 46.500 L 284.500 45.500 285.000 45.500 L 285.500 45.500 285.500 44.500 L 285.500 43.500 286.000 43.500 C 286.472 43.500,286.500 43.463,286.500 42.835 C 286.500 42.158,286.888 41.500,287.287 41.500 C 287.424 41.500,287.500 41.264,287.500 40.835 C 287.500 40.158,287.888 39.500,288.287 39.500 C 288.424 39.500,288.500 39.263,288.500 38.833 C 288.500 38.376,288.573 38.167,288.731 38.167 C 289.087 38.167,289.500 37.410,289.500 36.756 C 289.500 36.365,289.578 36.167,289.731 36.167 C 290.062 36.167,290.500 35.427,290.500 34.866 C 290.500 34.519,290.613 34.335,290.908 34.201 C 291.364 33.993,291.558 33.317,291.470 32.243 L 291.417 31.583 286.333 31.534 C 279.479 31.468,279.500 31.463,279.500 33.192 C 279.500 33.547,279.420 33.667,279.183 33.667 C 278.830 33.667,278.500 34.404,278.500 35.192 C 278.500 35.551,278.421 35.667,278.177 35.667 C 277.756 35.667,277.672 35.822,277.554 36.821 C 277.473 37.499,277.392 37.658,277.103 37.700 C 276.819 37.740,276.716 37.929,276.574 38.666 C 276.449 39.319,276.315 39.598,276.107 39.638 C 275.768 39.704,275.500 40.309,275.500 41.008 C 275.500 41.382,275.408 41.517,275.099 41.594 C 274.673 41.701,274.506 42.082,274.502 42.955 C 274.500 43.384,274.418 43.514,274.099 43.594 C 273.672 43.701,273.506 44.082,273.502 44.958 C 273.501 45.316,273.419 45.500,273.262 45.500 C 272.807 45.500,272.500 46.008,272.500 46.762 C 272.500 47.290,272.432 47.500,272.262 47.500 C 271.807 47.500,271.500 48.008,271.500 48.762 C 271.500 49.362,271.444 49.500,271.200 49.500 C 270.784 49.500,270.500 49.825,270.500 50.301 C 270.500 50.599,270.432 50.676,270.236 50.601 C 270.091 50.546,269.866 50.500,269.736 50.500 C 269.561 50.500,269.500 50.263,269.500 49.579 C 269.500 48.689,269.483 48.655,269.000 48.558 C 268.520 48.462,268.500 48.423,268.500 47.576 C 268.500 46.731,268.479 46.688,268.000 46.583 C 267.526 46.479,267.500 46.431,267.500 45.639 C 267.500 44.865,267.464 44.791,267.000 44.616 C 266.539 44.442,266.500 44.364,266.500 43.616 C 266.500 42.867,266.461 42.790,266.000 42.616 C 265.539 42.442,265.500 42.363,265.500 41.621 C 265.500 40.876,265.463 40.803,265.000 40.642 C 264.553 40.486,264.500 40.393,264.497 39.775 C 264.494 38.964,264.384 38.753,263.875 38.595 C 263.571 38.500,263.500 38.356,263.500 37.836 C 263.500 36.939,263.360 36.667,262.899 36.667 C 262.538 36.667,262.500 36.596,262.500 35.930 C 262.500 34.937,262.371 34.667,261.899 34.667 C 261.544 34.667,261.500 34.593,261.500 33.989 C 261.500 33.154,261.256 32.667,260.838 32.667 C 260.602 32.667,260.508 32.528,260.469 32.125 L 260.417 31.583 255.037 31.539 C 250.028 31.498,249.650 31.516,249.547 31.789 C 249.485 31.951,249.334 32.186,249.210 32.311 C 249.020 32.503,249.025 32.585,249.242 32.825 C 249.386 32.983,249.500 33.410,249.500 33.787 C 249.500 34.311,249.614 34.587,250.005 35.005 C 250.583 35.624,250.580 35.669,249.978 35.553 C 249.611 35.482,249.525 35.359,249.449 34.789 C 249.398 34.416,249.238 34.043,249.091 33.961 C 248.945 33.879,248.533 33.517,248.176 33.156 C 247.700 32.675,247.389 32.500,247.013 32.500 C 246.584 32.500,246.500 32.435,246.500 32.103 C 246.500 31.832,246.381 31.674,246.125 31.605 C 245.555 31.452,219.948 31.486,219.705 31.639 M309.167 31.648 C 308.915 31.718,308.729 31.906,308.698 32.122 C 308.659 32.389,308.511 32.494,308.115 32.532 C 307.678 32.574,307.574 32.663,307.532 33.032 C 307.492 33.378,307.378 33.492,307.032 33.532 C 306.688 33.571,306.571 33.686,306.532 34.023 C 306.494 34.358,306.366 34.485,305.991 34.560 C 305.582 34.642,305.500 34.740,305.500 35.145 C 305.500 35.412,305.396 35.671,305.268 35.720 C 304.527 36.004,304.500 36.370,304.500 46.084 C 304.500 55.570,304.542 56.218,305.170 56.418 C 305.350 56.475,305.501 56.705,305.531 56.966 C 305.572 57.318,305.684 57.428,306.042 57.469 C 306.426 57.514,306.500 57.602,306.500 58.011 C 306.500 58.443,306.558 58.500,307.000 58.500 C 307.444 58.500,307.500 58.556,307.500 59.000 C 307.500 59.436,307.560 59.500,307.963 59.500 C 308.325 59.500,308.468 59.610,308.616 60.000 L 308.804 60.500 323.152 60.500 L 337.500 60.500 337.500 56.500 L 337.500 52.500 327.255 52.500 L 317.010 52.500 316.640 52.000 C 316.415 51.695,316.120 51.500,315.885 51.500 C 315.569 51.500,315.500 51.411,315.500 51.005 L 315.500 50.511 317.458 50.464 L 319.417 50.417 319.469 49.964 L 319.521 49.510 321.469 49.464 L 323.417 49.417 323.469 48.964 L 323.521 48.510 325.469 48.464 L 327.417 48.417 327.469 47.964 L 327.521 47.510 329.469 47.464 L 331.417 47.417 331.469 46.958 L 331.522 46.500 333.003 46.500 C 334.596 46.500,335.257 46.309,335.387 45.813 C 335.445 45.592,335.620 45.500,335.984 45.500 C 336.446 45.500,336.500 45.448,336.500 45.000 C 336.500 44.556,336.556 44.500,337.000 44.500 L 337.500 44.500 337.513 41.292 C 337.520 39.527,337.564 38.177,337.610 38.292 C 337.657 38.406,337.876 38.500,338.097 38.500 C 338.462 38.500,338.500 38.569,338.500 39.236 C 338.500 40.229,338.629 40.500,339.101 40.500 C 339.462 40.500,339.500 40.571,339.500 41.236 C 339.500 42.229,339.629 42.500,340.101 42.500 C 340.466 42.500,340.500 42.567,340.500 43.300 C 340.500 44.146,340.707 44.500,341.200 44.500 C 341.447 44.500,341.500 44.641,341.500 45.300 C 341.500 46.146,341.707 46.500,342.200 46.500 C 342.440 46.500,342.500 46.636,342.500 47.178 C 342.500 48.019,342.745 48.500,343.173 48.500 C 343.444 48.500,343.500 48.615,343.500 49.178 C 343.500 50.019,343.745 50.500,344.173 50.500 C 344.444 50.500,344.500 50.615,344.500 51.178 C 344.500 52.019,344.745 52.500,345.173 52.500 C 345.444 52.500,345.500 52.615,345.500 53.178 C 345.500 54.019,345.745 54.500,346.173 54.500 C 346.434 54.500,346.500 54.615,346.500 55.072 C 346.500 55.888,346.771 56.500,347.132 56.500 C 347.372 56.500,347.473 56.692,347.595 57.375 C 347.711 58.030,347.842 58.290,348.117 58.411 C 348.330 58.505,348.506 58.751,348.534 58.995 C 348.571 59.313,348.693 59.429,349.032 59.468 C 349.378 59.508,349.492 59.622,349.532 59.968 C 349.571 60.308,349.687 60.429,350.008 60.466 C 350.303 60.501,350.490 60.667,350.619 61.010 L 350.806 61.505 356.111 61.461 L 361.417 61.417 361.469 60.958 C 361.514 60.574,361.602 60.500,362.011 60.500 C 362.443 60.500,362.500 60.442,362.500 60.000 C 362.500 59.556,362.556 59.500,363.000 59.500 C 363.442 59.500,363.500 59.443,363.500 59.011 C 363.500 58.602,363.574 58.514,363.958 58.469 C 364.392 58.419,364.419 58.366,364.467 57.458 C 364.516 56.520,364.527 56.500,365.008 56.500 C 365.498 56.500,365.500 56.495,365.500 55.511 C 365.500 54.556,365.516 54.520,365.958 54.469 C 366.415 54.417,366.417 54.411,366.465 52.969 C 366.512 51.532,366.516 51.521,366.965 51.469 C 367.413 51.417,367.417 51.405,367.465 49.976 L 367.512 48.536 368.006 48.464 L 368.500 48.391 368.500 49.331 C 368.500 50.182,368.547 50.306,369.000 50.640 C 369.457 50.978,369.500 51.094,369.500 51.991 C 369.500 53.235,369.606 53.500,370.101 53.500 C 370.467 53.500,370.500 53.567,370.500 54.313 C 370.500 55.599,370.670 56.175,371.107 56.374 C 371.352 56.486,371.500 56.696,371.500 56.933 C 371.500 57.555,371.815 58.193,372.169 58.286 C 372.351 58.333,372.500 58.507,372.500 58.672 C 372.500 59.222,372.698 59.500,373.090 59.500 C 373.389 59.500,373.490 59.605,373.531 59.958 C 373.571 60.308,373.684 60.428,374.008 60.466 C 374.302 60.500,374.490 60.667,374.619 61.008 L 374.804 61.500 380.152 61.500 L 385.500 61.500 385.500 61.000 C 385.500 60.573,385.563 60.500,385.931 60.500 C 386.490 60.500,387.500 59.480,387.500 58.914 C 387.500 58.565,387.579 58.500,388.000 58.500 C 388.472 58.500,388.500 58.463,388.500 57.833 C 388.500 57.376,388.573 57.167,388.731 57.167 C 389.087 57.167,389.500 56.410,389.500 55.756 C 389.500 55.365,389.578 55.167,389.731 55.167 C 390.066 55.167,390.500 54.424,390.500 53.850 C 390.500 53.498,390.598 53.325,390.843 53.247 C 391.230 53.124,391.500 52.543,391.500 51.834 C 391.500 51.498,391.602 51.323,391.843 51.247 C 392.216 51.128,392.500 50.548,392.500 49.902 C 392.500 49.631,392.636 49.431,392.903 49.309 C 393.324 49.118,393.494 48.730,393.498 47.955 C 393.499 47.629,393.619 47.439,393.903 47.309 C 394.323 47.118,394.494 46.730,394.498 45.958 C 394.499 45.706,394.575 45.500,394.667 45.500 C 395.071 45.500,395.500 44.814,395.500 44.167 C 395.500 43.700,395.571 43.500,395.738 43.500 C 396.193 43.500,396.500 42.992,396.500 42.238 C 396.500 41.710,396.568 41.500,396.738 41.500 C 397.193 41.500,397.500 40.992,397.500 40.238 C 397.500 39.638,397.556 39.500,397.800 39.500 C 398.293 39.500,398.500 39.146,398.500 38.300 C 398.500 37.641,398.553 37.500,398.800 37.500 C 399.293 37.500,399.500 37.146,399.500 36.300 C 399.500 35.700,399.562 35.500,399.750 35.500 C 399.958 35.500,400.000 35.167,400.000 33.500 L 400.000 31.500 394.950 31.500 C 389.444 31.500,389.500 31.490,389.500 32.462 C 389.500 33.042,389.296 33.355,388.792 33.546 C 388.606 33.616,388.500 33.833,388.500 34.144 C 388.500 34.456,388.320 34.824,388.000 35.167 C 387.692 35.496,387.500 35.880,387.500 36.166 C 387.500 36.422,387.396 36.671,387.268 36.720 C 386.965 36.836,386.500 37.778,386.500 38.276 C 386.500 38.518,386.402 38.667,386.241 38.667 C 385.946 38.667,385.500 39.616,385.500 40.245 C 385.500 40.548,385.411 40.667,385.183 40.667 C 384.832 40.667,384.500 41.403,384.500 42.180 C 384.500 42.534,384.411 42.656,384.125 42.697 C 383.815 42.741,383.720 42.908,383.574 43.666 C 383.449 44.319,383.315 44.598,383.107 44.638 C 382.768 44.704,382.500 45.309,382.500 46.008 C 382.500 46.382,382.408 46.517,382.099 46.594 C 381.672 46.701,381.506 47.082,381.502 47.958 C 381.501 48.316,381.419 48.500,381.262 48.500 C 380.807 48.500,380.500 49.008,380.500 49.762 C 380.500 50.288,380.432 50.500,380.264 50.500 C 380.134 50.500,379.909 50.546,379.764 50.601 C 379.542 50.686,379.500 50.547,379.500 49.716 C 379.500 48.813,379.458 48.698,379.000 48.360 C 378.527 48.010,378.500 47.926,378.500 46.824 C 378.500 45.662,378.498 45.658,378.000 45.558 L 377.500 45.458 377.500 44.058 L 377.500 42.658 377.000 42.558 L 376.500 42.458 376.500 41.058 L 376.500 39.658 376.000 39.558 L 375.500 39.458 375.500 38.076 L 375.500 36.693 375.000 36.583 L 374.500 36.474 374.500 35.139 C 374.500 33.814,374.497 33.803,374.007 33.618 C 373.553 33.447,373.511 33.360,373.466 32.508 L 373.417 31.583 368.139 31.583 C 362.137 31.583,362.603 31.451,362.525 33.180 C 362.481 34.133,362.403 34.500,362.244 34.500 C 361.715 34.500,361.500 35.009,361.500 36.262 C 361.500 37.224,361.447 37.500,361.262 37.500 C 360.715 37.500,360.500 37.997,360.500 39.262 C 360.500 40.343,360.462 40.500,360.200 40.500 C 359.647 40.500,359.500 40.858,359.500 42.200 C 359.500 43.341,359.463 43.500,359.200 43.500 C 358.647 43.500,358.500 43.858,358.500 45.200 C 358.500 46.341,358.463 46.500,358.200 46.500 C 357.684 46.500,357.500 46.866,357.493 47.908 C 357.487 48.818,357.438 48.957,356.993 49.326 C 356.722 49.550,356.495 49.888,356.489 50.076 C 356.479 50.397,356.470 50.395,356.328 50.042 C 356.241 49.825,356.034 49.667,355.839 49.667 C 355.581 49.667,355.499 49.557,355.498 49.208 C 355.494 48.444,355.325 48.052,354.903 47.826 C 354.604 47.666,354.500 47.471,354.500 47.070 C 354.500 46.674,354.366 46.417,354.000 46.109 C 353.658 45.821,353.500 45.537,353.500 45.209 C 353.500 44.871,353.355 44.622,353.010 44.367 C 352.623 44.081,352.509 43.855,352.468 43.294 C 352.422 42.661,352.367 42.578,351.966 42.531 C 351.543 42.482,351.513 42.423,351.466 41.531 C 351.420 40.640,351.390 40.580,350.966 40.531 C 350.543 40.482,350.513 40.423,350.466 39.531 C 350.420 38.640,350.390 38.580,349.966 38.531 C 349.543 38.482,349.513 38.423,349.466 37.531 C 349.419 36.635,349.392 36.580,348.958 36.531 C 348.521 36.480,348.500 36.437,348.500 35.568 C 348.500 34.691,348.482 34.655,348.000 34.558 C 347.519 34.462,347.500 34.425,347.500 33.558 C 347.500 32.695,347.480 32.654,347.009 32.560 C 346.634 32.485,346.506 32.358,346.468 32.023 L 346.417 31.583 341.333 31.537 C 335.135 31.480,335.500 31.414,335.500 32.587 C 335.500 33.664,334.587 34.067,334.469 33.042 C 334.428 32.682,334.318 32.572,333.958 32.531 C 333.632 32.493,333.500 32.384,333.500 32.151 C 333.500 31.954,333.331 31.761,333.072 31.663 C 332.584 31.477,309.836 31.463,309.167 31.648 M48.178 33.420 C 48.369 33.481,48.498 33.670,48.495 33.886 C 48.490 34.213,48.473 34.221,48.320 33.958 C 48.227 33.798,48.004 33.667,47.825 33.667 C 47.558 33.667,47.502 33.555,47.513 33.042 C 47.526 32.433,47.531 32.428,47.691 32.867 C 47.782 33.115,48.001 33.364,48.178 33.420 M22.150 36.667 C 23.919 37.126,24.235 37.277,25.021 38.033 C 27.563 40.476,24.448 45.996,19.803 47.280 C 17.884 47.810,15.469 47.477,14.213 46.509 C 11.357 44.308,10.943 43.781,11.030 42.458 C 11.183 40.116,13.196 37.475,15.186 37.006 C 15.588 36.911,16.442 36.688,17.083 36.510 C 18.733 36.053,19.933 36.090,22.150 36.667 M178.375 39.832 C 178.077 40.013,177.833 40.238,177.833 40.331 C 177.833 40.432,177.250 40.500,176.375 40.501 C 174.921 40.501,173.833 40.857,173.833 41.331 C 173.833 41.433,173.240 41.500,172.344 41.500 C 170.675 41.500,170.009 41.681,169.881 42.169 C 169.805 42.459,169.652 42.500,168.647 42.500 L 167.500 42.500 167.500 42.011 C 167.500 41.602,167.574 41.514,167.958 41.469 C 168.392 41.419,168.419 41.366,168.467 40.458 L 168.517 39.500 173.717 39.501 L 178.917 39.501 178.375 39.832 M325.366 39.619 C 325.154 39.659,324.898 39.874,324.797 40.096 C 324.624 40.476,324.527 40.501,323.182 40.517 C 321.427 40.537,320.964 40.654,320.752 41.130 C 320.602 41.468,320.465 41.501,319.169 41.517 C 317.427 41.537,316.964 41.655,316.752 42.130 C 316.608 42.455,316.461 42.500,315.544 42.500 L 314.500 42.500 314.500 41.928 C 314.500 41.497,314.585 41.329,314.843 41.247 C 315.216 41.129,315.500 40.548,315.500 39.906 L 315.500 39.500 320.625 39.523 C 323.444 39.535,325.577 39.578,325.366 39.619 M39.557 40.197 C 39.776 40.318,40.325 40.616,40.776 40.860 C 43.837 42.514,44.049 45.751,41.271 48.416 C 40.497 49.159,39.258 49.973,38.722 50.091 C 38.462 50.148,37.903 50.336,37.478 50.510 C 35.862 51.171,34.803 51.120,32.360 50.263 C 30.039 49.449,28.000 47.307,28.000 45.681 C 28.000 44.334,29.122 42.497,31.060 40.673 C 31.922 39.861,38.298 39.504,39.557 40.197 M125.500 50.762 C 125.500 52.612,125.824 52.502,120.387 52.487 C 117.837 52.480,115.849 52.434,115.969 52.386 C 116.090 52.338,116.257 52.119,116.340 51.899 C 116.485 51.517,116.559 51.500,118.066 51.500 C 119.882 51.500,120.137 51.432,120.342 50.894 C 120.486 50.516,120.559 50.500,122.163 50.500 C 123.840 50.500,124.500 50.265,124.500 49.667 C 124.500 49.575,124.725 49.500,125.000 49.500 L 125.500 49.500 125.500 50.762 M240.466 50.542 C 240.422 51.463,240.375 51.589,240.057 51.635 C 239.839 51.666,239.658 51.845,239.596 52.093 L 239.494 52.500 234.997 52.500 C 232.524 52.500,230.500 52.466,230.500 52.425 C 230.500 51.829,231.350 51.500,232.894 51.500 C 233.854 51.500,234.500 51.433,234.500 51.333 C 234.500 51.242,234.610 51.167,234.744 51.167 C 234.878 51.167,235.069 51.017,235.167 50.833 C 235.326 50.536,235.516 50.500,236.923 50.500 C 237.863 50.500,238.500 50.433,238.500 50.333 C 238.500 50.242,238.610 50.167,238.744 50.167 C 238.878 50.167,239.069 50.017,239.167 49.833 C 239.293 49.597,239.516 49.500,239.930 49.500 L 240.516 49.500 240.466 50.542 " stroke="none" fill="#ffffff" fill-rule="evenodd"></path><path id="path1" d="M30.750 22.853 C 30.034 23.231,29.008 24.278,29.003 24.634 C 29.001 24.754,28.853 25.174,28.674 25.568 C 27.879 27.313,27.882 31.207,28.679 31.928 C 28.856 32.088,29.000 32.287,29.000 32.371 C 29.000 32.877,29.488 32.985,31.613 32.951 C 33.448 32.922,33.824 32.960,34.174 33.214 C 34.399 33.377,34.846 33.701,35.167 33.934 C 35.703 34.322,36.867 35.304,38.012 36.333 C 38.267 36.563,38.800 37.022,39.196 37.354 C 39.592 37.687,40.179 38.180,40.500 38.452 C 42.290 39.965,42.495 40.016,43.357 39.162 L 44.035 38.492 43.976 36.536 C 43.923 34.792,43.865 34.473,43.437 33.582 C 42.232 31.072,41.836 30.335,41.560 30.088 C 41.455 29.994,41.172 29.617,40.930 29.250 C 40.147 28.063,39.665 27.422,39.360 27.165 C 39.195 27.026,38.991 26.791,38.905 26.642 C 38.683 26.256,36.031 24.000,35.799 24.000 C 35.692 24.000,35.427 23.832,35.209 23.628 C 34.293 22.767,31.747 22.325,30.750 22.853 " stroke="none" fill="#ec1c23" fill-rule="evenodd"></path><path id="path2" d="M12.417 19.231 C 11.372 19.728,10.229 21.192,9.980 22.353 C 9.584 24.199,10.071 28.667,10.668 28.667 C 10.741 28.667,10.878 28.887,10.972 29.157 C 11.237 29.917,12.419 30.599,12.966 30.308 C 13.715 29.909,15.474 30.039,16.288 30.554 C 16.676 30.799,17.105 31.000,17.241 31.000 C 17.377 31.000,17.735 31.215,18.036 31.478 C 18.337 31.740,18.752 32.008,18.958 32.072 C 19.165 32.136,19.333 32.253,19.333 32.331 C 19.333 32.409,19.615 32.643,19.958 32.850 C 20.512 33.185,21.236 33.731,22.000 34.391 C 22.435 34.767,23.885 35.695,24.262 35.838 C 24.659 35.989,26.000 34.925,26.000 34.458 C 26.000 34.330,26.188 33.763,26.417 33.199 C 27.235 31.185,26.763 28.155,25.404 26.689 C 25.182 26.449,25.000 26.195,25.000 26.123 C 25.000 25.918,22.140 23.154,21.165 22.417 C 20.680 22.050,20.144 21.619,19.975 21.458 C 19.805 21.298,19.605 21.167,19.529 21.167 C 19.454 21.167,19.023 20.904,18.572 20.583 C 18.120 20.262,17.656 20.000,17.539 20.000 C 17.422 20.000,17.009 19.798,16.622 19.551 C 15.758 19.000,13.296 18.813,12.417 19.231 M17.002 36.522 C 16.316 36.706,15.722 36.889,15.683 36.928 C 15.538 37.074,16.106 36.990,16.901 36.748 C 18.075 36.392,20.474 36.434,21.989 36.837 C 22.670 37.018,23.350 37.167,23.500 37.167 C 25.030 37.167,26.037 39.761,25.317 41.844 C 25.124 42.400,25.001 42.890,25.043 42.932 C 25.220 43.109,25.833 40.978,25.833 40.183 C 25.833 39.018,25.534 38.453,24.389 37.455 C 23.277 36.487,19.099 35.959,17.002 36.522 M14.564 37.211 C 13.176 38.020,12.354 38.850,11.738 40.065 C 11.510 40.513,11.356 40.911,11.395 40.950 C 11.434 40.989,11.660 40.623,11.897 40.136 C 12.550 38.795,13.932 37.528,15.140 37.163 C 15.479 37.060,15.505 37.026,15.250 37.017 C 15.067 37.010,14.758 37.098,14.564 37.211 M11.105 41.542 C 10.698 43.059,11.105 43.955,12.910 45.513 C 13.499 46.023,13.535 46.035,13.243 45.629 C 13.063 45.379,12.785 45.131,12.625 45.076 C 12.465 45.022,12.333 44.918,12.333 44.845 C 12.333 44.773,12.062 44.425,11.730 44.074 C 11.135 43.442,11.128 43.419,11.208 42.300 C 11.293 41.104,11.270 40.928,11.105 41.542 M24.833 43.353 C 24.833 43.554,24.193 44.358,23.202 45.401 L 22.583 46.053 23.250 45.500 C 23.617 45.195,24.029 44.782,24.167 44.582 C 24.304 44.381,24.548 44.088,24.708 43.930 C 24.976 43.666,25.113 43.167,24.917 43.167 C 24.871 43.167,24.833 43.251,24.833 43.353 M14.250 46.500 C 14.596 46.775,15.000 46.994,15.148 46.986 C 15.316 46.978,15.256 46.900,14.986 46.778 C 14.749 46.671,14.425 46.452,14.266 46.292 C 14.107 46.131,13.896 46.000,13.799 46.000 C 13.701 46.000,13.904 46.225,14.250 46.500 M21.839 46.328 C 21.631 46.509,21.314 46.703,21.134 46.760 C 20.955 46.817,20.845 46.900,20.890 46.945 C 20.935 46.990,21.147 46.935,21.361 46.822 C 21.918 46.528,22.574 46.000,22.381 46.000 C 22.291 46.000,22.047 46.148,21.839 46.328 M16.083 47.257 C 17.260 47.684,18.318 47.714,19.500 47.355 C 20.799 46.960,20.676 46.932,18.971 47.232 C 17.891 47.422,17.554 47.422,16.809 47.229 C 15.662 46.931,15.232 46.948,16.083 47.257 " stroke="none" fill="#27aae0" fill-rule="evenodd"></path><path id="path3" d="M16.143 36.915 C 13.251 37.675,11.419 39.691,11.212 42.342 C 11.123 43.476,11.258 43.743,12.504 44.917 C 12.601 45.008,12.878 45.290,13.118 45.542 C 13.358 45.794,13.652 46.000,13.771 46.000 C 13.890 46.000,14.121 46.140,14.285 46.312 C 15.560 47.645,20.604 47.587,21.967 46.224 C 22.090 46.101,22.279 45.999,22.387 45.999 C 22.495 45.998,22.862 45.717,23.202 45.374 C 25.173 43.386,26.124 40.635,25.422 38.954 C 25.150 38.305,23.927 37.167,23.500 37.167 C 23.350 37.167,22.670 37.018,21.989 36.837 C 20.285 36.384,18.048 36.414,16.143 36.915 M33.045 39.978 C 31.409 40.118,30.184 41.064,28.957 43.139 C 27.825 45.052,27.717 45.915,28.458 47.115 C 30.310 50.113,34.555 51.703,37.499 50.501 C 37.912 50.332,38.462 50.148,38.722 50.091 C 39.250 49.974,40.476 49.161,41.282 48.392 C 44.041 45.759,43.824 42.506,40.779 40.862 C 40.326 40.617,39.776 40.318,39.557 40.197 C 39.082 39.936,35.108 39.802,33.045 39.978 M39.017 40.703 C 39.106 40.861,39.494 41.074,39.881 41.176 C 40.656 41.380,41.150 41.774,42.254 43.066 C 42.848 43.760,42.854 45.416,42.265 46.052 C 42.044 46.290,41.812 46.718,41.749 47.003 C 41.680 47.320,41.492 47.575,41.264 47.661 C 41.059 47.739,40.764 47.997,40.609 48.235 C 40.453 48.472,40.194 48.667,40.034 48.667 C 39.874 48.667,39.482 48.878,39.163 49.136 C 37.768 50.267,32.420 50.238,31.276 49.094 C 31.041 48.859,30.781 48.667,30.698 48.667 C 30.477 48.667,29.333 47.554,29.333 47.339 C 29.333 47.238,29.141 46.776,28.906 46.311 C 28.537 45.584,28.509 45.429,28.707 45.192 C 28.998 44.842,29.333 44.060,29.333 43.732 C 29.333 43.592,29.518 43.277,29.745 43.031 C 32.201 40.357,32.214 40.352,36.137 40.390 C 38.519 40.413,38.877 40.452,39.017 40.703 " stroke="none" fill="#8dc53e" fill-rule="evenodd"></path><path id="path4" d="M32.914 40.473 C 32.361 40.594,31.347 41.306,30.622 42.083 C 29.470 43.318,29.333 43.493,29.333 43.732 C 29.333 44.060,28.998 44.842,28.707 45.192 C 28.509 45.429,28.537 45.584,28.906 46.311 C 29.141 46.776,29.333 47.238,29.333 47.339 C 29.333 47.554,30.477 48.667,30.698 48.667 C 30.781 48.667,31.041 48.859,31.276 49.094 C 32.420 50.238,37.768 50.267,39.163 49.136 C 39.482 48.878,39.874 48.667,40.034 48.667 C 40.194 48.667,40.453 48.472,40.609 48.235 C 40.764 47.997,41.059 47.739,41.264 47.661 C 41.492 47.575,41.680 47.320,41.749 47.003 C 41.812 46.718,42.044 46.290,42.265 46.052 C 42.854 45.416,42.848 43.760,42.254 43.066 C 41.150 41.774,40.656 41.380,39.881 41.176 C 39.494 41.074,39.106 40.861,39.017 40.703 C 38.847 40.399,34.077 40.219,32.914 40.473 " stroke="none" fill="#ffde16" fill-rule="evenodd"></path></g></svg>