<?xml version="1.0" encoding="UTF-8" standalone="no"?>
<svg
   xmlns:dc="http://purl.org/dc/elements/1.1/"
   xmlns:cc="http://creativecommons.org/ns#"
   xmlns:rdf="http://www.w3.org/1999/02/22-rdf-syntax-ns#"
   xmlns:svg="http://www.w3.org/2000/svg"
   xmlns="http://www.w3.org/2000/svg"
   xmlns:sodipodi="http://sodipodi.sourceforge.net/DTD/sodipodi-0.dtd"
   xmlns:inkscape="http://www.inkscape.org/namespaces/inkscape"
   version="1.1"
   id="Layer_1"
   x="0px"
   y="0px"
   viewBox="0 0 3839 501.2"
   style="enable-background:new 0 0 3839 501.2;"
   xml:space="preserve"
   sodipodi:docname="logo.svg"
   inkscape:version="1.0.2 (e86c870879, 2021-01-15)"><metadata
   id="metadata36"><rdf:RDF><cc:Work
       rdf:about=""><dc:format>image/svg+xml</dc:format><dc:type
         rdf:resource="http://purl.org/dc/dcmitype/StillImage" /><dc:title></dc:title></cc:Work></rdf:RDF></metadata><defs
   id="defs34" /><sodipodi:namedview
   pagecolor="#ffffff"
   bordercolor="#666666"
   borderopacity="1"
   objecttolerance="10"
   gridtolerance="10"
   guidetolerance="10"
   inkscape:pageopacity="0"
   inkscape:pageshadow="2"
   inkscape:window-width="1350"
   inkscape:window-height="580"
   id="namedview32"
   showgrid="false"
   inkscape:zoom="0.34488148"
   inkscape:cx="2713.6237"
   inkscape:cy="250.60001"
   inkscape:window-x="208"
   inkscape:window-y="98"
   inkscape:window-maximized="0"
   inkscape:current-layer="g29"
   inkscape:document-rotation="0" />
<style
   type="text/css"
   id="style2">
	.st0{fill:#FF001F;}
	.st1{fill:url(#SVGID_1_);}
	.st2{fill:url(#SVGID_00000130606512212214315220000008846499915659980450_);}
	.st3{clip-path:url(#SVGID_00000140736035392270600020000013711345569853377666_);}
	.st4{fill:url(#SVGID_00000119832586673770508320000013100347455236559295_);}
	.st5{fill:url(#SVGID_00000086676042941363961300000007836202702428108215_);}
	.st6{fill:url(#SVGID_00000138566712955593781750000007796203761371047098_);}
	.st7{fill:#FFFFFF;}
</style>
<g
   id="g29">
	
	
	<g
   id="g883"><g
     id="g865"><g
       id="g8"
       style="fill:#e6e6e6">
		<path
   d="M 3128.5,181.7 C 3128.3,118.5 3077.1,67.4 3013.9,67.4 h -206.9 -58.7 -46 v 432.9 h 46 58.7 207.5 c 63.4,0 114.8,-51.5 114.6,-114.9 z M 2807,395.6 V 172.1 h 184 c 18.6,0 33.7,15.1 33.7,33.7 V 362 c 0,18.6 -15.1,33.7 -33.7,33.7 h -184 z"
   id="path4"
   style="fill:#e6e6e6" />
		<path
   d="m 2673.1,230.6 -0.4,-50.5 C 2672.2,117.2 2621.1,66.4 2558.2,66.4 h -197.3 c -63.3,0 -114.5,51.3 -114.5,114.5 v 203.9 c 0,63.3 51.3,114.5 114.5,114.5 h 197.7 c 63.3,0 114.5,-51.3 114.5,-114.5 v -49.6 h -104.7 v 25.9 c 0,18.6 -15,33.6 -33.6,33.6 h -150.1 c -18.6,0 -33.6,-15 -33.6,-33.6 V 204.7 c 0,-18.6 15,-33.6 33.6,-33.6 h 150.1 c 18.6,0 33.6,15 33.6,33.6 v 25.9 z"
   id="path6"
   style="fill:#e6e6e6" />
	</g></g><g
     id="g16"
     style="fill:#ff0000">
		<g
   id="g14"
   style="fill:#ff0000">
			<path
   class="st0"
   d="m 3481.5,228.7 c -5.6,23.3 -26.1,34.6 -48.2,39 -20.1,4 -41,5.2 -61.5,5.6 -25.7,0.8 -51,1.2 -76.8,1.2 -31.3,0 -88.8,1.6 -113.7,-20.5 -19.7,-17.7 -17.7,-55.1 -17.7,-79.2 h 78 v 4.8 c 0,8.8 -1.2,20.1 6.4,26.5 6.8,5.6 28.9,4.8 37.4,4.8 12.5,0 25.3,0.4 37.8,0.4 14.5,0 28.9,-0.4 43.4,-0.8 20.5,-0.4 39,0.8 39,-23.7 0,-4.4 0,-10 -2.8,-13.7 -5.6,-8.8 -27.3,-8 -36.2,-8.4 -26.1,-0.8 -51.8,-1.2 -78,-0.8 v -57.5 h 61.9 c 11.3,0 24.9,0 36.2,-2.8 11.3,-2.8 13.7,-10 13.7,-20.9 0,-5.6 -0.8,-10.8 -5.2,-14.9 -8.4,-7.6 -65.5,-6 -77.6,-6 -12.5,0 -24.9,0.4 -37.4,0.4 -9.6,0 -24.9,-0.4 -32.6,6.4 -6.8,6 -5.2,19.7 -5.2,28.1 h -78 V 82.8 c 0,-12.5 0.4,-25.7 3.6,-37.8 6.4,-23.7 28.1,-34.6 50.6,-38.6 C 3255.4,0 3298,0 3335.3,0 c 16.9,0 33.4,0 50.2,0.8 26.1,0.8 58.3,1.2 78.4,20.9 14.1,13.7 15.7,36.6 15.7,55.1 0,34.6 -9.2,49.4 -43.8,56.7 7.2,2 14.9,3.2 21.7,6 26.1,10 27.3,34.2 27.3,58.7 -0.1,10 -0.9,20.4 -3.3,30.5 z"
   id="path10"
   style="fill:#ff0000" />
			<path
   class="st0"
   d="m 3519.2,271.2 c 0,-10.4 -0.8,-21.3 -0.8,-31.7 0,-21.7 -0.4,-43.4 3.2,-64.7 7.2,-44.6 45.8,-50.2 84.4,-53.4 l 101.3,-8 c 12.9,-1.2 26.9,-1.2 39.4,-5.6 11.7,-4 11.7,-10.8 11.7,-22.1 0,-7.6 0,-16.1 -6.8,-20.9 -10,-7.6 -53.4,-5.6 -65.1,-5.6 -24.5,0 -51,-1.2 -75.5,2.8 -18.5,2.8 -16.5,16.1 -16.5,32.1 v 8.8 h -79.2 V 92 c 0,-22.1 0.4,-52.6 16.9,-69.9 C 3550.6,2.8 3591.6,2 3616.1,0.8 3633.4,0 3650.6,0 3667.9,0 h 7.6 l 66.3,0.4 c 25.7,0 58.7,0.4 78,20.1 14.9,15.3 14.9,45.8 14.9,65.5 0,20.1 -0.4,41.4 -11.7,59.1 -14.9,23.7 -57.1,26.9 -82,28.5 -19.3,1.2 -38.2,2.4 -57.5,3.6 -15.3,0.8 -30.5,2 -45.8,3.2 -6.8,0.4 -24.1,1.6 -30.5,4 -12.9,4.8 -12.9,13.7 -12.9,25.3 H 3839 v 61.5 z"
   id="path12"
   style="fill:#ff0000" />
		</g>
	</g><g
     id="g27"
     style="fill:#ff0000">
		<g
   id="g25"
   style="fill:#ff0000">
			<g
   id="g23"
   style="fill:#ff0000">
				<path
   id="path6187_25_"
   class="st0"
   d="m 436.1,477.8 c -0.1,-5 -1.5,-8.4 -4.2,-10.2 -2.7,-1.7 -6.4,-2.8 -11.1,-3.3 -15.7,-2.6 -25.1,-8.6 -28.1,-18 -3,-9.5 -4.5,-21.6 -4.3,-36.4 L 372.5,104.7 c 0.1,-11 -1,-20.2 -3.1,-27.6 -2.1,-7.4 -9.2,-11.3 -21.4,-11.5 -11.1,0.3 -19.2,3.5 -24.2,9.7 -5.1,6.2 -10.2,13.5 -15.5,22.1 l -195.7,275.3 -33,46.5 c -6.5,9.9 -13.6,19.1 -21.3,27.7 -7.7,8.5 -17.5,13.8 -29.5,15.7 -6.8,0.6 -13.2,1.9 -19.2,4 -6,2.1 -9.2,7.1 -9.6,15 0.2,4.7 1.8,7.8 5,9.2 3.1,1.4 6.8,2 10.9,1.8 11.3,-0.2 22.8,-0.8 34.3,-1.8 11.6,-1.1 23.2,-1.7 34.8,-1.8 10.4,0.1 20.8,0.6 31.2,1.5 10.4,0.9 20.8,1.4 31.2,1.5 4.8,0.1 9.2,-1 13.2,-3.1 4,-2.2 6.1,-5.8 6.3,-10.9 -0.7,-7.6 -5.3,-11.9 -13.8,-13.2 -8.5,-1.3 -17.1,-2.9 -25.6,-5 -8.5,-2.1 -13.1,-8.3 -13.8,-18.5 1.5,-10.9 8.7,-26.5 21.6,-46.7 12.8,-20.2 22.2,-34.4 28,-42.6 h 122.3 c 0.7,12.9 1.3,25.8 2,38.8 0.7,13 1,26 1.1,38.8 -0.7,17.9 -5.4,28.5 -14.1,31.6 -8.7,3.1 -17.5,4.8 -26.2,5.2 -8.7,0.4 -13.4,5.5 -14.1,15.2 0.1,4.2 1.4,7.1 4,8.7 2.5,1.6 5.7,2.4 9.5,2.3 16.8,-0.2 33.8,-0.8 50.8,-1.8 17,-1.1 33.9,-1.7 50.8,-1.8 11.3,0.1 22.6,0.5 33.9,1.2 11.3,0.7 22.6,1.1 33.9,1.2 5.1,0.2 9.5,-0.6 13.2,-2.4 3.6,-1.8 5.5,-5.5 5.7,-11.2 z M 285.1,321.9 H 183 L 280.2,180 Z"
   style="fill:#ff0000" />
				<path
   id="path4766_25_"
   class="st0"
   d="m 1321.2,89.5 c -0.1,-3.7 -1.3,-6.4 -3.6,-8.3 -2.3,-1.8 -5.2,-2.8 -8.6,-2.8 -5.5,0 -10.9,0.3 -16.2,0.8 -5.3,0.5 -10.7,1 -16.2,1.7 -13.5,1.5 -27.2,2.4 -41.1,2.7 -13.9,0.3 -27.7,0.4 -41.5,0.4 -10.1,-0.1 -20.2,-0.5 -30.3,-1.2 -10.1,-0.7 -20.2,-1.1 -30.3,-1.2 -4.8,0 -9.1,1.4 -12.9,4.1 -3.8,2.7 -5.8,6.6 -6,11.9 1.7,9.2 8.7,13.6 20.8,13 12.1,-0.6 19.1,4.7 20.8,15.7 -0.1,3.1 -0.4,6.2 -1.1,9.5 -0.7,3.2 -1.6,6.4 -2.5,9.5 l -77.1,267.3 c -2.9,12.5 -6.2,23.3 -9.9,32.5 -3.6,9.2 -12,15.3 -25,18.3 -6,0.9 -13,2.3 -21,4.4 -8,2 -12.4,6.7 -13.2,14 0.2,4.2 1.8,7.2 4.9,9 3.1,1.8 6.5,2.7 10.4,2.6 13.2,-0.2 26.4,-1 39.8,-2.4 13.4,-1.4 26.8,-2.2 40.3,-2.4 14.4,0.1 28.9,0.6 43.4,1.5 14.6,0.9 29,1.4 43.4,1.5 5.9,0.4 12.7,0.2 20.4,-0.8 7.7,-0.9 11.9,-5.2 12.6,-12.7 -0.6,-7.8 -4.5,-12 -11.9,-12.5 -7.4,-0.5 -14.7,-1.7 -22.1,-3.5 -7.4,-1.9 -11.3,-8.7 -11.9,-20.7 0.1,-4.9 0.7,-9.9 1.9,-15 1.2,-5.1 2.6,-10.1 4.2,-15 l 77.1,-268.5 c 2.8,-11 6.2,-19.1 10.1,-24.1 3.9,-5 11.5,-8.6 22.9,-10.8 5.8,-0.7 12,-2.3 18.6,-4.8 6.6,-2.6 10.2,-7.1 10.8,-13.7 z"
   style="fill:#ff0000" />
				<path
   id="path4768_25_"
   class="st0"
   d="m 1723.5,92.6 c -0.9,-6.6 -7.6,-11.3 -20.1,-14 -12.5,-2.8 -25.7,-4.4 -39.5,-4.9 -13.8,-0.5 -23.1,-0.7 -27.8,-0.6 -51.1,0.1 -104.6,10.5 -160.5,31.1 -55.9,20.6 -103.5,50.8 -142.9,90.5 -39.4,39.7 -60,88.3 -61.8,145.7 0.7,36.5 11.3,66.6 31.6,90.4 20.3,23.8 46,41.5 77,53.1 31,11.6 62.9,17.4 95.6,17.4 20,0 40,-1.2 60.1,-3.6 20.1,-2.4 39.8,-5.9 59.2,-10.5 7.4,-1.5 13.7,-3.4 19,-5.7 5.3,-2.3 9.4,-7.1 12.2,-14.4 5.4,-15.3 10.2,-30.8 14.4,-46.6 4.2,-15.7 8.6,-31.4 13.1,-47 7.4,-22.3 16.1,-35.3 26.2,-39.2 10.1,-3.9 19.1,-5.7 26.9,-5.5 7.8,0.2 11.9,-4.7 12.3,-14.7 -0.2,-4.2 -1.8,-7.2 -4.9,-9 -3.1,-1.8 -6.6,-2.7 -10.4,-2.6 -15.3,0.2 -30.6,0.9 -45.9,2.1 -15.4,1.2 -30.8,2 -46.4,2.1 -14.7,-0.2 -29.4,-0.8 -44,-1.8 -14.7,-1.1 -29.4,-1.7 -44,-1.8 -4.9,-0.1 -9.6,0.8 -14.1,2.7 -4.5,1.9 -6.9,5.7 -7.3,11.4 0.6,6.9 4.7,10.8 12.2,11.5 7.6,0.8 15.1,2.3 22.7,4.5 7.6,2.2 11.6,8.9 12.2,20.1 -0.7,11.5 -4.2,27.2 -10.6,47.2 -6.4,20 -11.6,36.1 -15.7,48.2 -2.4,9.4 -5.6,16 -9.6,20 -4,3.9 -11,5.8 -21,5.7 -35.8,-0.8 -62.9,-12.4 -81.3,-34.8 -18.3,-22.4 -27.5,-51 -27.6,-85.7 0.3,-32 6.9,-63 19.9,-93.1 13,-30.1 30.6,-56.6 52.9,-79.4 22,-22.1 49.2,-41 81.6,-56.7 32.4,-15.7 64.3,-23.9 95.8,-24.6 15,-0.2 24.2,2.8 27.6,8.7 3.4,6 4.8,15.9 4.2,29.8 -0.1,3.7 -0.3,7.3 -0.6,11 -0.4,3.7 -0.6,7.3 -0.6,11 -0.2,6.1 0.8,11.6 3,16.6 2.2,5 6.7,7.6 13.5,7.9 7.5,-0.6 13,-4.3 16.6,-11.2 3.6,-6.9 6.2,-13.6 7.9,-20 1.6,-4.7 5,-15 10.2,-31 5.1,-16.2 8.1,-26.2 8.7,-30.3 z"
   style="fill:#ff0000" />
				<path
   id="path4770_25_"
   class="st0"
   d="m 2074.2,477.8 c -0.1,-5 -1.5,-8.4 -4.2,-10.2 -2.7,-1.7 -6.4,-2.8 -11.1,-3.3 -15.7,-2.6 -25.1,-8.6 -28.1,-18 -3,-9.5 -4.5,-21.6 -4.3,-36.4 l -15.9,-305.2 c 0.1,-11 -1,-20.2 -3.1,-27.6 -2.1,-7.4 -9.2,-11.3 -21.4,-11.5 -11.1,0.3 -19.2,3.5 -24.2,9.7 -5.1,6.2 -10.2,13.5 -15.5,22.1 l -195.7,275.2 -33,46.5 c -6.5,9.9 -13.6,19.1 -21.3,27.7 -7.7,8.5 -17.5,13.8 -29.5,15.7 -6.8,0.6 -13.2,1.9 -19.2,4 -6,2.1 -9.2,7.1 -9.6,15 0.2,4.7 1.8,7.8 5,9.2 3.1,1.4 6.8,2 10.9,1.8 11.3,-0.2 22.8,-0.8 34.3,-1.8 11.6,-1.1 23.2,-1.7 34.8,-1.8 10.4,0.1 20.8,0.6 31.2,1.5 10.4,0.9 20.8,1.4 31.2,1.5 4.8,0.1 9.2,-1 13.2,-3.1 4,-2.2 6.1,-5.8 6.3,-10.9 -0.7,-7.6 -5.3,-11.9 -13.8,-13.2 -8.5,-1.3 -17.1,-2.9 -25.6,-5 -8.5,-2.1 -13.1,-8.3 -13.8,-18.5 1.5,-10.9 8.7,-26.5 21.6,-46.7 12.8,-20.2 22.2,-34.4 28,-42.6 h 122.3 c 0.7,12.9 1.3,25.8 2,38.8 0.7,13 1,26 1.1,38.8 -0.7,17.9 -5.4,28.5 -14.1,31.6 -8.7,3.1 -17.5,4.8 -26.2,5.2 -8.7,0.4 -13.4,5.5 -14.1,15.2 0.1,4.2 1.4,7.1 4,8.7 2.5,1.6 5.7,2.4 9.5,2.3 16.8,-0.2 33.8,-0.8 50.8,-1.8 17,-1.1 33.9,-1.7 50.8,-1.8 11.3,0.1 22.6,0.5 33.9,1.2 11.3,0.7 22.6,1.1 33.9,1.2 5.1,0.2 9.5,-0.6 13.2,-2.4 3.6,-1.7 5.5,-5.4 5.7,-11.1 z M 1923.1,321.9 H 1821 L 1918.3,180 Z"
   style="fill:#ff0000" />
				<path
   id="path4764_25_"
   class="st0"
   d="m 1062.1,92 c -0.1,-3.9 -1.3,-6.8 -3.7,-8.5 -2.4,-1.7 -5.4,-2.6 -9.2,-2.5 -12.9,0.1 -25.8,0.4 -38.8,0.9 -13,0.5 -26,0.8 -38.8,0.9 -6.8,-0.3 -17,-0.7 -30.7,-1.1 -13.6,-0.4 -22.8,1.2 -27.4,4.8 -0.9,1.3 -1.7,2.7 -2.4,4.3 -0.7,1.6 -1.6,3 -2.4,4.3 L 740.3,349.5 733.6,99.3 c 0.3,-4.8 0.1,-8.9 -0.5,-12.3 -0.7,-3.5 -3.8,-5.3 -9.3,-5.4 -14.1,0.1 -28.3,0.4 -42.5,0.8 -14.2,0.4 -28.4,0.4 -42.5,-0.2 -8,-0.4 -15.9,-0.9 -23.8,-1.5 -7.9,-0.6 -15.7,-0.9 -23.3,-1 -5.2,-0.2 -10.2,0.5 -15,2.1 -4.8,1.6 -7.3,5.4 -7.6,11.3 1.9,9.7 9.7,14.5 23.2,14.4 13.6,-0.1 21.3,4.7 23.2,14.4 -0.2,6.8 -1.6,13.8 -4.2,20.9 -2.6,7.1 -5.1,13.8 -7.4,20 -14.9,41.3 -29.8,82.7 -44.6,124.1 -14.8,41.4 -30.1,82.6 -45.9,123.6 -6,17.5 -11.8,29.8 -17.5,36.8 -5.7,7 -17.8,12.1 -36.3,15.2 -5.1,0.8 -9.6,2.3 -13.5,4.6 -3.9,2.3 -5.9,6.3 -6.1,11.9 0.2,5 2,8.3 5.4,9.7 3.4,1.4 7.3,2.1 11.8,1.9 10.7,-0.1 21.5,-0.4 32.4,-0.9 10.9,-0.5 21.7,-0.8 32.4,-0.9 10.1,0.1 20,0.6 29.9,1.5 9.8,0.9 19.7,1.4 29.4,1.5 4.6,0 8.9,-1.1 13,-3.4 4.1,-2.3 6.3,-6.1 6.6,-11.2 -0.7,-8.6 -5.4,-13.2 -14.3,-13.8 -8.8,-0.6 -17.7,-2 -26.5,-4.3 -8.8,-2.2 -13.6,-10.1 -14.3,-23.6 0.9,-19.3 7.7,-47.9 20.4,-85.9 12.7,-38 26.2,-74.8 40.3,-110.5 14.1,-35.7 23.6,-59.7 28.6,-72.1 l 6.7,291.1 c -0.2,9 0.8,16.1 2.8,21.3 2.1,5.2 8,7.9 18,8 10.1,-0.4 18,-3.9 23.8,-10.5 5.7,-6.6 11.1,-13.9 16,-21.9 L 898.1,166.9 833.3,410.3 c -2,10.5 -4.9,21 -8.8,31.7 -3.9,10.6 -11.6,17.2 -23,19.7 -6.6,0.5 -13.9,1.5 -22.1,3.2 -8.2,1.7 -12.6,6.7 -13.4,15.1 0.1,4.5 1.7,7.7 4.7,9.6 3,1.8 6.5,2.7 10.6,2.7 14.1,-0.2 28.3,-1 42.5,-2.4 14.2,-1.4 28.4,-2.2 42.5,-2.4 14.7,0.2 29.4,1 44,2.4 14.7,1.4 29.4,2.2 44,2.4 5.4,0.2 10.3,-0.8 14.6,-2.8 4.3,-2 6.6,-6 6.8,-11.9 -0.5,-7.4 -4.2,-11.6 -11.1,-12.8 -6.9,-1.1 -13.7,-2.8 -20.6,-4.9 -6.9,-2.1 -10.6,-8.3 -11.1,-18.5 0.1,-7.4 1,-14.9 2.6,-22.6 1.6,-7.6 3.4,-15 5.4,-22.1 l 62.4,-250.2 c 2.2,-11 5,-19.6 8.5,-25.8 3.5,-6.2 11,-10 22.7,-11.5 6.2,-0.4 12.3,-1.6 18.1,-3.8 5.9,-1.7 9,-6.3 9.5,-13.4 z"
   style="fill:#ff0000" />
			</g>
		</g>
	</g></g>
</g>
</svg>
